<svg xmlns="http://www.w3.org/2000/svg" viewBox="0 0 116.213 44.043">
  <defs>
    <style>
      .cls-1 {
        fill: #fff;
      }

      .cls-2 {
        fill: #8ec13f;
      }

      .cls-3 {
        fill: #286e37;
      }

      .cls-4 {
        fill: #034ea2;
      }
    </style>
  </defs>
  <g id="Group_1535" data-name="Group 1535" transform="translate(0 -0.095)">
    <path id="Path_7127" data-name="Path 7127" class="cls-1" d="M47.479,15.7v-.076c-.459-2.447-1.758-3.9-3.364-3.9h-.382a1.864,1.864,0,0,1-1.606-.917,23.9,23.9,0,0,0-3.67-4.74A21.006,21.006,0,0,0,24.7.1h-.841A22.939,22.939,0,0,0,12.309,3,23.069,23.069,0,0,0,0,22.577V24.03a26.021,26.021,0,0,0,.612,4.052v.076c.153.994.765,3.364,2.676,3.9a2.117,2.117,0,0,0,.688.076h.306a1.864,1.864,0,0,1,1.606.917,23.463,23.463,0,0,0,4.282,5.428,20.892,20.892,0,0,0,13.839,5.658h.306a24.3,24.3,0,0,0,16.82-6.728,22.365,22.365,0,0,0,7.11-16.285A20.176,20.176,0,0,0,47.479,15.7Z"/>
    <path id="Path_7128" data-name="Path 7128" class="cls-2" d="M27.385,29.4l.535.153-.076-.382-.153-.306-.535-.841-.229-1.07-.765-.229-.306-.535-.229-.765-.306-.306s.153-.535.153-.612.229-.535.229-.612.153.153.153.153l.153-.076.535.076.229.535.688.535.382.765.612-.994,1.223-.306-.229-1.758L28,21.83l.153-.841.994-.917.229.765-.306.382.841.306.535-.382-.382-.612L30.673,20l2.447-1.3.688-2.217-.994-1.758V13.8l-1.07-.229.612-.841.153.459,1.07-.153.076.535.382.229.382.994.535-.153.306-.688-.917-.841.229-.841.765-.382-.382-1.758.765.994.994,1.682.076,1.529-.612-.076-.765.917.917,1.376.076-.917.688-.612.841-.306.076-.765-.841-1.3.153-.841-.229-1.3-.229.917-.459-.076-.535-1.07L34.5,9.215h-1.07l-.382-.841,1.3-.153L36.254,9.75l.153-.229.841.153c-6.422-4.817-11.7-4.205-15.521-3.517C17.9,6.921,9.953,10.591,7.736,19.69s3.211,13.456,3.211,13.456l-.229-.841a9.128,9.128,0,0,1-.612-1.223c-.076-.153-.459-1.07-.459-1.07l-.306.459s-1.07-2.829-1.07-2.905-.229-1.835-.229-1.835.382-.841.459-1.07.229-.994.306-1.147a7.128,7.128,0,0,0,.153-1.07H8.195a4.3,4.3,0,0,1-.153-.765c0-.153.841-.306.841-.306s.765-.459,1.07-.612a4.2,4.2,0,0,0,.841-.841l.688-.994-.382-.612-.153-.765h.382l.382.306,1.529.153.306.612v.612l.306.688.688.076-.076.688.153,1.606.535,1.758v.612l.459.688.612-.229.306.076-.076.688.076.459h.765l.459-.535-.841-1.223.306-.688-.076-1.529.612-.153,2.141-1.606.153-.535.841-.229.994-.229.076.535.229.535.841.688-.076.765.076.612h.459l.841-.688.229.535s-.076.688-.076.841.382.459.382.459l-.153.382-.229.459.153,1.223.535.229.382.841.153.765.459.382A6.151,6.151,0,0,1,27.385,29.4" transform="translate(-1.696 -1.318)"/>
    <path id="Path_7129" data-name="Path 7129" class="cls-2" d="M37.786,39.323a4.874,4.874,0,0,0,.688.153c.153,0,.688-.076.688-.076l-.306-.382.994-.153-.153.382.612-.153.765-.612,1.07-.306.535-.612s-.994.306-1.07.306a7.936,7.936,0,0,0-.994.306s-1.3.459-1.453.535-2.217.153-2.217.153-.765-.153-.917-.153-1.223-.076-1.376-.076-1.223-.153-1.223-.153a3.237,3.237,0,0,1-.382-.535c0-.076.382-.459.382-.459l-.229-.459-.459.229c-.153.076-.382-.306-.382-.306l-.229-.535h0a6.151,6.151,0,0,0-1.223-1.223l.076.076-.382.153-.765-.612-.994-.612H28v.306l1.223.841.153.535.765.612.612,1.07,1.758.994.382.382,2.141.459Z" transform="translate(-6.592 -8.03)"/>
    <path id="Path_7130" data-name="Path 7130" class="cls-2" d="M42.24,30.658l.229-.688s.153.688.382.765.688-.153.688-.153l.382-.765s-.076-1.07-.229-1.147-.382-.994-.535-.994a4.146,4.146,0,0,1-.841-.459s-.612-.229-.459-.459a1.178,1.178,0,0,0,.153-.841C41.934,25.765,41.4,25,41.4,25s-.765.382-.765.535.076.841.076.994a7.4,7.4,0,0,1,.229.841l.765.229.153.535.688.229-.688.612.535.229-.459.382-.306.535a1.369,1.369,0,0,1-.382.459c-.153.153-.688.153-.688.153l-.382-.459.306-.612c.076-.153.306-1.07.306-1.07s-.612.229-.612.459-.535.917-.535.917l-.153.917s-.994.841-1.07.917l-.688.688-.688.153a1.118,1.118,0,0,0-.382.229,5.63,5.63,0,0,1-.459.382l.076.841.612.612-.076.459,1.223-.153.459.229.917-.459.076-.765.688-.229L40.1,33.1l.382-.076L40.252,31.8l1.147-.535Z" transform="translate(-8.523 -5.864)"/>
    <path id="Path_7131" data-name="Path 7131" class="cls-2" d="M50.656,31.5a14.462,14.462,0,0,1-.382,1.758,2.37,2.37,0,0,1-.535-.153l-.459,1.3-.612-.076L47.216,34.1s-.459.076-.459.153a3,3,0,0,1-.306.688s-.076-.765-.229-.688a5.692,5.692,0,0,1-1.147,0l-.153-1.147s-.535.535-.535.841a6.553,6.553,0,0,0,.229.994l-.459.459-.459-.459h-.765l.229-.382.765-.765-.765.153s-.076.459-.153.459a4.375,4.375,0,0,1-1.07-.076s-.612.382-.612.535c-.076.153,0,.688-.076.765-.076.153-.306.153-.306.459,0,.229.076.765.076.765l.306.459.382-.688.535.306.612-.306-.229-.688s-.306-.306-.153-.382.612-.229.688-.153c.153.076.306.535.306.535l.765-.229.917-.382h.765c.153,0,.535-.076.612.076s-.306.535-.306.535v.459l.459.153.612-.382-.076.917-.382.994-.612.841-.841-.382.382-.459.229-.535a8.335,8.335,0,0,0-1.3.076,3.388,3.388,0,0,0-.535.688l-.612.994-.459.229a10.131,10.131,0,0,1-1.3,1.223,1.54,1.54,0,0,0-.459.153l-.382.765-2.905,1.223-.535.841.306,1.223-.612.382.917.153,3.67-1.376.994-.382-.076.459h0l.153.535,3.058-2.217L47.751,40.6l.153-.841h-.229l.306-2.982.688-1.147.306.688.765-.459-.459-.382.382-.765.459-.765a7.4,7.4,0,0,0,.153.917c0-.229.765-3.211.765-3.211Z" transform="translate(-8.758 -7.394)"/>
    <path id="Path_7132" data-name="Path 7132" class="cls-3" d="M45.2,20.368a17.769,17.769,0,0,1,.765,5.352c0,10.7-9.1,19.343-20.414,19.343,0,0-7.34-.076-12.462-4.664S5.667,28.7,6.661,23.426c0,0-2.905,9.251,6.04,18.044a19.229,19.229,0,0,0,12.768,5.2C37.7,46.822,48.1,37.035,48.1,25.184a18.861,18.861,0,0,0-.765-5.123s-.612-3.135-2.141-2.676c-1.07.306,0,2.982,0,2.982" transform="translate(-1.462 -4.06)"/>
    <path id="Path_7133" data-name="Path 7133" class="cls-3" d="M25.186,3.624s7.34.229,12.386,4.97,7.11,11.851,5.964,17.126c0,0,3.135-9.175-5.658-18.12A19.4,19.4,0,0,0,25.186,2.1C12.953,1.636,2.4,11.193,2.1,23.044a19.751,19.751,0,0,0,.612,5.2S3.243,31.378,4.772,31c1.147-.306.153-2.982.153-2.982a20.54,20.54,0,0,1-.688-5.352c.306-10.78,9.633-19.267,20.949-19.038" transform="translate(-0.491 -0.467)"/>
    <path id="Path_7134" data-name="Path 7134" class="cls-1" d="M130.528,7.952l-.382-1.682-.382-.994-.612-.917-.765-.765-1.376-.917-1.529-.612-2.294-.535L116.231,1.3a1.875,1.875,0,0,0-1.223.459,1.736,1.736,0,0,0-1.223-.459H100.175a5.334,5.334,0,0,0-4.587,2.676L90.924,12.31V12.08a1.778,1.778,0,0,0-1.758-1.758H81.6a5.287,5.287,0,0,0-3.976,1.835l.459-5.123A5.025,5.025,0,0,0,73.492,1.3H65.158a1.639,1.639,0,0,0-1.453.841L61.029,6.575a1.8,1.8,0,0,0,0,1.758,1.836,1.836,0,0,0,1.529.917h6.269L67.069,27.524a1.484,1.484,0,0,0,.382,1.223,1.8,1.8,0,0,0-.535,1.223V41.439A1.778,1.778,0,0,0,68.675,43.2h6.269a1.453,1.453,0,0,0,.994-.382,1.61,1.61,0,0,0,.994.382h1.147a1.778,1.778,0,0,0,1.758-1.758V37.005l3.67,5.428a1.74,1.74,0,0,0,1.453.765h1.223a1.556,1.556,0,0,0,1.147-.459,1.556,1.556,0,0,0,1.147.459h6.269a1.453,1.453,0,0,0,.994-.382,1.61,1.61,0,0,0,.994.382h1.147a1.778,1.778,0,0,0,1.758-1.758V39.834l1.911,2.6a1.635,1.635,0,0,0,1.376.688h1.453a1.739,1.739,0,0,0,1.529-.917,1.7,1.7,0,0,0-.076-1.606c.153.153.306.382.459.535a7.745,7.745,0,0,0,5.5,2.217,8,8,0,0,0,5.352-1.988,6.9,6.9,0,0,0,2.447-5.275,1.743,1.743,0,0,0-.229-.841h.076l1.376,2.676v3.441a1.778,1.778,0,0,0,1.758,1.758h1.147a1.778,1.778,0,0,0,1.758-1.758V37.923l3.823-7.263a1.661,1.661,0,0,0-.076-1.682,1.639,1.639,0,0,0-1.453-.841h-1.223a1.836,1.836,0,0,0-1.529.917l-1.758,3.441-1.758-3.441a1.682,1.682,0,0,0-1.529-.917h-1.3a1.639,1.639,0,0,0-1.453.841,1.541,1.541,0,0,0-.229.841,2.994,2.994,0,0,0-.765-.612,7.763,7.763,0,0,0-3.67-1.223l.382-1.147a1.973,1.973,0,0,0-.229-1.606,1.708,1.708,0,0,0-1.376-.765h-3.364l.306-.917,3.441-.688,3.517-.917,3.211-1.07,2.982-1.3,2.905-1.606,1.758-1.223,1.453-1.3,1.223-1.453.917-1.529.612-1.682.229-1.682Zm-47.25,22.1v3.9l-3.288-4.893a1.74,1.74,0,0,0-1.453-.765H77.009a1.453,1.453,0,0,0-.994.382,1.358,1.358,0,0,0-.765-.306,6.971,6.971,0,0,0,1.3-1.3L80.373,21.1V27.83a1.778,1.778,0,0,0,1.758,1.758h1.3C83.355,29.589,83.278,29.818,83.278,30.048Zm23.09.306c-.153.153-.306.382-.535.612H105.6a4.633,4.633,0,0,0-1.453-1.529h3.364ZM98.034,24.7h-.306a1.653,1.653,0,0,0-1.606,1.147l-.459,1.3a1.8,1.8,0,0,0,.229,1.529,1.61,1.61,0,0,0-.994-.382H90.006a5.222,5.222,0,0,0,1.376-1.529l11.01-19.726A1.717,1.717,0,0,1,104,6.117h.688Zm10.7,10.7Zm10.7-24.39-.459.994-.917,1.147L116.537,14.3l-2.294,1.223-3.288,1.07,2.752-7.646a1.827,1.827,0,0,0,1.07.382H117l2.217.153h0l.153.076.229.765Z" transform="translate(-14.315 -0.284)"/>
    <path id="Path_7135" data-name="Path 7135" class="cls-3" d="M71.1,38.9h6.269v.994H72.247v4.129h4.97v1.07h-4.97v4.282h5.123v.994H71.1Z" transform="translate(-16.74 -9.136)"/>
    <path id="Path_7136" data-name="Path 7136" class="cls-3" d="M82,38.9h1.529l6.5,9.557V38.9h1.147V50.368H90.028L83.147,40.276V50.368H82Z" transform="translate(-19.306 -9.136)"/>
    <path id="Path_7137" data-name="Path 7137" class="cls-3" d="M97,38.9h6.346v.994H98.223v4.129h4.97v1.07h-4.97v4.282h5.123v.994H97Z" transform="translate(-22.837 -9.136)"/>
    <path id="Path_7138" data-name="Path 7138" class="cls-3" d="M108,38.9h2.752a12.642,12.642,0,0,1,2.064.153,3.378,3.378,0,0,1,1.223.459,3.046,3.046,0,0,1,1.3,1.3,3.632,3.632,0,0,1,.459,1.835,3.347,3.347,0,0,1-.994,2.447,3.179,3.179,0,0,1-2.37.994l3.211,4.282h-1.453l-3.9-5.2h.612a6.623,6.623,0,0,0,1.376-.076c.306-.076.535-.153.841-.229a2.255,2.255,0,0,0,1.07-.994,2.64,2.64,0,0,0,.382-1.376,2.158,2.158,0,0,0-.306-1.147,3.059,3.059,0,0,0-.765-.917,2.92,2.92,0,0,0-1.223-.459,6.623,6.623,0,0,0-1.376-.076H109.07V50.368H108Z" transform="translate(-25.427 -9.136)"/>
    <path id="Path_7139" data-name="Path 7139" class="cls-3" d="M131.933,45.022A5.1,5.1,0,0,1,130.022,49a6.085,6.085,0,0,1-4.205,1.529,6.013,6.013,0,0,1-4.282-1.758,5.667,5.667,0,0,1-1.835-4.282,5.484,5.484,0,0,1,.459-2.217,5.978,5.978,0,0,1,3.288-3.211,6.23,6.23,0,0,1,2.37-.459,5.794,5.794,0,0,1,3.364.994,4.886,4.886,0,0,1,1.147.994,3.14,3.14,0,0,1,.841,1.3h-1.3a4,4,0,0,0-1.758-1.606,5.2,5.2,0,0,0-2.37-.612,5.14,5.14,0,0,0-1.835.306,4.366,4.366,0,0,0-1.606.994,6.123,6.123,0,0,0-1.147,1.606,4.145,4.145,0,0,0-.459,1.911A4.733,4.733,0,0,0,122.147,48a5.225,5.225,0,0,0,3.593,1.453,5.034,5.034,0,0,0,2.905-.917,4.339,4.339,0,0,0,1.758-2.447h-6.422v-1.07Z" transform="translate(-28.182 -9.066)"/>
    <path id="Path_7140" data-name="Path 7140" class="cls-3" d="M140.576,46.546,136.6,38.9h1.3l3.288,6.422,3.288-6.422h1.3l-4.052,7.646v3.823h-1.147Z" transform="translate(-32.161 -9.136)"/>
    <path id="Path_7141" data-name="Path 7141" class="cls-4" d="M106.121,26.9h5.811l-.459,1.3H97.711l.459-1.3H99.7l7.875-22.1h-3.135A3.629,3.629,0,0,0,101.3,6.635l-11.01,19.8a3.539,3.539,0,0,1-3.135,1.835H82.5V15.657L75.462,26.59A3.6,3.6,0,0,1,72.481,28.2H69.193L71.028,7.934H63L65.676,3.5h8.1a3.519,3.519,0,0,1,3.211,3.823L76,19.479l3.364-5.2a3.6,3.6,0,0,1,2.982-1.606h7.569v6.8L97.788,5.411a3.539,3.539,0,0,1,3.135-1.835h13.609l-5.658,15.9,3.746-.917.612-.153.612-.153.535-.229.535-.229.535-.229.535-.229.535-.229.535-.229.459-.306.459-.306.612-.459.612-.459.535-.459.459-.459.382-.459.382-.459.306-.535.229-.535.153-.535.076-.535.076-.535v-.688l-.076-.306-.076-.306-.076-.229-.153-.229-.153-.229-.153-.153-.229-.153-.229-.153-.229-.153h-.076l-.153-.076-.229-.076-.229-.076-.229-.076H115.22L116.825,3.5h4.893l.612.076.612.076.612.076.535.076.535.076.459.153.459.153.459.153.382.153.382.229.382.229.306.229.306.229.306.306.229.306.229.306.229.306.153.382.153.382.076.382.076.459.076.459v1.07l-.076.688-.153.688-.229.688-.306.688-.306.612-.382.612-.459.612-.535.612-.612.612-.688.612-.765.535-.841.535-.917.535-.917.535-.917.459-.917.459-.917.382-.994.382-.994.382-1.07.382-1.07.306-1.07.306L113,21.7l-1.147.229-4.358.917L106.121,26.9" transform="translate(-14.833 -0.802)"/>
  </g>
</svg>
