<svg xmlns="http://www.w3.org/2000/svg" xmlns:xlink="http://www.w3.org/1999/xlink" viewBox="0 0 169.8 126.309">
  <defs>
    <style>
      .cls-1 {
        fill: #58595b;
        font-size: 18px;
      }

      .cls-1, .cls-11, .cls-3 {
        font-family: Helvetica;
      }

      .cls-2 {
        fill: none;
        stroke: #a7a9ac;
        stroke-miterlimit: 10;
        stroke-width: 0.933px;
        stroke-dasharray: 1.869 1.869;
      }

      .cls-3 {
        fill: #8ec13f;
        font-size: 30px;
      }

      .cls-4 {
        fill: #ad1d12;
      }

      .cls-5 {
        fill: #3e4754;
      }

      .cls-6 {
        fill: #00b09b;
      }

      .cls-11, .cls-7 {
        fill: #fff;
      }

      .cls-8 {
        fill: #333041;
      }

      .cls-9 {
        fill: #3e6673;
      }

      .cls-10 {
        fill: url(#linear-gradient);
      }

      .cls-11 {
        font-size: 22px;
      }
    </style>
    <linearGradient id="linear-gradient" x1="0.893" y1="0.743" x2="0.145" y2="0.728" gradientUnits="objectBoundingBox">
      <stop offset="0" stop-color="#85ba41"/>
      <stop offset="1" stop-color="#175d77"/>
    </linearGradient>
  </defs>
  <g id="Group_2472" data-name="Group 2472" transform="translate(-886 -1574.991)">
    <text id="Tankers" class="cls-1" transform="translate(925.132 1633.555)"><tspan x="0" y="0">Tankers</tspan></text>
    <path id="Path_11150" data-name="Path 11150" class="cls-2" d="M376.77,53.535A39.535,39.535,0,1,0,337.235,93.07,39.53,39.53,0,0,0,376.77,53.535Z" transform="translate(619.03 1561.458)"/>
    <text id="_8" data-name="8" class="cls-3" transform="translate(947.487 1611.773)"><tspan x="0" y="0">8</tspan></text>
    <g id="Group_2442" data-name="Group 2442" transform="translate(886 1665)">
      <path id="Path_10992" data-name="Path 10992" class="cls-4" d="M9.3,36.3,0,14.2H22l1.7,3.6h27l2.4,3.6h59l3.7-4,14.7.4,3-3.6h36.3V25.3l-15,11Z"/>
      <path id="Path_10993" data-name="Path 10993" class="cls-5" d="M153.2,0V14.2h10L160.5,0Z"/>
      <rect id="Rectangle_2534" data-name="Rectangle 2534" class="cls-6" width="22.8" height="3.6" transform="translate(135.4 10.9)"/>
      <rect id="Rectangle_2535" data-name="Rectangle 2535" class="cls-6" width="13" height="1.9" transform="translate(137.9 7.5)"/>
      <rect id="Rectangle_2536" data-name="Rectangle 2536" class="cls-6" width="13" height="1.9" transform="translate(137.9 4)"/>
      <path id="Path_10994" data-name="Path 10994" class="cls-4" d="M161.4,4.6,160.5,0h-7.3V4.6Z"/>
      <path id="Path_10995" data-name="Path 10995" class="cls-5" d="M6.1,28.8l3.2,7.5H154.8l10.3-7.5Z"/>
      <path id="Path_10996" data-name="Path 10996" class="cls-7" d="M23.7,17.8,22,14.2H0l1.5,3.6Z"/>
      <path id="Path_10997" data-name="Path 10997" class="cls-7" d="M169.8,14.2H133.5l-3,3.6h39.3Z"/>
      <path id="Path_10998" data-name="Path 10998" class="cls-8" d="M138.8,9.4l-.9,1.5h13l-.7-1.5Z"/>
      <rect id="Rectangle_2537" data-name="Rectangle 2537" class="cls-8" width="11.1" height="1.6" transform="translate(139 5.9)"/>
      <rect id="Rectangle_2538" data-name="Rectangle 2538" class="cls-6" width="2.1" height="1.4" transform="translate(139 2.7)"/>
      <rect id="Rectangle_2539" data-name="Rectangle 2539" class="cls-6" width="4.1" height="1" transform="translate(137.9 1.6)"/>
      <rect id="Rectangle_2540" data-name="Rectangle 2540" class="cls-6" width="1.5" height="1.6" transform="translate(142.9 3.4)"/>
      <rect id="Rectangle_2541" data-name="Rectangle 2541" class="cls-6" width="1" height="2.8" transform="translate(147.1 2.2)"/>
      <rect id="Rectangle_2542" data-name="Rectangle 2542" class="cls-6" width="0.7" height="1.9" transform="translate(148.8 3.1)"/>
      <rect id="Rectangle_2543" data-name="Rectangle 2543" class="cls-6" width="2.9" height="0.5" transform="translate(146.1 1.9)"/>
      <rect id="Rectangle_2544" data-name="Rectangle 2544" class="cls-9" width="1.4" height="1.5" transform="translate(136.7 11.9)"/>
      <rect id="Rectangle_2545" data-name="Rectangle 2545" class="cls-9" width="1.4" height="1.5" transform="translate(138.8 11.9)"/>
      <rect id="Rectangle_2546" data-name="Rectangle 2546" class="cls-9" width="1.4" height="1.5" transform="translate(141 11.9)"/>
      <rect id="Rectangle_2547" data-name="Rectangle 2547" class="cls-9" width="1.4" height="1.5" transform="translate(143.1 11.9)"/>
      <rect id="Rectangle_2548" data-name="Rectangle 2548" class="cls-9" width="1.4" height="1.5" transform="translate(145.2 11.9)"/>
      <rect id="Rectangle_2549" data-name="Rectangle 2549" class="cls-9" width="1.4" height="1.5" transform="translate(147.3 11.9)"/>
      <rect id="Rectangle_2550" data-name="Rectangle 2550" class="cls-9" width="1.4" height="1.5" transform="translate(149.5 11.9)"/>
      <rect id="Rectangle_2551" data-name="Rectangle 2551" class="cls-9" width="1.4" height="1.5" transform="translate(151.6 11.9)"/>
      <rect id="Rectangle_2552" data-name="Rectangle 2552" class="cls-9" width="1.4" height="1.5" transform="translate(153.7 11.9)"/>
      <rect id="Rectangle_2553" data-name="Rectangle 2553" class="cls-9" width="1.4" height="1.5" transform="translate(155.8 11.9)"/>
      <path id="Path_10999" data-name="Path 10999" class="cls-9" d="M167.1,20.7a1,1,0,1,1-1-1.1A1.028,1.028,0,0,1,167.1,20.7Z"/>
      <path id="Path_11000" data-name="Path 11000" class="cls-9" d="M159.2,20.7a1,1,0,1,1-1-1.1A1.1,1.1,0,0,1,159.2,20.7Z"/>
      <path id="Path_11001" data-name="Path 11001" class="cls-9" d="M151.2,20.7a1,1,0,1,1-1-1.1A1.028,1.028,0,0,1,151.2,20.7Z"/>
      <path id="Path_11002" data-name="Path 11002" class="cls-9" d="M143.3,20.7a1,1,0,1,1-1-1.1A1.1,1.1,0,0,1,143.3,20.7Z"/>
      <path id="Path_11003" data-name="Path 11003" class="cls-9" d="M135.3,20.7a1,1,0,1,1-1-1.1A1.1,1.1,0,0,1,135.3,20.7Z"/>
      <path id="Path_11004" data-name="Path 11004" class="cls-9" d="M127.3,20.7a1,1,0,1,1-1-1.1A1.028,1.028,0,0,1,127.3,20.7Z"/>
      <path id="Path_11005" data-name="Path 11005" class="cls-9" d="M119.4,20.7a1,1,0,1,1-1-1.1A1.1,1.1,0,0,1,119.4,20.7Z"/>
      <path id="Path_11006" data-name="Path 11006" class="cls-8" d="M8.2,21.1a1.453,1.453,0,0,1-1.4,1.5,1.5,1.5,0,0,1,0-3A1.524,1.524,0,0,1,8.2,21.1Z"/>
      <path id="Path_11007" data-name="Path 11007" class="cls-6" d="M9.1,27.4c0,.3-.4.6-1,.6-.5,0-1-.3-1-.6s.4-.6,1-.6S9.1,27,9.1,27.4Z"/>
      <path id="Path_11008" data-name="Path 11008" class="cls-6" d="M13.2,27.4c0,.3-.4.6-1,.6-.5,0-1-.3-1-.6s.4-.6,1-.6S13.2,27,13.2,27.4Z"/>
      <path id="Path_11009" data-name="Path 11009" class="cls-6" d="M17.3,27.4c0,.3-.4.6-1,.6-.5,0-1-.3-1-.6s.4-.6,1-.6S17.3,27,17.3,27.4Z"/>
      <path id="Path_11010" data-name="Path 11010" class="cls-6" d="M21.5,27.4c0,.3-.4.6-1,.6-.5,0-1-.3-1-.6s.4-.6,1-.6C21,26.8,21.5,27,21.5,27.4Z"/>
      <ellipse id="Ellipse_206" data-name="Ellipse 206" class="cls-6" cx="1" cy="0.6" rx="1" ry="0.6" transform="translate(23.6 26.8)"/>
      <path id="Path_11011" data-name="Path 11011" class="cls-6" d="M29.7,27.4c0,.3-.4.6-1,.6-.5,0-1-.3-1-.6s.4-.6,1-.6S29.7,27,29.7,27.4Z"/>
      <path id="Path_11012" data-name="Path 11012" class="cls-6" d="M33.9,27.4c0,.3-.4.6-1,.6-.5,0-1-.3-1-.6s.4-.6,1-.6C33.4,26.8,33.9,27,33.9,27.4Z"/>
      <path id="Path_11013" data-name="Path 11013" class="cls-6" d="M40.7,27.4c0,.3-.4.6-1,.6-.5,0-1-.3-1-.6s.4-.6,1-.6S40.7,27,40.7,27.4Z"/>
      <path id="Path_11014" data-name="Path 11014" class="cls-6" d="M44.9,27.4c0,.3-.4.6-1,.6-.5,0-1-.3-1-.6s.4-.6,1-.6C44.4,26.8,44.9,27,44.9,27.4Z"/>
      <ellipse id="Ellipse_207" data-name="Ellipse 207" class="cls-6" cx="1" cy="0.6" rx="1" ry="0.6" transform="translate(47 26.8)"/>
      <ellipse id="Ellipse_208" data-name="Ellipse 208" class="cls-6" cx="1" cy="0.6" rx="1" ry="0.6" transform="translate(51.2 26.8)"/>
      <path id="Path_11015" data-name="Path 11015" class="cls-6" d="M57.3,27.4c0,.3-.4.6-1,.6-.5,0-1-.3-1-.6s.4-.6,1-.6C56.8,26.8,57.3,27,57.3,27.4Z"/>
      <path id="Path_11016" data-name="Path 11016" class="cls-6" d="M61.4,27.4c0,.3-.4.6-1,.6-.5,0-1-.3-1-.6s.4-.6,1-.6S61.4,27,61.4,27.4Z"/>
      <path id="Path_11017" data-name="Path 11017" class="cls-6" d="M65.5,27.4c0,.3-.4.6-1,.6-.5,0-1-.3-1-.6s.4-.6,1-.6S65.5,27,65.5,27.4Z"/>
      <path id="Path_11018" data-name="Path 11018" class="cls-6" d="M72.4,27.4c0,.3-.4.6-1,.6-.5,0-1-.3-1-.6s.4-.6,1-.6S72.4,27,72.4,27.4Z"/>
      <path id="Path_11019" data-name="Path 11019" class="cls-6" d="M76.5,27.4c0,.3-.4.6-1,.6-.5,0-1-.3-1-.6s.4-.6,1-.6S76.5,27,76.5,27.4Z"/>
      <path id="Path_11020" data-name="Path 11020" class="cls-6" d="M80.7,27.4c0,.3-.4.6-1,.6-.5,0-1-.3-1-.6s.4-.6,1-.6C80.2,26.8,80.7,27,80.7,27.4Z"/>
      <path id="Path_11021" data-name="Path 11021" class="cls-6" d="M84.8,27.4c0,.3-.4.6-1,.6-.5,0-1-.3-1-.6s.4-.6,1-.6S84.8,27,84.8,27.4Z"/>
      <path id="Path_11022" data-name="Path 11022" class="cls-6" d="M88.9,27.4c0,.3-.4.6-1,.6-.5,0-1-.3-1-.6s.4-.6,1-.6S88.9,27,88.9,27.4Z"/>
      <path id="Path_11023" data-name="Path 11023" class="cls-6" d="M93.1,27.4c0,.3-.4.6-1,.6-.5,0-1-.3-1-.6s.4-.6,1-.6C92.6,26.8,93.1,27,93.1,27.4Z"/>
      <path id="Path_11024" data-name="Path 11024" class="cls-6" d="M97.2,27.4c0,.3-.4.6-1,.6-.5,0-1-.3-1-.6s.4-.6,1-.6S97.2,27,97.2,27.4Z"/>
      <path id="Path_11025" data-name="Path 11025" class="cls-6" d="M104.1,27.4c0,.3-.4.6-1,.6-.5,0-1-.3-1-.6s.4-.6,1-.6C103.6,26.8,104.1,27,104.1,27.4Z"/>
      <path id="Path_11026" data-name="Path 11026" class="cls-6" d="M108.2,27.4c0,.3-.4.6-1,.6-.5,0-1-.3-1-.6s.4-.6,1-.6S108.2,27,108.2,27.4Z"/>
      <path id="Path_11027" data-name="Path 11027" class="cls-6" d="M112.3,27.4c0,.3-.4.6-1,.6-.5,0-1-.3-1-.6s.4-.6,1-.6S112.3,27,112.3,27.4Z"/>
      <path id="Path_11028" data-name="Path 11028" class="cls-6" d="M116.5,27.4c0,.3-.4.6-1,.6-.5,0-1-.3-1-.6s.4-.6,1-.6C116,26.8,116.5,27,116.5,27.4Z"/>
      <path id="Path_11029" data-name="Path 11029" class="cls-6" d="M120.6,27.4c0,.3-.4.6-1,.6-.5,0-1-.3-1-.6s.4-.6,1-.6S120.6,27,120.6,27.4Z"/>
      <path id="Path_11030" data-name="Path 11030" class="cls-6" d="M124.7,27.4c0,.3-.4.6-1,.6-.5,0-1-.3-1-.6s.4-.6,1-.6S124.7,27,124.7,27.4Z"/>
      <path id="Path_11031" data-name="Path 11031" class="cls-6" d="M128.8,27.4c0,.3-.4.6-1,.6-.5,0-1-.3-1-.6s.4-.6,1-.6S128.8,27,128.8,27.4Z"/>
      <path id="Path_11032" data-name="Path 11032" class="cls-6" d="M135.7,27.4c0,.3-.4.6-1,.6-.5,0-1-.3-1-.6s.4-.6,1-.6S135.7,27,135.7,27.4Z"/>
      <path id="Path_11033" data-name="Path 11033" class="cls-6" d="M139.9,27.4c0,.3-.4.6-1,.6-.5,0-1-.3-1-.6s.4-.6,1-.6C139.4,26.8,139.9,27,139.9,27.4Z"/>
      <ellipse id="Ellipse_209" data-name="Ellipse 209" class="cls-6" cx="1" cy="0.6" rx="1" ry="0.6" transform="translate(142 26.8)"/>
      <path id="Path_11034" data-name="Path 11034" class="cls-6" d="M148.1,27.4c0,.3-.4.6-1,.6s-1-.3-1-.6.4-.6,1-.6S148.1,27,148.1,27.4Z"/>
      <path id="Path_11035" data-name="Path 11035" class="cls-6" d="M152.2,27.4c0,.3-.4.6-1,.6-.5,0-1-.3-1-.6s.4-.6,1-.6S152.2,27,152.2,27.4Z"/>
      <path id="Path_11036" data-name="Path 11036" class="cls-6" d="M156.4,27.4c0,.3-.4.6-1,.6-.5,0-1-.3-1-.6s.4-.6,1-.6C155.9,26.8,156.4,27,156.4,27.4Z"/>
      <path id="Path_11037" data-name="Path 11037" class="cls-6" d="M160.5,27.4c0,.3-.4.6-1,.6-.5,0-1-.3-1-.6s.4-.6,1-.6S160.5,27,160.5,27.4Z"/>
      <path id="Path_11038" data-name="Path 11038" class="cls-8" d="M10.9,31.1a.669.669,0,0,1-.6.7.708.708,0,0,1,0-1.4C10.7,30.4,10.9,30.7,10.9,31.1Z"/>
      <path id="Path_11039" data-name="Path 11039" class="cls-8" d="M13.8,31.1a.669.669,0,0,1-.6.7.708.708,0,0,1,0-1.4C13.6,30.4,13.8,30.7,13.8,31.1Z"/>
      <path id="Path_11040" data-name="Path 11040" class="cls-8" d="M16.7,31.1a.607.607,0,1,1-.6-.7C16.5,30.4,16.7,30.7,16.7,31.1Z"/>
      <path id="Path_11041" data-name="Path 11041" class="cls-8" d="M19.6,31.1a.607.607,0,1,1-.6-.7C19.4,30.4,19.6,30.7,19.6,31.1Z"/>
      <path id="Path_11042" data-name="Path 11042" class="cls-8" d="M22.5,31.1a.607.607,0,1,1-.6-.7A.669.669,0,0,1,22.5,31.1Z"/>
      <path id="Path_11043" data-name="Path 11043" class="cls-8" d="M25.4,31.1a.607.607,0,1,1-.6-.7A.669.669,0,0,1,25.4,31.1Z"/>
      <path id="Path_11044" data-name="Path 11044" class="cls-8" d="M28.3,31.1a.607.607,0,1,1-.6-.7A.669.669,0,0,1,28.3,31.1Z"/>
      <path id="Path_11045" data-name="Path 11045" class="cls-8" d="M31.2,31.1a.607.607,0,1,1-.6-.7A.669.669,0,0,1,31.2,31.1Z"/>
      <path id="Path_11046" data-name="Path 11046" class="cls-8" d="M34.1,31.1a.607.607,0,1,1-.6-.7A.669.669,0,0,1,34.1,31.1Z"/>
      <path id="Path_11047" data-name="Path 11047" class="cls-8" d="M37,31.1a.607.607,0,1,1-.6-.7A.669.669,0,0,1,37,31.1Z"/>
      <path id="Path_11048" data-name="Path 11048" class="cls-8" d="M39.9,31.1a.607.607,0,1,1-.6-.7A.669.669,0,0,1,39.9,31.1Z"/>
      <path id="Path_11049" data-name="Path 11049" class="cls-8" d="M42.8,31.1a.607.607,0,1,1-.6-.7A.669.669,0,0,1,42.8,31.1Z"/>
      <path id="Path_11050" data-name="Path 11050" class="cls-8" d="M45.7,31.1a.607.607,0,1,1-.6-.7A.669.669,0,0,1,45.7,31.1Z"/>
      <path id="Path_11051" data-name="Path 11051" class="cls-8" d="M48.6,31.1a.607.607,0,1,1-.6-.7A.669.669,0,0,1,48.6,31.1Z"/>
      <path id="Path_11052" data-name="Path 11052" class="cls-8" d="M51.5,31.1a.607.607,0,1,1-.6-.7A.669.669,0,0,1,51.5,31.1Z"/>
      <path id="Path_11053" data-name="Path 11053" class="cls-8" d="M54.4,31.1a.607.607,0,1,1-.6-.7A.669.669,0,0,1,54.4,31.1Z"/>
      <path id="Path_11054" data-name="Path 11054" class="cls-8" d="M57.3,31.1a.607.607,0,1,1-.6-.7A.669.669,0,0,1,57.3,31.1Z"/>
      <path id="Path_11055" data-name="Path 11055" class="cls-8" d="M60.2,31.1a.607.607,0,1,1-.6-.7A.669.669,0,0,1,60.2,31.1Z"/>
      <path id="Path_11056" data-name="Path 11056" class="cls-8" d="M63.1,31.1a.607.607,0,1,1-.6-.7A.669.669,0,0,1,63.1,31.1Z"/>
      <path id="Path_11057" data-name="Path 11057" class="cls-8" d="M66,31.1a.607.607,0,1,1-.6-.7A.669.669,0,0,1,66,31.1Z"/>
      <path id="Path_11058" data-name="Path 11058" class="cls-8" d="M68.9,31.1a.607.607,0,1,1-.6-.7A.669.669,0,0,1,68.9,31.1Z"/>
      <path id="Path_11059" data-name="Path 11059" class="cls-8" d="M71.8,31.1a.607.607,0,1,1-.6-.7A.669.669,0,0,1,71.8,31.1Z"/>
      <path id="Path_11060" data-name="Path 11060" class="cls-8" d="M74.6,31.1a.607.607,0,1,1-.6-.7C74.4,30.4,74.6,30.7,74.6,31.1Z"/>
      <path id="Path_11061" data-name="Path 11061" class="cls-8" d="M77.5,31.1a.607.607,0,1,1-.6-.7C77.3,30.4,77.5,30.7,77.5,31.1Z"/>
      <path id="Path_11062" data-name="Path 11062" class="cls-8" d="M80.4,31.1a.607.607,0,1,1-.6-.7C80.2,30.4,80.4,30.7,80.4,31.1Z"/>
      <path id="Path_11063" data-name="Path 11063" class="cls-8" d="M83.3,31.1a.607.607,0,1,1-.6-.7C83.1,30.4,83.3,30.7,83.3,31.1Z"/>
      <path id="Path_11064" data-name="Path 11064" class="cls-8" d="M86.2,31.1a.607.607,0,1,1-.6-.7C86,30.4,86.2,30.7,86.2,31.1Z"/>
      <path id="Path_11065" data-name="Path 11065" class="cls-8" d="M89.1,31.1a.607.607,0,1,1-.6-.7A.669.669,0,0,1,89.1,31.1Z"/>
      <path id="Path_11066" data-name="Path 11066" class="cls-8" d="M92,31.1a.607.607,0,1,1-.6-.7A.669.669,0,0,1,92,31.1Z"/>
      <path id="Path_11067" data-name="Path 11067" class="cls-8" d="M94.9,31.1a.607.607,0,1,1-.6-.7A.669.669,0,0,1,94.9,31.1Z"/>
      <path id="Path_11068" data-name="Path 11068" class="cls-8" d="M97.8,31.1a.607.607,0,1,1-.6-.7A.669.669,0,0,1,97.8,31.1Z"/>
      <path id="Path_11069" data-name="Path 11069" class="cls-8" d="M100.7,31.1a.607.607,0,1,1-.6-.7A.669.669,0,0,1,100.7,31.1Z"/>
      <path id="Path_11070" data-name="Path 11070" class="cls-8" d="M103.6,31.1a.607.607,0,1,1-.6-.7A.669.669,0,0,1,103.6,31.1Z"/>
      <path id="Path_11071" data-name="Path 11071" class="cls-8" d="M106.5,31.1a.607.607,0,1,1-.6-.7A.669.669,0,0,1,106.5,31.1Z"/>
      <path id="Path_11072" data-name="Path 11072" class="cls-8" d="M109.4,31.1a.607.607,0,1,1-.6-.7A.669.669,0,0,1,109.4,31.1Z"/>
      <path id="Path_11073" data-name="Path 11073" class="cls-8" d="M112.3,31.1a.607.607,0,1,1-.6-.7A.669.669,0,0,1,112.3,31.1Z"/>
      <path id="Path_11074" data-name="Path 11074" class="cls-8" d="M115.2,31.1a.607.607,0,1,1-.6-.7A.669.669,0,0,1,115.2,31.1Z"/>
      <path id="Path_11075" data-name="Path 11075" class="cls-8" d="M118.1,31.1a.607.607,0,1,1-.6-.7A.669.669,0,0,1,118.1,31.1Z"/>
      <path id="Path_11076" data-name="Path 11076" class="cls-8" d="M121,31.1a.607.607,0,1,1-.6-.7A.669.669,0,0,1,121,31.1Z"/>
      <path id="Path_11077" data-name="Path 11077" class="cls-8" d="M123.9,31.1a.607.607,0,1,1-.6-.7A.669.669,0,0,1,123.9,31.1Z"/>
      <path id="Path_11078" data-name="Path 11078" class="cls-8" d="M126.8,31.1a.607.607,0,1,1-.6-.7A.669.669,0,0,1,126.8,31.1Z"/>
      <path id="Path_11079" data-name="Path 11079" class="cls-8" d="M129.7,31.1a.607.607,0,1,1-.6-.7A.669.669,0,0,1,129.7,31.1Z"/>
      <path id="Path_11080" data-name="Path 11080" class="cls-8" d="M132.6,31.1a.607.607,0,1,1-.6-.7A.669.669,0,0,1,132.6,31.1Z"/>
      <path id="Path_11081" data-name="Path 11081" class="cls-8" d="M135.5,31.1a.607.607,0,1,1-.6-.7A.669.669,0,0,1,135.5,31.1Z"/>
      <path id="Path_11082" data-name="Path 11082" class="cls-8" d="M138.4,31.1a.607.607,0,1,1-.6-.7A.669.669,0,0,1,138.4,31.1Z"/>
      <path id="Path_11083" data-name="Path 11083" class="cls-8" d="M141.2,31.1a.607.607,0,1,1-.6-.7C141,30.4,141.2,30.7,141.2,31.1Z"/>
      <path id="Path_11084" data-name="Path 11084" class="cls-8" d="M144.1,31.1a.607.607,0,1,1-.6-.7C143.9,30.4,144.1,30.7,144.1,31.1Z"/>
      <path id="Path_11085" data-name="Path 11085" class="cls-8" d="M147,31.1a.607.607,0,1,1-.6-.7C146.8,30.4,147,30.7,147,31.1Z"/>
      <path id="Path_11086" data-name="Path 11086" class="cls-8" d="M149.9,31.1a.607.607,0,1,1-.6-.7C149.7,30.4,149.9,30.7,149.9,31.1Z"/>
      <path id="Path_11087" data-name="Path 11087" class="cls-8" d="M152.8,31.1a.607.607,0,1,1-.6-.7A.669.669,0,0,1,152.8,31.1Z"/>
      <path id="Path_11088" data-name="Path 11088" class="cls-8" d="M155.7,31.1a.607.607,0,1,1-.6-.7A.669.669,0,0,1,155.7,31.1Z"/>
      <path id="Path_11089" data-name="Path 11089" class="cls-8" d="M158.6,31.1a.607.607,0,1,1-.6-.7A.669.669,0,0,1,158.6,31.1Z"/>
      <path id="Path_11090" data-name="Path 11090" class="cls-8" d="M10.9,33.2a.669.669,0,0,1-.6.7.708.708,0,0,1,0-1.4C10.7,32.5,10.9,32.8,10.9,33.2Z"/>
      <path id="Path_11091" data-name="Path 11091" class="cls-8" d="M13.8,33.2a.669.669,0,0,1-.6.7.708.708,0,0,1,0-1.4C13.6,32.5,13.8,32.8,13.8,33.2Z"/>
      <path id="Path_11092" data-name="Path 11092" class="cls-8" d="M16.7,33.2a.607.607,0,1,1-.6-.7C16.5,32.5,16.7,32.8,16.7,33.2Z"/>
      <path id="Path_11093" data-name="Path 11093" class="cls-8" d="M19.6,33.2a.607.607,0,1,1-.6-.7C19.4,32.5,19.6,32.8,19.6,33.2Z"/>
      <path id="Path_11094" data-name="Path 11094" class="cls-8" d="M22.5,33.2a.607.607,0,1,1-.6-.7A.669.669,0,0,1,22.5,33.2Z"/>
      <path id="Path_11095" data-name="Path 11095" class="cls-8" d="M25.4,33.2a.607.607,0,1,1-.6-.7A.669.669,0,0,1,25.4,33.2Z"/>
      <path id="Path_11096" data-name="Path 11096" class="cls-8" d="M28.3,33.2a.607.607,0,1,1-.6-.7A.669.669,0,0,1,28.3,33.2Z"/>
      <path id="Path_11097" data-name="Path 11097" class="cls-8" d="M31.2,33.2a.607.607,0,1,1-.6-.7A.669.669,0,0,1,31.2,33.2Z"/>
      <path id="Path_11098" data-name="Path 11098" class="cls-8" d="M34.1,33.2a.607.607,0,1,1-.6-.7A.669.669,0,0,1,34.1,33.2Z"/>
      <path id="Path_11099" data-name="Path 11099" class="cls-8" d="M37,33.2a.607.607,0,1,1-.6-.7A.669.669,0,0,1,37,33.2Z"/>
      <path id="Path_11100" data-name="Path 11100" class="cls-8" d="M39.9,33.2a.607.607,0,1,1-.6-.7A.669.669,0,0,1,39.9,33.2Z"/>
      <path id="Path_11101" data-name="Path 11101" class="cls-8" d="M42.8,33.2a.607.607,0,1,1-.6-.7A.669.669,0,0,1,42.8,33.2Z"/>
      <path id="Path_11102" data-name="Path 11102" class="cls-8" d="M45.7,33.2a.607.607,0,1,1-.6-.7A.669.669,0,0,1,45.7,33.2Z"/>
      <path id="Path_11103" data-name="Path 11103" class="cls-8" d="M48.6,33.2a.607.607,0,1,1-.6-.7A.669.669,0,0,1,48.6,33.2Z"/>
      <path id="Path_11104" data-name="Path 11104" class="cls-8" d="M51.5,33.2a.607.607,0,1,1-.6-.7A.669.669,0,0,1,51.5,33.2Z"/>
      <path id="Path_11105" data-name="Path 11105" class="cls-8" d="M54.4,33.2a.607.607,0,1,1-.6-.7A.669.669,0,0,1,54.4,33.2Z"/>
      <path id="Path_11106" data-name="Path 11106" class="cls-8" d="M57.3,33.2a.607.607,0,1,1-.6-.7A.669.669,0,0,1,57.3,33.2Z"/>
      <path id="Path_11107" data-name="Path 11107" class="cls-8" d="M60.2,33.2a.607.607,0,1,1-.6-.7A.669.669,0,0,1,60.2,33.2Z"/>
      <path id="Path_11108" data-name="Path 11108" class="cls-8" d="M63.1,33.2a.607.607,0,1,1-.6-.7A.669.669,0,0,1,63.1,33.2Z"/>
      <path id="Path_11109" data-name="Path 11109" class="cls-8" d="M66,33.2a.607.607,0,1,1-.6-.7A.669.669,0,0,1,66,33.2Z"/>
      <path id="Path_11110" data-name="Path 11110" class="cls-8" d="M68.9,33.2a.607.607,0,1,1-.6-.7A.669.669,0,0,1,68.9,33.2Z"/>
      <path id="Path_11111" data-name="Path 11111" class="cls-8" d="M71.8,33.2a.607.607,0,1,1-.6-.7A.669.669,0,0,1,71.8,33.2Z"/>
      <path id="Path_11112" data-name="Path 11112" class="cls-8" d="M74.6,33.2a.607.607,0,1,1-.6-.7C74.4,32.5,74.6,32.8,74.6,33.2Z"/>
      <path id="Path_11113" data-name="Path 11113" class="cls-8" d="M77.5,33.2a.607.607,0,1,1-.6-.7C77.3,32.5,77.5,32.8,77.5,33.2Z"/>
      <path id="Path_11114" data-name="Path 11114" class="cls-8" d="M80.4,33.2a.607.607,0,1,1-.6-.7C80.2,32.5,80.4,32.8,80.4,33.2Z"/>
      <path id="Path_11115" data-name="Path 11115" class="cls-8" d="M83.3,33.2a.607.607,0,1,1-.6-.7C83.1,32.5,83.3,32.8,83.3,33.2Z"/>
      <path id="Path_11116" data-name="Path 11116" class="cls-8" d="M86.2,33.2a.607.607,0,1,1-.6-.7C86,32.5,86.2,32.8,86.2,33.2Z"/>
      <path id="Path_11117" data-name="Path 11117" class="cls-8" d="M89.1,33.2a.607.607,0,1,1-.6-.7A.669.669,0,0,1,89.1,33.2Z"/>
      <path id="Path_11118" data-name="Path 11118" class="cls-8" d="M92,33.2a.607.607,0,1,1-.6-.7A.669.669,0,0,1,92,33.2Z"/>
      <path id="Path_11119" data-name="Path 11119" class="cls-8" d="M94.9,33.2a.607.607,0,1,1-.6-.7A.669.669,0,0,1,94.9,33.2Z"/>
      <path id="Path_11120" data-name="Path 11120" class="cls-8" d="M97.8,33.2a.607.607,0,1,1-.6-.7A.669.669,0,0,1,97.8,33.2Z"/>
      <path id="Path_11121" data-name="Path 11121" class="cls-8" d="M100.7,33.2a.607.607,0,1,1-.6-.7A.669.669,0,0,1,100.7,33.2Z"/>
      <path id="Path_11122" data-name="Path 11122" class="cls-8" d="M103.6,33.2a.607.607,0,1,1-.6-.7A.669.669,0,0,1,103.6,33.2Z"/>
      <path id="Path_11123" data-name="Path 11123" class="cls-8" d="M106.5,33.2a.607.607,0,1,1-.6-.7A.669.669,0,0,1,106.5,33.2Z"/>
      <path id="Path_11124" data-name="Path 11124" class="cls-8" d="M109.4,33.2a.607.607,0,1,1-.6-.7A.669.669,0,0,1,109.4,33.2Z"/>
      <path id="Path_11125" data-name="Path 11125" class="cls-8" d="M112.3,33.2a.607.607,0,1,1-.6-.7A.669.669,0,0,1,112.3,33.2Z"/>
      <path id="Path_11126" data-name="Path 11126" class="cls-8" d="M115.2,33.2a.607.607,0,1,1-.6-.7A.669.669,0,0,1,115.2,33.2Z"/>
      <path id="Path_11127" data-name="Path 11127" class="cls-8" d="M118.1,33.2a.607.607,0,1,1-.6-.7A.669.669,0,0,1,118.1,33.2Z"/>
      <path id="Path_11128" data-name="Path 11128" class="cls-8" d="M121,33.2a.607.607,0,1,1-.6-.7A.669.669,0,0,1,121,33.2Z"/>
      <path id="Path_11129" data-name="Path 11129" class="cls-8" d="M123.9,33.2a.607.607,0,1,1-.6-.7A.669.669,0,0,1,123.9,33.2Z"/>
      <path id="Path_11130" data-name="Path 11130" class="cls-8" d="M126.8,33.2a.607.607,0,1,1-.6-.7A.669.669,0,0,1,126.8,33.2Z"/>
      <path id="Path_11131" data-name="Path 11131" class="cls-8" d="M129.7,33.2a.607.607,0,1,1-.6-.7A.669.669,0,0,1,129.7,33.2Z"/>
      <path id="Path_11132" data-name="Path 11132" class="cls-8" d="M132.6,33.2a.607.607,0,1,1-.6-.7A.669.669,0,0,1,132.6,33.2Z"/>
      <path id="Path_11133" data-name="Path 11133" class="cls-8" d="M135.5,33.2a.607.607,0,1,1-.6-.7A.669.669,0,0,1,135.5,33.2Z"/>
      <path id="Path_11134" data-name="Path 11134" class="cls-8" d="M138.4,33.2a.607.607,0,1,1-.6-.7A.669.669,0,0,1,138.4,33.2Z"/>
      <path id="Path_11135" data-name="Path 11135" class="cls-8" d="M141.2,33.2a.607.607,0,1,1-.6-.7C141,32.5,141.2,32.8,141.2,33.2Z"/>
      <path id="Path_11136" data-name="Path 11136" class="cls-8" d="M144.1,33.2a.607.607,0,1,1-.6-.7C143.9,32.5,144.1,32.8,144.1,33.2Z"/>
      <path id="Path_11137" data-name="Path 11137" class="cls-8" d="M147,33.2a.607.607,0,1,1-.6-.7C146.8,32.5,147,32.8,147,33.2Z"/>
      <path id="Path_11138" data-name="Path 11138" class="cls-8" d="M149.9,33.2a.607.607,0,1,1-.6-.7C149.7,32.5,149.9,32.8,149.9,33.2Z"/>
      <path id="Path_11139" data-name="Path 11139" class="cls-8" d="M152.8,33.2a.607.607,0,1,1-.6-.7A.669.669,0,0,1,152.8,33.2Z"/>
      <path id="Path_11140" data-name="Path 11140" class="cls-8" d="M155.7,33.2a.607.607,0,1,1-.6-.7A.669.669,0,0,1,155.7,33.2Z"/>
      <path id="Path_11141" data-name="Path 11141" class="cls-8" d="M158.6,33.2a.607.607,0,1,1-.6-.7A.669.669,0,0,1,158.6,33.2Z"/>
    </g>
    <rect id="Rectangle_2592" data-name="Rectangle 2592" class="cls-10" width="125" height="40" rx="12" transform="translate(891 1643)"/>
    <text id="_13_Tons" data-name="13 Tons" class="cls-11" transform="translate(919 1669)"><tspan x="0" y="0">13 Tons</tspan></text>
  </g>
</svg>
