<svg id="_003-ocean-transportation" data-name="003-ocean-transportation" xmlns="http://www.w3.org/2000/svg" viewBox="0 0 43.6 38.543">
  <defs>
    <style>
      .cls-1 {
        fill: #1a4783;
      }
    </style>
  </defs>
  <path id="Path_10926" data-name="Path 10926" class="cls-1" d="M14.412,58.118A59.912,59.912,0,0,1,3.974,62.491V54.759a1.818,1.818,0,0,1,.8-1.5l2.978-2.025a2.14,2.14,0,0,1,1.022-.315h4.782V48.1h5.38v2.816h4.123a1.211,1.211,0,0,1,1.212,1.212V53.8A76.758,76.758,0,0,0,14.412,58.118Zm-.861-12.8V46.78h5.38V45.318a1.356,1.356,0,0,0-1.356-1.356H14.907A1.356,1.356,0,0,0,13.551,45.318Zm-3.125-4.261a2.775,2.775,0,0,0,1.09-.222,2.041,2.041,0,0,0,2.343.759c0,.038-.011.074-.011.113a1.3,1.3,0,1,0,1.3-1.3h0a2.09,2.09,0,0,0-1.935-2.889c-.038,0-.074.009-.112.011a2.78,2.78,0,1,0-2.672,3.525ZM37.683,68.314a1.216,1.216,0,0,0,0,1.345l1.6,2.405a1.264,1.264,0,0,1-1.148,1.963l-35.684-2.8a2.283,2.283,0,0,1-2.03-1.7A11.461,11.461,0,0,1,0,66.771c0-1.863.749-2.21,2.28-2.576,13.7-3.268,17.464-11.147,40.319-12.436a.949.949,0,0,1,.992,1.074A40.8,40.8,0,0,1,37.683,68.314Zm-1.744-5.888a.606.606,0,1,0-1.212,0,2.077,2.077,0,0,1-1.475,1.981V60.231a1.381,1.381,0,1,0-1.212,0v4.172a2.077,2.077,0,0,1-1.475-1.981.606.606,0,0,0-1.212,0,3.293,3.293,0,0,0,6.586,0Z" transform="translate(0 -35.488)"/>
</svg>
