<svg id="_002-frontal-truck" data-name="002-frontal-truck" xmlns="http://www.w3.org/2000/svg" viewBox="0 0 37.066 43.599">
  <defs>
    <style>
      .cls-1 {
        fill: #1a4783;
      }
    </style>
  </defs>
  <path id="Path_10925" data-name="Path 10925" class="cls-1" d="M81.154,35.636V28.913A2.616,2.616,0,0,0,78.539,26.3h-.684V1.753a.654.654,0,0,0-.293-.545L75.9.11a.654.654,0,0,0-1.014.545V8.538L74.392,7.2A4.577,4.577,0,0,0,70.1,4.217H58.669a4.577,4.577,0,0,0-4.3,3.015l-.474,1.306V.655A.654.654,0,0,0,52.878.11l-1.66,1.1a.654.654,0,0,0-.293.545V26.3h-.684a2.616,2.616,0,0,0-2.616,2.616v6.723H46.511a.654.654,0,0,0-.654.654v3.615a.654.654,0,0,0,.654.654h2.821v1.733A1.308,1.308,0,0,0,50.64,43.6h3.466a1.308,1.308,0,0,0,1.308-1.308V40.559H73.367v1.733A1.308,1.308,0,0,0,74.675,43.6H78.14a1.308,1.308,0,0,0,1.308-1.308V40.559h2.821a.654.654,0,0,0,.654-.654V36.29a.654.654,0,0,0-.654-.654Zm-26.4-23.456H74.021v6.443H54.759Zm-.448,21.626H52.077a1.236,1.236,0,0,1-1.236-1.236v-.031A1.236,1.236,0,0,1,52.077,31.3h2.234a1.236,1.236,0,0,1,1.236,1.236v.031A1.236,1.236,0,0,1,54.311,33.806Zm14.524.364H59.945a1.308,1.308,0,0,1-1.308-1.308V24.577a1.308,1.308,0,0,1,1.308-1.308h8.891a1.308,1.308,0,0,1,1.308,1.308v8.286A1.308,1.308,0,0,1,68.835,34.171Zm7.867-.364H74.469a1.236,1.236,0,0,1-1.236-1.236v-.031A1.236,1.236,0,0,1,74.469,31.3H76.7a1.236,1.236,0,0,1,1.236,1.236v.031A1.236,1.236,0,0,1,76.7,33.806Zm-8.066-5.751H60.122a.647.647,0,0,1-.647-.647v-.013a.647.647,0,0,1,.647-.647h8.514a.647.647,0,0,1,.647.647v.013A.647.647,0,0,1,68.636,28.055Zm0-2.616H60.122a.647.647,0,0,1-.647-.647v-.013a.647.647,0,0,1,.647-.647h8.514a.647.647,0,0,1,.647.647v.013A.647.647,0,0,1,68.636,25.439Zm0,7.847H60.122a.647.647,0,0,1-.647-.647v-.013a.647.647,0,0,1,.647-.647h8.514a.647.647,0,0,1,.647.647v.013A.647.647,0,0,1,68.636,33.286Zm0-2.616H60.122a.647.647,0,0,1-.647-.647V30.01a.647.647,0,0,1,.647-.647h8.514a.647.647,0,0,1,.647.647v.013A.647.647,0,0,1,68.636,30.671Z" transform="translate(-45.857 0)"/>
</svg>
