<svg xmlns="http://www.w3.org/2000/svg" xmlns:xlink="http://www.w3.org/1999/xlink" viewBox="0 0 184.944 184.944">
  <defs>
    <style>
      .cls-1, .cls-8, .cls-9 {
        fill: #fff;
      }

      .cls-2 {
        fill: url(#linear-gradient);
      }

      .cls-3 {
        fill: #f4f4f4;
      }

      .cls-4 {
        fill: #034ea2;
      }

      .cls-5 {
        fill: #1b75bc;
      }

      .cls-6 {
        fill: #58595b;
      }

      .cls-7 {
        fill: #8c9091;
      }

      .cls-8 {
        font-size: 18px;
      }

      .cls-8, .cls-9 {
        font-family: Helvetica;
      }

      .cls-9 {
        font-size: 11px;
      }

      .cls-10 {
        fill: #1a4783;
        font-size: 16px;
        font-family: Helvetica-Bold, Helvetica;
        font-weight: 700;
      }

      .cls-11 {
        filter: url(#Ellipse_215);
      }
    </style>
    <filter id="Ellipse_215" x="0" y="0" width="184.944" height="184.944" filterUnits="userSpaceOnUse">
      <feOffset dy="3" input="SourceAlpha"/>
      <feGaussianBlur stdDeviation="5" result="blur"/>
      <feFlood flood-opacity="0.082"/>
      <feComposite operator="in" in2="blur"/>
      <feComposite in="SourceGraphic"/>
    </filter>
    <linearGradient id="linear-gradient" x1="0.1" y1="0.178" x2="0.822" y2="0.137" gradientUnits="objectBoundingBox">
      <stop offset="0" stop-color="#85ba41"/>
      <stop offset="1" stop-color="#1a4783"/>
    </linearGradient>
  </defs>
  <g id="Group_2438" data-name="Group 2438" transform="translate(-418 -652.256)">
    <g class="cls-11" transform="matrix(1, 0, 0, 1, 418, 652.26)">
      <ellipse id="Ellipse_215-2" data-name="Ellipse 215" class="cls-1" cx="77.472" cy="77.472" rx="77.472" ry="77.472" transform="translate(15 12)"/>
    </g>
    <g id="Group_2431" data-name="Group 2431" transform="translate(482.687 664.128)">
      <g id="Group_2333" data-name="Group 2333">
        <path id="Path_10929" data-name="Path 10929" class="cls-2" d="M66.918,77.643,39.2,5.405A74.084,74.084,0,0,1,66.918.3Z" transform="translate(-39.2 -0.3)"/>
      </g>
    </g>
    <ellipse id="Ellipse_217" data-name="Ellipse 217" class="cls-3" cx="58.667" cy="58.667" rx="58.667" ry="58.667" transform="translate(452 683.061)"/>
    <g id="Group_2433" data-name="Group 2433" transform="translate(-697 -300)">
      <path id="Path_10907" data-name="Path 10907" class="cls-4" d="M376.159,36.218a.819.819,0,0,1-.818.818H358.418a.818.818,0,1,1,0-1.635h16.924a.819.819,0,0,1,.818.818" transform="translate(840.368 984)"/>
      <path id="Path_10908" data-name="Path 10908" class="cls-5" d="M380.269,101.029a4.939,4.939,0,0,1-5.151,4.66H356.151a4.886,4.886,0,0,1-5.151-4.66V48.46a4.939,4.939,0,0,1,5.151-4.66h18.967a4.886,4.886,0,0,1,5.151,4.66Z" transform="translate(841.573 982.468)"/>
      <path id="Path_10909" data-name="Path 10909" class="cls-5" d="M359.2,43.25h15.861V37.2H359.2Zm11.282-.981H363.86a2.044,2.044,0,1,1,0-4.088h6.622a2.024,2.024,0,0,1,2.044,2.044,2.134,2.134,0,0,1-2.044,2.044" transform="translate(840.076 983.672)"/>
      <path id="Path_10910" data-name="Path 10910" class="cls-4" d="M380.713,51.269a.559.559,0,0,1-.572.572H350.872a.572.572,0,1,1,0-1.145h29.269c.327-.082.572.164.572.572" transform="translate(841.7 981.212)"/>
      <path id="Path_10911" data-name="Path 10911" class="cls-4" d="M380.713,111.969a.559.559,0,0,1-.572.572H350.872a.572.572,0,1,1,0-1.145h29.269c.327-.082.572.245.572.572" transform="translate(841.7 970.137)"/>
      <path id="Path_10912" data-name="Path 10912" class="cls-4" d="M376.394,122.036a.733.733,0,0,1-.736.736H357.836a.736.736,0,0,1,0-1.472h17.741a.755.755,0,0,1,.818.736" transform="translate(840.46 968.328)"/>
      <path id="Path_10913" data-name="Path 10913" class="cls-6" d="M371.377,39.454a.645.645,0,0,1-.654.654h-5.069a.654.654,0,1,1,0-1.308h5.069a.7.7,0,0,1,.654.654" transform="translate(839.018 983.38)"/>
      <rect id="Rectangle_2431" data-name="Rectangle 2431" class="cls-7" width="1.799" height="2.453" transform="translate(1206.307 1023.57)"/>
      <rect id="Rectangle_2432" data-name="Rectangle 2432" class="cls-7" width="1.472" height="1.472" transform="translate(1205.163 1023.978)"/>
      <rect id="Rectangle_2433" data-name="Rectangle 2433" class="cls-6" width="0.491" height="1.472" transform="translate(1204.591 1023.978)"/>
      <rect id="Rectangle_2434" data-name="Rectangle 2434" class="cls-5" width="2.044" height="1.472" transform="translate(1199.276 1088.157)"/>
      <rect id="Rectangle_2435" data-name="Rectangle 2435" class="cls-5" width="2.044" height="1.472" transform="translate(1206.144 1088.157)"/>
      <rect id="Rectangle_2436" data-name="Rectangle 2436" class="cls-5" width="2.044" height="1.472" transform="translate(1213.093 1088.157)"/>
      <text id="_48" data-name="48" class="cls-8" transform="translate(1196.214 1053.655)"><tspan x="0" y="0">48</tspan></text>
      <text id="kg." class="cls-9" transform="translate(1201.122 1066.358)"><tspan x="0" y="0">kg.</tspan></text>
    </g>
    <text id="_5.82_" data-name="5.82%" class="cls-10" transform="translate(488 712)"><tspan x="0" y="0">5.82%</tspan></text>
  </g>
</svg>
