<svg xmlns="http://www.w3.org/2000/svg" xmlns:xlink="http://www.w3.org/1999/xlink" viewBox="0 0 184.944 184.944">
  <defs>
    <style>
      .cls-1, .cls-8, .cls-9 {
        fill: #fff;
      }

      .cls-2 {
        fill: url(#linear-gradient);
      }

      .cls-3 {
        fill: #f4f4f4;
      }

      .cls-4 {
        fill: #034ea2;
      }

      .cls-5 {
        fill: #1b75bc;
      }

      .cls-6 {
        fill: #58595b;
      }

      .cls-7 {
        fill: #8c9091;
      }

      .cls-8 {
        font-size: 13px;
      }

      .cls-8, .cls-9 {
        font-family: Helvetica;
      }

      .cls-9 {
        font-size: 11.676px;
      }

      .cls-10 {
        fill: #1a4783;
        font-size: 16px;
        font-family: Helvetica-Bold, Helvetica;
        font-weight: 700;
      }

      .cls-11 {
        filter: url(#Ellipse_212);
      }
    </style>
    <filter id="Ellipse_212" x="0" y="0" width="184.944" height="184.944" filterUnits="userSpaceOnUse">
      <feOffset dy="3" input="SourceAlpha"/>
      <feGaussianBlur stdDeviation="5" result="blur"/>
      <feFlood flood-opacity="0.161"/>
      <feComposite operator="in" in2="blur"/>
      <feComposite in="SourceGraphic"/>
    </filter>
    <linearGradient id="linear-gradient" x1="0.5" y1="1.025" x2="0.445" y2="0.34" gradientUnits="objectBoundingBox">
      <stop offset="0" stop-color="#85ba41"/>
      <stop offset="1" stop-color="#1a4783"/>
    </linearGradient>
  </defs>
  <g id="Group_2436" data-name="Group 2436" transform="translate(-221 -652)">
    <g class="cls-11" transform="matrix(1, 0, 0, 1, 221, 652)">
      <ellipse id="Ellipse_212-2" data-name="Ellipse 212" class="cls-1" cx="77.472" cy="77.472" rx="77.472" ry="77.472" transform="translate(15 12)"/>
    </g>
    <g id="Group_2429" data-name="Group 2429" transform="translate(236 669)">
      <g id="Group_2335" data-name="Group 2335">
        <path id="Path_10930" data-name="Path 10930" class="cls-2" d="M77.829,76.652,123.5,139.417a77.535,77.535,0,1,1-91.218-125.4A72.862,72.862,0,0,1,50.067,4.3Z" transform="translate(-0.301 -4.3)"/>
      </g>
    </g>
    <ellipse id="Ellipse_213" data-name="Ellipse 213" class="cls-3" cx="58.667" cy="58.667" rx="58.667" ry="58.667" transform="translate(255 683.061)"/>
    <g id="Group_2430" data-name="Group 2430" transform="translate(-703.1 -309)">
      <path id="Path_10914" data-name="Path 10914" class="cls-4" d="M292.8,63.8a1,1,0,0,1-1,1H271.1a1,1,0,0,1,0-2h20.7a.945.945,0,0,1,1,1" transform="translate(735.2 977)"/>
      <path id="Path_10915" data-name="Path 10915" class="cls-5" d="M299.3,113.8c0,3.1-2.8,5.7-6.3,5.7H269.8c-3.5,0-6.3-2.5-6.3-5.7V76.9c0-3.1,2.8-5.7,6.3-5.7H293c3.5,0,6.3,2.5,6.3,5.7Z" transform="translate(735.2 977)"/>
      <path id="Path_10916" data-name="Path 10916" class="cls-5" d="M271.7,72h19.4V64.6H271.7Zm13.8-1.2h-8.1a2.5,2.5,0,0,1,0-5h8.1a2.5,2.5,0,0,1,0,5" transform="translate(735.2 977)"/>
      <path id="Path_10917" data-name="Path 10917" class="cls-4" d="M300.1,78.7a.684.684,0,0,1-.7.7H263.6a.7.7,0,1,1,0-1.4h35.8a.684.684,0,0,1,.7.7" transform="translate(735.2 977)"/>
      <path id="Path_10918" data-name="Path 10918" class="cls-4" d="M300.1,112.1a.684.684,0,0,1-.7.7H263.6a.7.7,0,1,1,0-1.4h35.8c.4-.1.7.3.7.7" transform="translate(735.2 977)"/>
      <path id="Path_10919" data-name="Path 10919" class="cls-4" d="M293.2,122.2a.9.9,0,0,1-.9.9H270.6a.9.9,0,0,1,0-1.8h21.7a.9.9,0,0,1,.9.9" transform="translate(735.2 977)"/>
      <path id="Path_10920" data-name="Path 10920" class="cls-6" d="M285.4,67a.789.789,0,0,1-.8.8h-6.2a.8.8,0,0,1,0-1.6h6.2a.86.86,0,0,1,.8.8" transform="translate(735.2 977)"/>
      <rect id="Rectangle_2438" data-name="Rectangle 2438" class="cls-7" width="2.2" height="3" transform="translate(1015.6 1044.8)"/>
      <rect id="Rectangle_2439" data-name="Rectangle 2439" class="cls-7" width="1.8" height="1.8" transform="translate(1014.1 1045.4)"/>
      <rect id="Rectangle_2440" data-name="Rectangle 2440" class="cls-6" width="0.6" height="1.8" transform="translate(1013.5 1045.4)"/>
      <rect id="Rectangle_2441" data-name="Rectangle 2441" class="cls-5" width="2.5" height="1.8" transform="translate(1006.9 1096.5)"/>
      <rect id="Rectangle_2442" data-name="Rectangle 2442" class="cls-5" width="2.5" height="1.8" transform="translate(1015.4 1096.5)"/>
      <rect id="Rectangle_2443" data-name="Rectangle 2443" class="cls-5" width="2.5" height="1.8" transform="translate(1023.8 1096.5)"/>
      <text id="_15" data-name="15" class="cls-8" transform="translate(1009.004 1072.221)"><tspan x="0" y="0">15</tspan></text>
      <text id="kg." class="cls-9" transform="translate(1010.231 1083.734)"><tspan x="0" y="0">kg.</tspan></text>
    </g>
    <text id="_54.18_" data-name="54.18%" class="cls-10" transform="translate(287 712)"><tspan x="0" y="0">54.18%</tspan></text>
  </g>
</svg>
