<svg xmlns="http://www.w3.org/2000/svg" xmlns:xlink="http://www.w3.org/1999/xlink" viewBox="0 0 184.944 184.944">
  <defs>
    <style>
      .cls-1, .cls-8, .cls-9 {
        fill: #fff;
      }

      .cls-2 {
        fill: url(#linear-gradient);
      }

      .cls-3 {
        fill: #f4f4f4;
      }

      .cls-4 {
        fill: #034ea2;
      }

      .cls-5 {
        fill: #1b75bc;
      }

      .cls-6 {
        fill: #58595b;
      }

      .cls-7 {
        fill: #8c9091;
      }

      .cls-8 {
        font-size: 13px;
      }

      .cls-8, .cls-9 {
        font-family: Helvetica;
      }

      .cls-9 {
        font-size: 11px;
      }

      .cls-10 {
        fill: #1a4783;
        font-size: 16px;
        font-family: Helvetica-Bold, Helvetica;
        font-weight: 700;
      }

      .cls-11 {
        filter: url(#Ellipse_214);
      }
    </style>
    <filter id="Ellipse_214" x="0" y="0" width="184.944" height="184.944" filterUnits="userSpaceOnUse">
      <feOffset dy="3" input="SourceAlpha"/>
      <feGaussianBlur stdDeviation="5" result="blur"/>
      <feFlood flood-opacity="0.102"/>
      <feComposite operator="in" in2="blur"/>
      <feComposite in="SourceGraphic"/>
    </filter>
    <linearGradient id="linear-gradient" x1="0.816" y1="1.152" x2="0.827" y2="0.359" gradientUnits="objectBoundingBox">
      <stop offset="0" stop-color="#85ba41"/>
      <stop offset="1" stop-color="#1a4783"/>
    </linearGradient>
  </defs>
  <g id="Group_2437" data-name="Group 2437" transform="translate(-418 -499.256)">
    <g class="cls-11" transform="matrix(1, 0, 0, 1, 418, 499.26)">
      <ellipse id="Ellipse_214-2" data-name="Ellipse 214" class="cls-1" cx="77.472" cy="77.472" rx="77.472" ry="77.472" transform="translate(15 12)"/>
    </g>
    <g id="Group_2434" data-name="Group 2434" transform="translate(510.405 588.471)">
      <g id="Group_2337" data-name="Group 2337">
        <path id="Path_10931" data-name="Path 10931" class="cls-2" d="M60.9,60.9l74.276,24.052a76.35,76.35,0,0,1-28.32,38.972Z" transform="translate(-60.9 -60.9)"/>
      </g>
    </g>
    <ellipse id="Ellipse_216" data-name="Ellipse 216" class="cls-3" cx="58.667" cy="58.667" rx="58.667" ry="58.667" transform="translate(452 530.061)"/>
    <g id="Group_2432" data-name="Group 2432" transform="translate(491.348 578.815)">
      <path id="Path_10900" data-name="Path 10900" class="cls-4" d="M205.673,82.455a1.05,1.05,0,0,1-1.055,1.055H183.055a1.055,1.055,0,0,1,0-2.11h21.564a1.05,1.05,0,0,1,1.055,1.055" transform="translate(-174.265 -81.4)"/>
      <path id="Path_10901" data-name="Path 10901" class="cls-5" d="M213.434,119.354c0,3.281-2.93,5.86-6.446,5.86H182.846c-3.633,0-6.446-2.578-6.446-5.86V94.86c0-3.281,2.93-5.86,6.446-5.86h24.142c3.633,0,6.446,2.578,6.446,5.86Z" transform="translate(-175.228 -80.093)"/>
      <path id="Path_10902" data-name="Path 10902" class="cls-5" d="M183.5,90.735h20.158V83H183.5Zm14.3-1.289H189.36a2.578,2.578,0,0,1,0-5.157H197.8a2.578,2.578,0,1,1,0,5.157" transform="translate(-174.007 -81.125)"/>
      <path id="Path_10903" data-name="Path 10903" class="cls-4" d="M214.309,95.72a.8.8,0,0,1-.82.82H176.22a.82.82,0,0,1,0-1.641h37.385c.469,0,.7.352.7.82" transform="translate(-175.4 -79.079)"/>
      <path id="Path_10904" data-name="Path 10904" class="cls-4" d="M214.309,113.42a.8.8,0,0,1-.82.82H176.22a.82.82,0,1,1,0-1.641h37.385a.856.856,0,0,1,.7.82" transform="translate(-175.4 -76.035)"/>
      <path id="Path_10905" data-name="Path 10905" class="cls-4" d="M206.194,122.438a.924.924,0,0,1-.938.938H182.638a.938.938,0,0,1,0-1.875h22.619a1.008,1.008,0,0,1,.938.938" transform="translate(-174.317 -74.505)"/>
      <path id="Path_10906" data-name="Path 10906" class="cls-6" d="M196.786,85.323a.8.8,0,0,1-.82.82H189.52a.82.82,0,1,1,0-1.641h6.446c.469-.117.82.352.82.82" transform="translate(-173.113 -80.87)"/>
      <rect id="Rectangle_2424" data-name="Rectangle 2424" class="cls-7" width="2.344" height="3.047" transform="translate(18.517 5.274)"/>
      <rect id="Rectangle_2425" data-name="Rectangle 2425" class="cls-7" width="1.875" height="1.875" transform="translate(16.993 5.86)"/>
      <rect id="Rectangle_2426" data-name="Rectangle 2426" class="cls-6" width="0.703" height="1.875" transform="translate(16.29 5.86)"/>
      <rect id="Rectangle_2427" data-name="Rectangle 2427" class="cls-5" width="2.578" height="1.875" transform="translate(9.493 45.12)"/>
      <rect id="Rectangle_2428" data-name="Rectangle 2428" class="cls-5" width="2.578" height="1.875" transform="translate(18.282 45.12)"/>
      <rect id="Rectangle_2429" data-name="Rectangle 2429" class="cls-5" width="2.578" height="1.875" transform="translate(27.072 45.12)"/>
      <text id="_13.5" data-name="13.5" class="cls-8" transform="translate(5.83 27.311)"><tspan x="0" y="0">13.5</tspan></text>
      <text id="kg." class="cls-9" transform="translate(14.007 36.151)"><tspan x="0" y="0">kg.</tspan></text>
    </g>
    <text id="_9.75_" data-name="9.75%" class="cls-10" transform="translate(488 567)"><tspan x="0" y="0">9.75%</tspan></text>
  </g>
</svg>
