<svg id="Group_2360" data-name="Group 2360" xmlns="http://www.w3.org/2000/svg" xmlns:xlink="http://www.w3.org/1999/xlink" viewBox="0 0 284.505 88.611">
  <defs>
    <style>
      .cls-1 {
        fill: url(#linear-gradient);
      }

      .cls-2 {
        fill: #fff;
      }
    </style>
    <linearGradient id="linear-gradient" x1="0.161" y1="0.877" x2="0.832" y2="0.126" gradientUnits="objectBoundingBox">
      <stop offset="0" stop-color="#034ea2"/>
      <stop offset="0.496" stop-color="#286e37"/>
      <stop offset="1" stop-color="#8ec13f"/>
    </linearGradient>
  </defs>
  <path id="Path_10938" data-name="Path 10938" class="cls-1" d="M34.736,35.309a16.116,16.116,0,0,1-3.565-1.528A12.657,12.657,0,0,1,28.285,31.4a10.077,10.077,0,0,1-2.207-3.056,11.318,11.318,0,0,1-1.528-3.565,14.47,14.47,0,0,1-.509-3.9,13.534,13.534,0,0,1,1.188-5.772,15.248,15.248,0,0,1,3.056-4.753A17.226,17.226,0,0,1,32.868,7.13,13.027,13.027,0,0,1,38.64,5.941a14.469,14.469,0,0,1,3.9.509,16.115,16.115,0,0,1,3.565,1.528,18.658,18.658,0,0,1,3.056,2.377,13.486,13.486,0,0,1,2.377,3.056,11.318,11.318,0,0,1,1.528,3.565,15.221,15.221,0,0,1,0,7.809,16.115,16.115,0,0,1-1.528,3.565A18.658,18.658,0,0,1,49.165,31.4a14.636,14.636,0,0,1-3.056,2.377,11.318,11.318,0,0,1-3.565,1.528,14.47,14.47,0,0,1-3.9.509,15.412,15.412,0,0,1-3.9-.509M33.208.679a21.4,21.4,0,0,0-4.923,2.037,25.457,25.457,0,0,0-4.244,3.225,25.457,25.457,0,0,0-3.225,4.244,22.791,22.791,0,0,0-2.037,5.093,21.088,21.088,0,0,0-.679,5.6,21.088,21.088,0,0,0,.679,5.6,26.581,26.581,0,0,0,2.037,5.093,20,20,0,0,0,3.225,4.244,15.618,15.618,0,0,0,4.244,3.225,25.652,25.652,0,0,0,4.923,2.207,20.274,20.274,0,0,0,5.6.679,21.088,21.088,0,0,0,5.6-.679A19.3,19.3,0,0,0,49.5,39.043a25.457,25.457,0,0,0,4.244-3.225,25.457,25.457,0,0,0,3.225-4.244,22.791,22.791,0,0,0,2.037-5.093,20.274,20.274,0,0,0,.679-5.6,19.5,19.5,0,0,0-.679-5.6,22.791,22.791,0,0,0-2.037-5.093,20,20,0,0,0-3.225-4.244A18.722,18.722,0,0,0,49.5,2.716,16.851,16.851,0,0,0,44.412.679,21.088,21.088,0,0,0,38.81,0a19.5,19.5,0,0,0-5.6.679" transform="translate(12.625 0)"/>
  <path id="Path_10939" data-name="Path 10939" class="cls-2" d="M25.8,13.441a13.484,13.484,0,0,1-1.019,5.432,10.117,10.117,0,0,1-2.716,4.074,10.321,10.321,0,0,1-4.074,2.546,12.048,12.048,0,0,1-4.923.849H5.941V41.11H0V.2H12.9a13.224,13.224,0,0,1,5.262,1.019A13.7,13.7,0,0,1,22.238,4.1a14.841,14.841,0,0,1,2.546,4.244A12.4,12.4,0,0,1,25.8,13.441m-6.111,0a7.037,7.037,0,0,0-.509-2.716,5.989,5.989,0,0,0-1.358-2.207A5.169,5.169,0,0,0,15.617,6.99,6.464,6.464,0,0,0,12.9,6.481H5.941V20.4H12.9a7.315,7.315,0,0,0,2.886-.509,6.46,6.46,0,0,0,2.207-1.528,9.624,9.624,0,0,0,1.358-2.207,14.857,14.857,0,0,0,.34-2.716" transform="translate(0 0.14)"/>
  <path id="Path_10940" data-name="Path 10940" class="cls-2" d="M83.85,41.21H78.588L69.93,12.862,62.122,41.21H56.689L42.6.3h6.62L59.236,28.988,67.044.3h5.432l8.488,29.028L90.131.3h6.451Z" transform="translate(29.715 0.209)"/>
  <path id="Path_10941" data-name="Path 10941" class="cls-2" d="M77.4,41.21V.3h22.747V6.581H83.341V16.766H99.128v6.281H83.341V34.93h17.145V41.21Z" transform="translate(53.988 0.209)"/>
  <path id="Path_10942" data-name="Path 10942" class="cls-2" d="M116.17,41.11,103.948,25.833V20.57H108.7a7.037,7.037,0,0,0,2.716-.509,6.46,6.46,0,0,0,2.207-1.528,6.46,6.46,0,0,0,1.528-2.207,7.93,7.93,0,0,0,.509-2.886,6.2,6.2,0,0,0-.509-2.546,6.46,6.46,0,0,0-1.528-2.207,6.46,6.46,0,0,0-2.207-1.528,7.037,7.037,0,0,0-2.716-.509h-6.96V41.28H95.8V.2h12.9a10.945,10.945,0,0,1,3.4.509,9.9,9.9,0,0,1,3.056,1.358A10.356,10.356,0,0,1,117.868,4.1,10.356,10.356,0,0,1,119.9,6.82a18.4,18.4,0,0,1,1.358,3.225,12.923,12.923,0,0,1,.509,3.565,12.658,12.658,0,0,1-.679,4.414,13.175,13.175,0,0,1-2.037,3.735A12.358,12.358,0,0,1,116,24.644a11.4,11.4,0,0,1-3.9,1.7L124.488,41.62Z" transform="translate(66.823 0.14)"/>
  <path id="Path_10943" data-name="Path 10943" class="cls-2" d="M157.47,31.534a12.253,12.253,0,0,1-1.528,3.4,18.53,18.53,0,0,1-2.207,2.886,18.532,18.532,0,0,1-2.886,2.207,20.233,20.233,0,0,1-3.4,1.358,12.922,12.922,0,0,1-3.565.509,13.238,13.238,0,0,1-3.735-.509,20.233,20.233,0,0,1-3.4-1.358,11.867,11.867,0,0,1-2.886-2.207,12.947,12.947,0,0,1-2.207-2.886,11.853,11.853,0,0,1-1.358-3.4,14.469,14.469,0,0,1-.509-3.9V.3h6.111V27.8a6.889,6.889,0,0,0,.679,3.225,6.715,6.715,0,0,0,1.7,2.546,9.514,9.514,0,0,0,2.546,1.7,9.612,9.612,0,0,0,3.056.509,5.813,5.813,0,0,0,3.056-.679,6.715,6.715,0,0,0,2.546-1.7,6.715,6.715,0,0,0,1.7-2.546,9.913,9.913,0,0,0,.679-3.056V.3h6.111V27.8a13.24,13.24,0,0,1-.509,3.735" transform="translate(90.539 0.209)"/>
  <path id="Path_10944" data-name="Path 10944" class="cls-2" d="M178.133,13.441a13.484,13.484,0,0,1-1.019,5.432,12.208,12.208,0,0,1-2.716,4.074,10.321,10.321,0,0,1-4.074,2.546,12.048,12.048,0,0,1-4.923.849h-6.96V41.11H152.5V.2h12.9a13.225,13.225,0,0,1,5.262,1.019A13.7,13.7,0,0,1,174.738,4.1a9.828,9.828,0,0,1,2.546,4.244,12.369,12.369,0,0,1,.849,5.093m-5.941,0a7.038,7.038,0,0,0-.509-2.716,5.989,5.989,0,0,0-1.358-2.207,5.169,5.169,0,0,0-2.207-1.528,7.929,7.929,0,0,0-2.886-.509h-6.79V20.4h6.96a7.316,7.316,0,0,0,2.886-.509,6.46,6.46,0,0,0,2.207-1.528,9.624,9.624,0,0,0,1.358-2.207,14.859,14.859,0,0,0,.34-2.716" transform="translate(106.372 0.14)"/>
  <path id="Path_10945" data-name="Path 10945" class="cls-2" d="M16.247,52.928V66.169h-3.4V53.1L.8,31.2H4.7L14.55,48.684,24.565,31.2H28.3Z" transform="translate(0.558 21.763)"/>
  <path id="Path_10946" data-name="Path 10946" class="cls-2" d="M53.918,48.894a14.645,14.645,0,0,1-.679,4.753,16.084,16.084,0,0,1-1.867,4.244,20,20,0,0,1-2.886,3.735,29.414,29.414,0,0,1-3.565,2.886,18.971,18.971,0,0,1-4.244,1.867,15.335,15.335,0,0,1-4.753.679,14.645,14.645,0,0,1-4.753-.679,18.971,18.971,0,0,1-4.244-1.867,14.773,14.773,0,0,1-3.565-2.886,15.074,15.074,0,0,1-2.716-3.735,18.971,18.971,0,0,1-1.867-4.244,21.4,21.4,0,0,1-.679-4.753,14.645,14.645,0,0,1,.679-4.753A12,12,0,0,1,20.646,39.9a19.694,19.694,0,0,1,2.716-3.565,20.343,20.343,0,0,1,3.565-2.886,18.972,18.972,0,0,1,4.244-1.867,14.645,14.645,0,0,1,4.753-.679,14.645,14.645,0,0,1,4.753.679,16.084,16.084,0,0,1,4.244,1.867,14.773,14.773,0,0,1,3.565,2.886A29.415,29.415,0,0,1,51.371,39.9a18.972,18.972,0,0,1,1.867,4.244,14.645,14.645,0,0,1,.679,4.753m-3.4,0a14.469,14.469,0,0,0-.509-3.9,12.253,12.253,0,0,0-1.528-3.4,18.531,18.531,0,0,0-2.207-2.886A11.868,11.868,0,0,0,43.393,36.5a11.318,11.318,0,0,0-3.565-1.528,14.47,14.47,0,0,0-3.9-.509,15.412,15.412,0,0,0-3.9.509,12.253,12.253,0,0,0-3.4,1.528,18.531,18.531,0,0,0-2.886,2.207,11.867,11.867,0,0,0-2.207,2.886A20.619,20.619,0,0,0,22,44.989,15.221,15.221,0,0,0,22,52.8a12.253,12.253,0,0,0,1.528,3.4,18.531,18.531,0,0,0,2.207,2.886,11.868,11.868,0,0,0,2.886,2.207,12.253,12.253,0,0,0,3.4,1.528,15.221,15.221,0,0,0,7.809,0,16.115,16.115,0,0,0,3.565-1.528,18.531,18.531,0,0,0,2.886-2.207,11.867,11.867,0,0,0,2.207-2.886,12.252,12.252,0,0,0,1.528-3.4,14.47,14.47,0,0,0,.509-3.9" transform="translate(12.625 21.554)"/>
  <path id="Path_10947" data-name="Path 10947" class="cls-2" d="M65.717,59.718a14.521,14.521,0,0,1-2.546,3.735,11.5,11.5,0,0,1-3.9,2.377,14.554,14.554,0,0,1-4.583.849,20.8,20.8,0,0,1-3.225-.34,14.686,14.686,0,0,1-2.886-1.188,12.05,12.05,0,0,1-2.377-1.7,12.818,12.818,0,0,1-1.867-2.377,18.862,18.862,0,0,1-1.188-2.716,9.922,9.922,0,0,1-.34-3.225V31.2h3.4V55.135a6.462,6.462,0,0,0,.679,3.225,9.514,9.514,0,0,0,1.7,2.546,7.392,7.392,0,0,0,2.716,1.7,10.975,10.975,0,0,0,3.4.679,8.092,8.092,0,0,0,3.4-.679,9.12,9.12,0,0,0,2.716-1.7,7.09,7.09,0,0,0,1.867-2.546,6.889,6.889,0,0,0,.679-3.225V31.2h3.4V55.135a10.633,10.633,0,0,1-1.019,4.583" transform="translate(29.854 21.763)"/>
  <path id="Path_10948" data-name="Path 10948" class="cls-2" d="M80.7,66.169,69.839,52.928v-3.4h3.4a7.929,7.929,0,0,0,2.886-.509,6.65,6.65,0,0,0,3.9-3.9,8.431,8.431,0,0,0,0-5.772,6.65,6.65,0,0,0-3.9-3.9,7.929,7.929,0,0,0-2.886-.509H65.6V66.508H62.2V31.2H73.234a14.95,14.95,0,0,1,2.886.34,11.7,11.7,0,0,1,2.546,1.188,10.763,10.763,0,0,1,3.9,3.9,17.131,17.131,0,0,1,1.188,2.546,7.941,7.941,0,0,1,.34,2.886,11.668,11.668,0,0,1-.849,4.074,10.611,10.611,0,0,1-2.207,3.4,11.357,11.357,0,0,1-3.225,2.377,8.065,8.065,0,0,1-4.074,1.019l11.034,13.41H80.7Z" transform="translate(43.386 21.763)"/>
  <path id="Path_10949" data-name="Path 10949" class="cls-2" d="M91.2,66.169V31.2h3.565V62.774H109.7v3.4Z" transform="translate(63.614 21.763)"/>
  <rect id="Rectangle_2501" data-name="Rectangle 2501" class="cls-2" width="3.395" height="34.969" transform="translate(182.144 52.963)"/>
  <path id="Path_10950" data-name="Path 10950" class="cls-2" d="M120.365,34.6V46.308h15.108v3.4H120.365V66.169H116.8V31.2h19.522v3.4Z" transform="translate(81.471 21.763)"/>
  <path id="Path_10951" data-name="Path 10951" class="cls-2" d="M132.3,66.169V31.2h19.352v3.4H135.7V46.308H150.8v3.4H135.7V62.774h16.3v3.4Z" transform="translate(92.283 21.763)"/>
</svg>
