<svg xmlns="http://www.w3.org/2000/svg" viewBox="0 0 50 40.839">
  <path id="Path_13791" data-name="Path 13791" d="M1.507.177A9.863,9.863,0,0,1-5.636-2.7a9.3,9.3,0,0,1-2.95-6.91,14.071,14.071,0,0,1,.543-3.8,34.849,34.849,0,0,1,2.1-5.2l10.4-22.05h9.317L7.563-17.37A9.439,9.439,0,0,1,11.6-9.606,9.185,9.185,0,0,1,8.572-2.7,9.943,9.943,0,0,1,1.507.177Zm27.64,0A9.863,9.863,0,0,1,22-2.7a9.3,9.3,0,0,1-2.95-6.91,14.071,14.071,0,0,1,.543-3.8,34.849,34.849,0,0,1,2.1-5.2l10.4-22.05h9.317L35.2-17.37A9.439,9.439,0,0,1,39.24-9.606,9.186,9.186,0,0,1,36.212-2.7,9.943,9.943,0,0,1,29.147.177Z" transform="translate(8.586 40.662)"/>
</svg>
