<svg xmlns="http://www.w3.org/2000/svg" viewBox="0 0 50 40.839">
  <path id="Path_13792" data-name="Path 13792" d="M3.465-40.662a9.863,9.863,0,0,1,7.143,2.873,9.3,9.3,0,0,1,2.95,6.91,14.071,14.071,0,0,1-.543,3.8,34.848,34.848,0,0,1-2.1,5.2L.515.177H-8.8l6.211-23.292a9.439,9.439,0,0,1-4.037-7.764A9.185,9.185,0,0,1-3.6-37.789,9.943,9.943,0,0,1,3.465-40.662Zm27.64,0a9.863,9.863,0,0,1,7.143,2.873,9.3,9.3,0,0,1,2.95,6.91,14.071,14.071,0,0,1-.543,3.8,34.848,34.848,0,0,1-2.1,5.2L28.155.177H18.838l6.211-23.292a9.439,9.439,0,0,1-4.037-7.764,9.185,9.185,0,0,1,3.028-6.91A9.943,9.943,0,0,1,31.1-40.662Z" transform="translate(8.802 40.662)"/>
</svg>
