<svg id="_003-contact" data-name="003-contact" xmlns="http://www.w3.org/2000/svg" viewBox="0 0 35.57 33.666">
  <defs>
    <style>
      .cls-1 {
        fill: #1a4783;
      }
    </style>
  </defs>
  <g id="Group_2583" data-name="Group 2583" transform="translate(0 0)">
    <g id="Group_2582" data-name="Group 2582">
      <path id="Path_13392" data-name="Path 13392" class="cls-1" d="M27.094,126.994l-6-4a.618.618,0,0,0-.826.134l-1.746,2.245a1.872,1.872,0,0,1-2.4.494l-.323-.177a21.09,21.09,0,0,1-5.492-4.3,21.064,21.064,0,0,1-4.3-5.493l-.178-.323a1.871,1.871,0,0,1,.494-2.4l2.244-1.747A.617.617,0,0,0,8.7,110.6l-4-6a.614.614,0,0,0-.826-.186l-2.509,1.5a2.414,2.414,0,0,0-1.1,1.424c-.824,3-.131,8.255,7.85,16.236s13.233,8.675,16.237,7.851a2.414,2.414,0,0,0,1.424-1.106l1.5-2.509A.614.614,0,0,0,27.094,126.994Z" transform="translate(0 -98.034)"/>
      <path id="Path_13393" data-name="Path 13393" class="cls-1" d="M127.433,13.8a.346.346,0,0,0-.248-.1h-26.62a.345.345,0,0,0-.349.349V23.3l1.51,2.264a1.892,1.892,0,0,1-.411,2.534l-2.242,1.747a.606.606,0,0,0-.164.776l.183.334a16.02,16.02,0,0,0,2.12,3.09h25.974a.347.347,0,0,0,.349-.342V14.049A.345.345,0,0,0,127.433,13.8ZM109.382,25.355v0l-6.508,6.973a.635.635,0,0,1-.93-.867l6.508-6.97a.635.635,0,0,1,.929.867Zm4.492-.5a2.106,2.106,0,0,1-1.271-.419l-10.619-8.052a.637.637,0,0,1,.771-1.013l10.615,8.052a.857.857,0,0,0,1.008,0L125,15.371a.636.636,0,0,1,.768,1.013l-10.619,8.052A2.106,2.106,0,0,1,113.874,24.855Zm11.939,7.5a.635.635,0,0,1-.9-.031l-6.508-6.973a.635.635,0,0,1,.931-.863l6.506,6.97A.635.635,0,0,1,125.814,32.356Z" transform="translate(-91.964 -13.7)"/>
    </g>
  </g>
</svg>
