<svg id="_002-manager" data-name="002-manager" xmlns="http://www.w3.org/2000/svg" viewBox="0 0 43.272 40.635">
  <defs>
    <style>
      .cls-1 {
        fill: #1a4783;
      }
    </style>
  </defs>
  <path id="Path_13388" data-name="Path 13388" class="cls-1" d="M50.386,22.475a6.71,6.71,0,1,0-6.71-6.71A6.717,6.717,0,0,0,50.386,22.475Z" transform="translate(-37.312 -9.055)"/>
  <path id="Path_13389" data-name="Path 13389" class="cls-1" d="M189.776,174.828a.576.576,0,0,0-.492-.405l-4.062-.5a2.9,2.9,0,0,1-2.291-1.664l-1.727-3.71h0a.593.593,0,0,0-1.075,0l-1.727,3.71a2.9,2.9,0,0,1-2.29,1.664l-4.063.5a.593.593,0,0,0-.332,1.022l2.995,2.79a2.9,2.9,0,0,1,.875,2.693l-.783,4.017a.593.593,0,0,0,.87.632l3.578-1.986a2.9,2.9,0,0,1,2.831,0l3.578,1.986a.593.593,0,0,0,.87-.632l-.783-4.017a2.9,2.9,0,0,1,.875-2.693l3-2.789A.576.576,0,0,0,189.776,174.828Z" transform="translate(-146.534 -145.02)"/>
  <path id="Path_13390" data-name="Path 13390" class="cls-1" d="M22.812,132.275a2.889,2.889,0,0,1,2.42-1.994l.912-.111v-4.7a5.906,5.906,0,0,0-4.067-5.613l-.011,0-3.549-.588a.6.6,0,0,0-.733.365L13.757,130.68a.727.727,0,0,1-1.366,0L8.364,119.631a.6.6,0,0,0-.558-.391c-.058,0-3.724.613-3.724.613A5.945,5.945,0,0,0,0,125.5v9.194a2.5,2.5,0,0,0,2.495,2.495H23.65a2.477,2.477,0,0,0,1.458-.472l-1.51-1.406a2.889,2.889,0,0,1-.786-3.036Z" transform="translate(0 -103.185)"/>
  <path id="Path_13391" data-name="Path 13391" class="cls-1" d="M81.424,116.087a.82.82,0,0,0-.607-.252h-1.7a.819.819,0,0,0-.607.252.787.787,0,0,0-.1.928l.908,1.368-.425,3.584.837,2.226a.255.255,0,0,0,.48,0l.837-2.226-.425-3.584.908-1.368A.788.788,0,0,0,81.424,116.087Z" transform="translate(-66.895 -100.277)"/>
</svg>
