<svg xmlns="http://www.w3.org/2000/svg" viewBox="0 0 385.916 350">
  <defs>
    <style>
      .cls-1 {
        fill: #fff;
        opacity: 0.5;
      }
    </style>
  </defs>
  <g id="Group_10894" data-name="Group 10894" transform="translate(0.016 -0.079)">
    <path id="Path_25223" data-name="Path 25223" class="cls-1" d="M337.541,41.135c4.578,14.386,6.539,30.081,6.539,45.775,0,91.549-77.817,165.443-174.6,165.443,0,0-62.777-.654-106.59-39.889S-.537,112.413,7.964,67.292c0,0-24.849,79.125,51.66,154.326,22.887,22.887,64.085,43.813,109.205,44.467,105.282,1.308,194.215-81.74,194.215-183.753a161.311,161.311,0,0,0-6.539-43.813s-5.231-26.811-18.31-22.887c-9.809,3.27-.654,25.5-.654,25.5" transform="translate(22.856 83.979)"/>
    <path id="Path_25224" data-name="Path 25224" class="cls-1" d="M197.57,13.293S260.347,15.255,303.506,55.8s60.815,101.358,51.006,146.479c0,0,26.811-78.471-48.39-154.98C283.234,24.41,243.345,1.523,197.57.215,92.943-3.709,2.7,78.032.085,179.39c-.654,14.386,1.962,30.734,5.231,44.467,0,0,4.577,26.811,17.656,23.541,9.809-2.616,1.308-25.5,1.308-25.5A175.679,175.679,0,0,1,18.4,176.12C21.011,83.263,100.79,11.332,197.57,13.293" transform="translate(0 0)"/>
  </g>
</svg>
