<?xml version="1.0" encoding="utf-8"?>
<!-- Generator: Adobe Illustrator 24.0.3, SVG Export Plug-In . SVG Version: 6.00 Build 0)  -->
<svg version="1.1" id="Layer_1" xmlns="http://www.w3.org/2000/svg" xmlns:xlink="http://www.w3.org/1999/xlink" x="0px" y="0px"
	 viewBox="0 0 214 26" style="enable-background:new 0 0 214 26;" xml:space="preserve">
<style type="text/css">
	.st0{fill:url(#SVGID_1_);}
	.st1{fill:url(#SVGID_2_);}
	.st2{fill:url(#SVGID_3_);}
	.st3{fill:url(#SVGID_4_);}
	.st4{fill:url(#SVGID_5_);}
	.st5{fill:url(#SVGID_6_);}
	.st6{fill:url(#SVGID_7_);}
	.st7{fill:url(#SVGID_8_);}
	.st8{fill:url(#SVGID_9_);}
	.st9{fill:url(#SVGID_10_);}
	.st10{fill:url(#SVGID_11_);}
	.st11{fill:url(#SVGID_12_);}
	.st12{fill:url(#SVGID_13_);}
</style>
<g>
	<linearGradient id="SVGID_1_" gradientUnits="userSpaceOnUse" x1="212.6984" y1="12.75" x2="-0.9827" y2="12.75">
		<stop  offset="0" style="stop-color:#8EC13F"/>
		<stop  offset="1" style="stop-color:#034EA2"/>
	</linearGradient>
	<path class="st0" d="M1.48,3.65h8.71c0.45,0,0.83,0.14,1.13,0.43c0.3,0.29,0.46,0.66,0.46,1.11c0,0.43-0.15,0.78-0.46,1.05
		c-0.3,0.27-0.68,0.4-1.13,0.4H2.91L3.14,6.2v5.07l-0.21-0.21h6.08c0.45,0,0.83,0.14,1.13,0.43c0.3,0.29,0.46,0.66,0.46,1.11
		c0,0.43-0.15,0.78-0.46,1.05c-0.3,0.27-0.68,0.4-1.13,0.4H3.01l0.13-0.21v5.25l-0.21-0.23h7.25c0.45,0,0.83,0.15,1.13,0.46
		c0.3,0.3,0.46,0.65,0.46,1.05c0,0.43-0.15,0.79-0.46,1.07s-0.68,0.42-1.13,0.42H1.48c-0.45,0-0.83-0.15-1.13-0.46
		c-0.3-0.3-0.45-0.68-0.45-1.13V5.24c0-0.45,0.15-0.83,0.45-1.13C0.65,3.8,1.03,3.65,1.48,3.65z"/>
	<linearGradient id="SVGID_2_" gradientUnits="userSpaceOnUse" x1="212.6984" y1="12.75" x2="-0.9827" y2="12.75">
		<stop  offset="0" style="stop-color:#8EC13F"/>
		<stop  offset="1" style="stop-color:#034EA2"/>
	</linearGradient>
	<path class="st1" d="M28.57,3.65c0.42,0,0.75,0.14,1.01,0.42c0.26,0.28,0.39,0.62,0.39,1.04v15.16c0,0.45-0.15,0.83-0.46,1.13
		c-0.3,0.3-0.68,0.46-1.13,0.46c-0.23,0-0.46-0.04-0.69-0.12c-0.23-0.08-0.41-0.19-0.53-0.33L16.95,8.43l0.68-0.42v12.38
		c0,0.42-0.13,0.76-0.4,1.04c-0.27,0.28-0.62,0.42-1.05,0.42c-0.42,0-0.75-0.14-1.01-0.42c-0.26-0.28-0.39-0.62-0.39-1.04V5.24
		c0-0.45,0.15-0.83,0.45-1.13c0.3-0.3,0.68-0.46,1.13-0.46c0.24,0,0.49,0.05,0.75,0.14c0.26,0.09,0.45,0.24,0.57,0.43l9.91,12.64
		l-0.44,0.31V5.11c0-0.42,0.13-0.76,0.39-1.04C27.79,3.79,28.14,3.65,28.57,3.65z"/>
	<linearGradient id="SVGID_3_" gradientUnits="userSpaceOnUse" x1="212.6984" y1="12.75" x2="-0.9827" y2="12.75">
		<stop  offset="0" style="stop-color:#8EC13F"/>
		<stop  offset="1" style="stop-color:#034EA2"/>
	</linearGradient>
	<path class="st2" d="M35.46,3.65h8.71c0.45,0,0.83,0.14,1.13,0.43c0.3,0.29,0.46,0.66,0.46,1.11c0,0.43-0.15,0.78-0.46,1.05
		c-0.3,0.27-0.68,0.4-1.13,0.4h-7.28l0.23-0.44v5.07l-0.21-0.21H43c0.45,0,0.83,0.14,1.13,0.43c0.3,0.29,0.46,0.66,0.46,1.11
		c0,0.43-0.15,0.78-0.46,1.05c-0.3,0.27-0.68,0.4-1.13,0.4H37l0.13-0.21v5.25l-0.21-0.23h7.25c0.45,0,0.83,0.15,1.13,0.46
		c0.3,0.3,0.46,0.65,0.46,1.05c0,0.43-0.15,0.79-0.46,1.07s-0.68,0.42-1.13,0.42h-8.71c-0.45,0-0.83-0.15-1.13-0.46
		c-0.3-0.3-0.45-0.68-0.45-1.13V5.24c0-0.45,0.15-0.83,0.45-1.13C34.63,3.8,35.01,3.65,35.46,3.65z"/>
	<linearGradient id="SVGID_4_" gradientUnits="userSpaceOnUse" x1="212.6984" y1="12.7664" x2="-0.9827" y2="12.7664">
		<stop  offset="0" style="stop-color:#8EC13F"/>
		<stop  offset="1" style="stop-color:#034EA2"/>
	</linearGradient>
	<path class="st3" d="M50.62,21.85c-0.49,0-0.92-0.15-1.3-0.46c-0.38-0.3-0.57-0.68-0.57-1.13V5.24c0-0.45,0.15-0.83,0.45-1.13
		c0.3-0.3,0.68-0.46,1.13-0.46h7.49c0.9,0,1.75,0.24,2.54,0.71c0.79,0.48,1.43,1.14,1.91,1.98C62.75,7.18,63,8.15,63,9.24
		c0,0.66-0.13,1.3-0.4,1.92c-0.27,0.62-0.63,1.19-1.09,1.69c-0.46,0.5-0.98,0.89-1.55,1.17l0.03-0.6c0.48,0.26,0.89,0.57,1.21,0.92
		c0.32,0.36,0.57,0.74,0.75,1.14c0.18,0.41,0.29,0.85,0.33,1.31c0.07,0.43,0.12,0.81,0.14,1.14c0.03,0.33,0.08,0.61,0.16,0.83
		c0.08,0.23,0.23,0.4,0.46,0.52c0.38,0.23,0.62,0.55,0.71,0.97c0.1,0.42,0,0.8-0.3,1.13c-0.19,0.23-0.43,0.37-0.73,0.43
		c-0.29,0.06-0.59,0.06-0.88,0s-0.54-0.14-0.73-0.25c-0.29-0.17-0.59-0.43-0.88-0.77c-0.29-0.34-0.53-0.79-0.71-1.36
		c-0.18-0.57-0.27-1.31-0.27-2.21c0-0.29-0.05-0.57-0.16-0.82s-0.25-0.47-0.44-0.65c-0.19-0.18-0.43-0.32-0.73-0.42
		c-0.29-0.09-0.64-0.14-1.04-0.14h-5.25l0.39-0.6v5.64c0,0.45-0.12,0.83-0.36,1.13C51.39,21.7,51.05,21.85,50.62,21.85z
		 M51.63,12.54h6.06c0.31,0,0.62-0.14,0.91-0.43c0.29-0.29,0.54-0.68,0.73-1.17c0.19-0.49,0.29-1.04,0.29-1.62
		c0-0.76-0.2-1.4-0.61-1.91c-0.41-0.51-0.85-0.77-1.31-0.77h-6.01L52,5.81v7.36L51.63,12.54z"/>
	<linearGradient id="SVGID_5_" gradientUnits="userSpaceOnUse" x1="212.6984" y1="12.75" x2="-0.9827" y2="12.75">
		<stop  offset="0" style="stop-color:#8EC13F"/>
		<stop  offset="1" style="stop-color:#034EA2"/>
	</linearGradient>
	<path class="st4" d="M74.93,22.11c-1.32,0-2.55-0.24-3.69-0.73c-1.14-0.49-2.15-1.16-3.02-2.02c-0.87-0.86-1.55-1.85-2.04-2.98
		c-0.49-1.13-0.74-2.34-0.74-3.64c0-1.3,0.25-2.51,0.74-3.64c0.49-1.13,1.17-2.12,2.04-2.98c0.87-0.86,1.87-1.53,3.02-2.02
		c1.14-0.48,2.37-0.73,3.69-0.73c0.81,0,1.6,0.09,2.37,0.26c0.76,0.17,1.46,0.43,2.11,0.78c0.26,0.14,0.46,0.33,0.58,0.56
		c0.13,0.23,0.2,0.47,0.2,0.71c0,0.42-0.14,0.79-0.42,1.12c-0.28,0.33-0.63,0.49-1.07,0.49c-0.14,0-0.28-0.02-0.43-0.05
		c-0.15-0.03-0.29-0.09-0.43-0.16c-0.43-0.19-0.89-0.34-1.38-0.44c-0.49-0.1-1-0.16-1.53-0.16c-1.13,0-2.15,0.28-3.08,0.84
		c-0.93,0.56-1.66,1.32-2.21,2.26c-0.55,0.95-0.82,1.99-0.82,3.13c0,1.13,0.27,2.17,0.82,3.12c0.55,0.95,1.28,1.71,2.21,2.28
		c0.93,0.56,1.95,0.84,3.08,0.84c0.52,0,1.09-0.05,1.72-0.16c0.62-0.1,1.13-0.24,1.53-0.42l-0.23,0.78v-4.45l0.44,0.39H75.5
		c-0.45,0-0.83-0.15-1.13-0.44c-0.3-0.29-0.46-0.67-0.46-1.12c0-0.45,0.15-0.82,0.46-1.12c0.3-0.29,0.68-0.44,1.13-0.44h4.26
		c0.45,0,0.82,0.15,1.12,0.46c0.29,0.3,0.44,0.68,0.44,1.13v5.51c0,0.35-0.08,0.63-0.25,0.86c-0.17,0.23-0.35,0.41-0.56,0.55
		c-0.8,0.49-1.67,0.87-2.61,1.16S75.97,22.11,74.93,22.11z"/>
	<linearGradient id="SVGID_6_" gradientUnits="userSpaceOnUse" x1="212.6984" y1="12.7109" x2="-0.9827" y2="12.7109">
		<stop  offset="0" style="stop-color:#8EC13F"/>
		<stop  offset="1" style="stop-color:#034EA2"/>
	</linearGradient>
	<path class="st5" d="M95.42,3.57c0.4,0,0.76,0.15,1.08,0.46c0.32,0.3,0.48,0.69,0.48,1.16c0,0.16-0.02,0.32-0.06,0.48
		c-0.04,0.16-0.12,0.32-0.22,0.48l-5.9,8.45l0.47-1.79v7.46c0,0.45-0.15,0.83-0.46,1.13c-0.3,0.3-0.65,0.46-1.05,0.46
		c-0.43,0-0.8-0.15-1.1-0.46c-0.3-0.3-0.46-0.68-0.46-1.13v-7.25l0.21,0.83l-5.62-7.46c-0.17-0.23-0.29-0.44-0.36-0.65
		s-0.1-0.4-0.1-0.57c0-0.47,0.18-0.85,0.55-1.14c0.36-0.29,0.74-0.44,1.12-0.44c0.48,0,0.91,0.24,1.27,0.73l4.99,6.89l-0.73-0.1
		l4.6-6.73C94.48,3.83,94.91,3.57,95.42,3.57z"/>
	<linearGradient id="SVGID_7_" gradientUnits="userSpaceOnUse" x1="212.6984" y1="12.75" x2="-0.9827" y2="12.75">
		<stop  offset="0" style="stop-color:#8EC13F"/>
		<stop  offset="1" style="stop-color:#034EA2"/>
	</linearGradient>
	<path class="st6" d="M108.23,21.85c-0.49,0-0.88-0.15-1.18-0.46c-0.3-0.3-0.45-0.68-0.45-1.13V5.24c0-0.45,0.15-0.83,0.45-1.13
		c0.3-0.3,0.68-0.46,1.13-0.46h8.45c0.45,0,0.83,0.14,1.13,0.43c0.3,0.29,0.45,0.66,0.45,1.11c0,0.38-0.15,0.72-0.45,1.01
		c-0.3,0.29-0.68,0.44-1.13,0.44h-7.02l0.23-0.31v5.23l-0.18-0.34h5.8c0.45,0,0.83,0.14,1.13,0.43c0.3,0.29,0.46,0.65,0.46,1.11
		c0,0.38-0.15,0.72-0.46,1.01c-0.3,0.29-0.68,0.44-1.13,0.44h-5.85l0.23-0.23v6.29c0,0.45-0.16,0.83-0.48,1.13
		C109.04,21.7,108.67,21.85,108.23,21.85z"/>
	<linearGradient id="SVGID_8_" gradientUnits="userSpaceOnUse" x1="212.6984" y1="12.75" x2="-0.9827" y2="12.75">
		<stop  offset="0" style="stop-color:#8EC13F"/>
		<stop  offset="1" style="stop-color:#034EA2"/>
	</linearGradient>
	<path class="st7" d="M137.72,12.75c0,1.3-0.22,2.51-0.65,3.64s-1.04,2.12-1.83,2.98c-0.79,0.86-1.72,1.53-2.81,2.02
		c-1.08,0.48-2.27,0.73-3.55,0.73c-1.28,0-2.46-0.24-3.54-0.73c-1.08-0.49-2.01-1.16-2.79-2.02c-0.79-0.86-1.4-1.85-1.83-2.98
		c-0.43-1.13-0.65-2.34-0.65-3.64c0-1.3,0.22-2.51,0.65-3.64c0.43-1.13,1.04-2.12,1.83-2.98c0.79-0.86,1.72-1.53,2.79-2.02
		c1.07-0.48,2.25-0.73,3.54-0.73c1.28,0,2.46,0.24,3.55,0.73c1.08,0.49,2.02,1.16,2.81,2.02c0.79,0.86,1.4,1.85,1.83,2.98
		C137.5,10.24,137.72,11.45,137.72,12.75z M134.34,12.75c0-1.16-0.23-2.21-0.7-3.16s-1.11-1.69-1.92-2.25
		c-0.82-0.55-1.76-0.83-2.83-0.83c-1.08,0-2.02,0.28-2.83,0.83c-0.82,0.55-1.45,1.3-1.91,2.24c-0.46,0.94-0.69,1.99-0.69,3.17
		c0,1.16,0.23,2.21,0.69,3.16c0.46,0.95,1.1,1.7,1.91,2.25c0.81,0.56,1.76,0.83,2.83,0.83c1.07,0,2.02-0.28,2.83-0.83
		c0.81-0.55,1.46-1.3,1.92-2.25C134.1,14.96,134.34,13.91,134.34,12.75z"/>
	<linearGradient id="SVGID_9_" gradientUnits="userSpaceOnUse" x1="212.6984" y1="12.7664" x2="-0.9827" y2="12.7664">
		<stop  offset="0" style="stop-color:#8EC13F"/>
		<stop  offset="1" style="stop-color:#034EA2"/>
	</linearGradient>
	<path class="st8" d="M142.58,21.85c-0.49,0-0.92-0.15-1.3-0.46c-0.38-0.3-0.57-0.68-0.57-1.13V5.24c0-0.45,0.15-0.83,0.45-1.13
		c0.3-0.3,0.68-0.46,1.13-0.46h7.49c0.9,0,1.75,0.24,2.54,0.71c0.79,0.48,1.43,1.14,1.91,1.98s0.73,1.81,0.73,2.9
		c0,0.66-0.13,1.3-0.4,1.92c-0.27,0.62-0.63,1.19-1.09,1.69c-0.46,0.5-0.98,0.89-1.55,1.17l0.03-0.6c0.49,0.26,0.89,0.57,1.21,0.92
		c0.32,0.36,0.57,0.74,0.75,1.14c0.18,0.41,0.29,0.85,0.33,1.31c0.07,0.43,0.12,0.81,0.14,1.14c0.03,0.33,0.08,0.61,0.16,0.83
		c0.08,0.23,0.23,0.4,0.46,0.52c0.38,0.23,0.62,0.55,0.71,0.97c0.1,0.42,0,0.8-0.3,1.13c-0.19,0.23-0.43,0.37-0.73,0.43
		c-0.29,0.06-0.59,0.06-0.88,0s-0.54-0.14-0.73-0.25c-0.29-0.17-0.59-0.43-0.88-0.77c-0.29-0.34-0.53-0.79-0.71-1.36
		c-0.18-0.57-0.27-1.31-0.27-2.21c0-0.29-0.05-0.57-0.16-0.82c-0.1-0.25-0.25-0.47-0.44-0.65c-0.19-0.18-0.43-0.32-0.73-0.42
		c-0.29-0.09-0.64-0.14-1.04-0.14h-5.25l0.39-0.6v5.64c0,0.45-0.12,0.83-0.36,1.13C143.35,21.7,143.01,21.85,142.58,21.85z
		 M143.6,12.54h6.06c0.31,0,0.62-0.14,0.91-0.43s0.54-0.68,0.73-1.17c0.19-0.49,0.29-1.04,0.29-1.62c0-0.76-0.2-1.4-0.61-1.91
		c-0.41-0.51-0.85-0.77-1.31-0.77h-6.01l0.31-0.83v7.36L143.6,12.54z"/>
	<linearGradient id="SVGID_10_" gradientUnits="userSpaceOnUse" x1="212.6984" y1="12.75" x2="-0.9827" y2="12.75">
		<stop  offset="0" style="stop-color:#8EC13F"/>
		<stop  offset="1" style="stop-color:#034EA2"/>
	</linearGradient>
	<path class="st9" d="M175.89,18.81c0.45,0,0.83,0.14,1.13,0.43c0.3,0.29,0.45,0.65,0.45,1.11c0,0.43-0.15,0.79-0.45,1.08
		c-0.3,0.29-0.68,0.43-1.13,0.43h-8.45c-0.45,0-0.83-0.15-1.13-0.46c-0.3-0.3-0.45-0.68-0.45-1.13V5.24c0-0.45,0.16-0.83,0.47-1.13
		c0.31-0.3,0.71-0.46,1.2-0.46c0.42,0,0.78,0.15,1.11,0.46c0.32,0.3,0.48,0.68,0.48,1.13v14.01l-0.57-0.44H175.89z"/>
	<linearGradient id="SVGID_11_" gradientUnits="userSpaceOnUse" x1="212.6984" y1="12.75" x2="-0.9827" y2="12.75">
		<stop  offset="0" style="stop-color:#8EC13F"/>
		<stop  offset="1" style="stop-color:#034EA2"/>
	</linearGradient>
	<path class="st10" d="M183.71,20.26c0,0.45-0.17,0.83-0.49,1.13c-0.33,0.3-0.71,0.46-1.14,0.46c-0.49,0-0.88-0.15-1.17-0.46
		c-0.29-0.3-0.44-0.68-0.44-1.13V5.24c0-0.45,0.16-0.83,0.47-1.13c0.31-0.3,0.71-0.46,1.2-0.46c0.42,0,0.78,0.15,1.11,0.46
		c0.32,0.3,0.48,0.68,0.48,1.13V20.26z"/>
	<linearGradient id="SVGID_12_" gradientUnits="userSpaceOnUse" x1="212.6984" y1="12.75" x2="-0.9827" y2="12.75">
		<stop  offset="0" style="stop-color:#8EC13F"/>
		<stop  offset="1" style="stop-color:#034EA2"/>
	</linearGradient>
	<path class="st11" d="M189.25,21.85c-0.49,0-0.88-0.15-1.18-0.46c-0.3-0.3-0.45-0.68-0.45-1.13V5.24c0-0.45,0.15-0.83,0.45-1.13
		c0.3-0.3,0.68-0.46,1.13-0.46h8.45c0.45,0,0.83,0.14,1.13,0.43c0.3,0.29,0.46,0.66,0.46,1.11c0,0.38-0.15,0.72-0.46,1.01
		c-0.3,0.29-0.68,0.44-1.13,0.44h-7.02l0.23-0.31v5.23l-0.18-0.34h5.8c0.45,0,0.83,0.14,1.13,0.43c0.3,0.29,0.46,0.65,0.46,1.11
		c0,0.38-0.15,0.72-0.46,1.01c-0.3,0.29-0.68,0.44-1.13,0.44h-5.85l0.23-0.23v6.29c0,0.45-0.16,0.83-0.48,1.13
		C190.06,21.7,189.68,21.85,189.25,21.85z"/>
	<linearGradient id="SVGID_13_" gradientUnits="userSpaceOnUse" x1="212.6984" y1="12.75" x2="-0.9825" y2="12.75">
		<stop  offset="0" style="stop-color:#8EC13F"/>
		<stop  offset="1" style="stop-color:#034EA2"/>
	</linearGradient>
	<path class="st12" d="M203.81,3.65h8.71c0.45,0,0.83,0.14,1.13,0.43c0.3,0.29,0.46,0.66,0.46,1.11c0,0.43-0.15,0.78-0.46,1.05
		c-0.3,0.27-0.68,0.4-1.13,0.4h-7.28l0.23-0.44v5.07l-0.21-0.21h6.08c0.45,0,0.83,0.14,1.13,0.43c0.3,0.29,0.46,0.66,0.46,1.11
		c0,0.43-0.15,0.78-0.46,1.05c-0.3,0.27-0.68,0.4-1.13,0.4h-6.01l0.13-0.21v5.25l-0.21-0.23h7.25c0.45,0,0.83,0.15,1.13,0.46
		c0.3,0.3,0.46,0.65,0.46,1.05c0,0.43-0.15,0.79-0.46,1.07c-0.3,0.28-0.68,0.42-1.13,0.42h-8.71c-0.45,0-0.83-0.15-1.13-0.46
		c-0.3-0.3-0.46-0.68-0.46-1.13V5.24c0-0.45,0.15-0.83,0.46-1.13C202.98,3.8,203.36,3.65,203.81,3.65z"/>
</g>
</svg>
