<?xml version="1.0" encoding="utf-8"?>
<!-- Generator: Adobe Illustrator 24.0.3, SVG Export Plug-In . SVG Version: 6.00 Build 0)  -->
<svg version="1.1" id="Layer_1" xmlns="http://www.w3.org/2000/svg" xmlns:xlink="http://www.w3.org/1999/xlink" x="0px" y="0px"
	 viewBox="0 0 450 166" style="enable-background:new 0 0 450 166;" xml:space="preserve">
<style type="text/css">
	.st0{fill:#8EC13F;}
	.st1{fill:#8CC03F;}
	.st2{fill:#286E37;}
	.st3{fill:#266E37;}
	.st4{fill:#034EA2;}
</style>
<g>
	<path class="st0" d="M98.14,104.22l1.8,0.61l-0.34-1.38l-0.49-1.21l-1.78-2.91l-0.83-3.68l-2.63-0.92l-1.14-1.99l-0.95-2.61
		c0,0-1-1.06-1.05-1.2c-0.07-0.14,0.6-1.91,0.6-2.15c0-0.22,0.82-1.99,0.87-2.18c0.05-0.19,0.6,0.52,0.6,0.52l0.63-0.18l1.94,0.23
		l0.74,1.82l2.44,1.82l1.47,2.74l2.19-3.64l4.41-1.15l-0.75-6.4l-5.12-3.67l0.48-2.96l3.65-3.2l0.74,2.73l-1.48,1.85l2.95,1.14
		l1.94-1.37l-1.46-2.07l2.23-2.05l8.75-4.54l2.45-8l-3.66-6.2v-3.21l-3.66-1.14l2.21-2.95l0.49,1.58l3.9-0.66l0.25,1.81l1.47,0.91
		l1.47,3.66l1.94-0.46l0.98-2.51l-3.17-2.98l0.72-2.97l2.69-1.36l-1.23-6.17l2.7,3.43l3.42,5.94l0.25,5.48l-2.21-0.22l-2.68,3.2
		l3.41,4.82l0.25-3.22l2.44-2.31l2.94-1.14l0.22-2.74l-2.91-4.56l0.47-2.97l-0.98-4.35l-0.72,3.22l-1.72-0.23l-1.95-3.9l-4.87-3.87
		h-3.92l-1.22-2.97l4.65-0.47l6.81,5.5l0.5-0.92l2.96,0.59C110.43,16.78,91.49,18.7,77.83,21.34c-13.52,2.6-42.04,15.76-49.9,48.33
		c-7.82,32.46,11.5,48.17,11.5,48.17l-0.86-2.87c-0.43-0.66-1.88-3.82-2.18-4.37c-0.29-0.55-1.74-3.79-1.74-3.79l-1.03,1.21
		c0,0-3.79-10.09-3.79-10.52c0-0.37-0.72-6.65-0.72-6.65s1.44-2.99,1.75-3.84c0.3-0.79,0.87-3.51,1.16-4.06
		c0.28-0.56,0.44-3.94,0.44-3.94h-2.75c0,0-0.45-1.92-0.45-2.61c0-0.68,3.04-1.08,3.04-1.08s2.79-1.64,3.81-2.17
		c1.01-0.58,2.91-2.88,2.91-2.88l2.46-3.58l-1.3-2.16l-0.66-2.74h1.47l1.3,1.08l5.57,0.6l0.98,2.16v2.14l1.14,2.45l2.46,0.32
		l-0.17,2.44l0.66,5.83l1.97,6.27v2.3l1.64,2.45l2.13-0.76l1.13,0.31l-0.15,2.44l0.32,1.71h2.8l0.97-2.16l-3.1-4.44l0.98-2.45
		l-0.16-5.39l2.29-0.61l7.7-5.81l0.64-2l3.11-0.9l3.46-0.78l0.15,1.83l0.81,2.01l3.12,2.44l-0.34,2.77l0.16,2.29h1.65l2.93-2.59
		l0.82,1.84c0,0-0.15,2.59-0.15,3.06c0,0.45,1.32,1.69,1.32,1.69l-0.49,1.38l-0.83,1.51l0.48,4.46l1.82,0.91l1.47,3.07l0.48,2.76
		l1.76,1.49C95.1,100.91,96.74,102.38,98.14,104.22"/>
	<path class="st1" d="M117.8,115.84c0,0,1.8,0.46,2.46,0.46c0.65,0,2.45-0.31,2.45-0.31l-1.15-1.37l3.61-0.47l-0.48,1.38l2.11-0.45
		l2.77-2.17l3.79-1.22l1.98-2.29c0,0-3.46,1.09-3.93,1.09c-0.5,0-3.45,1.06-3.45,1.06s-4.59,1.54-5.24,1.83
		c-0.66,0.32-8.03,0.49-8.03,0.49s-2.77-0.49-3.25-0.49c-0.51,0-4.27-0.15-4.92-0.15c-0.65,0-4.41-0.61-4.41-0.61
		s-1.33-1.51-1.33-1.98c0-0.46,1.49-1.68,1.49-1.68l-0.82-1.55c0,0-1.16,0.61-1.65,0.92c-0.48,0.32-1.47-1.05-1.47-1.05l-0.83-1.84
		h0.03c-1.42-1.82-3.05-3.3-4.34-4.33l0.22,0.18l-1.29,0.46l-2.62-2.14l-3.45-2.29h-3.1v1.22l4.41,2.9l0.66,1.87l2.79,2.28
		l2.14,3.84l6.37,3.68l1.46,1.38l7.55,1.68L117.8,115.84z"/>
	<path class="st1" d="M126.69,92.39l0.94-2.33c0,0,0.47,2.47,1.25,2.76c0.77,0.3,2.34-0.58,2.34-0.58l1.4-2.64
		c0,0-0.31-3.79-0.76-4.07c-0.49-0.29-1.41-3.51-1.87-3.51c-0.48,0-2.97-1.74-2.97-1.74s-2.18-0.74-1.7-1.57
		c0.45-0.9,0.91-2.38,0.61-2.95c-0.3-0.59-2.34-3.35-2.34-3.35s-2.5,1.17-2.5,1.74c0,0.57,0.17,2.92,0.31,3.51
		c0.18,0.58,0.95,3.05,0.95,3.05l2.8,0.75l0.49,1.88l2.48,0.73l-2.34,2.2l1.87,0.73l-1.56,1.46l-1.09,2.03c0,0-0.63,1.18-1.25,1.61
		c-0.61,0.45-2.36,0.59-2.36,0.59L120,91.08c0,0,0.94-1.77,1.08-2.19c0.17-0.44,1.1-3.8,1.1-3.8S120,85.96,120,86.7
		c0,0.73-2.02,3.2-2.02,3.2l-0.63,3.23c0,0-3.44,2.91-3.9,3.34c-0.47,0.45-2.34,2.48-2.34,2.48l-2.35,0.44c0,0-0.78,0.31-1.4,0.71
		c-0.61,0.47-1.55,1.47-1.55,1.47l0.3,2.92l2.19,2.05l-0.33,1.61l4.38-0.45l1.72,0.87l3.27-1.58l0.16-2.79l2.49-0.72l-0.16-2.49
		l1.41-0.29l-0.78-4.37l4.06-1.88L126.69,92.39z"/>
	<path class="st1" d="M156.08,90.19c0,0-0.96,6.41-1.43,6.41c-0.48,0-1.93-0.62-1.93-0.62l-1.62,4.36l-2.26-0.31l-5.16-0.78
		c0,0-1.77,0.14-1.77,0.63c0,0.46-0.97,2.34-0.97,2.34s-0.17-2.83-0.81-2.51c-0.65,0.32-4.2,0-4.2,0l-0.49-4.21
		c0,0-1.78,2.02-1.78,2.97c0,0.92,0.81,3.45,0.81,3.45l-1.77,1.53l-1.63-1.08h-2.73l0.79-1.27l2.6-2.63l-2.43,0.46
		c0,0-0.16,1.59-0.63,1.72c-0.48,0.17-3.71-0.31-3.71-0.31s-2.12,1.41-2.27,1.88c-0.16,0.46,0,2.33-0.32,2.79
		c-0.31,0.49-0.98,0.64-0.98,1.57c0,0.93,0.33,2.8,0.33,2.8l1.12,1.74l1.46-2.35l1.94,1.09l2.11-1.09l-0.81-2.35
		c0,0-0.97-1.07-0.47-1.25c0.47-0.17,2.07-0.94,2.57-0.63c0.49,0.31,1.11,2.04,1.11,2.04l2.62-0.78l3.21-1.26h2.74
		c0.48,0,1.94-0.31,2.11,0.31c0.15,0.65-0.98,2.03-0.98,2.03v1.71l1.76,0.48l2.26-1.25l-0.14,3.29l-1.28,3.56l-2.11,3.12l-2.92-1.24
		l1.3-1.55l0.82-2.03c0,0-4.2,0-4.69,0.3c-0.48,0.34-1.93,2.5-1.93,2.5l-2.11,3.46l-2.43-0.48c0,0-4.19,4.36-4.68,4.36
		c-0.49,0-1.77,0.48-1.77,0.48l-1.45,2.81l-10.33,4.36l-1.78,3.12l0.98,4.38l-2.26,1.39l3.22,0.66l13.04-5.05l3.44-1.38l-0.16,1.73
		c0,0,0.01-0.03,0.04-0.04l0.42,2.02l10.97-7.82l6.58-6.94l0.47-3.12c0.01-0.02-0.72,0.12-0.72,0.12l1.12-10.75l2.42-4.07l0.96,2.37
		l2.77-1.58l-1.14-1.4l1.47-2.82l1.6-2.82c0,0,0.63,4.09,0.63,3.16c0-0.95,2.75-11.57,2.75-11.57L156.08,90.19z"/>
	<path class="st2" d="M162.43,62.18c1.84,6.08,2.84,12.48,2.84,19.11c0,38.22-32.6,69.18-72.86,69.18c0,0-26.27-0.22-44.61-16.72
		c-18.33-16.49-26.38-41.83-22.83-60.77c0,0-10.4,32.93,21.7,64.45c9.65,9.46,26.68,18.43,45.68,18.68
		c43.71,0.55,80.8-34.35,80.8-76.73c0-5.98-1.14-12.83-2.62-18.41c0,0-2.13-11.25-7.71-9.58C158.65,52.67,162.43,62.18,162.43,62.18
		"/>
	<path class="st3" d="M94.39,15.31c0,0,26.29,0.77,44.23,17.65c17.94,16.87,25.37,42.38,21.39,61.23c0,0,11.18-32.72-20.16-64.88
		c-9.44-9.67-26.26-19.01-45.22-19.66C50.91,8.17,13.02,42.26,12.01,84.62c-0.15,6.01,0.82,12.88,2.15,18.48c0,0,1.9,11.31,7.5,9.73
		c4.19-1.19,0.64-10.74,0.64-10.74c-1.71-6.14-2.54-12.56-2.37-19.21C20.84,44.71,54.17,14.43,94.39,15.31"/>
	<polygon class="st3" points="223.03,110.2 245.53,110.2 245.53,113.91 227.14,113.91 227.14,128.72 244.91,128.72 244.91,132.42 
		227.14,132.42 227.14,147.59 245.53,147.59 245.53,151.3 223.03,151.3 	"/>
	<polygon class="st3" points="252.85,110.2 258.4,110.2 281.39,144.3 281.39,110.2 285.56,110.2 285.56,151.3 281.39,151.3 
		256.96,115.13 256.96,151.3 252.85,151.3 	"/>
	<polygon class="st3" points="293.94,110.2 316.45,110.2 316.45,113.91 298.05,113.91 298.05,128.72 315.83,128.72 315.83,132.42 
		298.05,132.42 298.05,147.59 316.45,147.59 316.45,151.3 293.94,151.3 	"/>
	<path class="st3" d="M323.77,110.2h9.79c3.34,0,5.82,0.16,7.4,0.47c1.6,0.33,3.03,0.82,4.27,1.55c2.07,1.16,3.65,2.73,4.76,4.74
		c1.11,1.99,1.67,4.2,1.67,6.62c0,3.39-1.2,6.31-3.56,8.74c-2.37,2.43-5.23,3.64-8.59,3.64l11.56,15.34h-5.15l-13.91-18.64h1.16
		h1.11c2.28,0,3.93-0.08,4.96-0.24c1.03-0.17,2.01-0.45,2.94-0.82c1.67-0.8,2.98-1.94,3.91-3.42c0.93-1.47,1.4-3.12,1.4-4.94
		c0-1.45-0.34-2.82-1.03-4.12c-0.69-1.32-1.62-2.38-2.84-3.2c-1.18-0.9-2.64-1.49-4.39-1.77c-1.02-0.16-2.64-0.24-4.86-0.24h-6.49
		v37.39h-4.11V110.2z"/>
	<path class="st3" d="M399.49,132.33c0,5.51-2.22,10.22-6.7,14.12c-4.28,3.72-9.3,5.58-15.06,5.58c-5.92,0-11.06-2.09-15.42-6.29
		c-4.37-4.2-6.54-9.25-6.54-15.18c0-2.69,0.57-5.32,1.7-7.93c1.14-2.61,2.68-4.87,4.63-6.79c2.08-2.05,4.47-3.63,7.18-4.72
		c2.7-1.08,5.51-1.62,8.45-1.62c4.44,0,8.49,1.17,12.14,3.54c1.51,1.01,2.89,2.2,4.15,3.53c1.51,1.62,2.51,3.14,3.01,4.57h-4.69
		c-1.4-2.37-3.46-4.24-6.16-5.62c-2.7-1.38-5.51-2.07-8.45-2.07c-2.22,0-4.4,0.38-6.53,1.17c-2.15,0.78-4.05,1.95-5.73,3.5
		c-1.66,1.57-3.02,3.46-4.04,5.65c-1.04,2.21-1.55,4.47-1.55,6.77c0,4.94,1.76,9.1,5.31,12.46c3.53,3.38,7.79,5.07,12.75,5.07
		c3.72,0,7.18-1.12,10.34-3.37c3.17-2.26,5.27-5.15,6.31-8.68h-23v-3.71H399.49z"/>
	<polygon class="st3" points="416.28,137.54 401.96,110.2 406.49,110.2 418.3,133.27 430.18,110.2 434.63,110.2 420.4,137.54 
		420.4,151.3 416.28,151.3 	"/>
	<path class="st4" d="M355.05,97.27h20.85l-1.66,4.66h-49.06l1.65-4.66h5.36l28.07-78.93H349c-4.61,0-8.84,2.49-11.08,6.5
		l-39.38,70.59c-2.24,4.01-6.48,6.5-11.07,6.5h-16.54V57.04l-25.09,39.08c-2.33,3.62-6.35,5.82-10.66,5.82h-11.65l6.58-72.44h-29.17
		l9.66-15.8h27.98c0.38,0,0.77,0.02,1.15,0.05c6.97,0.63,12.12,6.8,11.49,13.77l-3.92,43.06L259.24,52
		c2.33-3.63,6.35-5.82,10.66-5.82h27.14v24.4l28.11-50.39c2.23-4.01,6.47-6.49,11.07-6.49h7.93h17.76h22.89l-20.2,56.78l13.48-3.25
		l2.15-0.58l2.1-0.62l2.04-0.69l2.02-0.72l1.95-0.79l1.92-0.83l1.88-0.88l1.82-0.93l1.77-0.98l1.74-1.03l2.28-1.51l2.07-1.57
		l1.86-1.59l1.65-1.66l1.45-1.69l1.24-1.75l1.02-1.78l0.83-1.83l0.6-1.87l0.4-1.91l0.2-1.96l0.01-1.24l-0.08-1.17l-0.15-1.08
		l-0.27-1l-0.33-0.91l-0.42-0.85l-0.52-0.75l-0.6-0.68l-0.69-0.6l-0.78-0.53l-0.87-0.44l-0.59-0.23l-0.66-0.21l-0.75-0.18
		l-0.83-0.17l-0.9-0.15l-0.98-0.11l-1.07-0.12l-1.15-0.07l-1.24-0.04l-1.3-0.05l-1.38-0.01h-7.85l5.61-15.8h7.85h4.66l2.53,0.04
		l2.39,0.08l2.31,0.15l2.18,0.2l2.08,0.25l1.97,0.32l1.86,0.38l1.74,0.43l1.64,0.49l1.51,0.56l1.41,0.6l1.41,0.72l1.31,0.79
		l1.21,0.87l1.11,0.93l1.01,1l0.91,1.08l0.8,1.14l0.7,1.22l0.61,1.3l0.5,1.36l0.4,1.43l0.3,1.51l0.2,1.58l0.1,1.64l-0.01,2.13
		l-0.25,2.51l-0.49,2.46l-0.74,2.4l-0.98,2.37l-1.22,2.3l-1.46,2.26l-1.71,2.21l-1.95,2.16l-2.2,2.11l-2.44,2.05l-2.68,2.02
		l-2.93,1.95l-3.17,1.92l-3.41,1.85l-3.17,1.6l-3.28,1.52l-3.38,1.46l-3.49,1.38l-3.6,1.3l-3.7,1.24l-3.81,1.16l-3.94,1.09
		l-4.02,1.02l-4.15,0.95l-15.53,3.23l-5.28,14.82"/>
</g>
</svg>
