<?xml version="1.0" standalone="no"?>
<!DOCTYPE svg PUBLIC "-//W3C//DTD SVG 1.1//EN" "http://www.w3.org/Graphics/SVG/1.1/DTD/svg11.dtd" >
<svg>
<metadata>
Created by FontForge 20090622 at Tue Aug  7 06:55:17 2018
 By deploy user
Copyright (c) 1995-2007 by Phanlop Thongsuk. All rights reserved.
</metadata>
<defs>
<font id="PSLSirintrProItalic" horiz-adv-x="0" >
  <font-face 
    font-family="PSL Sirintr Pro (สิรินทร์)"
    font-weight="400"
    font-style="italic"
    font-stretch="normal"
    units-per-em="2048"
    panose-1="2 0 5 6 0 0 0 2 0 4"
    ascent="1638"
    descent="-410"
    x-height="725"
    cap-height="969"
    bbox="-676 -563 1499 1599"
    underline-thickness="52"
    underline-position="-143"
    unicode-range="U+0020-U+F880"
  />
<missing-glyph horiz-adv-x="1599" 
d="M100 0v1599h1399v-1599h-1399zM1401 100v1399h-1200v-1399h1200z" />
    <glyph glyph-name="saraueesp1" unicode="&#xe37;&#xe48;" 
d="M-53 1137l20 123h53l-20 -123h-53zM-535 922l41 49h355l18 104h53l-18 -104h61l19 104h53l-29 -153h-553z" />
    <glyph glyph-name=".notdef" horiz-adv-x="1599" 
d="M100 0v1599h1399v-1599h-1399zM1401 100v1399h-1200v-1399h1200z" />
    <glyph glyph-name=".null" 
 />
    <glyph glyph-name="nonmarkingreturn" horiz-adv-x="451" 
 />
    <glyph glyph-name="space" unicode=" " horiz-adv-x="451" 
 />
    <glyph glyph-name="space" unicode="&#xa0;" horiz-adv-x="451" 
 />
    <glyph glyph-name="ampersand" unicode="&#x26;" horiz-adv-x="860" 
d="M729 -18l-121 176q-29 -39 -62 -71t-72 -55t-86.5 -35.5t-106.5 -12.5q-58 0 -106 18.5t-80.5 52.5t-46.5 82t-3 107q10 58 40 103.5t70.5 81.5t87.5 65l91 55l-44.5 61.5t-37.5 59.5t-23 63t0 72q9 48 34 82.5t60 57t75.5 33.5t80.5 11q42 0 78.5 -14t61.5 -39.5
t36.5 -61.5t3.5 -81q-9 -51 -33.5 -88t-58.5 -65.5t-75 -51.5l-82 -45l198 -291q31 60 58.5 140t44.5 173h49q-19 -100 -47 -190.5t-74 -167.5l133 -189zM604 793q5 33 -2.5 60.5t-25 47t-44.5 30.5t-61 11t-65 -9t-56 -26.5t-42 -43t-23 -58.5q-5 -28 2.5 -56.5t22.5 -57
t36 -56.5l43 -55l37 20.5l37 20.5q56 31 93 72t48 100zM362 512l-79 -49t-77 -56t-63.5 -70.5t-36.5 -92.5q-8 -46 3 -84t37 -65.5t64 -42.5t83 -15q91 0 160.5 41t121.5 119z" />
    <glyph glyph-name="quotesingle" unicode="'" horiz-adv-x="281" 
d="M197 637h-29l43 375h76z" />
    <glyph glyph-name="parenleft" unicode="(" horiz-adv-x="516" 
d="M496 1012q-69 -75 -124 -146t-96 -146.5t-69.5 -159t-46.5 -181.5q-18 -100 -19.5 -186.5t12.5 -165t43.5 -151t73.5 -142.5h-63q-45 79 -72.5 155t-39.5 153.5t-8.5 159t19.5 173.5t42 174t65 158.5t92.5 151.5t126.5 153h64v0z" />
    <glyph glyph-name="parenright" unicode=")" horiz-adv-x="516" 
d="M395 375q-16 -92 -41.5 -173.5t-64.5 -159t-92.5 -153.5t-126.5 -155h-64q69 70 124.5 142.5t97.5 151t71.5 165t46.5 186.5q17 98 17 181.5t-15 159t-44.5 146.5t-72.5 146h64q45 -78 72.5 -153t39 -151.5t8 -158.5t-19.5 -174z" />
    <glyph glyph-name="asterisk" unicode="*" horiz-adv-x="639" 
d="M408 702l182 -124l-43 -52l-162 136l-33 -232h-57l47 234l-211 -136l-20 50l219 122l-176 127l45 54l157 -138l33 226h57l-47 -226l207 140l27 -52z" />
    <glyph glyph-name="plus" unicode="+" horiz-adv-x="676" 
d="M618 315h-272l-47 -272h-51l47 272h-270l10 52h270l47 270h51l-47 -270h273z" />
    <glyph glyph-name="comma" unicode="," horiz-adv-x="289" 
d="M154 27q-3 -20 -13 -42t-26.5 -44.5t-39 -43.5t-52.5 -38l-27 20q18 11 35.5 26t32 31.5t24.5 33t14 28.5q-17 -8 -23 -8h-16q-23 0 -38.5 17t-10.5 42t27.5 45.5t50.5 20.5q37 0 53.5 -25t8.5 -63z" />
    <glyph glyph-name="hyphen" unicode="-" horiz-adv-x="516" 
d="M420 391h-328l8 55h328z" />
    <glyph glyph-name="period" unicode="." horiz-adv-x="289" 
d="M143 51q-5 -26 -26 -43.5t-47 -17.5t-41.5 17.5t-10.5 43.5t26.5 45t47.5 19t41 -19t10 -45z" />
    <glyph glyph-name="slash" unicode="/" horiz-adv-x="516" 
d="M-63 -197h-58l637 1209h59z" />
    <glyph glyph-name="zero" unicode="0" horiz-adv-x="676" 
d="M647 524q-21 -123 -49.5 -223.5t-72 -172t-106.5 -110t-153 -38.5q-88 0 -138.5 34.5t-71 102t-15 166.5t28.5 227q18 106 49 194t76 151.5t106 98.5t139 35t127.5 -32.5t73.5 -93t24.5 -146.5t-18.5 -193zM582 520q15 84 19 159.5t-11 132t-53 89.5t-107 33
q-66 0 -114 -32t-82.5 -89t-58 -135.5t-40.5 -171.5q-18 -101 -26 -187t4 -149t49 -99t110 -36q75 0 126.5 38.5t86.5 105t57 154.5t40 187z" />
    <glyph glyph-name="one" unicode="1" horiz-adv-x="676" 
d="M334 0h-62l144 817q-26 -13 -59 -22q-29 -8 -69 -13.5t-89 -1.5l8 47q102 0 162.5 36.5t74.5 107.5h62z" />
    <glyph glyph-name="two" unicode="2" horiz-adv-x="676" 
d="M649 760q-12 -65 -35 -118.5t-56.5 -102t-78.5 -94t-100 -93.5l-346 -299h536l-10 -53h-592l13 68l339 299q51 44 94.5 86t77.5 88t57.5 97.5t35.5 115.5q6 36 -2 68.5t-29.5 57.5t-57 39.5t-83.5 14.5q-36 0 -72 -6.5t-68 -16.5t-58.5 -22t-43.5 -23l12 70q17 8 43 17.5
t57 17.5t65.5 13t68.5 5q61 0 109 -16t78.5 -45.5t42.5 -72t3 -95.5z" />
    <glyph glyph-name="three" unicode="3" horiz-adv-x="676" 
d="M657 762q-8 -45 -28 -85.5t-51.5 -71.5t-74 -51t-93.5 -26q48 -10 84.5 -33.5t59.5 -57.5t31.5 -77.5t0.5 -93.5q-12 -63 -44.5 -115.5t-80 -90.5t-105 -59t-118.5 -21q-76 0 -139.5 14.5t-100.5 40.5l12 71q14 -16 38 -29t54.5 -22.5t66.5 -14.5t73 -5q50 0 96 17
t83.5 47.5t63.5 72.5t35 92q9 53 -0.5 97t-38.5 75.5t-76.5 48.5t-113.5 17l10 53q67 0 116 14.5t83.5 41.5t54.5 65t29 84q7 45 -4 77.5t-35 54t-58 32t-71 10.5q-35 0 -72.5 -7t-71.5 -17.5t-60.5 -22.5t-39.5 -21l10 68q47 22 111 38.5t135 16.5q59 0 106 -16.5
t77.5 -46.5t42.5 -71.5t3 -92.5z" />
    <glyph glyph-name="four" unicode="4" horiz-adv-x="676" 
d="M635 291h-135l-51 -291h-62l51 291h-440l10 61l551 617h59l-108 -623h135zM59 346h390l94 537z" />
    <glyph glyph-name="five" unicode="5" horiz-adv-x="676" 
d="M651 913h-434l-55 -313q35 17 83 27t105 10q61 0 115.5 -21.5t93 -62.5t55.5 -100t4 -134q-14 -77 -51.5 -139.5t-91.5 -106.5t-120.5 -68.5t-137.5 -24.5q-81 0 -141.5 22.5t-98.5 67.5l15 82q13 -26 38 -46.5t57.5 -34.5t69 -22t72.5 -8q58 0 112.5 19t98.5 55
t74.5 87.5t42.5 116.5q10 60 -3.5 107.5t-44 80.5t-74.5 50.5t-95 17.5q-38 0 -75 -7t-70.5 -18t-62 -25t-48.5 -29l84 475h494z" />
    <glyph glyph-name="six" unicode="6" horiz-adv-x="676" 
d="M631 911q-23 13 -48 18t-59 5q-56 0 -105.5 -19.5t-91.5 -52.5t-76 -77t-60 -93.5t-43.5 -101.5t-26.5 -101q38 48 109.5 78.5t160.5 30.5q59 0 106.5 -19t77.5 -57.5t40.5 -95.5t-3.5 -133q-9 -52 -37.5 -108t-73.5 -102t-105 -76t-132 -30q-85 0 -136 37.5t-74.5 102
t-23 151t18.5 185.5q19 109 61.5 206.5t104.5 171t141 116t172 42.5q41 0 68.5 -3.5t46.5 -8.5zM545 293q10 57 3.5 102t-27.5 76.5t-55 48.5t-79 17q-80 0 -153.5 -32t-127.5 -83q-15 -80 -13.5 -150.5t21 -123.5t59 -84t99.5 -31q49 0 94.5 21t82 57t62 83t34.5 99z" />
    <glyph glyph-name="seven" unicode="7" horiz-adv-x="676" 
d="M715 895l-580 -895h-67l587 911h-528l10 58h590z" />
    <glyph glyph-name="eight" unicode="8" horiz-adv-x="676" 
d="M668 756q-9 -48 -29 -90t-48 -75t-62 -57.5t-70 -37.5q27 -12 57.5 -30.5t54 -46t35 -65.5t2.5 -90q-13 -71 -43.5 -125t-75.5 -90.5t-102.5 -55t-124.5 -18.5q-70 0 -122 21t-84.5 58.5t-44.5 89.5t-1 114q9 52 36.5 96.5t62 80t71.5 61t66 39.5q-23 9 -48.5 27.5
t-45 45.5t-29.5 62.5t-2 77.5q9 55 40 99.5t75.5 76t97 48.5t104.5 17q58 0 104.5 -16.5t77.5 -46.5t44 -73t4 -97zM606 752q7 42 -2.5 76t-32.5 58t-59 37t-82 13q-44 0 -85 -13.5t-74 -37.5t-55.5 -58.5t-29.5 -76.5q-8 -47 12 -84.5t56 -66t82 -49t88 -32.5
q28 15 57 38.5t54.5 53.5t44.5 66t26 76zM535 252q10 58 -13 101t-63 74t-88.5 51.5t-89.5 33.5q-27 -15 -59 -38.5t-61.5 -55.5t-52 -71.5t-30.5 -84.5t0 -86.5t31.5 -73.5t63 -51.5t93.5 -19.5q51 0 96 15t80.5 43.5t59.5 69.5t33 93z" />
    <glyph glyph-name="nine" unicode="9" horiz-adv-x="676" 
d="M645 512q-19 -110 -61.5 -206.5t-104.5 -168.5t-141.5 -113.5t-171.5 -41.5q-42 0 -68.5 3.5t-46.5 8.5l12 65q25 -12 48.5 -17t58.5 -5q84 0 153 43t121.5 109.5t86.5 146t47 153.5q-15 -18 -43 -39.5t-64.5 -40t-79.5 -30.5t-88 -12q-59 0 -106.5 19t-77.5 57.5
t-40.5 95.5t3.5 133q9 52 37 108t72 102.5t104 76.5t133 30q88 0 140 -37.5t75 -102.5t21.5 -152t-19.5 -185zM586 555q13 67 14 135t-16.5 122t-57 88t-106.5 34q-56 0 -102 -21t-81 -57t-58 -83.5t-32 -100.5q-10 -57 -3.5 -102.5t27.5 -77t55 -48t79 -16.5q82 0 152 32.5
t129 94.5z" />
    <glyph glyph-name="colon" unicode=":" horiz-adv-x="289" 
d="M244 618q-5 -26 -26.5 -43.5t-47.5 -17.5t-41 17.5t-10 43.5t26.5 45t47.5 19t41 -19t10 -45zM143 51q-5 -26 -26 -43.5t-47 -17.5t-41.5 17.5t-10.5 43.5t26.5 45t47.5 19t41 -19t10 -45z" />
    <glyph glyph-name="semicolon" unicode=";" horiz-adv-x="289" 
d="M244 618q-5 -26 -26.5 -43.5t-47.5 -17.5t-41 17.5t-10 43.5t26.5 45t47.5 19t41 -19t10 -45zM154 27q-3 -20 -13 -42t-26.5 -44.5t-39 -43.5t-52.5 -38l-27 20q18 11 35.5 26t32 31.5t24.5 33t14 28.5q-17 -8 -23 -8h-16q-23 0 -38.5 17t-10.5 42t27.5 45.5t50.5 20.5
q37 0 53.5 -25t8.5 -63z" />
    <glyph glyph-name="less" unicode="&#x3c;" horiz-adv-x="758" 
d="M770 717l-651 -293l547 -293l-13 -68l-606 334l10 52l723 333z" />
    <glyph glyph-name="equal" unicode="=" horiz-adv-x="676" 
d="M639 426h-594l8 51h594zM600 205h-594l8 51h594z" />
    <glyph glyph-name="greater" unicode="&#x3e;" horiz-adv-x="758" 
d="M713 397l-725 -334l12 68l649 293l-545 293l11 65l608 -333z" />
    <glyph glyph-name="question" unicode="?" horiz-adv-x="606" 
d="M598 758q-12 -65 -46 -117.5t-79 -94t-95 -72.5t-93 -52l-31 -174h-53l37 201l106.5 61.5t85.5 60.5t62 77t36 110q8 45 -1.5 77.5t-32.5 54t-58 32t-78 10.5q-28 0 -57.5 -5t-56.5 -12.5t-50 -16t-38 -15.5l10 61l37.5 13t50 15t57 12t58.5 5q56 0 102.5 -14.5t78 -43.5
t45 -72.5t3.5 -100.5zM258 51q-5 -26 -26.5 -43.5t-47.5 -17.5t-41 17.5t-10 43.5t26.5 45t47.5 19t41 -19t10 -45z" />
    <glyph glyph-name="at" unicode="@" horiz-adv-x="1165" 
d="M1096 455q-15 -86 -40 -149.5t-49.5 -105.5t-43 -64t-19.5 -23h-244l-2 63q-16 -12 -40 -24.5t-50.5 -23t-53.5 -17.5t-50 -7q-58 0 -97.5 21.5t-61.5 62t-26 97.5t9 129q10 57 35.5 112.5t64.5 99t90 70.5t113 27q54 0 94.5 -13t65.5 -30l4 31h57l-96 -553h168
q6 7 21.5 28.5t34.5 59t38 90t31 121.5q18 101 3.5 189t-61 153.5t-124.5 103t-189 37.5q-89 0 -178 -38t-164 -106t-129 -162t-74 -206q-23 -132 -2 -231.5t73 -165.5t129 -99.5t167 -33.5q69 0 120.5 7.5t81.5 16.5l-6 -43q-23 -11 -79 -18.5t-128 -7.5q-118 0 -204 43.5
t-137 121t-67 182.5t5 228q14 83 46 157t77 136t101 112t118 84.5t128 53t132 18.5q90 0 158.5 -22t117.5 -60.5t80 -90t46.5 -111t16 -123.5t-10.5 -127zM778 625q-8 8 -22.5 16t-34 14.5t-42 10.5t-46.5 4q-51 0 -91 -21t-70 -56.5t-49 -81t-28 -93.5q-23 -131 11 -191.5
t120 -60.5q19 0 47 9t56 22t51 28.5t33 28.5z" />
    <glyph glyph-name="A" unicode="A" horiz-adv-x="766" 
d="M625 0l-50 289h-425l-152 -289h-61l507 969h74l168 -969h-61zM469 899l-293 -559h389z" />
    <glyph glyph-name="B" unicode="B" horiz-adv-x="768" 
d="M725 762q-15 -85 -54 -141.5t-108 -79.5q34 -7 66 -27.5t54.5 -53.5t33 -79.5t0.5 -104.5q-25 -137 -127.5 -206.5t-280.5 -69.5h-278l170 969h293q58 0 104 -15t77 -42.5t44 -65.5t6 -84zM651 760q14 75 -33 115t-147 40h-213l-63 -362h196q57 0 101 10t76 34t52.5 64
t30.5 99zM649 274q9 54 2.5 96.5t-36 71.5t-85 44.5t-143.5 15.5h-203l-80 -451h156q95 0 163.5 11t114.5 37.5t72.5 69t38.5 105.5z" />
    <glyph glyph-name="C" unicode="C" horiz-adv-x="784" 
d="M829 821q-23 34 -60 55t-76 32t-74 14.5t-54 3.5q-94 0 -167 -34t-126 -91t-86.5 -132t-48.5 -157q-17 -95 -14.5 -180.5t32.5 -150t91 -102.5t160 -38q44 0 89 9t85.5 23.5t73.5 33t53 36.5l-13 -73q-10 -9 -37 -23.5t-67 -29t-90 -25t-105 -10.5q-108 0 -181.5 36
t-113 104t-47.5 166.5t15 223.5q17 94 59 180t106.5 151t150 103.5t189.5 38.5q90 0 158.5 -24t112.5 -58z" />
    <glyph glyph-name="D" unicode="D" horiz-adv-x="874" 
d="M836 504q-25 -140 -81.5 -236t-133.5 -155.5t-169.5 -86t-189.5 -26.5h-231l170 969h190q70 0 135 -9.5t119.5 -31.5t97 -58t68.5 -87.5t33.5 -120.5t-8.5 -158zM770 506q19 109 1.5 186.5t-68.5 127t-134.5 72.5t-197.5 23h-113l-152 -862h138q110 0 197.5 24t153 78
t109.5 140t66 211z" />
    <glyph glyph-name="E" unicode="E" horiz-adv-x="700" 
d="M739 911h-483l-61 -348h483l-8 -57h-484l-80 -449h484l-10 -57h-549l170 969h549z" />
    <glyph glyph-name="F" unicode="F" horiz-adv-x="627" 
d="M721 911h-465l-61 -356h399l-10 -57h-400l-88 -498h-65l170 969h530z" />
    <glyph glyph-name="G" unicode="G" horiz-adv-x="881" 
d="M885 819q-12 17 -39.5 36t-66 34.5t-86 26t-99.5 10.5q-98 0 -176.5 -34t-136 -91t-93.5 -132t-51 -157q-17 -95 -10.5 -180.5t40 -150t97.5 -102.5t162 -38q69 0 135.5 16t132.5 45l51 297h-243l10 56h309l-69 -392q-32 -14 -72.5 -28t-84.5 -26t-90 -19.5t-89 -7.5
q-109 0 -185.5 36t-120 104t-54.5 166.5t12 223.5q17 94 61 180t112 151t160 103.5t205 38.5q45 0 88.5 -7t82 -19t69.5 -27.5t51 -32.5z" />
    <glyph glyph-name="H" unicode="H" horiz-adv-x="852" 
d="M676 0h-64l90 506h-516l-90 -506h-65l170 969h65l-71 -406h516l71 406h64z" />
    <glyph glyph-name="I" unicode="I" horiz-adv-x="432" 
d="M461 928h-121l-158 -889h121l-6 -39h-305l6 39h121l157 889h-120l6 41h305z" />
    <glyph glyph-name="J" unicode="J" horiz-adv-x="475" 
d="M352 236q-11 -63 -37 -108.5t-62 -75t-78 -45.5t-85 -21t-83.5 -1t-72.5 15l11 63q46 -16 100.5 -20t104 14.5t88 65t53.5 131.5l117 668h-195l8 47h258z" />
    <glyph glyph-name="K" unicode="K" horiz-adv-x="776" 
d="M360 508l316 -508h-76l-289 465l-159 -158l-54 -307h-63l170 969h63l-102 -580l590 580h67z" />
    <glyph glyph-name="L" unicode="L" horiz-adv-x="604" 
d="M555 0h-524l170 969h63l-160 -912h461z" />
    <glyph glyph-name="M" unicode="M" horiz-adv-x="967" 
d="M793 0h-62l160 901l-406 -616h-53l-186 592l-154 -877h-61l170 969h80l190 -615l399 615h93z" />
    <glyph glyph-name="N" unicode="N" horiz-adv-x="846" 
d="M674 0h-78l-348 866l-154 -866h-63l170 969h71l355 -881l153 881h64z" />
    <glyph glyph-name="O" unicode="O" horiz-adv-x="897" 
d="M862 500q-17 -98 -54.5 -191t-97.5 -166.5t-143.5 -118t-193.5 -44.5q-114 0 -181.5 44.5t-100.5 118t-35.5 167.5t14.5 192q16 92 53.5 179.5t97.5 156t142.5 110t187.5 41.5t173 -40.5t104.5 -108.5t43.5 -156.5t-10 -183.5zM795 500q15 81 10.5 158t-33.5 137
t-85 96.5t-146 36.5q-92 0 -161 -36.5t-117.5 -96.5t-78.5 -137t-45 -158q-15 -88 -12.5 -170.5t29.5 -146.5t82.5 -103t146.5 -39q93 0 163 39.5t119.5 104t81 147t46.5 168.5z" />
    <glyph glyph-name="P" unicode="P" horiz-adv-x="664" 
d="M698 692q-15 -86 -52 -144.5t-89 -94.5t-116.5 -52t-135.5 -16h-143l-68 -385h-63l170 969h202q80 0 141 -14.5t99.5 -47.5t53 -86t1.5 -129zM627 684q12 70 -1 114t-47 69t-87.5 33.5t-122.5 8.5h-115l-82 -465h123q57 0 111 11t98.5 38t77 73.5t45.5 117.5z" />
    <glyph glyph-name="Q" unicode="Q" horiz-adv-x="897" 
d="M860 500q-14 -81 -41 -157.5t-69 -141.5t-99.5 -114.5t-132.5 -74.5q-9 -59 -0.5 -105t37 -73t79.5 -33t126 15l-10 -60q-83 -21 -143 -14t-97 39t-50.5 87t-2.5 130q-41 -6 -82 -6q-114 0 -182 43t-101 114t-36 163t14 190q16 92 53.5 179.5t97.5 156t142.5 110
t187.5 41.5t172.5 -40.5t103.5 -108.5t43 -156.5t-10 -183.5zM793 500q13 81 8.5 158t-32.5 137t-83 96.5t-145 36.5q-92 0 -160.5 -36.5t-116.5 -96.5t-78.5 -137t-46.5 -158q-17 -83 -14.5 -163t30.5 -143t84.5 -102t147.5 -39q93 0 163 38.5t119.5 101t80 143t43.5 164.5
z" />
    <glyph glyph-name="R" unicode="R" horiz-adv-x="780" 
d="M713 696q-14 -76 -46 -126.5t-70 -82t-77.5 -47t-68.5 -20.5l247 -420h-80l-235 412h-215l-72 -412h-65l170 969h207q85 0 148.5 -14.5t102.5 -47t53 -84.5t1 -127zM653 692q11 59 0 100.5t-42.5 67.5t-82.5 37.5t-120 11.5h-152l-76 -438l158 -2q141 -2 219 57.5
t96 165.5z" />
    <glyph glyph-name="S" unicode="S" horiz-adv-x="766" 
d="M754 848q-17 15 -44 29t-61 25.5t-73.5 18.5t-79.5 7q-48 0 -96 -9t-89 -30t-70 -55.5t-38 -85.5q-9 -50 2.5 -81.5t39 -53.5t70.5 -37t99 -31q72 -21 127 -44t89.5 -55t48 -77t1.5 -109q-12 -71 -48.5 -123t-89 -86.5t-117.5 -51.5t-134 -17q-45 0 -88 6t-80.5 17
t-69 25.5t-53.5 32.5l14 78q11 -15 40 -32.5t68.5 -32.5t86.5 -25t94 -10q55 0 107 13t94.5 40t71.5 68t38 96q9 49 -1.5 84t-37.5 60.5t-70.5 44.5t-101.5 36q-70 21 -125 40.5t-91 47t-51 68t-3 104.5q11 63 47 109t87 76t113 44.5t124 14.5q86 0 151.5 -19t110.5 -46z
" />
    <glyph glyph-name="T" unicode="T" horiz-adv-x="721" 
d="M809 911h-328l-159 -911h-66l160 911h-328l10 58h721z" />
    <glyph glyph-name="U" unicode="U" horiz-adv-x="825" 
d="M836 969l-16.5 -93.5l-17.5 -100.5l-17.5 -101l-16.5 -95l-37 -212q-13 -74 -40 -143.5t-73.5 -123.5t-115 -87t-164.5 -33q-95 0 -151 33.5t-83.5 88.5t-30 126.5t10.5 146.5l104 594h64l-102 -580q-12 -65 -12.5 -127.5t19.5 -112t66 -80t127 -30.5q79 0 134.5 29
t92.5 76t58.5 107.5t32.5 123.5l104 594h64v0z" />
    <glyph glyph-name="V" unicode="V" horiz-adv-x="766" 
d="M356 0h-86l-168 969h70l150 -918l471 918h61z" />
    <glyph glyph-name="W" unicode="W" horiz-adv-x="1151" 
d="M803 0h-74l-59 909l-377 -909h-74l-69 969h63l63 -893l371 893h70l57 -899l377 899h59z" />
    <glyph glyph-name="X" unicode="X" horiz-adv-x="768" 
d="M438 489l211 -489h-69l-191 432l-348 -432h-61l385 483l-209 486h69l187 -428l346 428h61z" />
    <glyph glyph-name="Y" unicode="Y" horiz-adv-x="678" 
d="M375 420l-74 -420h-63l73 418l-207 551h66l184 -490l355 490h61z" />
    <glyph glyph-name="Z" unicode="Z" horiz-adv-x="768" 
d="M791 909l-725 -852h589l-10 -57h-659l10 59l727 852h-557l10 58h625z" />
    <glyph glyph-name="bracketleft" unicode="[" horiz-adv-x="475" 
d="M494 967h-213l-207 -1176h213l-8 -45h-275l223 1266h275z" />
    <glyph glyph-name="backslash" unicode="\" horiz-adv-x="475" 
d="M346 -197l-213 1209h60l210 -1209h-57z" />
    <glyph glyph-name="bracketright" unicode="]" horiz-adv-x="475" 
d="M238 -254h-275l8 45h213l207 1176h-213l8 45h275z" />
    <glyph glyph-name="asciicircum" unicode="^" horiz-adv-x="936" 
d="M766 444l-209 469l-375 -471h-63l420 527h55l235 -525h-63z" />
    <glyph glyph-name="underscore" unicode="_" horiz-adv-x="676" 
d="M569 -195h-675l10 52h676z" />
    <glyph glyph-name="grave" unicode="`" horiz-adv-x="705" 
d="M422 846l-84 244h76l39 -244h-31z" />
    <glyph glyph-name="a" unicode="a" horiz-adv-x="659" 
d="M500 0h-60l19 100q-25 -23 -54.5 -44.5t-63.5 -38.5t-73 -27t-82 -10q-46 0 -84 13.5t-63 42.5t-34 74t3 109q13 74 62.5 120.5t121 72.5t157.5 35.5t173 9.5q9 48 11 87.5t-12.5 68.5t-51 45t-104.5 16q-86 0 -141 -17t-87 -32l10 61q57 20 112 30.5t118 10.5
q57 0 101 -12t72 -38.5t39 -67t1 -97.5zM512 406q-75 0 -149.5 -7t-136 -28.5t-104.5 -61.5t-54 -106q-8 -41 0 -73t28 -54t49 -33.5t64 -11.5q38 0 78 13t75.5 32t63 40t41.5 36z" />
    <glyph glyph-name="b" unicode="b" horiz-adv-x="688" 
d="M639 387q-13 -75 -43.5 -147.5t-76 -130.5t-105 -93.5t-129.5 -35.5q-31 0 -60.5 5t-54.5 14t-44 21t-28 25l-20 -45h-58l179 1012h59l-70 -391q19 17 46 35.5t60 34.5t71.5 26t80.5 10q61 0 103 -28.5t66 -75.5t30 -108.5t-6 -127.5zM575 377q9 54 7 107t-18.5 94
t-48.5 66.5t-83 25.5q-40 0 -77.5 -11t-70.5 -27.5t-60.5 -37t-45.5 -39.5l-80 -449q14 -16 35.5 -30t47 -24t53.5 -15.5t55 -5.5q61 0 109.5 31.5t84.5 81t58.5 111t33.5 122.5z" />
    <glyph glyph-name="c" unicode="c" horiz-adv-x="559" 
d="M580 608q-66 66 -172 66q-60 0 -110.5 -21t-90 -60.5t-67 -96.5t-40.5 -129q-13 -75 -7.5 -136.5t29 -105t65 -67t100.5 -23.5q30 0 60 5t57 14t50 22t38 28l-11 -63q-38 -23 -89.5 -41t-108.5 -18q-73 0 -126.5 26t-85.5 75t-41 120.5t7 163.5q14 80 46 146t79.5 113.5
t107.5 74t131 26.5q60 0 108 -14t83 -37z" />
    <glyph glyph-name="d" unicode="d" horiz-adv-x="688" 
d="M524 0h-57l-4 45q-14 -13 -37 -25t-51.5 -21t-59.5 -14t-61 -5q-72 0 -119 35.5t-72.5 93.5t-30 130.5t8.5 147.5q11 60 39 120.5t69.5 109.5t94.5 79.5t114 30.5q45 0 80 -8.5t61.5 -23t44.5 -34t29 -40.5l70 391h59zM563 555q-17 28 -34.5 49.5t-41.5 36t-56.5 22
t-78.5 7.5q-51 0 -93 -27t-74 -69.5t-53 -94.5t-30 -102q-11 -61 -9 -122.5t20 -111t55.5 -81t99.5 -31.5q28 0 57.5 5.5t58 15.5t54 24t45.5 30z" />
    <glyph glyph-name="e" unicode="e" horiz-adv-x="653" 
d="M100 383q-14 -78 -7.5 -141.5t33 -109t74 -70.5t115.5 -25q20 0 48.5 2.5t60 10t63 20t58.5 32.5l-13 -63q-49 -29 -101.5 -42t-115.5 -13q-92 0 -152.5 28.5t-92.5 81t-38.5 126.5t9.5 165q12 67 45 129t81 109.5t110 75.5t133 28q75 0 120.5 -27.5t67 -74.5t23 -109.5
t-10.5 -132.5h-510zM553 422q13 71 2 126q-5 24 -15 46.5t-28 40t-45 28.5t-66 11q-41 0 -75 -11t-62 -28.5t-50.5 -40t-39.5 -46.5q-40 -55 -65 -126h444z" />
    <glyph glyph-name="f" unicode="f" horiz-adv-x="346" 
d="M504 954q-45 22 -98.5 18t-104.5 -42q-26 -18 -40.5 -39.5t-23 -45.5t-13 -50.5l-9.5 -55.5l-6 -32h211l-8 -43h-209l-117 -664h-59l116 664h-73l8 43h76l4 30q4 34 10 64.5t16.5 58.5t28.5 53.5t47 49.5q31 24 65.5 37.5t68 18t65 1.5t55.5 -12z" />
    <glyph glyph-name="g" unicode="g" horiz-adv-x="688" 
d="M537 86q-31 -172 -108.5 -265t-207.5 -93q-44 0 -82.5 5t-67.5 12q-34 7 -63 17l8 56q26 -11 59 -20q29 -8 69.5 -13.5t91.5 -5.5q53 0 92 22.5t67.5 61.5t48 92t31.5 115l8 41q-19 -25 -47 -46t-62 -36.5t-72 -24t-77 -8.5q-66 0 -107.5 32.5t-63 84.5t-24.5 117.5
t9 131.5q12 68 41.5 133.5t73 117t98.5 83t119 31.5q42 0 78 -10t63 -22q32 -14 59 -31l23 45h53zM571 604q-25 19 -56 35q-26 13 -62.5 24t-79.5 11q-53 0 -98.5 -26.5t-80.5 -69.5t-58.5 -97.5t-33.5 -111.5q-9 -53 -9.5 -108.5t14.5 -101t47.5 -75t89.5 -29.5
q54 0 100 17.5t80 39.5q40 26 72 58z" />
    <glyph glyph-name="h" unicode="h" horiz-adv-x="700" 
d="M543 0h-60l78 446q8 42 10 82.5t-6.5 72t-30.5 50.5t-61 19q-61 0 -114.5 -18.5t-94.5 -41.5q-48 -26 -88 -59l-96 -551h-57l178 1012h57l-72 -404q25 22 60.5 43.5t75.5 38.5t82 27t81 10q46 0 77.5 -18.5t49 -51t21.5 -76t-4 -92.5z" />
    <glyph glyph-name="i" unicode="i" horiz-adv-x="248" 
d="M248 905h-72l12 70h72zM82 0h-59l124 709h60z" />
    <glyph glyph-name="j" unicode="j" horiz-adv-x="336" 
d="M338 905h-72l13 70h71zM168 -25q-17 -94 -52.5 -147t-83 -76.5t-102 -24t-108.5 10.5l10 51q37 -12 80 -14.5t82.5 14.5t70.5 58t44 116l124 707h-145l6 43h203z" />
    <glyph glyph-name="k" unicode="k" horiz-adv-x="649" 
d="M293 387l260 -387h-74l-227 352l-125 -112l-43 -240h-57l178 1012h57l-123 -697l434 392h68z" />
    <glyph glyph-name="l" unicode="l" horiz-adv-x="248" 
d="M82 0h-59l178 1012h59z" />
    <glyph glyph-name="m" unicode="m" horiz-adv-x="1130" 
d="M967 0h-58l74 414q23 133 6 195.5t-88 62.5q-42 0 -91 -17.5t-91 -44t-72 -58t-35 -58.5l-86 -494h-57l74 414q23 131 6 194.5t-88 63.5q-54 0 -106 -22.5t-93 -49.5q-48 -32 -90 -72l-92 -528h-57l124 705h58l-21 -109q28 25 62 48.5t71 42t77.5 29.5t82.5 11
q69 0 101.5 -38t37.5 -101q26 27 61.5 52t75 44.5t82 31t83.5 11.5q50 0 80.5 -20t45 -55t15 -83t-9.5 -104z" />
    <glyph glyph-name="n" unicode="n" horiz-adv-x="700" 
d="M541 0h-58l74 414q25 135 6.5 196.5t-88.5 61.5q-54 0 -107 -20.5t-96 -44.5q-50 -28 -96 -64l-96 -543h-57l124 705h58l-19 -103q32 25 68 48t75 40t80 27t83 10q50 0 80.5 -20t45 -55t15 -83t-9.5 -104z" />
    <glyph glyph-name="o" unicode="o" horiz-adv-x="668" 
d="M618 371q-14 -84 -46 -155.5t-78.5 -124t-107.5 -82t-134 -29.5q-68 0 -115.5 30t-74 82.5t-32.5 123.5t9 153q14 78 45 144t76.5 113.5t104 74t128.5 26.5q69 0 118 -26t77.5 -73.5t36 -113t-6.5 -143.5zM557 373q11 61 8 115t-23 95t-58.5 65t-98.5 24
q-63 0 -111.5 -24.5t-83.5 -66t-57 -95.5t-33 -113q-7 -41 -9.5 -82t1.5 -78.5t15.5 -70t32 -56.5t51 -37.5t73.5 -13.5q68 0 118.5 29.5t85.5 77.5t56.5 108.5t32.5 122.5z" />
    <glyph glyph-name="p" unicode="p" horiz-adv-x="688" 
d="M635 344q-13 -73 -45 -136.5t-77.5 -110.5t-102 -74t-119.5 -27q-62 0 -100 13.5t-59 30.5q-25 19 -36 44l-61 -350l-60 -2l172 975h54v-58q30 21 65 39q30 14 69 26.5t83 12.5q77 0 125.5 -30.5t73.5 -82.5t28.5 -122t-10.5 -148zM580 354q13 75 8.5 134t-25.5 100
t-59 62.5t-92 21.5q-53 0 -95.5 -13.5t-71.5 -30.5q-35 -19 -61 -44l-75 -434q14 -29 39 -51q21 -19 56 -34.5t89 -15.5q58 0 106.5 25t85 67t60.5 97.5t35 115.5z" />
    <glyph glyph-name="q" unicode="q" horiz-adv-x="688" 
d="M475 -268l-57 2l61 350q-19 -25 -51 -44q-27 -17 -69.5 -30.5t-104.5 -13.5t-109.5 27t-76.5 74t-38.5 110.5t3.5 136.5q14 78 42 148t71.5 122t103 82.5t135.5 30.5q43 0 78 -12.5t60 -26.5q29 -18 52 -39l21 58h51zM567 584q-18 25 -46 44q-24 17 -61 30.5t-89 13.5
q-53 0 -98.5 -21.5t-81 -62.5t-61 -100t-38.5 -134q-11 -60 -6.5 -115.5t26.5 -97.5t61 -67t97 -25q54 0 94.5 15.5t69.5 34.5q33 22 58 51z" />
    <glyph glyph-name="r" unicode="r" horiz-adv-x="440" 
d="M508 672q-30 7 -60 4.5t-59 -11t-56 -22t-51 -28.5q-55 -35 -106 -85l-94 -530h-59l129 727h59l-25 -129q45 43 99 75q23 13 49.5 25.5t56.5 20.5t62 10.5t65 -2.5z" />
    <glyph glyph-name="s" unicode="s" horiz-adv-x="559" 
d="M537 612q-28 26 -77.5 42t-117.5 16q-35 0 -68.5 -7t-61.5 -21t-47 -34.5t-24 -48.5q-5 -29 4.5 -50t28.5 -36.5t44 -27l50 -23.5q60 -26 105 -47.5t72.5 -47t37.5 -60.5t0 -89q-9 -52 -37 -90t-68 -62.5t-88 -36.5t-97 -12q-33 0 -65.5 5.5t-60.5 14t-49.5 19.5
t-33.5 23l14 72q5 -10 21 -24t41.5 -27t60.5 -22t80 -9q42 0 80 11.5t68 31.5t50 47t25 59q7 39 -5 66t-35 47.5t-54 35t-62 27.5q-52 22 -91 40.5t-63 40t-33 50t-1 70.5q7 45 34 77.5t65.5 53.5t84.5 31t92 10q62 0 107.5 -12.5t85.5 -34.5z" />
    <glyph glyph-name="t" unicode="t" horiz-adv-x="399" 
d="M438 668h-239l-78 -453q-13 -75 -2.5 -118.5t40 -61.5t74 -13t99.5 29l-8 -51q-65 -23 -120.5 -27.5t-92 18.5t-51 78t2.5 150l78 449h-78l9 43h78l38 223h58l-39 -223h239z" />
    <glyph glyph-name="u" unicode="u" horiz-adv-x="700" 
d="M535 0h-58l21 113q-40 -37 -88 -66q-41 -25 -95.5 -45t-117.5 -20q-49 0 -80 22.5t-46.5 59.5t-17.5 83t6 93l84 485h58l-80 -455q-8 -42 -9 -83t8 -73.5t30 -52.5t59 -20q69 0 124.5 22t94.5 48q46 31 82 71l94 543h58z" />
    <glyph glyph-name="v" unicode="v" horiz-adv-x="649" 
d="M289 0h-70l-131 727h64l114 -672l350 672h60z" />
    <glyph glyph-name="w" unicode="w" horiz-adv-x="936" 
d="M649 0h-61l-80 643l-303 -643h-62l-45 727h62l35 -651l307 651h47l76 -651l266 651h61z" />
    <glyph glyph-name="x" unicode="x" horiz-adv-x="649" 
d="M354 379l187 -379h-68l-162 330l-286 -330h-64l326 369l-170 358h65l144 -309l270 309h61z" />
    <glyph glyph-name="y" unicode="y" horiz-adv-x="649" 
d="M121 -268h-60l166 291l-137 704h62l120 -627l344 627h58z" />
    <glyph glyph-name="z" unicode="z" horiz-adv-x="565" 
d="M571 676l-534 -625h436l-8 -51h-500l10 53l533 623h-416l10 51h480z" />
    <glyph glyph-name="braceleft" unicode="{" horiz-adv-x="635" 
d="M690 985q-47 0 -90 -6.5t-78.5 -32t-63 -76.5t-42.5 -139q-23 -126 -80.5 -214.5t-161.5 -135.5l-2 -4q90 -48 116 -135.5t3 -214.5q-15 -89 -6 -139.5t35.5 -76t67 -32t87.5 -6.5l-4 -29h-63q-51 0 -89.5 12t-61 43.5t-28.5 86t9 139.5q10 57 11 116t-16 107t-58 78
t-116 30l9 45q73 -1 124.5 29.5t86 78.5t54 107.5t29.5 116.5q15 84 40 138.5t59 86t76.5 44t93.5 12.5h63z" />
    <glyph glyph-name="bar" unicode="|" horiz-adv-x="475" 
d="M209 -254v1266h57v-1266h-57z" />
    <glyph glyph-name="braceright" unicode="}" horiz-adv-x="635" 
d="M559 356q-75 0 -127 -30t-86.5 -78t-54 -107t-29.5 -116q-15 -85 -39.5 -139.5t-58.5 -86t-76.5 -43.5t-93.5 -12h-64l4 29q47 0 90 6.5t79 32t63.5 76t42.5 139.5q23 126 80 214t162 136l2 4q-90 48 -116 135.5t-3 214.5q15 88 6 139t-36 76.5t-67.5 32t-86.5 6.5l4 29
h63q51 0 89.5 -12.5t61.5 -44t28.5 -86t-9.5 -138.5q-10 -57 -11.5 -116.5t16 -107.5t59 -78.5t116.5 -29.5z" />
    <glyph glyph-name="asciitilde" unicode="~" horiz-adv-x="936" 
d="M877 600q-13 -72 -38.5 -135t-59 -109.5t-73.5 -73t-83 -26.5q-45 0 -74.5 21.5t-51.5 54.5t-39.5 70.5t-37.5 70.5t-46 54.5t-65 21.5q-40 0 -72 -27.5t-56 -70t-40 -94t-24 -99.5h-49q10 60 30.5 121.5t51.5 111.5t73 81.5t96 31.5q43 0 74 -22t55 -54.5t43.5 -71
t39.5 -71t44 -54.5t56 -22q38 0 70.5 28t58 70.5t43.5 94t26 98.5h48v0z" />
    <glyph glyph-name="quotedbl" unicode="&#x22;" horiz-adv-x="522" 
d="M434 633h-28l45 379h73zM195 633h-27l45 379h74z" />
    <glyph glyph-name="exclam" unicode="!" horiz-adv-x="440" 
d="M223 285h-47l103 684h77zM182 0h-69l14 80h70z" />
    <glyph glyph-name="guillemotleft" unicode="&#xab;" horiz-adv-x="514" 
d="M332 365l57 -209l-20 -37l-115 246l203 245l8 -35zM139 365l168 -281l-18 -41l-240 322l352 323l7 -41z" />
    <glyph glyph-name="logicalnot" unicode="&#xac;" horiz-adv-x="676" 
d="M609 119v178h-624v90h706v-268h-82z" />
    <glyph glyph-name="registered" unicode="&#xae;" horiz-adv-x="1067" 
d="M1065 504q-18 -107 -75 -201t-139 -164.5t-183 -111.5t-207 -41q-107 0 -194 41t-145 111.5t-82.5 164.5t-6.5 201q13 71 43 137t74.5 123t100 104.5t119 81t133 52t140.5 18.5q107 0 193.5 -40.5t143.5 -111t80.5 -164.5t4.5 -200zM1012 504q17 96 -4 180.5t-72.5 147
t-129 99t-173.5 36.5q-97 0 -188 -36.5t-165.5 -99t-125.5 -147t-68 -180.5q-17 -97 5 -181.5t74 -147t130.5 -98.5t175.5 -36q96 0 186 36t163.5 98.5t124 147t67.5 181.5zM793 635q-13 -71 -64 -116.5t-133 -53.5l149 -287h-63l-143 281h-129l-50 -281h-53l111 627h196
q41 0 76.5 -4.5t67.5 -26.5q28 -25 35.5 -59.5t-0.5 -79.5zM737 633q8 35 2.5 63t-32.5 45q-22 13 -52.5 14t-58.5 1h-133l-43 -250h147q26 0 56 7.5t59 27.5q23 17 36.5 40.5t18.5 51.5z" />
    <glyph glyph-name="degree" unicode="&#xb0;" horiz-adv-x="541" 
d="M266 915q43 0 80.5 -16t65 -43t43.5 -64t16 -79t-16 -79t-43.5 -64.5t-65 -43.5t-80.5 -16q-41 0 -77 15.5t-63.5 43t-43.5 64.5t-16 80q0 40 15.5 77t42.5 64.5t63.5 44t78.5 16.5zM266 858q-31 0 -57.5 -11t-46 -30.5t-30.5 -46t-11 -57.5q0 -30 11.5 -57t31 -47
t46 -32t56.5 -12q61 0 105 43q45 46 45 105q0 30 -12 56.5t-32.5 46t-47.5 31t-58 11.5z" />
    <glyph glyph-name="paragraph" unicode="&#xb6;" horiz-adv-x="727" 
d="M629 -244h-62v1356h-145v-1356h-55v805q-168 0 -263 62q-104 74 -104 235q0 153 94 229q90 66 248 66h389v-41h-102v-1356z" />
    <glyph glyph-name="periodcentered" unicode="&#xb7;" horiz-adv-x="338" 
d="M170 520q31 0 51.5 -21.5t20.5 -49.5q0 -31 -21.5 -52.5t-50.5 -21.5q-33 0 -53.5 20.5t-20.5 53.5q0 30 20.5 50.5t53.5 20.5z" />
    <glyph glyph-name="periodcentered" unicode="&#x2219;" horiz-adv-x="338" 
d="M170 520q31 0 51.5 -21.5t20.5 -49.5q0 -31 -21.5 -52.5t-50.5 -21.5q-33 0 -53.5 20.5t-20.5 53.5q0 30 20.5 50.5t53.5 20.5z" />
    <glyph glyph-name="guillemotright" unicode="&#xbb;" horiz-adv-x="514" 
d="M100 43l-6 41l266 281l-165 282l18 41l238 -323zM45 119l-8 37l131 209l-55 210l20 35l113 -245z" />
    <glyph glyph-name="multiply" unicode="&#xd7;" horiz-adv-x="676" 
d="M360 342l207 -252l-43 -35l-207 250l-292 -250l-29 37l291 250l-203 248l41 37l205 -250l295 252l30 -37z" />
    <glyph glyph-name="divide" unicode="&#xf7;" horiz-adv-x="676" 
d="M432 600q-2 -12 -9 -23t-17.5 -19.5t-23 -13.5t-24.5 -5q-23 0 -37.5 19t-11.5 42q5 25 26 43.5t46 18.5t40.5 -18.5t10.5 -43.5zM618 315h-593l10 52h594zM344 102q-5 -23 -26 -42t-46 -19q-11 0 -21.5 5.5t-17.5 14t-10.5 19.5t-1.5 22q5 25 26 43.5t46 18.5
t40.5 -18.5t10.5 -43.5z" />
    <glyph glyph-name="uni0E00" unicode="&#xe00;" horiz-adv-x="205" 
 />
    <glyph glyph-name="uni0E01" unicode="&#xe01;" horiz-adv-x="696" 
d="M553 0h-53l104 588q10 57 -3.5 95t-41.5 60.5t-66 31.5t-77 9t-81 -9t-78 -31.5t-62.5 -60.5t-36.5 -95l-105 -588h-53l106 600q12 67 47.5 112t81.5 72t96.5 38.5t92.5 11.5q44 0 91 -11.5t83 -38.5t54.5 -72t6.5 -112z" />
    <glyph glyph-name="uni0E02" unicode="&#xe02;" horiz-adv-x="586" 
d="M444 10q-110 -25 -195.5 -12.5t-139.5 60t-74 128t0 191.5q13 74 43 135.5t67.5 108t77.5 78t74 46.5l-47 62l55 18l60 -82q-42 -17 -86 -50t-82.5 -79.5t-67.5 -106.5t-41 -130q-18 -100 0.5 -169.5t62 -110t108 -52t138.5 3.5l138 770h53z" />
    <glyph glyph-name="uni0E03" unicode="&#xe03;" horiz-adv-x="586" 
d="M444 10q-110 -25 -195 -12.5t-139 59t-74 125.5t-1 187q12 71 43.5 130.5t70.5 106.5t80.5 80.5t73.5 52.5l-16 25l-54 -35l-67 70l41 26l41 -39l59 39l58 -90q-33 -18 -76.5 -51.5t-84 -81t-72.5 -106.5t-44 -127q-17 -96 1.5 -164t62 -107.5t107.5 -51.5t138 3l138 770
h53z" />
    <glyph glyph-name="uni0E04" unicode="&#xe04;" horiz-adv-x="717" 
d="M573 0h-53l105 588q10 57 -4.5 95t-43.5 60.5t-69 31.5t-82 9q-41 0 -84 -9t-80.5 -31.5t-65.5 -60.5t-38 -95l-19 -96h213l-8 -50h-213l-78 -442h-53l106 600q12 67 48.5 112t84 72t99.5 38.5t96 11.5q45 0 93.5 -11.5t86.5 -38.5t58 -72t8 -112z" />
    <glyph glyph-name="uni0E05" unicode="&#xe05;" horiz-adv-x="717" 
d="M573 0h-53l107 604q12 74 -10.5 118t-73.5 58l-140 -114l-98 114q-54 -14 -92.5 -58t-52.5 -118l-21 -112h203l-8 -50h-203l-78 -442h-53l109 614q7 44 26 81.5t47.5 65.5t65.5 45.5t80 22.5l88 -96l121 96q41 -5 71.5 -22.5t49.5 -45.5t25 -65.5t-1 -81.5z" />
    <glyph glyph-name="uni0E06" unicode="&#xe06;" horiz-adv-x="696" 
d="M594 236q-12 -66 -36.5 -113t-58 -77t-75 -44t-86.5 -14q-54 0 -96.5 17t-74 44t-52 62t-29.5 71l-33 -182h-53l88 500q8 42 28 77t46 63t53.5 50t50.5 37l-24 33l-74 -53l-86 86l45 32l53 -53l80 53l70 -100q-27 -18 -57 -40t-57 -49.5t-47.5 -61.5t-27.5 -74l-30 -174
q-8 -42 4.5 -92t42.5 -94t75 -73.5t103 -29.5q78 0 133 48.5t74 156.5l102 577h53z" />
    <glyph glyph-name="uni0E07" unicode="&#xe07;" horiz-adv-x="604" 
d="M569 444q-18 -102 -58 -189t-103.5 -148t-152.5 -91.5t-204 -19.5l35 782l57 41l-34 -778q88 0 156.5 29.5t119 82.5t83 127t48.5 164q13 76 5 137.5t-35 104t-73 65t-108 21.5l10 49q69 3 123 -21t88.5 -72.5t46.5 -120t-4 -163.5z" />
    <glyph glyph-name="uni0E08" unicode="&#xe08;" horiz-adv-x="594" 
d="M555 420q-18 -106 -61 -191.5t-112 -142.5t-164 -81.5t-218 -8.5l92 528l-12 49h74l-95 -538q97 -4 172.5 22t130.5 76.5t89.5 123.5t50.5 163q18 107 -5.5 182.5t-79.5 119.5t-141 56t-190 -8l8 47q123 23 218 6.5t155.5 -68.5t84 -137t3.5 -198z" />
    <glyph glyph-name="uni0E09" unicode="&#xe09;" horiz-adv-x="696" 
d="M553 0h-53l24 141q-22 -31 -56 -58.5t-74.5 -48.5t-83.5 -33.5t-83 -12.5q-37 0 -76 8t-68.5 31.5t-43.5 67t-2 114.5l45 258l-12 49h73l-51 -295q-10 -59 0 -95.5t32.5 -56.5t53 -27t62.5 -7q44 0 95 21.5t95.5 55.5t77 76.5t39.5 83.5l51 291q9 51 2 92t-34 69t-76 43
t-123 15q-44 0 -84 -8t-73.5 -20.5t-60.5 -27.5t-45 -30l11 60q11 8 36 21t60 25t77.5 20.5t88.5 8.5q88 0 146 -18.5t90 -53t40.5 -84.5t-2.5 -112z" />
    <glyph glyph-name="uni0E0A" unicode="&#xe0a;" horiz-adv-x="606" 
d="M561 381q-20 -114 -72 -196t-126.5 -129t-167 -59t-193.5 13l133 760l-10 49h74l-138 -770q70 -15 142 -4t133.5 51.5t107.5 111t64 173.5q12 69 2.5 123.5t-34.5 96.5t-62 72.5t-78 51.5l127 94h69l-122 -92q31 -13 63.5 -41t56.5 -71t34 -101.5t-3 -132.5z" />
    <glyph glyph-name="uni0E0B" unicode="&#xe0b;" horiz-adv-x="612" 
d="M567 381q-20 -114 -71.5 -196t-126 -129t-167 -59t-194.5 13l88 504q16 85 52.5 134.5t82.5 78.5l-24 33l-64 -53l-75 86l45 32l45 -49l67 49l70 -100q-27 -18 -50.5 -37.5t-42.5 -44.5t-32 -56.5t-20 -72.5l-82 -465q70 -15 141.5 -4t133 51.5t107.5 111t64 173.5
q12 69 2.5 123.5t-34.5 96.5t-61.5 72.5t-78.5 51.5l127 94h70l-123 -92q31 -13 63.5 -41t56.5 -71t34 -101.5t-3 -132.5z" />
    <glyph glyph-name="uni0E0C" unicode="&#xe0c;" horiz-adv-x="1135" 
d="M1032 229q-13 -73 -40.5 -119.5t-63 -73.5t-75 -37.5t-77.5 -10.5q-75 0 -125.5 39t-75.5 102l-22 -129h-53l104 588q10 57 -4 94.5t-43 60t-68.5 32t-80.5 9.5q-38 0 -77 -8t-74.5 -25t-64.5 -43t-47 -63l91 -55q-13 -6 -28.5 -16.5t-30 -24t-25 -29.5t-13.5 -35
l-78 -436h107l-8 -49h-160l86 485q3 19 12.5 35.5t21.5 29t24.5 21t21.5 13.5l-82 47q23 58 62 97t85 62.5t94.5 33.5t90.5 10q46 0 94 -11.5t85 -39t55.5 -73t6.5 -112.5l-57 -326q-7 -41 4 -83.5t35.5 -76.5t61.5 -55.5t83 -21.5q32 0 63 9.5t57 33t46 63t31 99.5l102 579
h54z" />
    <glyph glyph-name="uni0E0D" unicode="&#xe0d;" horiz-adv-x="1135" 
d="M1006 82q-11 -62 -39 -106t-67.5 -72.5t-87.5 -42t-99 -13.5h-240l8 50h240q45 0 84 11.5t69 33.5t50 54t26 73l4 26q-17 -19 -41.5 -38.5t-55.5 -35t-68 -25t-80 -9.5q-38 0 -74 11t-61.5 37t-37 69t0.5 108l67 375q10 57 -4 94.5t-43 60t-68.5 32t-80.5 9.5
q-38 0 -77 -8t-74.5 -25t-64.5 -43t-47 -63l91 -55q-13 -6 -28.5 -16.5t-30 -24t-25 -29.5t-13.5 -35l-78 -436h107l-8 -49h-160l86 485q3 19 12.5 35.5t21.5 29t24.5 21t21.5 13.5l-82 47q23 58 62 97t85 62.5t94.5 33.5t90.5 10q46 0 94 -11.5t84.5 -39t55.5 -73t7 -112.5
l-63 -371q-10 -57 -2.5 -93.5t27 -58t49 -30t63.5 -8.5q36 0 76.5 14t76.5 42t63.5 70t37.5 99l98 557h54z" />
    <glyph glyph-name="uni0E0E" unicode="&#xe0e;" horiz-adv-x="707" 
d="M512 -287h-53l-125 152l-178 -152h-203l10 49h184l199 168l125 -149l143 807q10 57 -4 94.5t-43 60t-68.5 32t-80.5 9.5q-38 0 -77 -8t-74.5 -25t-64 -43t-46.5 -63l90 -55q-13 -6 -28.5 -16.5t-29.5 -24t-24.5 -29.5t-13.5 -35l-87 -485h-114l8 49h61l78 436
q3 19 12.5 35.5t21.5 29t24.5 21t21.5 13.5l-82 47q23 58 62.5 97t85.5 62.5t94 33.5t90 10q46 0 94 -11.5t84.5 -39t55.5 -73t8 -112.5z" />
    <glyph glyph-name="uni0E0F" unicode="&#xe0f;" horiz-adv-x="707" 
d="M512 -287h-53l-82 140l-131 -140l-82 140l-131 -140h-146l11 49h118l162 168l82 -137l131 137l82 -139l141 797q10 57 -4 94.5t-43 60t-68.5 32t-80.5 9.5q-38 0 -77 -8t-74.5 -25t-64 -43t-46.5 -63l90 -55q-13 -6 -28.5 -16.5t-29.5 -24t-24.5 -29.5t-13.5 -35
l-87 -485h-114l8 49h61l78 436q3 19 12.5 35.5t21.5 29t24.5 21t21.5 13.5l-82 47q23 58 62.5 97t85.5 62.5t94 33.5t90 10q46 0 94 -11.5t84.5 -39t55.5 -73t8 -112.5z" />
    <glyph glyph-name="uni0E10" unicode="&#xe10;" horiz-adv-x="594" 
d="M483 739q53 -52 72 -133t0 -186q-18 -106 -61 -191.5t-112 -142.5t-164 -81.5t-218 -8.5l92 528l-12 49h74l-95 -538q97 -4 172.5 22t130.5 76.5t89.5 123.5t50.5 163q18 107 -5.5 182.5t-79.5 119.5t-141 56t-190 -8l8 47q115 22 203 9t149 -56l60 70h65zM436 -287h-53
l-76 115l-106 -115l-66 115l-117 -115h-141l10 49h115l148 144l65 -111l107 111l75 -113l21 117l-12 49h73z" />
    <glyph glyph-name="uni0E11" unicode="&#xe11;" horiz-adv-x="717" 
d="M573 0h-53l109 610q6 34 6.5 65.5t-7 55t-23.5 37.5t-44 14q-18 0 -40.5 -14t-48 -39t-53.5 -59t-57 -74q-29 -41 -61.5 -92.5l-65 -107.5l-63 -113t-55 -108t-41 -93.5t-21.5 -69.5l-2 -12h-53l88 500q8 42 28 77t46 63t53.5 50t50.5 37l-24 33l-74 -53l-86 86l45 32
l53 -53l80 53l70 -100q-27 -18 -57 -40t-57 -49.5t-47.5 -61.5t-27.5 -74l-51 -293q11 30 34.5 78t56 105t71 118t78.5 117q32 44 63.5 82t61.5 65.5t59.5 43t58.5 15.5q41 0 66.5 -15.5t37.5 -43.5t13 -66.5t-8 -84.5z" />
    <glyph glyph-name="uni0E12" unicode="&#xe12;" horiz-adv-x="1165" 
d="M1063 229q-13 -73 -40.5 -119.5t-63 -73.5t-75.5 -37.5t-77 -10.5q-75 0 -125.5 39t-75.5 102l-22 -129h-54l134 758l-146 -101l-117 117q-48 -15 -97.5 -46.5t-91.5 -77t-73 -104t-43 -128.5q-17 -96 -2.5 -166.5t52 -116t93.5 -68t123 -22.5l-8 -49q-90 0 -156.5 30.5
t-106.5 86t-52.5 132.5t4.5 171q14 80 50 148.5t87 122t113.5 90t130.5 52.5l106 -102l146 92h53l-98 -547q-8 -41 2.5 -83.5t35.5 -76.5t62.5 -55.5t83.5 -21.5q32 0 63 9.5t57 33t46 63t31 99.5l102 579h53z" />
    <glyph glyph-name="uni0E13" unicode="&#xe13;" horiz-adv-x="1135" 
d="M991 0h-53l23 129q-47 -63 -111 -102t-139 -39q-38 0 -74 10.5t-62 37.5t-36.5 73.5t2.5 119.5l63 359q10 57 -4 94.5t-43 60t-68.5 32t-80.5 9.5q-38 0 -77 -8t-74.5 -25t-64.5 -43t-47 -63l91 -55q-13 -6 -28.5 -16.5t-30 -24t-25 -29.5t-13.5 -35l-78 -436h107l-8 -49
h-160l86 485q3 19 12.5 35.5t21.5 29t24.5 21t21.5 13.5l-82 47q23 58 62 97t85 62.5t94.5 33.5t90.5 10q46 0 94 -11.5t84.5 -39t55.5 -73t7 -112.5l-61 -358q-10 -60 -4 -99.5t23.5 -63t44.5 -33t59 -9.5q46 0 90.5 21.5t81 55.5t61.5 76.5t33 83.5l98 547h54z" />
    <glyph glyph-name="uni0E14" unicode="&#xe14;" horiz-adv-x="727" 
d="M584 0h-54l136 770l-193 4q-65 1 -127.5 -26.5t-113.5 -76.5t-87 -114.5t-49 -138.5q-17 -96 -2.5 -166.5t52 -116t93.5 -68t123 -22.5l-8 -49q-90 0 -156.5 30.5t-106.5 86t-52.5 132.5t4.5 171q15 83 55 157.5t99 130.5t133.5 88t158.5 31l240 -4z" />
    <glyph glyph-name="uni0E15" unicode="&#xe15;" horiz-adv-x="727" 
d="M584 0h-54l134 758l-146 -101l-117 117q-48 -15 -97.5 -46.5t-91.5 -77t-73 -104t-43 -128.5q-17 -96 -2.5 -166.5t52 -116t93.5 -68t123 -22.5l-8 -49q-90 0 -156.5 30.5t-106.5 86t-52.5 132.5t4.5 171q14 80 50 148.5t87 122t113.5 90t130.5 52.5l106 -102l146 92h53z
" />
    <glyph glyph-name="uni0E16" unicode="&#xe16;" horiz-adv-x="696" 
d="M553 0h-53l104 588q10 57 -4 94.5t-43 60t-68.5 32t-80.5 9.5q-38 0 -77 -8t-74.5 -25t-64.5 -43t-47 -63l91 -55q-13 -6 -28.5 -16.5t-30 -24t-25 -29.5t-13.5 -35l-78 -436h107l-8 -49h-160l86 485q3 19 12.5 35.5t21.5 29t24.5 21t21.5 13.5l-82 47q23 58 62 97
t85 62.5t94.5 33.5t90.5 10q46 0 94 -11.5t84.5 -39t55.5 -73t7 -112.5z" />
    <glyph glyph-name="uni0E17" unicode="&#xe17;" horiz-adv-x="696" 
d="M553 0h-53l102 578q19 107 -19 155.5t-116 48.5q-58 0 -113.5 -29.5t-101 -73t-76 -94t-37.5 -91.5l-86 -494h-53l145 819h54l-33 -182q22 36 55 71t74 62t89.5 44t102.5 17q45 0 81.5 -14t59.5 -44t31 -77t-4 -112z" />
    <glyph glyph-name="uni0E18" unicode="&#xe18;" horiz-adv-x="633" 
d="M616 680q-10 19 -32 37.5t-54 32.5t-73.5 23t-89.5 9q-42 0 -82.5 -8t-72.5 -23t-53.5 -36t-25.5 -47t15.5 -41t53 -24.5t77.5 -16.5t89.5 -18t87.5 -28.5t72 -47t43.5 -74.5t1.5 -111q-18 -106 -73.5 -172t-134.5 -100t-174.5 -40t-194.5 9l88 492h53l-80 -451
q42 -5 90 -5.5t95.5 7t92.5 25t82.5 48.5t64.5 76.5t38 110.5q11 60 -3.5 98.5t-46 62.5t-74 37.5t-88.5 23t-90 17.5t-77 22t-50.5 37.5t-10.5 62.5t33.5 69.5t66 51t89 31.5t102.5 11q55 0 98.5 -8.5t76 -21.5t52.5 -28t29 -28z" />
    <glyph glyph-name="uni0E19" unicode="&#xe19;" horiz-adv-x="696" 
d="M553 0h-53l32 182q-23 -36 -56 -71t-74 -62t-89 -44t-102 -17q-45 0 -82 14t-60 44t-31.5 77t3.5 113l104 583h54l-103 -577q-18 -108 18.5 -156.5t114.5 -48.5q58 0 113.5 29.5t100.5 73.5t75.5 94t38.5 92l88 493h53z" />
    <glyph glyph-name="uni0E1A" unicode="&#xe1a;" horiz-adv-x="696" 
d="M592 219q-12 -68 -47 -112.5t-80.5 -71.5t-96 -38t-94.5 -11q-42 0 -88.5 11t-83.5 38t-56 71.5t-7 112.5l106 600h54l-105 -588q-10 -57 3.5 -95t41.5 -60.5t66.5 -31.5t77.5 -9t80.5 9t77.5 31.5t63 60.5t37 95l104 588h53z" />
    <glyph glyph-name="uni0E1B" unicode="&#xe1b;" horiz-adv-x="696" 
d="M592 219q-12 -68 -46.5 -112.5t-80.5 -71.5t-96.5 -38t-94.5 -11q-42 0 -88.5 11t-83.5 38t-56 71.5t-7 112.5l106 600h54l-105 -588q-10 -57 3.5 -95t41.5 -60.5t66.5 -31.5t77.5 -9t80.5 9t77.5 31.5t63 60.5t37 95l139 793h53l-141 -805v0z" />
    <glyph glyph-name="uni0E1C" unicode="&#xe1c;" horiz-adv-x="889" 
d="M629 0h-54l-77 709l-328 -709h-53l-33 819h188l-10 -49h-127l27 -686l327 704l-4 31h47l80 -735l289 735h51z" />
    <glyph glyph-name="uni0E1D" unicode="&#xe1d;" horiz-adv-x="889" 
d="M629 0h-54l-77 709l-328 -709h-53l-33 819h188l-10 -49h-127l27 -686l327 704l-4 31h47l80 -735l367 940h51z" />
    <glyph glyph-name="uni0E1E" unicode="&#xe1e;" horiz-adv-x="889" 
d="M629 0h-54l-77 709l-328 -709h-53l-33 819h51l27 -735l327 704l-4 31h47l80 -735l289 735h51z" />
    <glyph glyph-name="uni0E1F" unicode="&#xe1f;" horiz-adv-x="889" 
d="M629 0h-54l-77 709l-328 -709h-53l-33 819h51l27 -735l327 704l-4 31h47l80 -735l367 940h51z" />
    <glyph glyph-name="uni0E20" unicode="&#xe20;" horiz-adv-x="707" 
d="M563 0h-53l104 588q10 57 -4 94.5t-43 60t-68.5 32t-80.5 9.5q-38 0 -77 -8t-74.5 -25t-64 -43t-46.5 -63l90 -55q-13 -6 -28.5 -16.5t-29.5 -24t-24.5 -29.5t-13.5 -35l-87 -485h-114l8 49h61l78 436q3 19 12.5 35.5t21.5 29t24.5 21t21.5 13.5l-82 47q23 58 62.5 97
t85.5 62.5t94 33.5t90 10q46 0 94 -11.5t84.5 -39t55.5 -73t8 -112.5z" />
    <glyph glyph-name="uni0E21" unicode="&#xe21;" horiz-adv-x="696" 
d="M594 236q-12 -66 -36.5 -113t-58 -77t-75 -44t-86.5 -14q-54 0 -96.5 17t-74 44t-52 62t-29.5 71l-33 -182h-53l145 819h54l-88 -493q-8 -42 4.5 -92t42.5 -94t75 -73.5t103 -29.5q78 0 133 48.5t74 156.5l102 577h53z" />
    <glyph glyph-name="uni0E22" unicode="&#xe22;" horiz-adv-x="686" 
d="M543 0l-301 -4q-59 -1 -107 11.5t-79.5 41t-44 75t-1.5 112.5q10 54 35 94.5t55.5 69t61.5 46t53 25.5q-21 1 -45 12.5t-43.5 32.5t-30 53t-2.5 74q9 53 37.5 91t69 61t89.5 30t99 -2l-8 -49q-33 11 -70.5 7.5t-70.5 -20t-58 -45.5t-32 -71q-7 -40 3.5 -69t35 -47
t60.5 -24.5t79 -0.5l12 -39q-48 -3 -94 -20.5t-83 -46.5t-63 -69.5t-34 -88.5q-12 -69 4.5 -109t50 -59.5t78 -24.5t88.5 -4l211 4l137 772h53z" />
    <glyph glyph-name="uni0E23" unicode="&#xe23;" horiz-adv-x="596" 
d="M580 680q-9 19 -30.5 37.5t-51 32.5t-66.5 23t-78 9t-80 -10t-70.5 -29t-53 -47t-27.5 -65q-8 -42 8.5 -66.5t48 -39t73.5 -22.5l85 -16q48 -8 89 -23.5t69 -43t39.5 -69.5t1.5 -103q-12 -72 -44 -121.5t-76 -80t-97 -44.5t-107 -14q-50 0 -89 8.5t-68 21.5t-47.5 28
t-26.5 28l12 65q9 -19 30 -37.5t50 -32.5t65.5 -23t77.5 -9q44 0 87.5 10.5t80.5 35t63.5 64.5t36.5 99q8 45 0 77.5t-29.5 55t-54.5 36t-75 21.5l-98 19t-88.5 29.5t-59 54.5t-10.5 94q8 48 35.5 84.5t67 62t87.5 38.5t98 13q51 0 90.5 -8.5t68.5 -21.5t47 -28t26 -28z" />
    <glyph glyph-name="uni0E24" unicode="&#xe24;" horiz-adv-x="696" 
d="M510 -246h-53l147 834q10 57 -4 94.5t-43 60t-68.5 32t-80.5 9.5q-38 0 -77 -8t-74.5 -25t-64.5 -43t-47 -63l91 -55q-13 -6 -28.5 -16.5t-30 -24t-25 -29.5t-13.5 -35l-78 -436h107l-8 -49h-160l86 485q3 19 12.5 35.5t21.5 29t24.5 21t21.5 13.5l-82 47q23 58 62 97
t85 62.5t94.5 33.5t90.5 10q46 0 94 -11.5t84.5 -39t55.5 -73t7 -112.5z" />
    <glyph glyph-name="uni0E25" unicode="&#xe25;" horiz-adv-x="702" 
d="M559 0h-53l98 561q-47 10 -101.5 10.5t-110.5 -10t-109 -33t-96.5 -58t-74.5 -85t-42 -113.5q-12 -67 5 -112.5t50 -72t76 -35.5t82 -3l-9 -49q-56 -6 -108.5 6.5t-90 45.5t-55.5 87.5t-4 132.5q17 96 74.5 167.5t140 115t182.5 58.5t201 -3q7 40 -5 72t-40.5 54t-71 34
t-96.5 12q-88 0 -162.5 -30.5t-123.5 -79.5l12 67q44 37 116 64.5t179 27.5q52 0 101 -11.5t84.5 -37.5t52.5 -70t6 -108z" />
    <glyph glyph-name="uni0E26" unicode="&#xe26;" horiz-adv-x="707" 
d="M520 -246h-53l147 834q10 57 -4 94.5t-43 60t-68.5 32t-80.5 9.5q-38 0 -77 -8t-74.5 -25t-64 -43t-46.5 -63l90 -55q-13 -6 -28.5 -16.5t-29.5 -24t-24.5 -29.5t-13.5 -35l-87 -485h-114l8 49h61l78 436q3 19 12.5 35.5t21.5 29t24.5 21t21.5 13.5l-82 47q23 58 62.5 97
t85.5 62.5t94 33.5t90 10q46 0 94 -11.5t84.5 -39t55.5 -73t8 -112.5z" />
    <glyph glyph-name="uni0E27" unicode="&#xe27;" horiz-adv-x="557" 
d="M516 410q-21 -121 -58 -202t-86.5 -130t-110.5 -69.5t-128 -20.5q-35 0 -63 6t-49.5 14.5t-37 19t-26.5 19.5l10 62q12 -12 28.5 -24.5t38.5 -23t48.5 -17.5t58.5 -7q55 0 105 17t92 59.5t74 114.5t51 182q19 109 12 181t-34 114.5t-70.5 59.5t-98.5 17q-32 0 -61 -7
t-54.5 -17.5t-46.5 -23t-36 -23.5l10 61q29 19 78.5 39t120.5 20q67 0 120 -20.5t85.5 -69.5t40.5 -130t-13 -201z" />
    <glyph glyph-name="uni0E28" unicode="&#xe28;" horiz-adv-x="717" 
d="M573 0h-53l105 588q10 57 -4.5 95t-43.5 60.5t-69 31.5t-82 9q-41 0 -84 -9t-80.5 -31.5t-65.5 -60.5t-38 -95l-19 -96h213l-8 -50h-213l-78 -442h-53l106 600q12 67 48.5 112t84 72t99.5 38.5t96 11.5q32 0 65.5 -5.5t65.5 -19.5l51 72h60l-68 -93q41 -26 62.5 -71.5
t9.5 -116.5z" />
    <glyph glyph-name="uni0E29" unicode="&#xe29;" horiz-adv-x="707" 
d="M694 455h-61l-41 -236q-12 -68 -46.5 -112.5t-80.5 -71.5t-96.5 -38t-94.5 -11q-42 0 -88.5 11t-83.5 38t-56 71.5t-7 112.5l106 600h54l-105 -588q-10 -57 3.5 -95t41.5 -60.5t66.5 -31.5t77.5 -9t80.5 9t77.5 31.5t63 60.5t37 95l39 224h-193l19 106h53l-10 -57h139
l57 315h53l-57 -315h61z" />
    <glyph glyph-name="uni0E2A" unicode="&#xe2a;" horiz-adv-x="702" 
d="M600 788q38 -26 58 -71t8 -113l-107 -604h-53l98 561q-47 10 -101.5 10.5t-110.5 -10t-109 -33t-96.5 -58t-74.5 -85t-42 -113.5q-12 -67 5 -112.5t50 -72t76 -35.5t82 -3l-9 -49q-56 -6 -108.5 6.5t-90 45.5t-55.5 87.5t-4 132.5q17 96 74.5 167.5t140 115t182.5 58.5
t201 -3q7 40 -5 72t-40.5 54t-71 34t-96.5 12q-88 0 -162.5 -30.5t-123.5 -79.5l12 67q44 37 116 64.5t179 27.5q35 0 69.5 -5t65.5 -17l51 72h60z" />
    <glyph glyph-name="uni0E2B" unicode="&#xe2b;" horiz-adv-x="696" 
d="M524 700q31 -12 56 -30t40.5 -45t20 -63.5t-3.5 -84.5l-84 -477h-53l82 467q8 46 4.5 80t-18 58t-37.5 39t-54 22l-15 -10.5l-40 -28l-56 -40l-64 -46.5l-175 -127l-74 -414h-53l145 819h54l-62 -344l481 344h76z" />
    <glyph glyph-name="uni0E2C" unicode="&#xe2c;" horiz-adv-x="889" 
d="M1036 1001q-20 -55 -65.5 -85.5t-122.5 -36.5q28 -17 45 -44q14 -23 19 -60t-15 -91l-268 -684h-54l-77 709l-328 -709h-53l-33 819h51l27 -735l327 704l-4 31h47l80 -735l236 604q16 42 12.5 75t-21 56.5t-47 36t-65.5 12.5h-61l24 43h23q38 0 81.5 1.5t82.5 10.5t69 29
t41 58l4 14h53z" />
    <glyph glyph-name="uni0E2D" unicode="&#xe2d;" horiz-adv-x="733" 
d="M692 410q-19 -111 -58.5 -191t-93 -131.5t-117.5 -76.5t-132 -25q-67 0 -121.5 25t-89.5 76.5t-46.5 131.5t7.5 191q5 27 11 53t16 49h192l-8 -49h-146q-5 -13 -7 -26t-5 -27q-17 -98 -8.5 -168.5t36.5 -116.5t73.5 -68t103.5 -22t112.5 22t99.5 68t78 116.5t50 168.5
q18 97 9.5 168t-37 116.5t-75 67.5t-104.5 22q-80 0 -150 -40t-122 -130h-58q30 57 68 98.5t81.5 68.5t91.5 40t97 13q69 0 124 -25t90.5 -76.5t46.5 -131.5t-9 -191z" />
    <glyph glyph-name="uni0E2E" unicode="&#xe2e;" horiz-adv-x="733" 
d="M692 410q-19 -111 -58.5 -191t-93 -131.5t-117.5 -76.5t-132 -25q-67 0 -121.5 25t-89.5 76.5t-46.5 131.5t7.5 191q5 27 11 53t16 49h192l-8 -49h-146q-5 -13 -7 -26t-5 -27q-17 -98 -8.5 -168.5t36.5 -116.5t73.5 -68t103.5 -22t112.5 22t99.5 68t78 116.5t50 168.5
q18 97 9.5 168t-37 116.5t-75 67.5t-104.5 22q-80 0 -150 -40t-122 -130h-58q30 57 68 98.5t81.5 68.5t91.5 40t97 13q37 0 70.5 -7.5t60.5 -21.5l50 65h59l-68 -92q59 -48 82 -138.5t-2 -229.5z" />
    <glyph glyph-name="uni0E2F" unicode="&#xe2f;" horiz-adv-x="641" 
d="M498 0h-52l125 713q-18 -32 -52 -62t-77 -53.5t-92 -38t-98 -14.5q-35 0 -67 7.5t-55.5 25t-35 45t-4.5 67.5q5 28 21.5 51t39 40.5t48 28.5t49.5 15l31 -37q-19 -2 -41 -9t-42.5 -20t-35.5 -31t-19 -40q-5 -25 3 -43t24 -30t39.5 -17.5t50.5 -5.5q53 0 105 17.5t96.5 48
t79.5 72t53 89.5h51z" />
    <glyph glyph-name="uni0E30" unicode="&#xe30;" horiz-adv-x="242" 
d="M221 639h-129l17 88h55l-8 -39h104zM127 102h-129l14 88h56l-7 -38h105z" />
    <glyph glyph-name="uni0E31" unicode="&#xe31;" 
d="M209 922h-453l21 108h55l-10 -59h428z" />
    <glyph glyph-name="uni0E32" unicode="&#xe32;" horiz-adv-x="477" 
d="M334 0h-53l104 590q7 40 4.5 75t-18.5 61t-48 41t-85 15q-29 0 -54 -5t-45.5 -12t-36 -14.5t-24.5 -13.5l10 58q19 9 60.5 22.5t97.5 13.5q70 0 112.5 -19.5t63 -52.5t23 -76t-6.5 -89z" />
    <glyph glyph-name="uni0E33" unicode="&#xe33;" horiz-adv-x="477" 
d="M92 1008q-6 -38 -35.5 -62t-66.5 -24t-56.5 24t-13.5 62q6 37 34.5 61.5t65.5 24.5q38 0 58 -24.5t14 -61.5zM334 0h-53l104 590q7 40 4.5 75t-18.5 61t-48 41t-85 15q-29 0 -54 -5t-45.5 -12t-36 -14.5t-24.5 -13.5l10 58q19 9 60.5 22.5t97.5 13.5q70 0 112.5 -19.5
t63 -52.5t23 -76t-6.5 -89zM55 1008q3 20 -9 34.5t-32 14.5t-37 -14.5t-20 -34.5q-5 -20 8 -35t33 -15t36 15t21 35z" />
    <glyph glyph-name="uni0E34" unicode="&#xe34;" 
d="M18 922h-553l41 49h523z" />
    <glyph glyph-name="uni0E35" unicode="&#xe35;" 
d="M18 922h-553l41 49h469l19 104h53z" />
    <glyph glyph-name="uni0E36" unicode="&#xe36;" 
d="M90 1004q-2 -17 -11.5 -32t-23 -26t-30 -17.5t-33.5 -6.5h-527l41 49h416q-1 4 -2 9q-2 9 0 24q3 17 12.5 31.5t23 25.5t30 17.5t34.5 6.5q36 0 56 -23.5t14 -57.5zM49 1004q5 18 -6 30.5t-31 12.5q-18 0 -32 -12.5t-19 -30.5q-3 -20 7.5 -33t29.5 -13q20 0 34 13t17 33z
" />
    <glyph glyph-name="uni0E37" unicode="&#xe37;" 
d="M18 922h-553l41 49h355l18 104h53l-18 -104h61l19 104h53z" />
    <glyph glyph-name="uni0E38" unicode="&#xe38;" 
d="M-197 -297h-53l31 166h-82l39 49h104z" />
    <glyph glyph-name="uni0E39" unicode="&#xe39;" 
d="M-176 -182q-5 -29 -20 -50.5t-36 -35.5t-46 -21.5t-50 -7.5q-26 0 -48.5 7.5t-38 21.5t-22.5 35.5t-1 50.5l10 51h-61l38 49h84l-16 -94q-4 -21 0 -35t13.5 -22.5t22.5 -12.5t28 -4q14 0 28.5 4t27.5 12.5t22.5 22.5t13.5 35l16 94h53z" />
    <glyph glyph-name="uni0E3A" unicode="&#xe3a;" 
d="M-141 -135q-3 -22 -21.5 -37.5t-40.5 -15.5q-21 0 -34.5 15.5t-10.5 37.5q5 22 23.5 37.5t40.5 15.5q21 0 34.5 -15.5t8.5 -37.5z" />
    <glyph glyph-name="uni0E3F" unicode="&#xe3f;" horiz-adv-x="768" 
d="M725 762q-15 -85 -54 -141.5t-108 -79.5q34 -7 66 -27.5t54.5 -53.5t33 -79.5t0.5 -104.5q-23 -133 -120 -202t-265 -74l-29 -162h-51l29 162h-250l170 969h250l28 161h51l-28 -161q57 -2 101.5 -17.5t74 -42.5t42 -64.5t5.5 -82.5zM651 760q13 71 -28 110.5t-129 44.5
l-64 -360q47 3 83.5 15t64 36.5t45.5 62t28 91.5zM258 915l-63 -362h184l63 362h-184zM649 274q9 52 3 93t-32 70t-74.5 45.5t-125.5 19.5l-78 -449q73 5 126.5 19t90.5 40.5t58.5 66t31.5 95.5zM184 502l-80 -451h156h29l80 451h-185z" />
    <glyph glyph-name="uni0E40" unicode="&#xe40;" horiz-adv-x="279" 
d="M94 0h-53l145 819h54z" />
    <glyph glyph-name="uni0E41" unicode="&#xe41;" horiz-adv-x="475" 
d="M291 0h-53l145 819h53zM94 0h-53l145 819h54z" />
    <glyph glyph-name="uni0E42" unicode="&#xe42;" horiz-adv-x="307" 
d="M539 1180h-222q-40 0 -62 -12.5t-30 -30.5q14 -6 28 -17t24 -29t14 -43.5t-2 -60.5l-174 -987h-54l177 997q5 29 -0.5 50t-17 36t-26.5 24.5t-28 16.5q3 19 14.5 38t32 34t49 24t64.5 9h221z" />
    <glyph glyph-name="uni0E43" unicode="&#xe43;" horiz-adv-x="307" 
d="M406 1106q-15 -8 -34 -20t-36.5 -29.5t-31.5 -40.5t-19 -53l-170 -963h-54l170 965q6 33 20.5 58.5t32 44t35.5 30t33 16.5q6 38 -22.5 62t-85.5 24q-29 0 -54 -8.5t-43.5 -23t-29.5 -34t-13 -40.5h-49q1 30 17 58t43 49.5t62.5 34.5t76.5 13q81 0 122.5 -39t29.5 -104z
" />
    <glyph glyph-name="uni0E44" unicode="&#xe44;" horiz-adv-x="307" 
d="M371 1124q-23 -17 -47 -45t-33 -78l-176 -1001h-54l179 1006q8 43 28 70.5t49 47.5q3 12 -2.5 19.5t-15 11.5t-22.5 4t-25 -2l-78 -57q-17 14 -41 27q-20 11 -49 22.5t-66 17.5l52 37q28 -5 49.5 -12.5t35.5 -15.5q17 -9 29 -19l62 43q23 4 47 2t43 -11t29 -25.5t6 -41.5
z" />
    <glyph glyph-name="uni0E45" unicode="&#xe45;" horiz-adv-x="477" 
d="M291 -246h-53l147 836q7 40 4.5 75t-18.5 61t-48 41t-85 15q-29 0 -54 -5t-45.5 -12t-36 -14.5t-24.5 -13.5l10 58q19 9 60.5 22.5t97.5 13.5q70 0 112.5 -19.5t63 -52.5t23 -76t-6.5 -89z" />
    <glyph glyph-name="uni0E46" unicode="&#xe46;" horiz-adv-x="645" 
d="M459 -246h-53l176 1002l-150 -138l-113 148q-31 -1 -61.5 -11t-56 -28t-43 -43t-23.5 -55q-7 -39 5 -62t33.5 -34t48 -13t48.5 0l-41 -49q-42 -1 -73 10.5t-50 32.5t-25.5 50.5t-0.5 64.5q7 40 30.5 74.5t59.5 60t81.5 40.5t96.5 15l98 -127l144 127h57z" />
    <glyph glyph-name="uni0E47" unicode="&#xe47;" 
d="M51 1092h-327q-65 0 -103.5 -20t-44.5 -52q-2 -14 2 -23t10 -15q7 -7 17 -11l190 71l182 -71l-10 -49l-180 73l-203 -80q-13 4 -26 13t-22.5 22.5t-14 31t-0.5 38.5q4 24 19 45.5t40.5 38.5t60 27t78.5 10h371z" />
    <glyph glyph-name="uni0E48" unicode="&#xe48;" 
d="M57 1137h-53l21 123h53z" />
    <glyph glyph-name="uni0E49" unicode="&#xe49;" 
d="M145 1137h-256l9 45q3 18 -3 28.5t-26 10.5h-51l39 45h26q37 0 55 -15t13 -43l-4 -24h237z" />
    <glyph glyph-name="uni0E4A" unicode="&#xe4a;" 
d="M272 1137h-125l9 51q5 32 -8 50.5t-44 18.5h-8l-80 -51l-65 51h-6q-64 0 -76 -69v-6h74l-9 -45h-120l10 59q9 51 47.5 77.5t87.5 26.5h6l60 -43l73 43h8q25 0 45 -6.5t34 -20t20 -33t2 -44.5l-2 -14h104z" />
    <glyph glyph-name="uni0E4B" unicode="&#xe4b;" 
d="M150 1214h-78l-15 -77h-53l14 77h-77l6 39h78l14 78h53l-14 -78h78z" />
    <glyph glyph-name="uni0E4C" unicode="&#xe4c;" 
d="M86 1145h-49q-32 0 -52 -14.5t-26 -40.5l-4 -17h-55l4 23q9 52 41.5 75t74.5 23h105z" />
    <glyph glyph-name="uni0E4D" unicode="&#xe4d;" 
d="M92 1008q-6 -38 -35.5 -62t-66.5 -24t-56.5 24t-13.5 62q6 37 34.5 61.5t65.5 24.5q38 0 58 -24.5t14 -61.5zM55 1008q3 20 -9 34.5t-32 14.5t-37 -14.5t-20 -34.5q-5 -20 8 -35t33 -15t36 15t21 35z" />
    <glyph glyph-name="uni0E4E" unicode="&#xe4e;" 
d="M223 1358q-45 4 -98.5 -1t-100.5 -19t-80.5 -37.5t-39.5 -55.5q-4 -21 6 -35t26.5 -21.5t37 -10.5t38.5 -2l-8 -46q-38 1 -85 -6t-88.5 -22.5t-69.5 -39t-29 -54.5q-1 -11 5 -19t15.5 -13.5t22 -8t24.5 -2.5q32 0 64 9t49 17l16 -39q-11 -5 -28 -11.5t-38.5 -11.5
t-46.5 -7.5t-51 0.5q-46 6 -69.5 31t-18.5 57q3 18 12 34.5t22 30.5t29 25.5t32 19.5q29 14 62.5 23.5t57.5 11.5l3 6q-57 23 -48 86q3 17 15 35t30 34.5t41.5 31t49.5 24.5q31 12 68.5 19t72.5 10.5t64 4t44 -0.5l-8 -47v0z" />
    <glyph glyph-name="uni0E4F" unicode="&#xe4f;" horiz-adv-x="942" 
d="M891 410q-15 -87 -61.5 -163.5t-113.5 -133.5t-149.5 -90t-169.5 -33t-157.5 33t-117.5 90t-66.5 133.5t-4.5 163.5t61.5 163t113.5 133t149.5 90t169.5 33t157.5 -33t117.5 -90t66.5 -133t4.5 -163zM829 410q13 73 -3.5 138.5t-56.5 114t-100.5 77t-133.5 28.5
q-74 0 -144.5 -28.5t-128 -77t-97 -114t-52.5 -138.5q-13 -74 3.5 -139.5t57 -114t100.5 -77t134 -28.5q73 0 143.5 28.5t128 77t97 114t52.5 139.5zM727 410q-9 -53 -37.5 -100t-69.5 -81.5t-91 -54.5t-103 -20t-96 20t-71.5 54.5t-40.5 81.5t-3 100t37.5 99.5t69.5 81.5
t91 55t103 20t96 -20t71.5 -55t40.5 -81.5t3 -99.5z" />
    <glyph glyph-name="uni0E50" unicode="&#xe50;" horiz-adv-x="678" 
d="M621 307q-12 -66 -45.5 -124t-82 -101.5t-108 -68.5t-121.5 -25t-112 25t-83 68.5t-46.5 101.5t-2.5 124q12 66 46.5 124t83 101.5t107 69t120.5 25.5t112.5 -25.5t83.5 -69t46.5 -101.5t1.5 -124zM571 307q10 56 -0.5 105.5t-38.5 86t-70 58t-95 21.5t-102.5 -21.5
t-90.5 -58t-69.5 -86t-38.5 -105.5q-9 -56 2 -105t38.5 -86t69.5 -58t94 -21q53 0 103.5 21t91.5 58t69 86t37 105z" />
    <glyph glyph-name="uni0E51" unicode="&#xe51;" horiz-adv-x="723" 
d="M668 313q-15 -81 -60 -149.5t-106.5 -120t-131.5 -84.5t-134 -43l-17 47q61 9 127 38t122 75t97 106t53 131q11 59 -2.5 108t-45 84t-79 54t-104.5 19q-53 0 -105 -18.5t-94.5 -51.5t-72.5 -78.5t-39 -99.5q-7 -38 -1 -72.5t23.5 -61t45.5 -42t65 -15.5q9 0 26.5 1.5
t43.5 9.5q-48 12 -66 47t-10 77q4 28 19 52.5t35.5 42t45.5 27.5t49 10q26 0 47.5 -10t35.5 -28t20 -42t2 -52q-8 -41 -32.5 -75.5t-59.5 -60t-78 -40t-88 -14.5q-48 0 -84.5 19.5t-59.5 53t-31 78t1 95.5q12 68 48.5 123t87.5 93.5t111.5 59.5t120.5 21q67 0 123.5 -21.5
t94.5 -62t54 -99t3 -131.5zM408 274q6 34 -13 58t-51 24q-16 0 -31.5 -6.5t-28 -17.5t-21 -26t-11.5 -32q-6 -34 12.5 -57.5t50.5 -23.5q16 0 31.5 6.5t28 17.5t21.5 25.5t12 31.5z" />
    <glyph glyph-name="uni0E52" unicode="&#xe52;" horiz-adv-x="1026" 
d="M885 0h-811q7 70 12 134.5t6 126t-2.5 121.5t-11.5 122q-14 105 -50 190t-81 144l47 39q23 -31 45 -71t40.5 -86.5t32 -97.5t19.5 -102q14 -112 11.5 -226t-13.5 -245h715l69 387q6 31 -0.5 56t-21 42t-35 26t-43.5 9q-35 0 -72 -19.5t-71 -64.5l-60 -329h-51l59 331
q-20 44 -53 63t-71 19q-30 0 -59.5 -11.5t-54.5 -32t-42 -48t-23 -59.5l-6 -37q14 11 35.5 16.5t40.5 5.5q25 0 46 -10t34.5 -27.5t18.5 -41.5t-1 -52q-5 -27 -18 -50t-32.5 -40t-43.5 -27t-49 -10q-26 0 -46.5 10t-34.5 27t-20 40t-1 50l26 146q9 45 32.5 82.5t56 64.5
t72 42.5t79.5 15.5q52 0 90.5 -22.5t62.5 -59.5q31 35 74 58.5t92 23.5q34 0 62.5 -12t48 -35t28 -55.5t1.5 -74.5zM438 272q6 34 -11.5 59t-49.5 25q-16 0 -31.5 -7t-28.5 -18.5t-22 -26.5t-12 -32q-5 -34 13 -58t50 -24q16 0 31.5 6.5t28.5 17.5t21.5 26t10.5 32z" />
    <glyph glyph-name="uni0E53" unicode="&#xe53;" horiz-adv-x="870" 
d="M729 0h-49l78 438q5 31 -2.5 56t-23.5 42t-38.5 26t-46.5 9q-37 0 -78 -19.5t-73 -64.5l-86 -487h-52l86 489q-20 45 -56.5 63.5t-78.5 18.5q-29 0 -60 -11.5t-58 -32t-46 -48t-24 -59.5l-33 -193q14 11 35.5 17t40.5 6q25 0 45 -10.5t33.5 -28.5t18.5 -41.5t1 -50.5
q-5 -28 -18.5 -51.5t-33.5 -41t-44 -27t-49 -9.5q-26 0 -46.5 9.5t-34 27t-19.5 41t-1 51.5l54 301q7 45 32 82.5t60 64.5t76 42.5t81 15.5q62 0 100 -22.5t62 -59.5q15 18 35.5 33t44 26t48 17t48.5 6q34 0 65 -12t52.5 -34.5t31.5 -55.5t3 -74zM217 119q6 34 -12.5 58
t-50.5 24q-16 0 -31.5 -6.5t-28 -17.5t-21.5 -26t-12 -32t0.5 -32t12.5 -26.5t22 -18.5t29 -7t31.5 7t28 18.5t21 26.5t11.5 32z" />
    <glyph glyph-name="uni0E54" unicode="&#xe54;" horiz-adv-x="782" 
d="M862 860q-8 -51 -33.5 -105.5t-62.5 -99.5t-82.5 -73.5t-93.5 -28.5q-31 0 -54.5 2.5t-47.5 5.5t-52 5.5t-67 2.5q-53 0 -102.5 -19.5t-89.5 -55t-68 -85t-37 -110.5q-10 -63 2.5 -111.5t40 -81.5t68 -50t85.5 -17q35 0 63.5 5t52.5 11l44.5 11t40.5 4l2 2q-20 6 -44 22
t-44 40.5t-31 57.5t-4 74q5 29 19.5 54t35 43.5t45 29t50.5 10.5q25 0 45 -10t33.5 -27.5t18.5 -41.5t1 -52q-5 -25 -18 -48t-31.5 -40.5t-42 -28.5t-47.5 -12q7 -11 24 -21.5t38 -19.5t41.5 -15.5t33.5 -8.5l28.5 -6.5t30.5 -8.5t29 -11.5t23 -16.5l-39 -43
q-19 12 -40.5 19.5t-42 11.5t-38 5t-29.5 1q-29 0 -56.5 -6t-57.5 -13.5t-66 -13.5t-82 -6q-54 0 -102 19.5t-81.5 58t-48 96.5t-2.5 135q11 71 45 130.5t83 102.5t109 67t122 24q41 0 68.5 -2.5t50 -6t45.5 -6t55 -2.5q36 0 71 26t64.5 64.5t50 82.5t27.5 81h51zM551 272
q6 34 -12 59t-50 25q-16 0 -31.5 -7t-28.5 -18.5t-22 -26.5t-12 -32q-5 -34 13.5 -58t50.5 -24q16 0 31.5 6.5t28.5 17.5t21.5 26t10.5 32z" />
    <glyph glyph-name="uni0E55" unicode="&#xe55;" horiz-adv-x="782" 
d="M862 860q-8 -51 -33.5 -105.5t-62.5 -99.5t-82.5 -73.5t-93.5 -28.5q-31 0 -54.5 2.5t-47.5 5.5t-52 5.5t-67 2.5q-53 0 -102.5 -19.5t-89.5 -55t-68 -85t-37 -110.5q-10 -63 2.5 -111.5t40 -81.5t68 -50t85.5 -17q35 0 63.5 5t52.5 11l44.5 11t40.5 4l2 2q-20 6 -44 22
t-44 40.5t-31 57.5t-4 74q5 29 19.5 54t35 43.5t45 29t50.5 10.5q25 0 45 -10t33.5 -27.5t18.5 -41.5t1 -52q-5 -25 -18 -48t-31.5 -40.5t-42 -28.5t-47.5 -12q7 -11 24 -21.5t38 -19.5t41.5 -15.5t33.5 -8.5l28.5 -6.5t30.5 -8.5t29 -11.5t23 -16.5l-39 -43
q-19 12 -40.5 19.5t-42 11.5t-38 5t-29.5 1q-29 0 -56.5 -6t-57.5 -13.5t-66 -13.5t-82 -6q-54 0 -102 19.5t-81.5 58t-48 96.5t-2.5 135q10 64 38.5 119.5t70 97t93.5 68t108 34.5q-13 11 -19.5 34t-1.5 46q6 28 21.5 51t37.5 39t47.5 24.5t51.5 8.5t48.5 -8.5t38.5 -24.5
t22.5 -39t1.5 -51q-7 -34 -23 -55t-33 -31q16 -3 33.5 -4.5t42.5 -1.5q36 0 71 26t64.5 64.5t50 82.5t27.5 81h51zM524 694q4 32 -14.5 55t-52.5 23t-60.5 -23t-31.5 -55q-7 -32 12 -54t53 -22t61 22t33 54zM551 272q6 34 -12 59t-50 25q-16 0 -31.5 -7t-28.5 -18.5
t-22 -26.5t-12 -32q-5 -34 13.5 -58t50.5 -24q16 0 31.5 6.5t28.5 17.5t21.5 26t10.5 32z" />
    <glyph glyph-name="uni0E56" unicode="&#xe56;" horiz-adv-x="731" 
d="M676 311q-13 -71 -49.5 -131t-89 -103t-117 -67t-133.5 -24q-66 0 -117 20.5t-84 54t-47 76.5t-6 88q5 29 19.5 53.5t35 42t45 27.5t49.5 10t46 -10t34.5 -27.5t19 -41.5t1.5 -52q-5 -25 -18.5 -48t-33 -40t-45 -27.5t-53.5 -11.5q29 -32 71.5 -48.5t90.5 -16.5
q58 0 112.5 20.5t99.5 57t76 87.5t42 111q10 57 -3 105.5t-43 83.5t-74.5 55t-98.5 20q-45 0 -86 -10t-79 -27t-72 -39t-65 -46q5 109 -21.5 203t-88.5 157l49 31q31 -32 52.5 -70.5t34.5 -79t18 -81t4 -74.5q52 38 120.5 62t141.5 24q66 0 120 -23t89.5 -64t50 -99
t2.5 -128zM238 227q6 35 -13 59.5t-51 24.5t-59 -24.5t-33 -59.5q-6 -34 12.5 -58t50.5 -24q16 0 31.5 6.5t28 17.5t21.5 26t12 32z" />
    <glyph glyph-name="uni0E57" unicode="&#xe57;" horiz-adv-x="1090" 
d="M1141 860q-8 -103 -29 -204.5t-52.5 -194t-73.5 -173t-90.5 -142.5t-103.5 -102t-114 -52l80 444q5 31 -2.5 56t-23.5 42t-38.5 26t-46.5 9q-37 0 -78 -19.5t-73 -64.5l-86 -485h-52l86 487q-20 45 -56.5 63.5t-78.5 18.5q-29 0 -60 -11.5t-58 -32t-46 -48t-24 -59.5
l-33 -191q14 10 34.5 15.5t39.5 5.5q25 0 45.5 -10t34 -27.5t19 -41t1.5 -50.5q-5 -28 -18.5 -51.5t-33.5 -41t-44 -27t-49 -9.5q-26 0 -46.5 9.5t-34 27t-19.5 41t-1 51.5l54 299q7 45 32 83t60 65t76 42t81 15q62 0 100 -22.5t62 -57.5q31 34 79.5 57t96.5 23
q34 0 64.5 -12t51.5 -35t31 -55.5t3 -74.5l-68 -387q62 38 122 114t108 181t80.5 234t40.5 272h51zM217 119q6 34 -12.5 58t-50.5 24q-16 0 -31.5 -6.5t-28 -17.5t-21.5 -26t-12 -32q-6 -35 13 -59.5t51 -24.5t59 24.5t33 59.5z" />
    <glyph glyph-name="uni0E58" unicode="&#xe58;" horiz-adv-x="807" 
d="M852 838q-26 -96 -72 -174t-94 -134q-45 16 -101.5 27.5t-133.5 11.5q-69 0 -133 -20t-115.5 -56t-86 -85t-44.5 -107q-9 -48 -1 -90t26.5 -74t44 -53.5t51.5 -30.5l165 170l138 -168l26 15.5t31 19.5l27.5 19t17.5 14q-43 6 -63.5 39.5t-12.5 77.5q4 24 16 45t30 36.5
t39.5 25t43.5 9.5t40 -10t29.5 -26.5t16 -38t0.5 -45.5q-7 -38 -31.5 -73t-61.5 -66.5t-82 -59t-93 -49.5l-123 155l-147 -155q-48 15 -85.5 43t-62 68t-33.5 91t2 111q12 69 52 128t99 102t134 67.5t158 24.5q26 0 54.5 -1.5t56 -5t53.5 -9t47 -13.5q17 20 35.5 46.5
t35.5 58.5t32 68t24 75zM694 240q5 27 -11 47t-42 20t-47.5 -20t-26.5 -47q-6 -28 9.5 -48t41.5 -20t48 20t28 48z" />
    <glyph glyph-name="uni0E59" unicode="&#xe59;" horiz-adv-x="868" 
d="M973 848q-4 -60 -19 -115t-37.5 -102.5t-50.5 -86.5t-57 -67q-2 28 -9.5 46.5t-18 29.5t-23 15.5t-25.5 4.5q-22 0 -42 -11.5t-36.5 -29.5t-28 -40t-16.5 -43q21 -47 34 -101.5t19 -112.5t6.5 -117t-3.5 -114l-52 -8q4 62 3 129.5t-9.5 131.5t-26 121.5t-47 100.5
t-73 68.5t-103.5 25.5q-51 0 -98 -20t-85.5 -56t-65.5 -84.5t-37 -105.5q-10 -60 -1 -109.5t31.5 -85.5t55.5 -55.5t71 -19.5q-51 36 -39 113q5 27 19 50.5t33.5 41t43.5 27.5t50 10q25 0 45.5 -10t34.5 -27.5t19.5 -41t0.5 -50.5q-7 -38 -28 -68t-50.5 -51t-63.5 -32
t-67 -11q-67 0 -111 27.5t-68.5 73t-30 104t5.5 120.5q11 67 44 124.5t79.5 99.5t104 66t118.5 24q71 0 123 -31.5t90 -85.5q11 24 28.5 45.5t39 37.5t45.5 25t48 9q28 0 51.5 -13.5t39.5 -42.5q16 24 30.5 55t26 66.5t20 75t11.5 80.5h51zM391 150q6 34 -12.5 57.5
t-50.5 23.5q-16 0 -31.5 -6.5t-28 -17.5t-21 -25.5t-11.5 -31.5q-7 -35 12 -59.5t51 -24.5q16 0 31.5 6.5t28 18t21 27t11.5 32.5z" />
    <glyph glyph-name="uni0E5A" unicode="&#xe5a;" horiz-adv-x="774" 
d="M580 0l145 819h51l-145 -819h-51zM446 0l125 713q-18 -32 -52 -62t-77 -53.5t-92 -38t-98 -14.5q-35 0 -67 7.5t-55.5 25t-35 45t-4.5 67.5q5 28 21.5 51t39 40.5t48 28.5t49.5 15l31 -37q-19 -2 -41 -9t-42.5 -20t-35.5 -31t-19 -40q-5 -25 3 -43t24 -30t39.5 -17.5
t50.5 -5.5q53 0 105 17.5t96.5 48t79.5 72t53 89.5h51l-145 -819h-52z" />
    <glyph glyph-name="uni0E5B" unicode="&#xe5b;" horiz-adv-x="1393" 
d="M1364 434q0 -6 -11 -7t-22 -3l-123 -10q-5 -9 -10 -20t-10.5 -20.5t-12 -15.5t-14.5 -6q-9 0 -15 13.5t-10.5 32.5l-9 39.5t-10.5 33.5q-6 -13 -14.5 -37t-19 -47.5t-22.5 -41t-24 -17.5q-11 0 -18 17.5t-13 42l-12.5 51t-15.5 44.5q-9 -21 -19 -51t-20.5 -58.5
t-22 -48.5t-24.5 -20q-14 0 -20.5 22.5t-11 54.5l-9.5 66.5t-16 57.5q-9 -32 -22.5 -71.5t-28.5 -74t-31.5 -58t-32.5 -23.5q-11 0 -12.5 8.5t-1.5 23.5q-1 19 -2 46t-3.5 57t-7 59t-12.5 53l-4 -18q-10 -45 -30 -90.5t-45 -87.5t-53 -78.5t-54 -61.5q-57 -52 -117 -81
t-119 -29q-56 0 -98 24t-68 68t-34 105.5t5 136.5q12 70 40 132t67 107.5t86 72t98 26.5q41 0 73 -18.5t52 -51t27 -76t-2 -94.5q-7 -38 -20.5 -70.5t-32.5 -56t-42.5 -36.5t-50.5 -13q-21 0 -37.5 9t-27 24.5t-14 36.5t1.5 45q4 23 15 44t27 37t35 25.5t39 9.5
q17 0 29.5 -3.5t22.5 -12.5q2 35 -4.5 63.5t-20.5 48.5t-33.5 31t-42.5 11q-36 0 -72.5 -21t-69 -60t-57 -94.5t-36.5 -123.5q-12 -67 -4.5 -119.5t30.5 -88.5t59 -54.5t81 -18.5q52 0 104.5 27t100 78t87.5 123.5t68 164.5q11 35 17.5 50.5t25.5 15.5q15 0 25 -21.5
t17 -55.5t10 -76.5t3 -84.5l8 -2q16 35 26.5 73.5l19.5 71t19.5 53.5t25.5 21q11 0 22 -17.5t19 -46t13.5 -65t6.5 -74.5h8q8 20 15.5 48.5t15.5 54t16.5 43.5t18.5 18q13 0 22.5 -12t17.5 -34t15.5 -53t15.5 -69q12 21 20 45t16.5 45t17.5 34.5t22 13.5q11 0 18.5 -10.5
t13 -27t10 -35.5t9.5 -36l26 54.5t32 17.5l108 -15q10 -2 20.5 -2t8.5 -6zM434 453q5 29 -8.5 49t-36.5 20q-10 0 -21 -5.5t-20.5 -14.5t-16.5 -21.5t-9 -27.5q-5 -29 9 -49.5t34 -20.5q23 0 43.5 20.5t25.5 49.5z" />
    <glyph glyph-name="endash" unicode="&#x2013;" horiz-adv-x="676" 
d="M618 315h-593l10 52h594z" />
    <glyph glyph-name="emdash" unicode="&#x2014;" horiz-adv-x="1352" 
d="M1294 315h-1269l10 52h1270z" />
    <glyph glyph-name="quoteleft" unicode="&#x2018;" horiz-adv-x="322" 
d="M334 1008q-21 -12 -40.5 -28.5t-35 -34.5t-26.5 -35.5t-15 -30.5q9 4 15 5.5t10 2t7.5 0.5h8.5q25 0 42 -19t13 -47q-6 -29 -30.5 -50t-53.5 -21q-42 0 -59.5 27t-9.5 69q4 21 14.5 45.5t28 49.5t43 48t59.5 41l29 -22v0z" />
    <glyph glyph-name="quoteright" unicode="&#x2019;" horiz-adv-x="322" 
d="M332 934q-4 -21 -14.5 -45.5t-28.5 -49.5t-43 -48t-58 -41l-30 22q21 12 40.5 28.5t35.5 34.5t27 35.5t15 30.5q-18 -8 -25 -8h-18q-12 0 -22.5 5t-18 14t-11 20.5t-1.5 25.5q6 29 30.5 50.5t53.5 21.5q42 0 59 -27t9 -69z" />
    <glyph glyph-name="quotedblleft" unicode="&#x201c;" horiz-adv-x="549" 
d="M561 1008q-21 -12 -40 -28.5t-35 -34.5t-27 -35.5t-15 -30.5q9 4 15 5.5t10 2t7.5 0.5h8.5q25 0 42.5 -19t13.5 -47q-7 -29 -31 -50t-53 -21q-42 0 -60 27t-10 69q4 21 14.5 45.5t28 49.5t43 48t59.5 41zM334 1008q-21 -12 -40.5 -28.5t-35 -34.5t-26.5 -35.5t-15 -30.5
q9 4 15 5.5t10 2t7.5 0.5h8.5q25 0 42 -19t13 -47q-6 -29 -30.5 -50t-53.5 -21q-42 0 -59.5 27t-9.5 69q4 21 14.5 45.5t28 49.5t43 48t59.5 41z" />
    <glyph glyph-name="quotedblright" unicode="&#x201d;" horiz-adv-x="549" 
d="M559 934q-4 -21 -14.5 -45.5t-28 -49.5t-42.5 -48t-58 -41l-31 22q21 12 40.5 28.5t36 34.5t27.5 35.5t15 30.5q-19 -8 -25.5 -8h-17.5q-25 0 -41.5 19t-11.5 46q6 29 30.5 50.5t53.5 21.5q42 0 58.5 -27t8.5 -69zM332 934q-4 -21 -14.5 -45.5t-28.5 -49.5t-43 -48
t-58 -41l-30 22q21 12 40.5 28.5t35.5 34.5t27 35.5t15 30.5q-18 -8 -25 -8h-18q-12 0 -22.5 5t-18 14t-11 20.5t-1.5 25.5q6 29 30.5 50.5t53.5 21.5q42 0 59 -27t9 -69z" />
    <glyph glyph-name="bullet" unicode="&#x2022;" horiz-adv-x="737" 
d="M676 410q-11 -64 -45 -120t-83 -98t-109 -66t-124 -24t-115.5 24t-86 66t-49 98t-3.5 120q12 64 46 120t83.5 97.5t109.5 65.5t124 24t115.5 -24t86 -65.5t48.5 -97.5t2 -120z" />
    <glyph glyph-name="ellipsis" unicode="&#x2026;" horiz-adv-x="866" 
d="M721 51q-5 -26 -26.5 -43.5t-47.5 -17.5t-41 17.5t-10 43.5t26.5 45t47.5 19t41 -19t10 -45zM432 51q-5 -26 -26.5 -43.5t-47.5 -17.5t-41 17.5t-10 43.5t26.5 45t47.5 19t41 -19t10 -45zM143 51q-5 -26 -26 -43.5t-47 -17.5t-41.5 17.5t-10.5 43.5t26.5 45t47.5 19
t41 -19t10 -45z" />
    <glyph glyph-name="thothannobasethai" unicode="&#xf700;" horiz-adv-x="594" 
d="M483 739q53 -52 72 -133t0 -186q-18 -106 -61 -191.5t-112 -142.5t-164 -81.5t-218 -8.5l92 528l-12 49h74l-95 -538q97 -4 172.5 22t130.5 76.5t89.5 123.5t50.5 163q18 107 -5.5 182.5t-79.5 119.5t-141 56t-190 -8l8 47q115 22 203 9t149 -56l60 70h65z" />
    <glyph glyph-name="saraileftthai" unicode="&#xf701;" 
d="M-137 922h-512l41 49h481z" />
    <glyph glyph-name="saraiileftthai" unicode="&#xf702;" 
d="M-137 922h-512l41 49h428l18 104h53z" />
    <glyph glyph-name="saraueleftthai" unicode="&#xf703;" 
d="M-63 1004q-3 -17 -12.5 -32t-23 -26t-30 -17.5t-33.5 -6.5h-487l41 49h377q-1 4 -2 9t-1.5 10.5t1.5 13.5q3 17 12.5 31.5t23 25.5t30 17.5t34.5 6.5q35 0 55.5 -23.5t14.5 -57.5zM-104 1004q5 18 -6 30.5t-31 12.5q-19 0 -33 -12.5t-19 -30.5q-3 -20 8 -33t29 -13
q20 0 34 13t18 33z" />
    <glyph glyph-name="saraueeleftthai" unicode="&#xf704;" 
d="M-137 922h-512l41 49h313l19 104h53l-19 -104h62l18 104h53z" />
    <glyph glyph-name="maieklowleftthai" unicode="&#xf705;" 
d="M-182 922h-54l29 153h53z" />
    <glyph glyph-name="maitholowleftthai" unicode="&#xf706;" 
d="M90 922h-354l8 47q3 20 -2.5 31.5t-28.5 11.5h-53l41 51h23q93 0 77 -72l-2 -20h332z" />
    <glyph glyph-name="maitrilowleftthai" unicode="&#xf707;" 
d="M-74 922h-139l10 57q6 35 -8 55.5t-49 20.5h-8l-90 -56l-72 56h-6q-70 0 -86 -76v-8h82l-11 -49h-135l13 65q11 57 53 87t98 30h6l68 -49l82 49h8q28 0 50 -7.5t37 -22.5t21.5 -37t2.5 -50l-3 -16h117z" />
    <glyph glyph-name="maichattawalowleftthai" unicode="&#xf708;" 
d="M-117 1020h-98l-18 -98h-54l19 98h-99l9 45h98l16 98h54l-17 -98h98z" />
    <glyph glyph-name="thanthakhatlowleftthai" unicode="&#xf709;" 
d="M-102 997h-60q-67 0 -78 -55l-4 -20h-57l6 26q12 53 42.5 76t72.5 23h117z" />
    <glyph glyph-name="maieklowrightthai" unicode="&#xf70a;" 
d="M18 922h-53l29 153h53z" />
    <glyph glyph-name="maitholowrightthai" unicode="&#xf70b;" 
d="M86 922h-266l8 47q3 20 -2.5 31.5t-28.5 11.5h-53l41 51h22q94 0 78 -72l-2 -20h244z" />
    <glyph glyph-name="maitrilowrightthai" unicode="&#xf70c;" 
d="M39 922h-139l10 57q6 35 -8 55.5t-49 20.5h-9l-90 -56l-71 56h-7q-69 0 -86 -76v-8h82l-10 -49h-135l12 65q6 28 20 50t34 37t45 22.5t53 7.5h6l67 -49l82 49h9q55 0 86 -30t24 -87l-2 -16h117z" />
    <glyph glyph-name="maichattawalowrightthai" unicode="&#xf70d;" 
d="M37 1020h-98l-19 -98h-53l18 98h-98l8 45h99l16 98h53l-16 -98h98z" />
    <glyph glyph-name="thanthakhatlowrightthai" unicode="&#xf70e;" 
d="M84 997h-59q-32 0 -52.5 -14.5t-25.5 -40.5l-4 -20h-58l6 26q13 53 43 76t72 23h117z" />
    <glyph glyph-name="yoyingnobasethai" unicode="&#xf70f;" horiz-adv-x="1135" 
d="M1026 199q-12 -68 -44.5 -109.5t-73.5 -64.5t-85 -31t-80 -8q-23 0 -49.5 3t-52.5 12t-49 24t-38.5 38.5t-21 57t2.5 78.5l69 389q10 57 -4 94.5t-43 60t-68 32t-79 9.5q-76 0 -144.5 -33t-111.5 -108l82 -53q-13 -6 -28.5 -16.5t-30 -24t-25 -29.5t-13.5 -35l-78 -436
h107l-8 -49h-160l86 485q3 19 12.5 35.5t21.5 29t24.5 21t21.5 13.5l-74 47q27 60 65.5 99t82 62.5t90 32.5t88.5 9q44 0 91.5 -11.5t85 -38.5t57 -72t7.5 -112l-69 -389q-10 -58 2.5 -92.5t37.5 -53t58 -24.5t64 -6t66 6t66.5 24.5t56 53t34.5 92.5l108 608h54z" />
    <glyph glyph-name="maihanakatleftthai" unicode="&#xf710;" 
d="M100 922h-514l21 108h55l-10 -59h489z" />
    <glyph glyph-name="nikhahitleftthai" unicode="&#xf711;" 
d="M-59 1008q-7 -38 -36.5 -62t-66.5 -24t-56.5 24t-12.5 62q6 37 34.5 61.5t65.5 24.5t57.5 -24.5t14.5 -61.5zM-96 1008q3 20 -9 34.5t-32 14.5t-37 -14.5t-21 -34.5q-2 -10 0.5 -19t8 -16t14 -11t18.5 -4q20 0 36.5 15t21.5 35z" />
    <glyph glyph-name="maitaikhuleftthai" unicode="&#xf712;" 
d="M-16 1092h-328q-65 0 -103 -20t-45 -52q-2 -14 2 -23t10 -15q7 -7 17 -11l191 71l182 -71l-10 -49l-181 73l-202 -80q-13 4 -26 13t-23 22.5t-14.5 31t-0.5 38.5q4 24 19 45.5t40.5 38.5t60.5 27t79 10h371z" />
    <glyph glyph-name="maiekupperleftthai" unicode="&#xf713;" 
d="M-98 1137h-54l21 123h53z" />
    <glyph glyph-name="maithoupperleftthai" unicode="&#xf714;" 
d="M27 1137h-287l8 45q3 18 -3 28.5t-26 10.5h-51l39 45h27q76 0 67 -58l-4 -24h238z" />
    <glyph glyph-name="maitriupperleftthai" unicode="&#xf715;" 
d="M102 1137h-125l9 51q5 32 -8 50.5t-44 18.5h-8l-80 -51l-65 51h-6q-64 0 -76 -69v-6h74l-9 -45h-120l10 59q9 51 47.5 77.5t87.5 26.5h6l60 -43l73 43h9q49 0 78 -26.5t22 -77.5l-2 -14h104z" />
    <glyph glyph-name="maichattawaupperleftthai" unicode="&#xf716;" 
d="M-6 1214h-78l-14 -77h-54l15 77h-78l6 39h78l14 78h54l-15 -78h78z" />
    <glyph glyph-name="thanthakhatupperleftthai" unicode="&#xf717;" 
d="M-66 1145h-49q-32 0 -51.5 -14.5t-26.5 -40.5l-4 -17h-55l4 23q9 52 42 75t75 23h104z" />
    <glyph glyph-name="saraulowthai" unicode="&#xf718;" 
d="M-242 -563h-53l29 166h-82l39 49h104z" />
    <glyph glyph-name="sarauulowthai" unicode="&#xf719;" 
d="M-223 -449q-6 -28 -20.5 -49.5t-34.5 -35.5t-45 -21.5t-50 -7.5q-26 0 -49 7.5t-38.5 21.5t-23 35.5t-1.5 49.5l10 52h-62l39 49h84l-16 -94q-4 -21 0.5 -35t14 -23t23 -12.5t27.5 -3.5q29 0 56 16t35 58l16 94h53z" />
    <glyph glyph-name="phinthulowthai" unicode="&#xf71a;" 
d="M-215 -401q-3 -22 -21.5 -38t-39.5 -16q-22 0 -35.5 16t-10.5 38q5 21 23.5 37t40.5 16t35 -16t8 -37z" />
    <glyph glyph-name="minus" unicode="&#xad;" horiz-adv-x="676" 
d="M618 315h-593l10 52h594z" />
    <glyph glyph-name="uni0E33_1" horiz-adv-x="477" 
d="M-59 1008q-7 -38 -36.5 -62t-66.5 -24t-56.5 24t-12.5 62q6 37 34.5 61.5t65.5 24.5t57.5 -24.5t14.5 -61.5zM281 0l104 590q7 40 4.5 75t-18.5 61t-48 41t-85 15q-29 0 -54 -5t-45.5 -12t-36 -14.5t-24.5 -13.5l10 58q19 9 60.5 22.5t97.5 13.5q70 0 112.5 -19.5
t63 -52.5t23 -76t-6.5 -89l-104 -594h-53zM-96 1008q3 20 -9 34.5t-32 14.5t-37 -14.5t-21 -34.5q-2 -10 0.5 -19t8 -16t14 -11t18.5 -4q20 0 36.5 15t21.5 35z" />
    <glyph glyph-name="uni0E4E_1" 
d="M168 1358q-45 4 -98.5 -1t-100.5 -19t-81 -37.5t-40 -55.5q-4 -21 6 -35t27 -21.5t37.5 -10.5t38.5 -2l-8 -46q-39 1 -86 -6t-88.5 -22.5t-69.5 -39t-29 -54.5q-1 -11 5 -19t16 -13.5t22.5 -8t24.5 -2.5q32 0 64 9t49 17l16 -39q-11 -5 -28 -11.5t-38.5 -11.5t-46.5 -7.5
t-51 0.5q-46 6 -69.5 31t-18.5 57q2 18 11 34.5t22 30.5t29 25.5t32 19.5q29 14 62.5 23.5t58.5 11.5l2 6q-56 23 -47 86q3 17 15 35t30 34.5t41 31t49 24.5q31 12 68.5 19t72.5 10.5t64.5 4t44.5 -0.5l-8 -47v0z" />
    <glyph glyph-name="currency" unicode="&#xa4;" horiz-adv-x="840" 
d="M422 729q-96 0 -160 -67q-65 -73 -65 -160q0 -94 63 -164q65 -68 162 -68q92 0 158 68q63 63 63 164q0 46 -16.5 87t-45.5 72t-70 49.5t-89 18.5zM8 164l148 145q-62 83 -62 193q0 114 62 188l-148 150l76 71l145 -145q79 59 193 59q55 0 105.5 -16t82.5 -43l150 145
l71 -71l-145 -150q59 -79 59 -188q0 -114 -59 -193l145 -145l-71 -76l-150 148q-15 -13 -36 -23.5t-47 -20.5q-53 -18 -105 -18q-110 0 -193 62l-145 -148z" />
    <glyph glyph-name="FL00A9h" unicode="&#xa9;" horiz-adv-x="1067" 
d="M1065 504q-18 -107 -75 -201t-139 -164.5t-183 -111.5t-207 -41q-107 0 -194 41t-145 111.5t-82.5 164.5t-6.5 201q13 71 43 137t74.5 123t100 104.5t119 81t133 52t140.5 18.5q107 0 193.5 -40.5t143.5 -111t80.5 -164.5t4.5 -200zM1012 504q17 96 -4 180.5t-72.5 147
t-129 99t-173.5 36.5q-97 0 -188 -36.5t-165.5 -99t-125.5 -147t-68 -180.5q-17 -97 5 -181.5t74 -147t130.5 -98.5t175.5 -36q96 0 186 36t163.5 98.5t124 147t67.5 181.5zM803 670q-42 49 -89 68.5t-104 19.5q-54 0 -104 -21.5t-90.5 -58.5t-68.5 -86.5t-38 -104.5
q-10 -54 1 -103.5t39 -87t70 -59.5t95 -22q56 0 115 22.5t125 79.5l-11 -67q-55 -38 -116 -62t-121 -24q-67 0 -118.5 25.5t-84 69.5t-45 102.5t-0.5 125.5t45.5 126t82.5 102.5t110 68.5t127 25q58 0 105.5 -19.5t84.5 -56.5z" />
    <glyph glyph-name="fongmanfunnuthai" unicode="&#xf880;" 
 />
    <glyph glyph-name="lochula.short" unicode="&#xf71d;" 
 />
    <glyph glyph-name="percent" unicode="%" horiz-adv-x="1180" 
d="M1063 264q-10 -57 -29 -108t-48.5 -89.5t-70.5 -61.5t-96 -23q-107 0 -141.5 72t-11.5 200q10 55 28.5 105t48 87.5t69.5 59.5t93 22q57 0 92.5 -20t53.5 -55t20 -83.5t-8 -105.5zM317 0h-53l625 967h53zM543 723q-10 -57 -29 -108.5t-48 -90t-70 -61.5t-95 -23t-89 19
t-53.5 54.5t-21.5 86t8 113.5q10 55 29.5 105t49 87.5t70 59.5t93.5 22q57 0 92 -20t52.5 -55.5t19.5 -83.5t-8 -105zM1014 262q7 48 7 87.5t-12.5 68.5t-38.5 45t-71 16t-75.5 -17t-50.5 -46.5t-32.5 -69t-19.5 -84.5q-9 -52 -11.5 -95.5t8 -74.5t36 -48t71.5 -17t78 19
t54 51t35 74.5t22 90.5zM494 721q8 48 8 88t-12 69t-38 45.5t-71 16.5t-75.5 -17.5t-51.5 -47.5t-33.5 -69.5t-19.5 -84.5q-9 -52 -11 -95.5t9 -74.5t37 -48.5t73 -17.5q45 0 76.5 19t52.5 51.5t34 75t22 90.5z" />
    <glyph glyph-name="zerowidthnonjoiner" unicode="&#x200c;" 
 />
    <glyph glyph-name="zerowidthjoiner" unicode="&#x200d;" 
 />
    <glyph glyph-name="F881" 
 />
    <glyph glyph-name="F882" 
 />
    <glyph glyph-name="saraueesp2" 
d="M-209 1137l21 123h53l-21 -123h-53zM-649 922l41 49h313l19 104h53l-19 -104h62l18 104h53l-28 -153h-512z" />
    <glyph glyph-name="saraisp" 
d="M-676 999l39 50h604l-8 -50h-635z" />
    <glyph glyph-name="saraiisp" 
d="M-676 999l39 50h551l18 104h54l-27 -154h-635z" />
    <glyph glyph-name="F71C" unicode="&#xf71c;" 
 />
    <glyph glyph-name="F71B" unicode="&#xf71b;" 
 />
    <glyph glyph-name="numbersign" unicode="#" horiz-adv-x="977" 
d="M924 637h-183l-127 -309h187l-6 -41h-197l-117 -287h-41l119 287h-217l-119 -287h-39l117 287h-182l6 41h192l127 309h-196l6 41h207l121 293h41l-121 -293h215l121 293h41l-121 -293h172zM485 637l-127 -309h215l129 309h-217z" />
    <glyph glyph-name="dollar" unicode="$" horiz-adv-x="807" 
d="M774 848q-16 14 -42 28t-58 26t-69.5 20t-76.5 10l-35 -197q-6 -37 -12.5 -72.5t-11 -63.5t-7.5 -45l-3 -17q67 -20 117 -43t81 -54.5t42.5 -75t0.5 -104.5q-11 -65 -42 -113.5t-76.5 -83t-102 -54t-117.5 -25.5l-26 -146h-51l24 144q-45 0 -87.5 6t-80 17t-68.5 25.5
t-53 32.5l15 78q10 -15 38.5 -33t67.5 -33.5t85 -26.5t93 -11l80 452q-64 20 -114 39.5t-83 47t-46 67.5t-2 100q10 58 41.5 102t77.5 74t101.5 46t112.5 20l25 145h51l-24 -143q81 -2 141.5 -20.5t105.5 -44.5zM477 930q-43 -2 -85 -12.5t-76.5 -31.5t-59 -55t-33.5 -83
q-8 -47 1 -78t34 -52t63.5 -36.5t88.5 -30.5zM635 258q8 46 -0.5 79.5t-32.5 59t-63 44t-90 34.5l-3.5 -18.5l-9 -49l-12.5 -69.5l-14 -80q-18 -96 -39 -219q106 9 175.5 62.5t88.5 156.5z" />
    </font>
</defs>
</svg>
