<?xml version="1.0" standalone="no"?>
<!DOCTYPE svg PUBLIC "-//W3C//DTD SVG 1.1//EN" "http://www.w3.org/Graphics/SVG/1.1/DTD/svg11.dtd" >
<svg>
<metadata>
Created by FontForge 20090622 at Thu Aug  9 07:16:24 2018
 By deploy user
Copyright (c) 1995-2007 by Phanlop Thongsuk. All rights reserved.
</metadata>
<defs>
<font id="PSLSirintrProBoldItalic" horiz-adv-x="0" >
  <font-face 
    font-family="PSL Sirintr Pro (สิรินทร์)"
    font-weight="700"
    font-style="italic"
    font-stretch="normal"
    units-per-em="2048"
    panose-1="2 0 5 6 0 0 0 2 0 4"
    ascent="1638"
    descent="-410"
    x-height="725"
    cap-height="969"
    bbox="-741 -625 1499 1599"
    underline-thickness="72"
    underline-position="-123"
    unicode-range="U+0020-U+F880"
  />
<missing-glyph horiz-adv-x="1599" 
d="M100 0v1599h1399v-1599h-1399zM1401 100v1399h-1200v-1399h1200z" />
    <glyph glyph-name="saraueesp1" unicode="&#xe37;&#xe48;" 
d="M-16 1178h-115l29 153h114zM29 922h-615l68 90h272l19 104h114l-18 -104h61l19 104h114z" />
    <glyph glyph-name=".notdef" horiz-adv-x="1599" 
d="M100 0v1599h1399v-1599h-1399zM1401 100v1399h-1200v-1399h1200z" />
    <glyph glyph-name=".null" 
 />
    <glyph glyph-name="nonmarkingreturn" horiz-adv-x="471" 
 />
    <glyph glyph-name="space" unicode=" " horiz-adv-x="471" 
 />
    <glyph glyph-name="space" unicode="&#xa0;" horiz-adv-x="471" 
 />
    <glyph glyph-name="ampersand" unicode="&#x26;" horiz-adv-x="920" 
d="M725 0l-104 141q-26 -29 -61.5 -59t-77 -54t-88 -39.5t-95.5 -15.5q-67 0 -120 20.5t-87.5 57t-48.5 88.5t-2 115q8 48 30 90.5t53.5 78.5t70.5 64.5t81 49.5q-24 18 -45.5 39.5t-36 48.5t-20.5 61t2 76q9 52 38.5 94t70.5 71.5t90 45.5t98 16q48 0 88.5 -15t69 -42.5
t41 -66.5t4.5 -87q-9 -48 -32 -87.5t-54.5 -70.5t-69 -53.5t-74.5 -36.5l185 -204q17 39 32 82q13 37 25 84t19 98h124q-13 -82 -35.5 -146.5t-44.5 -109.5q-26 -53 -55 -94l195 -240h-166zM553 768q4 28 0 52.5t-16.5 43.5t-32.5 30t-47 11q-28 0 -54 -11t-47.5 -29.5
t-36.5 -44t-20 -54.5q-7 -37 7.5 -69t34.5 -55q24 -27 56 -50q37 15 69 40q27 21 52.5 54.5t34.5 81.5zM336 473q-35 -19 -70 -54t-59.5 -77t-32.5 -87t12 -83q25 -47 60 -65t74 -17t78.5 17t73 37t57.5 42.5t32 34.5z" />
    <glyph glyph-name="quotesingle" unicode="'" horiz-adv-x="340" 
d="M252 635h-84l39 377h137z" />
    <glyph glyph-name="parenleft" unicode="(" horiz-adv-x="532" 
d="M590 1012q-84 -68 -148.5 -135.5t-111 -142t-77 -158t-48.5 -183.5q-19 -107 -20.5 -196.5t17.5 -168.5t59.5 -151t105.5 -143h-150q-54 77 -87.5 150t-48.5 151.5t-12 166t21 193.5q17 97 45.5 179t72 155.5t102.5 142t136 140.5h144v0z" />
    <glyph glyph-name="parenright" unicode=")" horiz-adv-x="532" 
d="M438 395q-18 -106 -46 -193.5t-70.5 -166t-102.5 -151.5t-143 -150h-148q89 71 155 143t113 151t77.5 168.5t50.5 196.5q18 100 16.5 183.5t-22.5 158t-61.5 142t-100.5 135.5h141q54 -72 89 -140.5t52 -142t17 -155.5t-17 -179z" />
    <glyph glyph-name="asterisk" unicode="*" horiz-adv-x="805" 
d="M520 707l203 -109l-68 -92l-174 143l-24 -243h-103l60 241l-228 -139l-36 90l247 109l-209 110l68 86l176 -135l27 242h102l-59 -242l221 141l37 -86z" />
    <glyph glyph-name="plus" unicode="+" horiz-adv-x="737" 
d="M666 295h-273l-47 -272h-92l47 272h-270l16 92h270l50 270h92l-49 -270h272z" />
    <glyph glyph-name="comma" unicode="," horiz-adv-x="330" 
d="M195 47q-8 -43 -46.5 -96t-111.5 -96l-41 32q42 23 69 49.5t44 57.5q-5 -1 -9 -2q-5 -1 -10 -1.5t-10 -0.5q-31 0 -51.5 23t-14.5 57q3 16 12.5 31.5t23 27.5t30.5 19.5t35 7.5q46 0 67.5 -30.5t12.5 -78.5z" />
    <glyph glyph-name="hyphen" unicode="-" horiz-adv-x="573" 
d="M471 365h-385l20 106h386z" />
    <glyph glyph-name="period" unicode="." horiz-adv-x="330" 
d="M188 72q-3 -17 -12.5 -32t-23 -26t-29.5 -17.5t-33 -6.5q-34 0 -54 23.5t-13 58.5q6 34 34 59t62 25q17 0 31 -7t23.5 -18.5t13.5 -26.5t1 -32z" />
    <glyph glyph-name="slash" unicode="/" horiz-adv-x="573" 
d="M-18 -197h-107l653 1209h109z" />
    <glyph glyph-name="zero" unicode="0" horiz-adv-x="737" 
d="M705 498q-11 -60 -27.5 -122.5t-40 -120.5t-55.5 -109t-74 -89t-94.5 -60t-116.5 -22q-66 0 -112 22t-75 60t-43.5 89t-17.5 109.5t2.5 121t16.5 123.5q10 57 26.5 115t41 112t56.5 101.5t73 82.5t91.5 55.5t112.5 20.5q64 0 109 -20.5t74.5 -55.5t45.5 -82.5t20.5 -102
t0.5 -113t-14 -115.5zM580 487q8 44 12.5 90.5t3.5 90t-8.5 82t-24 67.5t-44 45.5t-68.5 16.5q-39 0 -71.5 -16.5t-58.5 -44.5t-46 -66t-35.5 -80.5t-26.5 -87.5t-18 -88q-8 -45 -14.5 -92.5t-8 -93t4 -86.5t21 -71.5t43.5 -48.5t72 -18q66 0 111.5 38t76.5 97t49 130
t30 136z" />
    <glyph glyph-name="one" unicode="1" horiz-adv-x="737" 
d="M377 0h-119l137 782q-34 -13 -74 -23q-34 -8 -78.5 -13t-92.5 2l16 88q17 0 41.5 1t52 5.5t55.5 13.5t51.5 24t40.5 37t23 54h119z" />
    <glyph glyph-name="two" unicode="2" horiz-adv-x="737" 
d="M711 719q-9 -49 -30.5 -93t-50.5 -83.5t-62.5 -74t-67 -63.5t-63 -52l-50.5 -40l-248 -200h496l-21 -113h-622l24 137l326 275l74 63.5t73 71t59 79t34 87.5q7 40 -2 70t-30 50t-52.5 30.5t-69.5 10.5q-60 0 -111 -14.5t-88 -31.5q-44 -20 -79 -46l26 144q41 17 88 31
q40 12 91.5 22t105.5 10q70 0 122 -19t84 -54.5t43 -85.5t1 -111z" />
    <glyph glyph-name="three" unicode="3" horiz-adv-x="737" 
d="M723 752q-16 -87 -77.5 -143.5t-147.5 -73.5q37 -12 70 -33t56 -53.5t32.5 -76t0.5 -98.5q-11 -65 -44 -119.5t-83 -94.5t-114.5 -62.5t-139.5 -22.5q-83 0 -151.5 17.5t-116.5 46.5l27 141q14 -15 39.5 -30.5t60 -28t76 -21t86.5 -8.5q46 0 85.5 15t69.5 40.5t49.5 60
t26.5 73.5q11 58 -1 95t-43 58t-78.5 29t-108.5 8l18 107q53 0 100 9.5t84 30t61 53t32 77.5q6 32 -5 56t-33.5 39.5t-52.5 23t-61 7.5q-80 0 -151.5 -23t-122.5 -67l24 146q115 59 267 59q55 0 107.5 -15.5t91 -45.5t58 -74.5t9.5 -101.5z" />
    <glyph glyph-name="four" unicode="4" horiz-adv-x="737" 
d="M686 272h-137l-47 -272h-119l47 272h-440l26 150l545 549h113l-107 -594h138zM106 377h343l75 424z" />
    <glyph glyph-name="five" unicode="5" horiz-adv-x="737" 
d="M729 854h-432l-47 -258q58 10 115 12t107.5 -6.5t92.5 -29t69 -55.5t37.5 -85.5t-1.5 -118.5q-13 -74 -49 -136.5t-88.5 -107.5t-119 -70.5t-141.5 -25.5q-88 0 -158 19t-112 39l25 143q15 -16 40 -32t58 -28.5t72.5 -20t81.5 -7.5q54 0 99.5 16.5t80.5 46t58 70t32 88.5
q11 61 -7.5 101t-55 62.5t-86 30.5t-102 6t-102 -11.5t-85.5 -22.5l86 496h551z" />
    <glyph glyph-name="six" unicode="6" horiz-adv-x="737" 
d="M686 842q-35 21 -68 28t-79 7q-59 0 -115 -26.5t-102 -71.5t-78 -104t-43 -124q49 28 110.5 47.5t130.5 19.5q59 0 107.5 -20.5t81 -58t47 -91t6.5 -120.5q-8 -72 -39.5 -135.5t-80 -111t-110.5 -75.5t-132 -29q-104 -2 -164 39.5t-87 111t-27 161t17 190.5
q21 117 66.5 211.5t112.5 160.5t154 102t192 36q32 0 63.5 -4.5t59.5 -15.5zM567 326q5 39 -4.5 73.5t-30 60.5t-51.5 41t-69 15q-42 0 -81.5 -8.5t-71.5 -18.5q-37 -11 -71 -26q-20 -75 -22.5 -143.5t14 -120.5t52.5 -82.5t94 -30.5q43 0 83.5 15.5t73 46t55 75t29.5 103.5
z" />
    <glyph glyph-name="seven" unicode="7" horiz-adv-x="737" 
d="M766 823l-563 -823h-131l590 854h-521l19 115h631z" />
    <glyph glyph-name="eight" unicode="8" horiz-adv-x="737" 
d="M733 741q-14 -83 -65.5 -140.5t-132.5 -88.5q80 -29 117 -92t22 -154q-12 -65 -49 -118.5t-89 -91.5t-114.5 -58.5t-124.5 -20.5q-74 0 -131 21t-93.5 59t-50.5 92.5t-2 122.5q16 91 74.5 152.5t138.5 95.5q-69 32 -96 92t-8 142q13 57 48 101.5t83 74.5t104 45.5
t111 15.5q57 0 108.5 -17t88.5 -49t54.5 -78.5t6.5 -105.5zM606 737q6 36 -3 65.5t-29.5 50t-50.5 32t-64 12.5q-35 1 -69 -8.5t-63 -28.5t-49.5 -47t-27.5 -65q-5 -29 1.5 -53t20.5 -43.5t34 -35.5t42 -28q51 -28 119 -45q34 28 63 60q24 27 46.5 62t29.5 72zM545 264
q6 33 -1.5 60t-23.5 48.5t-37.5 38.5t-45.5 30q-55 30 -130 46q-40 -26 -73 -59q-29 -29 -55.5 -68.5t-35.5 -89.5q-8 -44 2 -80.5t33 -62t57.5 -39.5t77.5 -14q40 0 78.5 14t70 39t53.5 60t30 77z" />
    <glyph glyph-name="nine" unicode="9" horiz-adv-x="737" 
d="M705 485q-21 -117 -66.5 -211t-112.5 -160.5t-154 -102.5t-192 -36q-32 0 -63.5 5t-59.5 16l23 127q35 -22 68 -28.5t79 -6.5q59 0 115 26.5t102 71.5t78 104t43 124q-49 -28 -110.5 -48t-130.5 -20q-59 0 -107.5 20.5t-81 58.5t-47 91.5t-6.5 120.5q8 72 39.5 135.5
t80 111t110.5 75t132 28.5q104 1 164.5 -39.5t87.5 -110.5t27 -161.5t-18 -190.5zM578 502q20 75 22.5 143.5t-14 120t-52.5 82.5t-94 31q-43 0 -83.5 -15.5t-73 -46t-55 -75.5t-29.5 -103q-5 -39 4.5 -73.5t30 -60.5t51.5 -41t69 -15q41 0 81 8t72 18q37 11 71 27z" />
    <glyph glyph-name="colon" unicode=":" horiz-adv-x="330" 
d="M279 578q-7 -35 -36 -58.5t-63 -23.5t-54 23t-13 59q6 34 34 59t62 25t55 -25t15 -59zM188 72q-3 -17 -12.5 -32t-23 -26t-29.5 -17.5t-33 -6.5q-34 0 -54 23.5t-13 58.5q6 34 34 59t62 25q17 0 31 -7t23.5 -18.5t13.5 -26.5t1 -32z" />
    <glyph glyph-name="semicolon" unicode=";" horiz-adv-x="330" 
d="M279 578q-7 -35 -36 -58.5t-63 -23.5t-54 23t-13 59q6 34 34 59t62 25t55 -25t15 -59zM195 47q-8 -43 -46.5 -96t-111.5 -96l-41 32q42 23 69 49.5t44 57.5q-5 -1 -9 -2q-5 -1 -10 -1.5t-10 -0.5q-31 0 -51.5 23t-14.5 57q3 16 12.5 31.5t23 27.5t30.5 19.5t35 7.5
q46 0 67.5 -30.5t12.5 -78.5z" />
    <glyph glyph-name="less" unicode="&#x3c;" horiz-adv-x="870" 
d="M838 680l-611 -256l518 -256l-20 -119l-653 334l14 82l772 332z" />
    <glyph glyph-name="equal" unicode="=" horiz-adv-x="737" 
d="M690 426h-635l17 92h635zM643 164h-635l17 92h634z" />
    <glyph glyph-name="greater" unicode="&#x3e;" horiz-adv-x="870" 
d="M793 383l-773 -334l21 119l606 256l-514 256l21 117l653 -332z" />
    <glyph glyph-name="question" unicode="?" horiz-adv-x="668" 
d="M653 735q-7 -36 -24 -69t-40 -63t-50.5 -56t-55.5 -48q-65 -51 -143 -91l-27 -148h-110l37 201q72 32 132 74q25 18 50.5 40t46.5 47.5t36 54t21 60.5q6 31 -3 57t-29 44.5t-49.5 28.5t-65.5 10q-52 0 -95 -11t-75 -25q-37 -16 -68 -36l25 141q29 11 67 21q32 8 76 15
t97 7q63 0 113.5 -18t83.5 -51t46.5 -80t3.5 -105zM309 72q-3 -17 -12.5 -32t-23 -26t-29.5 -17.5t-33 -6.5q-34 0 -54 23.5t-14 58.5q7 34 35 59t62 25t54.5 -25t14.5 -59z" />
    <glyph glyph-name="at" unicode="@" horiz-adv-x="1223" 
d="M1137 424q-11 -62 -36 -119.5t-51 -102.5q-30 -53 -65 -98h-270l-6 72q-47 -42 -91 -60t-100 -18q-54 0 -93 23t-62.5 63.5t-30 96.5t5.5 122q11 63 39.5 122.5t70.5 105.5t96 74t115 28q23 0 42 -2t35.5 -7t32 -13.5t32.5 -20.5l6 29h96l-96 -545h135q26 37 49 78
q20 35 38.5 80.5t27.5 95.5q19 109 3 196.5t-61.5 149t-117.5 94.5t-166 33q-95 0 -184.5 -38.5t-162.5 -105t-123.5 -156t-68.5 -191.5q-18 -99 2 -185.5t70 -150.5t128 -100.5t177 -36.5q30 0 65.5 5t67.5 11q37 7 74 16l-17 -94q-36 -7 -72 -11q-31 -5 -65.5 -8t-62.5 -3
q-120 0 -214 42.5t-154.5 117t-84 176t-2.5 219.5q21 120 81.5 225t146.5 184t192 124.5t219 45.5q133 0 220.5 -47.5t136 -126.5t60.5 -180t-7 -209zM782 600q-22 10 -44 19q-20 8 -42.5 14t-44.5 6q-41 0 -75 -20t-61 -52.5t-45 -74.5t-26 -86q-7 -38 -4.5 -75.5t15 -67
t36 -48t58.5 -18.5q34 0 65.5 10.5t55.5 24.5q28 16 53 36z" />
    <glyph glyph-name="A" unicode="A" horiz-adv-x="823" 
d="M627 0l-43 270h-400l-137 -270h-123l512 969h148l172 -969h-129zM485 836l-241 -455h321z" />
    <glyph glyph-name="B" unicode="B" horiz-adv-x="825" 
d="M778 756q-14 -79 -54 -126t-110 -79q44 -14 78 -37t56 -55.5t29.5 -75t-1.5 -94.5q-25 -141 -143 -215t-316 -74h-286l170 969h262q76 0 139 -9.5t106 -34t62.5 -65.5t7.5 -104zM647 721q13 72 -28.5 104.5t-149.5 32.5h-164l-49 -278h162q96 0 157 34.5t72 106.5z
M651 285q10 57 -4 92.5t-47.5 56t-84 28t-112.5 7.5h-165l-64 -360h205q44 0 89 10.5t83 32t65 55t35 78.5z" />
    <glyph glyph-name="C" unicode="C" horiz-adv-x="842" 
d="M872 741q-46 59 -122 97.5t-183 38.5q-69 0 -131.5 -32.5t-112 -85.5t-83.5 -122.5t-47 -142.5q-13 -78 -3.5 -150.5t41 -129t84 -90.5t125.5 -34q53 0 102 11t92 29.5t80 43t66 51.5l-26 -155q-25 -15 -61.5 -31t-80.5 -28.5t-92 -20.5t-96 -8q-97 0 -173 36
t-124.5 102.5t-66 160t2.5 208.5q19 105 68.5 196t121 157.5t159 104.5t182.5 38q100 0 176 -26.5t129 -61.5z" />
    <glyph glyph-name="D" unicode="D" horiz-adv-x="934" 
d="M893 489q-25 -140 -86 -233.5t-145.5 -150.5t-186.5 -81t-209 -24h-235l170 969h211q72 0 140 -11t126.5 -34.5t105.5 -61t76.5 -90.5t39 -123.5t-6.5 -159.5zM770 487q13 72 5.5 127.5t-30.5 97t-59.5 69.5t-82.5 45t-99 24.5t-109 7.5h-90l-131 -747h123
q81 0 158.5 19.5t141 63.5t109.5 116t64 177z" />
    <glyph glyph-name="E" unicode="E" horiz-adv-x="758" 
d="M788 854h-483l-47 -260h483l-20 -115h-483l-64 -364h483l-20 -115h-606l170 969h606z" />
    <glyph glyph-name="F" unicode="F" horiz-adv-x="686" 
d="M770 854h-465l-49 -268h399l-18 -113h-399l-84 -473h-123l170 969h587z" />
    <glyph glyph-name="G" unicode="G" horiz-adv-x="940" 
d="M926 737q-22 29 -53 54.5t-70.5 44.5t-87.5 30t-103 11q-75 0 -144.5 -26.5t-125.5 -77.5t-96 -124t-56 -166q-14 -78 -1 -149.5t49 -125.5t92.5 -86t130.5 -32q75 0 136 12t103 35l41 236h-245l20 112h371l-74 -413q-34 -17 -74.5 -34t-87 -30.5t-98.5 -22t-109 -8.5
q-99 0 -179 35t-132 100t-72.5 159t0.5 212q22 125 78 219t134 157t172 94.5t194 31.5q51 0 93.5 -5t80 -15.5t72 -27t69.5 -40.5z" />
    <glyph glyph-name="H" unicode="H" horiz-adv-x="909" 
d="M735 0h-123l84 477h-458l-84 -477h-123l170 969h123l-66 -377h459l65 377h123z" />
    <glyph glyph-name="I" unicode="I" horiz-adv-x="492" 
d="M510 868h-121l-137 -770h121l-17 -98h-364l16 98h121l137 770h-121l17 101h364z" />
    <glyph glyph-name="J" unicode="J" horiz-adv-x="535" 
d="M420 289q-18 -105 -62 -169t-107.5 -96t-143.5 -36t-170 12l22 129q58 -21 112.5 -29.5t99.5 5.5t78 58t48 128l100 571h-196l18 107h320z" />
    <glyph glyph-name="K" unicode="K" horiz-adv-x="836" 
d="M430 512l344 -512h-158l-292 430l-109 -102l-57 -328h-123l170 969h123l-88 -500l536 500h150z" />
    <glyph glyph-name="L" unicode="L" horiz-adv-x="696" 
d="M612 0h-581l170 969h123l-150 -854h459z" />
    <glyph glyph-name="M" unicode="M" horiz-adv-x="1024" 
d="M850 0h-123l147 834l-354 -568h-74l-153 568l-148 -834h-114l170 969h168l149 -541l332 541h170z" />
    <glyph glyph-name="N" unicode="N" horiz-adv-x="905" 
d="M733 0h-143l-291 866l-154 -866h-114l170 969h182l266 -791l139 791h115z" />
    <glyph glyph-name="O" unicode="O" horiz-adv-x="954" 
d="M926 479q-17 -98 -63.5 -189t-115 -160.5t-155.5 -111t-184 -41.5q-99 0 -173.5 40.5t-121 109t-62.5 158.5t2 190t62.5 193t111.5 163.5t154.5 113t191.5 42.5q107 0 182 -42.5t119 -113t57 -162.5t-5 -190zM795 477q13 76 4 148t-39.5 128t-82 90t-122.5 34
t-132.5 -35.5t-110.5 -92.5t-82 -128.5t-46 -143.5q-13 -74 -4.5 -145t38.5 -126t81 -88.5t123 -33.5q70 0 132 34t111 89t83 125.5t47 144.5z" />
    <glyph glyph-name="P" unicode="P" horiz-adv-x="725" 
d="M758 664q-13 -68 -52.5 -123.5t-94.5 -95.5t-121.5 -61.5t-133.5 -21.5h-139l-63 -362h-123l170 969h221q90 0 159 -20.5t113 -60t61 -96t3 -128.5zM629 664q8 46 -3.5 82t-40.5 61t-73.5 38t-101.5 13h-105l-67 -385h94q55 0 105 12t89.5 36t66.5 59.5t36 83.5z" />
    <glyph glyph-name="Q" unicode="Q" horiz-adv-x="954" 
d="M926 479q-14 -75 -44.5 -146t-75 -132t-101 -109.5t-121.5 -77.5q-11 -106 50.5 -141t194.5 8l-22 -121q-79 -24 -147.5 -24.5t-117.5 26t-72.5 80.5t-12.5 138q-13 -2 -25 -2.5t-24 -0.5q-99 0 -173.5 40.5t-121 109t-62.5 158.5t2 190t62.5 193t111.5 163.5t154.5 113
t191.5 42.5q107 0 182 -41.5t119 -111.5t57 -162t-5 -193zM795 477q13 76 4 148t-39.5 128t-82 90t-122.5 34t-132.5 -35.5t-110.5 -92.5t-82 -128.5t-46 -143.5q-13 -74 -4.5 -145t38.5 -126t81 -88.5t123 -33.5q70 0 132 34t111 89t83 125.5t47 144.5z" />
    <glyph glyph-name="R" unicode="R" horiz-adv-x="838" 
d="M635 0l-244 385h-170l-67 -385h-123l170 969h248q84 0 150.5 -17t110.5 -52t62.5 -87.5t5.5 -124.5q-9 -52 -34.5 -96.5t-60.5 -79t-76.5 -58.5t-82.5 -36l262 -418h-151zM639 680q7 43 -5 76.5t-38.5 56t-64.5 34t-82 11.5h-144l-65 -366h120q116 0 189.5 49t89.5 139z
" />
    <glyph glyph-name="S" unicode="S" horiz-adv-x="823" 
d="M797 756q-44 60 -117 88t-172 28q-40 0 -82 -9t-78 -27.5t-61.5 -48.5t-32.5 -72q-8 -43 5.5 -71t40.5 -46t63 -27.5t73 -15.5q67 -12 130 -28t108.5 -46.5t67.5 -82.5t8 -136q-12 -68 -53.5 -120t-99 -87.5t-125.5 -54t-134 -18.5q-53 0 -103 5.5t-93.5 16t-80 24.5
t-61.5 31l31 168q46 -60 131 -97.5t194 -37.5q45 0 89 11t80.5 32.5t62 54t33.5 76.5q7 45 -8.5 72.5t-46.5 43.5t-71.5 25.5l-82.5 18.5q-60 13 -118.5 28t-101.5 43.5t-64.5 77.5t-6.5 130q12 69 53 121.5t98.5 87.5t125 53t132.5 18q91 0 164 -17.5t131 -49.5z" />
    <glyph glyph-name="T" unicode="T" horiz-adv-x="803" 
d="M870 854h-329l-152 -854h-123l152 854h-328l19 115h780z" />
    <glyph glyph-name="U" unicode="U" horiz-adv-x="885" 
d="M793 383q-14 -78 -44.5 -151t-80.5 -129.5t-120.5 -91t-164.5 -34.5q-101 0 -166 27.5t-100 79.5t-41.5 127t10.5 170l102 588h121l-102 -584q-12 -65 -11.5 -119.5t20.5 -93.5t64 -60.5t121 -21.5q59 0 105 23.5t79 64t54.5 95.5t32.5 118l100 578h123z" />
    <glyph glyph-name="V" unicode="V" horiz-adv-x="823" 
d="M422 0h-164l-164 969h131l140 -852l436 852h125z" />
    <glyph glyph-name="W" unicode="W" horiz-adv-x="1139" 
d="M825 0h-137l-55 782l-328 -782h-133l-74 969h125l56 -785l327 785h125l53 -793l330 793h121z" />
    <glyph glyph-name="X" unicode="X" horiz-adv-x="825" 
d="M502 489l231 -489h-143l-180 399l-326 -399h-133l405 483l-229 486h141l181 -394l319 394h135z" />
    <glyph glyph-name="Y" unicode="Y" horiz-adv-x="768" 
d="M449 424l-74 -424h-123l72 412l-226 557h135l177 -434l327 434h131z" />
    <glyph glyph-name="Z" unicode="Z" horiz-adv-x="825" 
d="M840 852l-699 -737h582l-21 -115h-716l20 119l694 735h-542l18 115h684z" />
    <glyph glyph-name="bracketleft" unicode="[" horiz-adv-x="512" 
d="M539 918h-213l-191 -1080h213l-16 -92h-322l223 1266h322z" />
    <glyph glyph-name="backslash" unicode="\" horiz-adv-x="532" 
d="M358 -197l-229 1209h109l227 -1209h-107z" />
    <glyph glyph-name="bracketright" unicode="]" horiz-adv-x="512" 
d="M268 -254h-319l16 92h213l191 1080h-213l16 94h320z" />
    <glyph glyph-name="asciicircum" unicode="^" horiz-adv-x="993" 
d="M784 444l-211 408l-352 -410h-121l457 527h78l270 -525h-121z" />
    <glyph glyph-name="underscore" unicode="_" horiz-adv-x="737" 
d="M631 -195h-740l15 78h739z" />
    <glyph glyph-name="grave" unicode="`" horiz-adv-x="764" 
d="M436 846l-125 244h150l67 -244h-92z" />
    <glyph glyph-name="a" unicode="a" horiz-adv-x="719" 
d="M559 0h-117l15 76q-31 -28 -69 -50q-32 -19 -75.5 -34t-93.5 -15q-56 0 -99 16.5t-71 48t-38.5 76t-0.5 101.5q10 59 40 102t73.5 72.5t97 46.5t111.5 25q29 4 63 6t63 4q34 2 68 2q4 21 6.5 48t-9.5 51.5t-44.5 41.5t-99.5 17q-45 0 -88 -8t-78 -17q-40 -11 -76 -24
l23 123q35 10 75 18q33 7 75 12.5t85 5.5q67 0 119.5 -14.5t85.5 -46.5t44.5 -83t-1.5 -124zM510 381q-25 2 -61 2.5t-75 -4t-78.5 -15t-73 -29t-57 -46t-30.5 -66.5q-6 -35 1 -60t23.5 -41t40.5 -24t52 -8q36 0 75 13t71 30q38 18 75 43z" />
    <glyph glyph-name="b" unicode="b" horiz-adv-x="748" 
d="M698 385q-15 -90 -49 -165t-83.5 -129t-112.5 -84t-136 -30q-39 0 -70 12.5t-53 28.5q-26 18 -44 41l-17 -59h-110l178 1012h114l-61 -344q27 21 60 38q28 14 65 26.5t82 12.5q64 0 114 -29t81.5 -78t43 -114.5t-1.5 -138.5zM578 387q9 52 1.5 96.5t-28.5 76.5t-54 50.5
t-75 18.5q-46 0 -80.5 -11t-57.5 -25q-27 -16 -48 -36l-72 -401q21 -19 47 -34q23 -13 54 -23.5t71 -10.5q46 0 85.5 24t70.5 65t53 95t33 115z" />
    <glyph glyph-name="c" unicode="c" horiz-adv-x="618" 
d="M627 541q-27 27 -60 48q-28 18 -66 33t-81 15q-56 0 -100 -23t-77 -62t-54 -90t-31 -106q-9 -51 -5 -99.5t22 -86.5t52 -61t86 -23q43 0 87.5 15t81.5 33q43 21 83 48l-24 -139q-29 -18 -67 -31q-32 -11 -76.5 -20.5t-98.5 -9.5q-78 0 -134.5 30.5t-91 81.5t-45.5 119
t3 143q14 78 50 149t90 124t123.5 84.5t149.5 31.5q51 0 89.5 -10t64.5 -21q31 -13 53 -30z" />
    <glyph glyph-name="d" unicode="d" horiz-adv-x="748" 
d="M580 0h-111l4 59q-27 -23 -59 -41q-27 -16 -63 -28.5t-75 -12.5q-73 0 -125 30t-82 84t-37.5 129t7.5 165q13 73 47.5 138.5t83.5 114.5t109 78t124 29q44 0 77 -12.5t56 -26.5q26 -17 46 -38l61 344h115zM563 557q-14 20 -36 36q-19 14 -50 25t-76 11q-42 0 -81.5 -18.5
t-72 -50.5t-55.5 -76.5t-32 -96.5q-11 -61 -8 -115t20.5 -95t49 -65t77.5 -24q39 0 74 10.5t61 23.5q31 15 58 34z" />
    <glyph glyph-name="e" unicode="e" horiz-adv-x="713" 
d="M152 348q-12 -68 -1 -117.5t39.5 -81t70.5 -46.5t91 -15q48 0 96.5 14.5t86.5 31.5q45 20 86 46l-25 -135q-38 -19 -81 -33q-37 -12 -84 -22t-97 -10q-76 0 -138.5 23t-103.5 70.5t-57 120.5t2 173q14 78 46.5 147.5t82 121t115.5 82t147 30.5q87 0 139.5 -35t78.5 -91.5
t28.5 -128t-10.5 -145.5h-512zM563 444q4 56 -10 100q-6 19 -16.5 37t-27.5 32t-41.5 23t-57.5 9q-36 0 -65 -9t-52.5 -23t-42 -32t-31.5 -37q-32 -44 -49 -100h393z" />
    <glyph glyph-name="f" unicode="f" horiz-adv-x="403" 
d="M549 889q-39 19 -83 22.5t-83 -10t-68 -44t-36 -79.5l-9 -51h211l-18 -102h-207l-111 -625h-118l110 623h-71l18 104h74l8 49q12 75 56.5 129.5t103.5 85t123.5 35t117.5 -21.5z" />
    <glyph glyph-name="g" unicode="g" horiz-adv-x="748" 
d="M600 106q-20 -109 -59 -182t-90 -117t-110 -63.5t-118.5 -22t-115.5 8.5t-101 28l23 125q75 -32 145.5 -44t129.5 5t103.5 68.5t67.5 146.5q-2 -2 -18.5 -15t-43 -28t-61 -27t-73.5 -12q-73 0 -126 27.5t-83.5 78.5t-38.5 123.5t8 162.5q14 81 49 149.5t84.5 119
t109.5 79t124 28.5q44 0 76.5 -12.5t55.5 -26.5q26 -17 46 -38l28 59h99zM565 557q-14 20 -36 36q-19 14 -50 25t-76 11q-42 0 -82 -20t-72.5 -54.5t-56 -82t-32.5 -101.5q-11 -61 -7.5 -112.5t21 -89.5t49.5 -59.5t78 -21.5q39 0 74.5 10.5t61.5 23.5q31 15 57 34z" />
    <glyph glyph-name="h" unicode="h" horiz-adv-x="760" 
d="M600 0h-117l80 455q14 80 -10.5 127t-81.5 47q-46 0 -88.5 -13.5t-75.5 -29.5q-39 -19 -74 -43l-96 -543h-114l178 1012h114l-65 -369q39 28 80 51q35 19 79.5 35t90.5 16q53 0 92.5 -18.5t63.5 -54.5t31 -89t-5 -122z" />
    <glyph glyph-name="i" unicode="i" horiz-adv-x="305" 
d="M297 848h-131l22 127h131zM139 0h-116l129 727h116z" />
    <glyph glyph-name="j" unicode="j" horiz-adv-x="395" 
d="M387 848h-131l23 127h131zM231 0q-17 -97 -59.5 -157t-99 -89.5t-121.5 -30t-127 22.5l20 117q117 -48 183.5 -13t89.5 166l108 607h-143l18 104h260z" />
    <glyph glyph-name="k" unicode="k" horiz-adv-x="707" 
d="M375 391l274 -391h-153l-215 311l-99 -90l-39 -221h-116l178 1012h117l-115 -650l401 365h146z" />
    <glyph glyph-name="l" unicode="l" horiz-adv-x="305" 
d="M139 0h-116l178 1012h116z" />
    <glyph glyph-name="m" unicode="m" horiz-adv-x="1190" 
d="M1030 0h-119l74 424q8 42 9 79.5t-8 65.5t-28.5 44t-52.5 16q-45 0 -87 -13.5t-74 -30.5q-38 -19 -72 -44q0 -18 -1 -36q-1 -16 -2.5 -34t-4.5 -33l-78 -438h-115l72 412q6 37 8 75.5t-5 70.5t-26 52.5t-55 20.5q-54 0 -96.5 -13.5t-72.5 -30.5q-35 -19 -63 -44l-96 -543
h-114l127 725h114l-12 -80q31 28 71 50q33 19 78.5 34.5t98.5 15.5q37 0 63.5 -8t45.5 -23.5t33 -38t26 -50.5q27 27 57.5 49.5t65.5 39t75 25.5t86 9t81.5 -20t57 -53.5t29 -78.5t-1.5 -96z" />
    <glyph glyph-name="n" unicode="n" horiz-adv-x="760" 
d="M598 0h-117l76 434q6 33 7 67.5t-6.5 63t-25.5 46.5t-51 18q-44 0 -88.5 -13.5t-79.5 -29.5q-42 -19 -80 -43l-96 -543h-114l127 725h114l-12 -80q38 28 80 50q36 19 82 34.5t96 15.5q51 0 88.5 -19.5t59.5 -55.5t28.5 -86.5t-4.5 -112.5z" />
    <glyph glyph-name="o" unicode="o" horiz-adv-x="727" 
d="M684 369q-14 -78 -49 -149t-86.5 -125t-117.5 -86t-142 -32q-78 0 -133.5 33t-88 88.5t-41.5 127t5 149.5q13 73 48.5 140t87 118t117 81.5t138.5 30.5q78 0 134 -30.5t88.5 -82.5t42.5 -120t-3 -143zM563 373q9 51 4.5 99.5t-24 86.5t-53.5 61t-84 23t-92.5 -23
t-75.5 -60.5t-55.5 -85.5t-30.5 -99q-10 -56 -6.5 -108t22 -93t53 -65.5t86.5 -24.5q51 0 94 25t76 65.5t55 92.5t31 106z" />
    <glyph glyph-name="p" unicode="p" horiz-adv-x="748" 
d="M696 369q-16 -90 -50 -162.5t-82.5 -123.5t-111 -78.5t-135.5 -27.5q-39 0 -70 12.5t-53 28.5q-26 18 -44 41l-58 -327h-117l177 995h106l-4 -59q27 21 60 38q28 14 65 26.5t82 12.5q64 0 114 -28.5t81.5 -79t42.5 -119t-3 -149.5zM575 371q9 54 2.5 101.5t-27 82
t-53.5 54.5t-75 20q-46 0 -80.5 -11t-57.5 -25q-27 -16 -48 -36l-72 -401q21 -19 47 -34q23 -13 54 -23.5t71 -10.5q46 0 85 21.5t70 59.5t52 89.5t32 112.5z" />
    <glyph glyph-name="q" unicode="q" horiz-adv-x="748" 
d="M532 -268h-116l57 327q-27 -23 -59 -41q-27 -16 -63 -28.5t-75 -12.5q-73 0 -125.5 27.5t-83 78.5t-38.5 123.5t8 162.5q14 81 49 149.5t84 119t109 79t124 28.5q44 0 77 -12.5t56 -26.5q26 -17 46 -38l20 59h107zM563 557q-14 20 -36 36q-19 14 -50 25t-76 11
q-42 0 -82 -20t-72.5 -54.5t-56 -82t-32.5 -101.5q-11 -61 -7.5 -112.5t21 -89.5t49.5 -59.5t78 -21.5q39 0 74 10.5t61 23.5q31 15 58 34z" />
    <glyph glyph-name="r" unicode="r" horiz-adv-x="500" 
d="M553 588q-32 12 -62.5 15t-59 0t-54.5 -11t-48 -18q-53 -24 -98 -62l-90 -512h-118l129 727h116l-20 -109q43 39 95 65q45 23 104 36.5t128 -0.5z" />
    <glyph glyph-name="s" unicode="s" horiz-adv-x="618" 
d="M586 555q-30 24 -67 42q-32 16 -74 29t-91 13q-26 0 -52.5 -5.5t-48.5 -17t-38 -30t-20 -45.5q-5 -26 3 -45.5t25 -33.5t40 -23.5t48 -14.5q45 -9 93 -20.5t84.5 -34.5t55.5 -64t7 -110q-10 -54 -40.5 -94.5t-74 -67t-97 -40t-110.5 -13.5q-54 0 -97.5 10t-75.5 22
q-38 14 -68 33l24 137q30 -27 67 -48q32 -18 74.5 -33t94.5 -15q32 0 63 7.5t56 22t41.5 36t21.5 49.5q6 34 -8 54.5t-39.5 33t-57.5 19t-61 11.5q-45 8 -83.5 23.5t-65.5 41t-38.5 62.5t-2.5 89q9 54 38.5 94t71.5 66.5t92 39.5t101 13q49 0 91.5 -9.5t73.5 -20.5
q36 -13 66 -30z" />
    <glyph glyph-name="t" unicode="t" horiz-adv-x="457" 
d="M492 623h-240l-66 -367q-13 -71 0.5 -107.5t44.5 -48.5t75.5 -4.5t94.5 23.5l-20 -115q-87 -16 -153 -15t-107.5 25t-57 74.5t-0.5 134.5l72 400h-76l19 104h76l34 207h117l-35 -207h240z" />
    <glyph glyph-name="u" unicode="u" horiz-adv-x="760" 
d="M592 0h-115l15 80q-38 -28 -81 -50q-37 -19 -83.5 -34.5t-94.5 -15.5q-52 0 -89.5 19.5t-59 55.5t-28 86.5t4.5 112.5l82 471h117l-76 -434q-6 -33 -7 -67.5t6.5 -63t26 -46.5t50.5 -18q44 0 88.5 13t80.5 30q42 18 81 43l94 543h115z" />
    <glyph glyph-name="v" unicode="v" horiz-adv-x="707" 
d="M340 0h-117l-149 727h127l110 -580l316 580h121z" />
    <glyph glyph-name="w" unicode="w" horiz-adv-x="961" 
d="M694 0h-108l-82 539l-271 -539h-106l-53 727h121l30 -543l269 543h96l80 -543l215 543h116z" />
    <glyph glyph-name="x" unicode="x" horiz-adv-x="707" 
d="M414 369l204 -369h-145l-147 279l-246 -279h-135l334 362l-203 365h147l146 -274l243 274h136z" />
    <glyph glyph-name="y" unicode="y" horiz-adv-x="707" 
d="M168 -268h-123l182 303l-153 692h127l114 -539l312 539h121z" />
    <glyph glyph-name="z" unicode="z" horiz-adv-x="623" 
d="M625 639l-498 -537h414l-19 -102h-557l17 90l495 535h-393l18 102h539z" />
    <glyph glyph-name="braceleft" unicode="{" horiz-adv-x="741" 
d="M756 922h-64q-59 0 -94 -15.5t-55.5 -42.5t-30 -64t-16.5 -81q-15 -84 -40 -141.5t-57 -95.5t-69.5 -61.5t-77.5 -41.5q35 -13 64 -35t47 -56.5t23 -84.5t-7 -119q-10 -59 -12.5 -105.5t9 -78t38.5 -48t75 -16.5h76l-16 -92h-76q-54 0 -99.5 14.5t-76 45.5t-43 79.5
t-0.5 116.5q15 86 17.5 148t-16.5 102t-62 59t-119 19l18 104q76 0 126 19t81.5 56.5t50 94.5t31.5 133q9 52 30 101.5t55.5 88t84.5 62t119 23.5h102z" />
    <glyph glyph-name="bar" unicode="|" horiz-adv-x="532" 
d="M213 -254v1266h106v-1266h-106z" />
    <glyph glyph-name="braceright" unicode="}" horiz-adv-x="741" 
d="M639 328q-76 0 -126 -19t-83 -59t-53 -102t-35 -148q-12 -68 -41.5 -116.5t-70.5 -79.5t-91 -45.5t-104 -14.5h-76l16 92h76q48 0 81 16.5t55 48t35.5 78t23.5 105.5q12 69 35.5 119t54.5 84.5t68 56.5t77 35q-35 18 -64.5 41.5t-48 61.5t-23 95.5t10.5 141.5
q8 44 11.5 81t-7.5 64t-41.5 42.5t-89.5 15.5h-63l16 88h103q68 0 109.5 -23.5t62 -62t23 -88t-6.5 -101.5q-13 -76 -14.5 -133t17.5 -94.5t62 -56.5t119 -19z" />
    <glyph glyph-name="asciitilde" unicode="~" horiz-adv-x="993" 
d="M934 602q-19 -96 -55 -171q-15 -32 -36 -63t-48 -55t-61 -38.5t-75 -14.5q-58 0 -94.5 17.5t-61 44t-40.5 57.5t-32.5 57.5t-38 44t-56.5 17.5q-23 0 -42 -10.5t-34.5 -27.5t-28 -39t-22.5 -44q-23 -54 -37 -121h-104q21 97 59 174q16 33 37 64t48 55.5t59.5 39.5
t72.5 15q53 0 89 -18t61.5 -45t45 -59t38 -59t40.5 -45t54 -18q23 0 42 10.5t35 27.5t28 38.5t21 44.5q21 53 33 121h103v0z" />
    <glyph glyph-name="quotedbl" unicode="&#x22;" horiz-adv-x="580" 
d="M494 635h-82l39 377h135zM254 635h-80l39 377h133z" />
    <glyph glyph-name="exclam" unicode="!" horiz-adv-x="498" 
d="M279 266h-105l107 703h137zM274 72q-3 -17 -12.5 -32t-23 -26t-29.5 -17.5t-33 -6.5q-34 0 -54 23.5t-13 58.5q6 34 34 59t62 25q17 0 31 -7t23.5 -18.5t13.5 -26.5t1 -32z" />
    <glyph glyph-name="guillemotleft" unicode="&#xab;" horiz-adv-x="578" 
d="M414 365l57 -209l-61 -37l-115 246l203 245l49 -35zM180 365l168 -281l-59 -41l-240 322l352 323l48 -41z" />
    <glyph glyph-name="logicalnot" unicode="&#xac;" horiz-adv-x="737" 
d="M639 119v178h-624v90h706v-268h-82z" />
    <glyph glyph-name="registered" unicode="&#xae;" horiz-adv-x="1032" 
d="M1030 487q-18 -104 -73.5 -194.5t-135 -158.5t-177 -107t-200.5 -39q-104 0 -188 39t-140.5 107t-79.5 158.5t-5 194.5t73.5 194.5t136 158t178.5 106.5t202 39q103 0 186.5 -39t139 -106.5t78.5 -158t5 -194.5zM956 487q15 88 -4.5 165.5t-67 135t-119 90.5t-159.5 33
q-59 0 -116.5 -15t-110 -42.5t-98 -66t-81.5 -85.5t-61 -101.5t-35 -113.5q-15 -89 4.5 -166.5t67.5 -135.5t120 -91t161 -33q87 0 170.5 33t151 91t115 135.5t62.5 166.5zM782 621q-11 -63 -56 -108.5t-120 -59.5l152 -265h-107l-139 256h-98l-45 -256h-88l106 607h207
q42 0 79.5 -5.5t69.5 -27.5q31 -26 40 -59.5t-1 -81.5zM694 621q5 23 1 46.5t-19 37.5q-9 7 -21.5 11t-26 6.5t-27.5 3.5t-26 1h-110l-39 -213h123q23 0 52 6.5t52 26.5q19 15 27.5 31.5t13.5 42.5z" />
    <glyph glyph-name="degree" unicode="&#xb0;" horiz-adv-x="541" 
d="M266 915q43 0 80.5 -16t65 -43t43.5 -64t16 -79t-16 -79t-43.5 -64.5t-65 -43.5t-80.5 -16q-41 0 -77 15.5t-63.5 43t-43.5 64.5t-16 80q0 40 15.5 77t42.5 64.5t63.5 44t78.5 16.5zM266 858q-31 0 -57.5 -11t-46 -30.5t-30.5 -46t-11 -57.5q0 -30 11.5 -57t31 -47
t46 -32t56.5 -12q61 0 105 43q45 46 45 105q0 30 -12 56.5t-32.5 46t-47.5 31t-58 11.5z" />
    <glyph glyph-name="paragraph" unicode="&#xb6;" horiz-adv-x="727" 
d="M629 -244h-62v1356h-145v-1356h-55v805q-168 0 -263 62q-104 74 -104 235q0 153 94 229q90 66 248 66h389v-41h-102v-1356z" />
    <glyph glyph-name="periodcentered" unicode="&#xb7;" horiz-adv-x="338" 
d="M170 520q31 0 51.5 -21.5t20.5 -49.5q0 -31 -21.5 -52.5t-50.5 -21.5q-33 0 -53.5 20.5t-20.5 53.5q0 30 20.5 50.5t53.5 20.5z" />
    <glyph glyph-name="periodcentered" unicode="&#x2219;" horiz-adv-x="338" 
d="M170 520q31 0 51.5 -21.5t20.5 -49.5q0 -31 -21.5 -52.5t-50.5 -21.5q-33 0 -53.5 20.5t-20.5 53.5q0 30 20.5 50.5t53.5 20.5z" />
    <glyph glyph-name="guillemotright" unicode="&#xbb;" horiz-adv-x="578" 
d="M162 43l-47 41l266 281l-166 282l59 41l238 -323zM66 119l-50 37l131 209l-55 210l62 35l112 -245z" />
    <glyph glyph-name="multiply" unicode="&#xd7;" horiz-adv-x="737" 
d="M420 342l207 -252l-78 -63l-205 249l-295 -249l-51 65l291 250l-203 248l74 65l207 -247l295 249l53 -65z" />
    <glyph glyph-name="divide" unicode="&#xf7;" horiz-adv-x="737" 
d="M481 592q-3 -15 -12.5 -30t-22.5 -26.5t-29 -18.5t-32 -7q-15 0 -29 7t-23.5 18.5t-14 26.5t-1.5 30q3 16 12.5 31t23 26t29.5 18t32 7t29.5 -7t23 -18t13.5 -26t1 -31zM666 295h-635l16 92h635zM393 90q-2 -15 -11.5 -30t-23 -26.5t-29.5 -18.5t-32 -7q-15 0 -28.5 7
t-23 18.5t-14 26.5t-2.5 30q3 16 12.5 31t23 26t29.5 18t32 7t29.5 -7t23 -18t13.5 -26t1 -31z" />
    <glyph glyph-name="uni0E00" unicode="&#xe00;" horiz-adv-x="205" 
 />
    <glyph glyph-name="uni0E01" unicode="&#xe01;" horiz-adv-x="737" 
d="M604 0h-115l103 575q8 46 -4.5 76t-37.5 48t-58 25t-66 7t-68.5 -7t-66 -25t-53.5 -48t-31 -76l-103 -575h-114l104 588q12 70 50.5 117.5t89 76t106.5 40.5t104 12q49 0 101 -12t92.5 -40.5t62 -76t9.5 -117.5z" />
    <glyph glyph-name="uni0E02" unicode="&#xe02;" horiz-adv-x="637" 
d="M506 12q-128 -27 -225 -15t-158.5 59t-84.5 128t-3 193q12 67 40 122t63 97.5t72 72t66 44.5l-59 75l113 39l82 -112q-42 -18 -83.5 -49t-77.5 -74t-63 -97t-38 -118q-14 -81 1 -138t51 -91.5t89 -47t115 -4.5l129 723h114z" />
    <glyph glyph-name="uni0E03" unicode="&#xe03;" horiz-adv-x="637" 
d="M506 12q-128 -27 -225 -15.5t-158 58t-84 127t-4 191.5q9 52 29 99.5t45.5 88t55 73t58.5 54.5l-119 62l84 79l76 -55l84 55l72 -79q-43 -23 -86.5 -61t-81 -87.5t-65 -108t-37.5 -120.5q-14 -79 1 -135t51 -90t89 -47t115 -5l129 723h114z" />
    <glyph glyph-name="uni0E04" unicode="&#xe04;" horiz-adv-x="758" 
d="M625 0h-115l102 575q9 46 -4.5 76t-39.5 48t-61.5 25t-70.5 7t-71.5 -7t-68.5 -25t-56 -48t-33 -76l-17 -81h213l-16 -103h-213l-70 -391h-114l104 588q12 70 52 117t92.5 75.5t110.5 41t106 12.5q50 0 103.5 -12.5t95.5 -41t64.5 -75.5t10.5 -117z" />
    <glyph glyph-name="uni0E05" unicode="&#xe05;" horiz-adv-x="758" 
d="M625 0h-115l104 590q10 49 -5.5 83t-49.5 48l-141 -92l-109 92q-40 -14 -65.5 -48t-34.5 -83l-19 -96h213l-16 -103h-213l-70 -391h-114l106 600q17 93 85 155.5t177 73.5l82 -69l109 69q105 -11 152 -73.5t30 -155.5z" />
    <glyph glyph-name="uni0E06" unicode="&#xe06;" horiz-adv-x="758" 
d="M668 244q-12 -68 -39.5 -116.5t-66 -79.5t-85.5 -45.5t-98 -14.5q-42 0 -76.5 11.5t-63.5 30t-52 41.5t-42 46l-20 -117h-115l88 502q7 40 26.5 72.5t43 57.5t47.5 41t39 23l-23 23l-65 -51l-105 92l82 63l54 -47l71 51l111 -110l-46 -36t-50 -48t-43 -58.5t-25 -66.5
l-37 -203q-6 -34 6.5 -71.5t40.5 -69.5t69.5 -53t92.5 -21q66 0 109.5 38t58.5 122l100 569h115z" />
    <glyph glyph-name="uni0E07" unicode="&#xe07;" horiz-adv-x="659" 
d="M625 440q-20 -111 -66.5 -199t-119.5 -147t-171.5 -85t-220.5 -13l23 749l123 80l-27 -721q59 -3 115 19t102 65.5t79 107t48 144.5q25 137 -24.5 211.5t-184.5 73.5l18 100q86 4 151.5 -17t106 -68.5t53.5 -122t-5 -177.5z" />
    <glyph glyph-name="uni0E08" unicode="&#xe08;" horiz-adv-x="655" 
d="M616 418q-19 -108 -65.5 -193.5t-122 -141.5t-182 -78.5t-246.5 -4.5l96 543l-12 49h135l-88 -500q79 0 142 23t109.5 65.5t76.5 102.5t43 135q17 94 -9.5 159t-85.5 100t-145 41t-188 -16l20 109q137 28 243 13.5t175 -67t96.5 -139t7.5 -200.5z" />
    <glyph glyph-name="uni0E09" unicode="&#xe09;" horiz-adv-x="743" 
d="M610 0h-114l14 86q-18 -16 -44 -33.5t-58 -31.5t-70.5 -23.5t-83.5 -9.5q-42 0 -86.5 8.5t-78.5 34t-50.5 71.5t-3.5 121l47 266l-12 50h135l-53 -306q-8 -45 0.5 -73.5t27 -44t44 -21.5t52.5 -6q50 0 96 18t82.5 46t60.5 62.5t30 68.5l49 272q15 85 -39 130.5t-170 45.5
q-40 0 -80.5 -8t-78.5 -22.5t-73.5 -34t-64.5 -43.5l21 125q17 11 46.5 26t67.5 28.5t84 22.5t96 9q93 0 156.5 -19.5t100 -56t47.5 -89t0 -118.5z" />
    <glyph glyph-name="uni0E0A" unicode="&#xe0a;" horiz-adv-x="657" 
d="M461 711q33 -15 65.5 -42.5t55.5 -68.5t32.5 -95.5t-2.5 -123.5q-21 -115 -76 -197.5t-136.5 -130.5t-185.5 -60t-222 15l133 762l-10 49h135l-129 -727q61 -8 122 5.5t112.5 49.5t89.5 94.5t53 139.5q10 60 0.5 108t-36 86.5t-69 67.5t-96.5 51l176 125h160z" />
    <glyph glyph-name="uni0E0B" unicode="&#xe0b;" horiz-adv-x="678" 
d="M481 711q33 -15 65.5 -42.5t56 -68.5t33 -95.5t-2.5 -123.5q-21 -115 -76 -197.5t-136.5 -130.5t-186 -60t-222.5 15l107 608q2 11 8.5 22.5t13.5 19.5q8 10 17 18l-113 86l82 67l76 -59l86 59l69 -63q-18 -12 -38 -27.5t-37.5 -34.5t-30.5 -42.5t-19 -51.5l-92 -518
q61 -8 122 5.5t112.5 49.5t89.5 94.5t53 139.5q11 60 1.5 108t-36.5 86.5t-69 67.5t-97 51l177 125h159z" />
    <glyph glyph-name="uni0E0C" unicode="&#xe0c;" horiz-adv-x="1176" 
d="M1085 242q-14 -78 -44 -127t-69 -77.5t-83.5 -39t-87.5 -10.5q-31 0 -60 8t-53 21.5t-42.5 31t-27.5 35.5l-14 -84h-115l103 575q7 45 -7 76t-40.5 49.5t-61 26.5t-67.5 8q-29 0 -60.5 -5.5t-61 -17t-55.5 -29t-44 -42.5l81 -59q-38 -22 -61.5 -57t-28.5 -60l-63 -363h86
l-19 -102h-200l84 471q3 18 11.5 33t20 27t23.5 20.5t21 13.5l-84 56q28 62 72.5 103t96 65.5t105 34.5t98.5 10q54 0 107.5 -13t93 -42.5t60 -77t8.5 -117.5l-54 -301q-6 -34 2 -68.5t28.5 -62.5t53.5 -46t78 -18q54 0 98 38t60 126l100 567h115z" />
    <glyph glyph-name="uni0E0D" unicode="&#xe0d;" horiz-adv-x="1176" 
d="M1053 57q-13 -72 -45.5 -124t-77.5 -85t-99 -49t-110 -16h-229l-33 104h280q37 0 70.5 12t59.5 34.5t44 54t25 69.5q-12 -8 -31 -19.5t-44.5 -22t-58.5 -18t-75 -7.5q-43 0 -84 11.5t-70.5 39t-43 74t-1.5 116.5l62 344q8 45 -6 76t-41 49.5t-61.5 26.5t-67.5 8
q-29 0 -60.5 -5.5t-61 -17t-55.5 -29t-44 -42.5l81 -59q-38 -22 -61.5 -57t-28.5 -60l-63 -363h86l-19 -102h-200l84 471q3 18 11.5 33t20 27t23.5 20.5t21 13.5l-84 56q28 62 72.5 103t96 65.5t105 34.5t98.5 10q54 0 107.5 -13t93 -42.5t60 -77t8.5 -117.5l-60 -340
q-8 -44 -1 -73t23.5 -46t40.5 -24t52 -7q31 0 65 11.5t64.5 34t53.5 56.5t32 80l96 543h115z" />
    <glyph glyph-name="uni0E0E" unicode="&#xe0e;" horiz-adv-x="768" 
d="M582 -307h-99l-116 119l-158 -119h-207l-35 96h211l211 154l103 -101l131 733q8 45 -6 76t-41 49.5t-62 26.5t-68 8q-29 0 -60 -5.5t-61 -17t-56 -29t-44 -42.5l82 -59q-19 -11 -34.5 -26t-27 -31t-19 -32t-9.5 -28l-82 -465h-196l18 102h82l65 369q3 18 12 33t20.5 27
t23 20.5t20.5 13.5l-84 56q28 62 73 103t96.5 65.5t105 34.5t98.5 10q54 0 107 -13t93 -42.5t60 -77t8 -117.5z" />
    <glyph glyph-name="uni0E0F" unicode="&#xe0f;" horiz-adv-x="768" 
d="M582 -307h-115l-68 110l-127 -129l-86 129l-110 -110h-139l-33 104h141l170 152l82 -123l131 123l66 -96l129 722q8 45 -6 76t-41 49.5t-62 26.5t-68 8q-29 0 -60 -5.5t-61 -17t-56 -29t-44 -42.5l82 -59q-19 -11 -34.5 -26t-27 -31t-19 -32t-9.5 -28l-82 -465h-196
l18 102h82l65 369q3 18 12 33t20.5 27t23 20.5t20.5 13.5l-84 56q28 62 73 103t96.5 65.5t105 34.5t98.5 10q54 0 107 -13t93 -42.5t60 -77t8 -117.5z" />
    <glyph glyph-name="uni0E10" unicode="&#xe10;" horiz-adv-x="655" 
d="M537 735q55 -52 76.5 -133t2.5 -184q-19 -108 -65.5 -193.5t-122 -141.5t-182 -78.5t-246.5 -4.5l96 543l-12 49h135l-88 -500q79 0 142 23t109.5 65.5t76.5 102.5t43 135q17 94 -9.5 159t-85.5 100t-145 41t-188 -16l20 109q113 23 206 17.5t161 -40.5l51 62h127z
M475 -307h-98l-66 84l-104 -99l-72 99l-94 -84h-115l-37 84h115l158 125l67 -90l103 90l53 -68l14 84l-14 41h135z" />
    <glyph glyph-name="uni0E11" unicode="&#xe11;" horiz-adv-x="778" 
d="M645 0h-115l105 592q4 26 6 50t-2 42t-15 28.5t-32 10.5q-15 0 -34.5 -13t-41.5 -34.5t-45.5 -49.5t-44.5 -59l-58.5 -86t-62.5 -100.5l-60.5 -106.5l-53.5 -102t-40.5 -87.5t-21.5 -64.5l-4 -20h-115l88 502q7 40 26.5 72.5t43 57.5t47.5 41t39 23l-23 23l-65 -51
l-105 92l82 63l54 -47l71 51l111 -110l-46 -36t-50 -48t-43 -58.5t-25 -66.5l-8 -45q-2 -15 -10.5 -45l-16.5 -61q-11 -36 -22 -76h4q14 39 29 75l27 63t28 54q21 37 46 75t50 70q35 46 69.5 84t68.5 65.5t67 42.5t65 15q48 0 79 -16t47.5 -45.5t19 -70.5t-5.5 -91z" />
    <glyph glyph-name="uni0E12" unicode="&#xe12;" horiz-adv-x="1217" 
d="M1126 242q-14 -78 -44 -127t-69 -77.5t-83.5 -39t-87.5 -10.5q-31 0 -60 8t-53 21.5t-42.5 31t-27.5 35.5l-14 -84h-115l123 694l-114 -90l-117 113q-44 -14 -87.5 -42t-80 -68.5t-62.5 -91t-36 -109.5q-14 -78 -1 -140.5t50 -103.5t95 -57.5t134 -2.5l-18 -106
q-116 -14 -195.5 13.5t-124.5 84.5t-58 138t3 174q15 84 53 154.5t94.5 125t127.5 92.5t151 56l96 -99l113 84h115l-97 -536q-6 -34 2 -68.5t28.5 -62.5t53.5 -46t78 -18q54 0 98 38t60 126l100 567h115z" />
    <glyph glyph-name="uni0E13" unicode="&#xe13;" horiz-adv-x="1176" 
d="M1042 0h-114l14 84q-15 -18 -39 -35.5t-53 -31t-60.5 -21.5t-62.5 -8q-43 0 -84 10.5t-70 39t-42 77.5t1 127l60 333q7 45 -7 76t-40.5 49.5t-61 26.5t-67.5 8q-29 0 -60.5 -5.5t-61 -17t-55.5 -29t-44 -42.5l81 -59q-38 -22 -61.5 -57t-28.5 -60l-63 -363h86l-19 -102
h-200l84 471q3 18 11.5 33t20 27t23.5 20.5t21 13.5l-84 56q28 62 72.5 103t96 65.5t105 34.5t98.5 10q54 0 107.5 -13t93 -42.5t60 -77t8.5 -117.5l-58 -332q-8 -44 -3 -75t19 -51t36 -29t49 -9q44 0 83 18t69 46t49.5 62.5t25.5 68.5l96 536h115z" />
    <glyph glyph-name="uni0E14" unicode="&#xe14;" horiz-adv-x="778" 
d="M645 0h-115l127 717l-163 4q-60 1 -116.5 -24.5t-102 -69.5t-77.5 -101.5t-42 -119.5q-14 -78 -1 -140.5t50 -103.5t95 -57.5t134 -2.5l-18 -106q-116 -14 -195.5 13.5t-124.5 84.5t-58 138t3 174q15 86 58.5 162.5t107 133.5t143.5 89.5t170 31.5l271 -4z" />
    <glyph glyph-name="uni0E15" unicode="&#xe15;" horiz-adv-x="778" 
d="M645 0h-115l123 694l-114 -90l-117 113q-44 -14 -87.5 -42t-80 -68.5t-62.5 -91t-36 -109.5q-14 -78 -1 -140.5t50 -103.5t95 -57.5t134 -2.5l-18 -106q-116 -14 -195.5 13.5t-124.5 84.5t-58 138t3 174q15 84 53 154.5t94.5 125t127.5 92.5t151 56l96 -99l113 84h115z
" />
    <glyph glyph-name="uni0E16" unicode="&#xe16;" horiz-adv-x="737" 
d="M604 0h-115l103 575q7 45 -7 76t-40.5 49.5t-61 26.5t-67.5 8q-29 0 -60.5 -5.5t-61 -17t-55.5 -29t-44 -42.5l81 -59q-38 -22 -61.5 -57t-28.5 -60l-63 -363h86l-19 -102h-200l84 471q3 18 11.5 33t20 27t23.5 20.5t21 13.5l-84 56q28 62 72.5 103t96 65.5t105 34.5
t98.5 10q54 0 107.5 -13t93 -42.5t60 -77t8.5 -117.5z" />
    <glyph glyph-name="uni0E17" unicode="&#xe17;" horiz-adv-x="737" 
d="M604 0h-115l101 571q14 78 -12.5 120t-98.5 42q-55 0 -104 -21.5t-87 -53.5t-62.5 -70t-30.5 -72l-91 -516h-114l145 819h115l-21 -114q23 22 53 45t66 41.5t77.5 30.5t88.5 12q51 0 92.5 -14.5t67.5 -46t35.5 -80t-2.5 -115.5z" />
    <glyph glyph-name="uni0E18" unicode="&#xe18;" horiz-adv-x="709" 
d="M659 618q-43 54 -115.5 83.5t-160.5 29.5q-37 0 -71 -6t-61 -16.5t-44.5 -24.5t-20.5 -29q-4 -21 18 -35.5t59 -25.5t84 -20l95 -19q47 -10 89 -29t72 -50t43.5 -75t2.5 -104q-18 -103 -79 -167t-151 -97t-200.5 -38t-226.5 11l78 453h114l-63 -365q36 -2 78.5 -2
t85.5 5.5t84 18.5t75 36.5t58 59t33 85.5q7 42 -9 71.5t-47.5 50t-74.5 33.5t-89 21q-50 9 -97.5 20.5t-82.5 30t-53.5 48.5t-9.5 77q7 42 36 76t73.5 58t99.5 37.5t114 13.5q61 0 108.5 -9.5t83 -23.5t58.5 -31.5t35 -32.5z" />
    <glyph glyph-name="uni0E19" unicode="&#xe19;" horiz-adv-x="737" 
d="M604 0h-115l21 115q-23 -23 -53 -45.5t-66 -41.5t-77.5 -30.5t-88.5 -11.5q-51 0 -92.5 14.5t-67.5 45.5t-35 79.5t3 116.5l102 577h115l-103 -571q-14 -78 12.5 -120t98.5 -42q55 0 104.5 21t87.5 53.5t62.5 70.5t30.5 72l92 516h115z" />
    <glyph glyph-name="uni0E1A" unicode="&#xe1a;" horiz-adv-x="737" 
d="M645 231q-12 -71 -49.5 -118t-88 -75t-106.5 -40t-106 -12q-48 0 -100 12t-92.5 40t-62 75t-9.5 118l104 588h115l-103 -575q-8 -46 4 -76t36.5 -48t57.5 -25t68 -7t70.5 7t65.5 25t52.5 48t30.5 76l103 575h115z" />
    <glyph glyph-name="uni0E1B" unicode="&#xe1b;" horiz-adv-x="737" 
d="M645 231q-12 -71 -49.5 -118t-88 -75t-106.5 -40t-106 -12q-48 0 -100 12t-92.5 40t-62 75t-9.5 118l104 588h115l-103 -575q-8 -46 4 -76t36.5 -48t57.5 -25t68 -7t70.5 7t65.5 25t52.5 48t30.5 76l136 770h114z" />
    <glyph glyph-name="uni0E1C" unicode="&#xe1c;" horiz-adv-x="967" 
d="M707 0h-109l-78 610l-295 -610h-108l-33 819h258l-18 -104h-121l16 -518l279 577l-6 45h102l80 -622l239 622h117z" />
    <glyph glyph-name="uni0E1D" unicode="&#xe1d;" horiz-adv-x="967" 
d="M707 0h-109l-78 610l-295 -610h-108l-33 819h258l-18 -104h-121l16 -518l279 577l-6 45h102l80 -622l313 817h117z" />
    <glyph glyph-name="uni0E1E" unicode="&#xe1e;" horiz-adv-x="967" 
d="M707 0h-109l-78 610l-295 -610h-108l-33 819h117l18 -622l279 577l-6 45h102l80 -622l239 622h117z" />
    <glyph glyph-name="uni0E1F" unicode="&#xe1f;" horiz-adv-x="967" 
d="M707 0h-109l-78 610l-295 -610h-108l-33 819h117l18 -622l279 577l-6 45h102l80 -622l313 817h117z" />
    <glyph glyph-name="uni0E20" unicode="&#xe20;" horiz-adv-x="768" 
d="M635 0h-115l103 575q7 45 -7 76t-40.5 49.5t-61.5 26.5t-68 8q-29 0 -60 -5.5t-61 -17t-56 -29t-44 -42.5l82 -59q-19 -11 -34.5 -26t-27 -31t-19 -32t-9.5 -28l-82 -465h-196l18 102h82l65 369q3 18 12 33t20.5 27t23 20.5t20.5 13.5l-84 56q28 62 73 103t96.5 65.5
t105 34.5t98.5 10q54 0 107 -13t93 -42.5t60 -77t8 -117.5z" />
    <glyph glyph-name="uni0E21" unicode="&#xe21;" horiz-adv-x="737" 
d="M647 242q-12 -68 -38.5 -116.5t-63.5 -79.5t-83 -45.5t-97 -14.5q-47 0 -84.5 11.5t-67 30.5t-51.5 41.5t-37 45.5l-21 -115h-114l145 819h115l-92 -516q-6 -34 4.5 -72t37 -70.5t68 -53.5t97.5 -21q72 0 112.5 42t54.5 120l103 571h115z" />
    <glyph glyph-name="uni0E22" unicode="&#xe22;" horiz-adv-x="727" 
d="M594 0l-326 -4q-59 -1 -113 9t-92 38t-56 76.5t-5 124.5q10 57 33.5 97t51 66.5t54 41.5t43.5 22q-21 4 -41.5 16t-36 32t-23 48t-1.5 64q11 58 45 99t82.5 64.5t108.5 30t122 -5.5l-18 -102q-39 8 -77.5 7t-69.5 -12.5t-52 -33t-26 -53.5q-6 -31 6 -52t34 -33
t51.5 -15.5t59.5 1.5l25 -92q-41 4 -83 -6.5t-77.5 -34t-61 -58t-32.5 -79.5q-7 -41 -0.5 -69t22 -46.5t38 -28t48 -14t51.5 -5t48 0.5l170 4l129 721h114z" />
    <glyph glyph-name="uni0E23" unicode="&#xe23;" horiz-adv-x="655" 
d="M631 637q-42 46 -106 70t-138 24q-35 0 -69.5 -7t-62.5 -21t-47.5 -35.5t-25.5 -49.5q-5 -27 10.5 -45t43.5 -30t65 -19.5t76 -13.5q53 -9 98.5 -26t76.5 -46t44.5 -72.5t1.5 -107.5q-13 -74 -47 -125.5t-82 -83.5t-106 -46.5t-119 -14.5q-55 0 -97.5 7t-75 18t-55 24
t-36.5 26l22 121q40 -46 104.5 -70t137.5 -24q37 0 76.5 8t73 27.5t58.5 51t33 79.5q6 34 -1.5 59t-26 43t-47.5 30t-66 18q-54 8 -107.5 19.5t-95 34.5t-63 61t-10.5 100q9 50 39 89.5t74 67t97.5 42t110.5 14.5q56 0 98.5 -7.5t73.5 -19.5t53 -26t37 -27z" />
    <glyph glyph-name="uni0E24" unicode="&#xe24;" horiz-adv-x="737" 
d="M561 -246h-115l146 821q7 45 -7 76t-40.5 49.5t-61 26.5t-67.5 8q-29 0 -60.5 -5.5t-61 -17t-55.5 -29t-44 -42.5l81 -59q-38 -22 -61.5 -57t-28.5 -60l-63 -363h86l-19 -102h-200l84 471q3 18 11.5 33t20 27t23.5 20.5t21 13.5l-84 56q28 62 72.5 103t96 65.5t105 34.5
t98.5 10q54 0 107.5 -13t93 -42.5t60 -77t8.5 -117.5z" />
    <glyph glyph-name="uni0E25" unicode="&#xe25;" horiz-adv-x="743" 
d="M610 0h-114l90 510q-42 7 -90 7t-96.5 -8.5t-94 -26t-83 -45t-64 -66t-35.5 -88.5q-9 -53 5.5 -90.5t46 -59.5t76 -28.5t93.5 1.5l-18 -106q-76 -10 -141 2t-109 47t-63.5 93t-4.5 141q17 93 72.5 160t136 108t180 56.5t203.5 4.5q3 56 -49.5 87.5t-144.5 31.5
q-81 0 -157.5 -23t-152.5 -77l21 114q27 17 59.5 33t73 28.5t88 20t104.5 7.5q59 0 114 -12.5t94.5 -41t58 -75t6.5 -113.5z" />
    <glyph glyph-name="uni0E26" unicode="&#xe26;" horiz-adv-x="768" 
d="M592 -246h-115l146 821q7 45 -7 76t-40.5 49.5t-61.5 26.5t-68 8q-29 0 -60 -5.5t-61 -17t-56 -29t-44 -42.5l82 -59q-19 -11 -34.5 -26t-27 -31t-19 -32t-9.5 -28l-82 -465h-196l18 102h82l65 369q3 18 12 33t20.5 27t23 20.5t20.5 13.5l-84 56q28 62 73 103t96.5 65.5
t105 34.5t98.5 10q54 0 107 -13t93 -42.5t60 -77t8 -117.5z" />
    <glyph glyph-name="uni0E27" unicode="&#xe27;" horiz-adv-x="618" 
d="M578 410q-22 -122 -62 -203t-94 -129.5t-119.5 -69t-138.5 -20.5q-39 0 -70 6.5t-55.5 16t-44 22t-35.5 24.5l21 115q38 -46 91.5 -64t110.5 -18q49 0 93 15t80.5 52t64 98.5t43.5 154.5q17 93 11 154t-29 98t-62 52t-88 15q-57 0 -116 -18.5t-116 -63.5l21 115
q40 25 95.5 47t133.5 22q73 0 131.5 -20.5t95.5 -69t48 -129.5t-10 -202z" />
    <glyph glyph-name="uni0E28" unicode="&#xe28;" horiz-adv-x="758" 
d="M662 776q37 -29 58 -75.5t9 -112.5l-104 -588h-115l102 575q9 46 -4.5 76t-39.5 48t-61.5 25t-70.5 7t-71.5 -7t-68.5 -25t-56 -48t-33 -76l-12 -61h213l-19 -102h-213l-72 -412h-114l104 588q12 70 52 117t92.5 75.5t110.5 41t106 12.5q28 0 57 -4t57 -13l47 64h121z
" />
    <glyph glyph-name="uni0E29" unicode="&#xe29;" horiz-adv-x="758" 
d="M739 424h-61l-33 -193q-12 -71 -49.5 -118t-88 -75t-106.5 -40t-106 -12q-48 0 -100 12t-92.5 40t-62 75t-9.5 118l104 588h115l-103 -575q-8 -46 4 -76t36.5 -48t57.5 -25t68 -7t70.5 7t66 25t52.5 48t30 76l31 180h-192l24 135l78 -33h109l53 293h115l-54 -293h103z
" />
    <glyph glyph-name="uni0E2A" unicode="&#xe2a;" horiz-adv-x="743" 
d="M653 778q39 -29 56.5 -74.5t5.5 -111.5l-105 -592h-114l90 510q-42 7 -90 7t-96.5 -8.5t-94 -26t-83 -45t-64 -66t-35.5 -88.5q-9 -53 5.5 -90.5t46 -59.5t76 -28.5t93.5 1.5l-18 -106q-76 -10 -141 2t-109 47t-63.5 93t-4.5 141q17 93 72.5 160t136 108t180 56.5
t203.5 4.5q3 56 -49.5 87.5t-144.5 31.5q-81 0 -157.5 -23t-152.5 -77l21 114q27 17 59.5 33t73 28.5t88 20t104.5 7.5q64 0 123 -15l43 62h121z" />
    <glyph glyph-name="uni0E2B" unicode="&#xe2b;" horiz-adv-x="737" 
d="M578 680q61 -19 93.5 -65.5t18.5 -127.5l-86 -487h-115l82 463q11 59 -7 97t-75 56l-139 -104l-55 -42l-52.5 -40.5l-43.5 -35.5l-29 -25l-66 -369h-114l145 819h115l-55 -307l409 307h158z" />
    <glyph glyph-name="uni0E2C" unicode="&#xe2c;" horiz-adv-x="967" 
d="M1110 969q-22 -66 -71 -95.5t-117 -29.5q17 -7 31.5 -23t22 -38.5t7 -51.5t-13.5 -63l-262 -668h-109l-78 610l-295 -610h-108l-33 819h117l18 -622l279 577l-6 45h102l80 -622l182 473q12 31 8.5 58.5t-18.5 47.5t-39 31.5t-51 11.5h-78l49 105h43q32 0 69.5 -1t71.5 4
t58.5 18t31.5 42l7 27h116z" />
    <glyph glyph-name="uni0E2D" unicode="&#xe2d;" horiz-adv-x="795" 
d="M754 410q-20 -111 -62 -191.5t-100 -132t-127.5 -76t-142.5 -24.5q-72 0 -132.5 24.5t-99.5 76t-53.5 132t4.5 191.5q5 27 12 55t23 70h250l-19 -105h-147q-2 -5 -2 -9.5t-2 -10.5q-15 -83 -7.5 -143.5t32.5 -100t66 -59t93 -19.5q53 0 101 19.5t87 59t67.5 100
t43.5 143.5q15 81 7.5 141.5t-33 100.5t-66.5 59.5t-94 19.5q-73 0 -133.5 -35t-102.5 -100h-121q31 63 73.5 108t91.5 74t102.5 42.5t107.5 13.5q74 0 135 -24.5t100.5 -76t53.5 -132t-6 -191.5z" />
    <glyph glyph-name="uni0E2E" unicode="&#xe2e;" horiz-adv-x="795" 
d="M680 762q26 -25 45 -59t29.5 -78t10.5 -97.5t-11 -117.5q-20 -111 -62 -191.5t-100 -132t-127.5 -76t-142.5 -24.5q-72 0 -132.5 24.5t-99.5 76t-53.5 132t4.5 191.5q5 27 12 55t23 70h250l-19 -105h-147q-2 -5 -2 -9.5t-2 -10.5q-15 -83 -7.5 -143.5t32.5 -100t66 -59
t93 -19.5q53 0 101 19.5t87 59t67.5 100t43.5 143.5q15 81 7.5 141.5t-33 100.5t-66.5 59.5t-94 19.5q-73 0 -133.5 -35t-102.5 -100h-121q31 63 73.5 108t91.5 74t102.5 42.5t107.5 13.5q69 0 125 -21l43 57h121z" />
    <glyph glyph-name="uni0E2F" unicode="&#xe2f;" horiz-adv-x="682" 
d="M549 0h-113l111 623q-23 -24 -54 -45.5t-68 -38t-78 -26t-83 -9.5q-41 0 -78 9.5t-64 29.5t-40.5 51t-5.5 74q5 31 24.5 57.5t47.5 47t62.5 34t70.5 18.5l71 -75q-69 -4 -113 -28.5t-51 -55.5q-3 -17 3.5 -28.5t19.5 -19t31.5 -10.5t38.5 -2q49 1 96 17t87.5 44t71 66.5
t46.5 85.5h112z" />
    <glyph glyph-name="uni0E30" unicode="&#xe30;" horiz-adv-x="299" 
d="M260 578h-188l26 149h115l-8 -47h125zM176 102h-188l26 150h115l-8 -47h125z" />
    <glyph glyph-name="uni0E31" unicode="&#xe31;" 
d="M209 922h-514l31 170h116l-14 -80h448z" />
    <glyph glyph-name="uni0E32" unicode="&#xe32;" horiz-adv-x="518" 
d="M385 0h-115l103 580q5 31 1 58.5t-20.5 48t-46 32.5t-74.5 12t-87 -10.5t-87 -36.5l19 107q34 17 77 30t99 13q79 0 128.5 -20.5t75.5 -55t32 -79.5t-3 -95z" />
    <glyph glyph-name="uni0E33" unicode="&#xe33;" horiz-adv-x="518" 
d="M106 1020q-4 -23 -16 -43t-30 -34t-41 -22t-48 -8q-50 0 -78 30t-20 77q8 46 46 76t89 30t78.5 -30t19.5 -76zM385 0h-115l103 580q5 31 1 58.5t-20.5 48t-46 32.5t-74.5 12t-87 -10.5t-87 -36.5l19 107q34 17 77 30t99 13q79 0 128.5 -20.5t75.5 -55t32 -79.5t-3 -95z
M43 1020q3 20 -10 34.5t-35 14.5t-40 -14.5t-21 -34.5q-4 -20 9.5 -34.5t35.5 -14.5q21 0 39.5 14.5t21.5 34.5z" />
    <glyph glyph-name="uni0E34" unicode="&#xe34;" 
d="M29 922h-615l68 90h563z" />
    <glyph glyph-name="uni0E35" unicode="&#xe35;" 
d="M29 922h-615l68 90h448l19 104h114z" />
    <glyph glyph-name="uni0E36" unicode="&#xe36;" 
d="M106 1024q-4 -23 -16.5 -41.5t-31.5 -32t-41.5 -21t-45.5 -7.5h-557l68 90h389q0 3 1 6t1 6q4 21 15.5 39.5t29.5 32.5t41 22t49 8q27 0 47 -8t33 -22t17.5 -32.5t0.5 -39.5zM41 1024q3 19 -9 32t-34 13q-20 0 -37 -13t-20 -32t9 -32t32 -13q21 0 38.5 13t20.5 32z" />
    <glyph glyph-name="uni0E37" unicode="&#xe37;" 
d="M29 922h-615l68 90h272l19 104h114l-18 -104h61l19 104h114z" />
    <glyph glyph-name="uni0E38" unicode="&#xe38;" 
d="M-193 -338h-114l26 154h-102l59 102h177z" />
    <glyph glyph-name="uni0E39" unicode="&#xe39;" 
d="M-170 -213q-6 -35 -24.5 -62t-45.5 -45.5t-60 -28t-69 -9.5t-65 9.5t-48.5 28t-28 45.5t-3.5 62l4 29h-82l60 102h155l-22 -131q-5 -26 11 -36.5t38 -10.5q21 0 40.5 10.5t24.5 36.5l23 131h115z" />
    <glyph glyph-name="uni0E3A" unicode="&#xe3a;" 
d="M-135 -166q-3 -17 -12.5 -32t-23.5 -26.5t-31 -18.5t-34 -7q-34 0 -53.5 25t-13.5 59q3 17 12.5 32t23 26.5t29.5 18.5t33 7q34 0 55 -25t15 -59z" />
    <glyph glyph-name="uni0E3F" unicode="&#xe3f;" horiz-adv-x="825" 
d="M768 756q-14 -79 -54.5 -126t-109.5 -79q44 -14 78 -37t56 -55.5t29.5 -75t-1.5 -94.5q-23 -130 -125 -203t-272 -84l-29 -164h-76l29 162h-273l170 969h263h10l29 161h75l-28 -165q58 -5 104.5 -18t77.5 -37.5t43.5 -62t3.5 -91.5zM637 721q11 62 -17 93.5t-100 39.5
l-49 -270q69 11 113 44t53 93zM295 858l-49 -278h149l49 278h-149zM641 285q9 50 -1.5 83.5t-36 54.5t-64.5 31t-88 13l-64 -358q42 2 84.5 13.5t77.5 33.5t59.5 54t32.5 75zM227 469l-63 -360h147l64 360h-148z" />
    <glyph glyph-name="uni0E40" unicode="&#xe40;" horiz-adv-x="319" 
d="M145 0h-114l145 819h115z" />
    <glyph glyph-name="uni0E41" unicode="&#xe41;" horiz-adv-x="567" 
d="M393 0h-114l145 819h115zM145 0h-114l145 819h115z" />
    <glyph glyph-name="uni0E42" unicode="&#xe42;" horiz-adv-x="360" 
d="M580 1130h-258q-14 0 -27 -5.5t-16 -16.5q15 -8 28 -18t21.5 -25.5t11.5 -37t-2 -52.5l-172 -975h-115l172 979q4 22 -1 37.5t-16 27t-26.5 20.5t-32.5 17q6 30 20.5 57t39 47t59.5 32t80 12h252z" />
    <glyph glyph-name="uni0E43" unicode="&#xe43;" horiz-adv-x="360" 
d="M453 1079q-17 -5 -36 -15.5t-35.5 -26t-29 -35.5t-16.5 -44l-170 -958h-115l170 961q6 31 18 53.5t28.5 39t36 27.5t38.5 19q-2 25 -22 41t-60 16q-21 0 -39.5 -6.5t-32.5 -17.5t-22 -26t-8 -32h-111q1 36 18 68.5t47 57.5t71.5 39.5t90.5 14.5q96 0 145 -44.5t34 -131.5
z" />
    <glyph glyph-name="uni0E44" unicode="&#xe44;" horiz-adv-x="360" 
d="M420 1114q-28 -15 -49 -40t-27 -62l-178 -1012h-115l178 1006q8 40 31 67t51 45q2 8 -10 12.5t-31 2.5l-82 -64q-19 18 -49 36q-26 14 -65.5 29.5t-96.5 24.5l107 76q51 -8 80 -21t43 -24l53 37q32 4 63.5 1t55 -16t35.5 -37t6 -61z" />
    <glyph glyph-name="uni0E45" unicode="&#xe45;" horiz-adv-x="518" 
d="M342 -246h-115l146 826q5 31 1 58.5t-20.5 48t-46 32.5t-74.5 12t-87 -10.5t-87 -36.5l19 107q34 17 77 30t99 13q79 0 128.5 -20.5t75.5 -55t32 -79.5t-3 -95z" />
    <glyph glyph-name="uni0E46" unicode="&#xe46;" horiz-adv-x="686" 
d="M510 -246h-115l162 922l-108 -96l-132 131q-21 -2 -43 -10.5t-40.5 -21.5t-32 -30.5t-17.5 -38.5q-5 -28 8.5 -46t36 -27t49.5 -10.5t50 3.5l-84 -96q-49 -2 -85.5 10.5t-59 36t-30.5 56.5t-1 73q7 43 33.5 81t68 66.5t95.5 45t116 16.5l90 -98l127 98h100z" />
    <glyph glyph-name="uni0E47" unicode="&#xe47;" 
d="M33 1110h-338q-53 0 -87.5 -18.5t-39.5 -42.5q-2 -9 0 -15t5 -11q4 -5 9 -9l185 65l202 -78l-16 -90l-201 80l-201 -76q-15 5 -31.5 15t-29 26.5t-18.5 39.5t0 53q5 28 22 55t45.5 48.5t68 34.5t89.5 13h405z" />
    <glyph glyph-name="uni0E48" unicode="&#xe48;" 
d="M74 1178h-115l29 153h114z" />
    <glyph glyph-name="uni0E49" unicode="&#xe49;" 
d="M168 1178h-295l8 43q3 18 -2.5 28.5t-25.5 10.5h-50l62 81h57q42 0 61 -15.5t11 -47.5l-4 -18h237z" />
    <glyph glyph-name="uni0E4A" unicode="&#xe4a;" 
d="M256 1178h-158l15 75q5 25 -4.5 41.5t-30.5 16.5h-6l-84 -47l-70 47q-22 0 -37.5 -16t-17.5 -38h74l-15 -79h-160l17 84q11 58 55 89t103 31h8l59 -39l68 39h12q59 0 91.5 -30t23.5 -90l-2 -5h118z" />
    <glyph glyph-name="uni0E4B" unicode="&#xe4b;" 
d="M178 1266h-94l-16 -88h-103l17 88h-95l13 67h94l14 88h103l-15 -88h94z" />
    <glyph glyph-name="uni0E4C" unicode="&#xe4c;" 
d="M102 1180h-53q-29 0 -48.5 -14.5t-23.5 -39.5l-2 -16h-106l6 43q3 24 15 43.5t31 34t44 22t53 7.5h142z" />
    <glyph glyph-name="uni0E4D" unicode="&#xe4d;" 
d="M106 1020q-4 -23 -16 -43t-30 -34t-41 -22t-48 -8q-50 0 -78 30t-20 77q8 46 46 76t89 30t78.5 -30t19.5 -76zM43 1020q3 20 -10 34.5t-35 14.5t-40 -14.5t-21 -34.5q-4 -20 9.5 -34.5t35.5 -14.5q21 0 39.5 14.5t21.5 34.5z" />
    <glyph glyph-name="uni0E4E" unicode="&#xe4e;" 
d="M217 1343q-55 8 -109.5 6.5t-98.5 -12t-73.5 -30t-33.5 -47.5q-3 -17 5 -28t22 -17t33 -7.5t38 0.5l-12 -75q-35 3 -78 -2t-80.5 -16.5t-64.5 -30t-31 -42.5q-3 -18 11 -28t38 -11.5t55.5 5.5t63.5 22l28 -67q-59 -29 -115 -36.5t-98 2t-65.5 36t-16.5 67.5q5 28 22.5 52
t44 43t60 32.5t70.5 20.5q-20 15 -25 37.5t-2 44.5q8 42 44 76.5t92.5 57.5t131 31.5t158.5 -0.5z" />
    <glyph glyph-name="uni0E4F" unicode="&#xe4f;" horiz-adv-x="942" 
d="M891 410q-15 -87 -61.5 -163.5t-113.5 -133.5t-149.5 -90t-169.5 -33t-157.5 33t-117.5 90t-66.5 133.5t-4.5 163.5t61.5 163t113.5 133t149.5 90t169.5 33t157.5 -33t117.5 -90t66.5 -133t4.5 -163zM829 410q13 73 -3.5 138.5t-56.5 114t-100.5 77t-133.5 28.5
q-74 0 -144.5 -28.5t-128 -77t-97 -114t-52.5 -138.5q-13 -74 3.5 -139.5t57 -114t100.5 -77t134 -28.5q73 0 143.5 28.5t128 77t97 114t52.5 139.5zM727 410q-9 -53 -37.5 -100t-69.5 -81.5t-91 -54.5t-103 -20t-96 20t-71.5 54.5t-40.5 81.5t-3 100t37.5 99.5t69.5 81.5
t91 55t103 20t96 -20t71.5 -55t40.5 -81.5t3 -99.5z" />
    <glyph glyph-name="uni0E50" unicode="&#xe50;" horiz-adv-x="737" 
d="M678 307q-12 -66 -48 -124t-88 -101.5t-116 -68.5t-131 -25q-68 0 -124 25t-93 68.5t-53 101.5t-5 124q12 66 48.5 124t89 101.5t117 69t133.5 25.5q67 0 122.5 -25.5t92.5 -69t52 -101.5t3 -124zM571 307q9 45 -1.5 85t-35.5 70t-63 47t-84 17q-47 0 -91 -17t-79.5 -47
t-60.5 -70t-33 -85t3 -85t36.5 -70t63.5 -47t85 -17q46 0 89.5 17t79 47t59.5 70t32 85z" />
    <glyph glyph-name="uni0E51" unicode="&#xe51;" horiz-adv-x="784" 
d="M727 311q-15 -86 -63.5 -154t-115.5 -117.5t-145.5 -80.5t-154.5 -43l-33 92q70 9 138.5 36t124 67.5t93 91.5t47.5 108q9 48 -4.5 88t-42.5 68t-71.5 43.5t-93.5 15.5q-47 0 -92.5 -14.5t-83 -41t-63.5 -63t-34 -79.5q-5 -33 1.5 -61.5t22 -49t40 -32t55.5 -9.5
q-16 16 -24.5 43.5t-2.5 61.5q6 29 21.5 54.5t38 45t50.5 30.5t58 11q31 0 55.5 -11t41 -30.5t23 -45t1.5 -54.5q-8 -45 -34 -82.5t-64.5 -65.5t-87.5 -43.5t-101 -15.5q-56 0 -98 19.5t-68.5 54t-35.5 81t0 99.5q12 68 51 123.5t94 94.5t121 60t131 21q75 0 136.5 -22
t103.5 -63t60 -99.5t5 -131.5zM424 281q5 26 -8.5 43.5t-38.5 17.5t-45 -17.5t-25 -43.5t10 -44t39 -18q25 0 44 18t24 44z" />
    <glyph glyph-name="uni0E52" unicode="&#xe52;" horiz-adv-x="1133" 
d="M1001 0h-886q7 75 11.5 139t5 122t-3 112.5t-11.5 109.5q-16 94 -54.5 173t-97.5 145l98 76q62 -75 106 -167.5t58 -191.5q16 -100 15 -203.5t-9 -218.5h676l62 340q4 22 -1 39.5t-15.5 29.5t-26 18.5t-33.5 6.5q-28 0 -57 -13t-54 -44l-55 -315h-108l55 319
q-19 28 -44.5 40.5t-56.5 12.5q-51 0 -88.5 -26.5t-50.5 -71.5q6 2 18 4t23 2q30 0 54.5 -10.5t41 -29t23.5 -44t2 -55.5q-5 -29 -21 -55t-39 -45t-51.5 -30t-58.5 -11q-29 0 -53 11t-40 30t-23.5 45t-2.5 55l21 125q7 45 32 83t60.5 65.5t79.5 43t90 15.5q51 0 92 -20
t61 -52q31 32 75.5 52t90.5 20q39 0 73.5 -13t58 -38t34 -60t2.5 -80zM512 299q5 26 -9 43.5t-40 17.5q-23 0 -44 -17.5t-26 -43.5q-2 -13 0.5 -24.5t9.5 -20t16.5 -13.5t20.5 -5q26 0 46.5 18.5t25.5 44.5z" />
    <glyph glyph-name="uni0E53" unicode="&#xe53;" horiz-adv-x="911" 
d="M778 0h-108l78 438q4 23 -2 40.5t-18.5 29.5t-30 18t-35.5 6q-28 0 -61.5 -13t-59.5 -44l-84 -475h-109l84 477q-15 31 -45.5 43t-64.5 12q-23 0 -48.5 -8.5t-47 -23t-37 -34.5t-19.5 -44l-25 -146q10 4 21 5.5t22 1.5q31 0 56.5 -12t43 -32t25.5 -47t2 -57
q-6 -32 -23 -58.5t-41 -45.5t-53.5 -30t-60.5 -11q-32 0 -57.5 11t-43 30t-24.5 45.5t-2 58.5l51 291q9 46 35 84t63 65t82 41.5t91 14.5q59 0 102.5 -19t71.5 -47q34 26 76 46t98 20q42 0 78 -11.5t61 -34t36 -56t3 -76.5zM225 135q5 28 -10 47t-41 19q-28 0 -48.5 -19
t-25.5 -47q-6 -28 9 -46.5t43 -18.5q26 0 46.5 18.5t26.5 46.5z" />
    <glyph glyph-name="uni0E54" unicode="&#xe54;" horiz-adv-x="840" 
d="M920 860q-10 -63 -36 -121.5t-65 -105t-88 -77.5t-106 -38q-32 -4 -58.5 -3t-52.5 3.5t-56 5t-69 2.5q-45 0 -88 -16t-78.5 -45t-60.5 -69.5t-33 -90.5q-8 -51 4 -91t37.5 -67.5t61.5 -42t77 -14.5q16 0 34 2.5t35 6t31.5 7.5l24.5 7q-18 10 -35 27t-29 39.5t-17.5 50
t-0.5 59.5q6 33 23 61.5t42 49t55 32.5t60 12q31 0 57 -11.5t43.5 -32t25 -48t1.5 -59.5q-9 -48 -39 -83t-65 -50q4 -6 15.5 -10t25 -6t26.5 -3t21 -2q16 -2 35.5 -5.5t38.5 -10.5t36 -17.5t29 -25.5l-75 -84q-26 15 -50 23.5t-45 13t-38 5.5t-27 1q-29 0 -56.5 -7.5
t-58 -17t-66.5 -17t-83 -7.5q-59 0 -112 19t-90.5 58t-55 98t-5.5 140q12 74 47.5 134t87.5 102t117 65t136 23q42 0 70.5 -2.5l52 -4.5t46.5 -2t54 5q32 4 61.5 26.5t53.5 55.5t40.5 73t24.5 80h109zM569 293q5 28 -9 46.5t-42 18.5q-26 0 -47.5 -18.5t-26.5 -46.5
t10.5 -47t41.5 -19q27 0 47.5 19t25.5 47z" />
    <glyph glyph-name="uni0E55" unicode="&#xe55;" horiz-adv-x="840" 
d="M920 860q-10 -63 -36 -121.5t-65 -105t-88 -77.5t-106 -38q-32 -4 -58.5 -3t-52.5 3.5t-56 5t-69 2.5q-45 0 -88 -16t-78.5 -45t-60.5 -69.5t-33 -90.5q-8 -51 4 -91t37.5 -67.5t61.5 -42t77 -14.5q16 0 34 2.5t35 6t31.5 7.5l24.5 7q-18 10 -35 27t-29 39.5t-17.5 50
t-0.5 59.5q6 33 23 61.5t42 49t55 32.5t60 12q31 0 57 -11.5t43.5 -32t25 -48t1.5 -59.5q-9 -48 -39 -83t-65 -50q4 -6 15.5 -10t25 -6t26.5 -3t21 -2q16 -2 35.5 -5.5t38.5 -10.5t36 -17.5t29 -25.5l-75 -84q-26 15 -50 23.5t-45 13t-38 5.5t-27 1q-29 0 -56.5 -7.5
t-58 -17t-66.5 -17t-83 -7.5q-59 0 -112 19t-90.5 58t-55 98t-5.5 140q10 64 38 118t70 95.5t95 68.5t113 36q-9 8 -20 30.5t-5 59.5q6 30 24 55t44.5 42.5t57.5 27.5t63 10t60 -9.5t47 -27t28 -42.5t4 -56q-6 -37 -27 -61.5t-37 -30.5q13 0 26.5 1t29.5 3q32 4 61.5 26.5
t53.5 55.5t40.5 73t24.5 80h109zM541 696q5 26 -11 45t-47 19t-51.5 -19t-25.5 -45t9.5 -44.5t45.5 -18.5t53 18.5t27 44.5zM569 293q5 28 -9 46.5t-42 18.5q-26 0 -47.5 -18.5t-26.5 -46.5t10.5 -47t41.5 -19q27 0 47.5 19t25.5 47z" />
    <glyph glyph-name="uni0E56" unicode="&#xe56;" horiz-adv-x="772" 
d="M715 315q-12 -72 -51 -132.5t-95.5 -104t-127 -68t-146.5 -24.5q-73 0 -129 21.5t-92 56.5t-51 80t-7 92q6 33 23 60.5t41.5 48t54.5 31.5t62 11q31 0 56.5 -11.5t42.5 -31.5t24 -47.5t2 -58.5q-8 -42 -33.5 -75.5t-67.5 -51.5q19 -11 43.5 -15t48.5 -4q52 0 101 16
t89 45.5t67.5 70.5t35.5 91q9 46 -2.5 85.5t-38 68t-67 45t-90.5 16.5q-45 0 -87.5 -9.5t-81.5 -26t-74.5 -39t-66.5 -47.5q6 63 -5 116.5t-32 99t-50 83t-60 69.5l96 66q37 -32 62.5 -66.5t42 -70.5t25 -71.5t13.5 -68.5q50 29 111 48.5t127 19.5q73 0 131.5 -23t97.5 -65
t54.5 -100.5t3.5 -129.5zM233 240q5 27 -10 46t-41 19t-47 -19t-26 -46q-7 -28 9 -47t42 -19t46.5 19t26.5 47z" />
    <glyph glyph-name="uni0E57" unicode="&#xe57;" horiz-adv-x="1137" 
d="M1188 860q-8 -106 -30 -208.5t-56 -194.5t-80 -171.5t-101 -141t-119 -101.5t-134 -53l80 448q4 23 -2 40.5t-18.5 29.5t-30 18t-35.5 6q-28 0 -61.5 -13t-59.5 -44l-84 -475h-109l84 477q-15 31 -45.5 43t-64.5 12q-23 0 -48.5 -8.5t-47 -23t-37 -34.5t-19.5 -44
l-25 -146q10 4 21 5.5t22 1.5q31 0 56.5 -12t43 -32t25.5 -47t2 -57q-6 -32 -23 -58.5t-41 -45.5t-53.5 -30t-60.5 -11q-32 0 -57.5 11t-43 30t-24.5 45.5t-2 58.5l51 291q9 46 35 84t63 65t82 41.5t91 14.5q59 0 102.5 -19t71.5 -47q34 26 76 46t98 20q42 0 78 -11.5
t61 -34t36 -56t3 -76.5l-51 -295q51 43 97 112t82.5 159t60 198.5t28.5 232.5h113zM225 135q5 28 -10 47t-41 19q-28 0 -48.5 -19t-25.5 -47q-6 -28 9 -46.5t43 -18.5q26 0 46.5 18.5t26.5 46.5z" />
    <glyph glyph-name="uni0E58" unicode="&#xe58;" horiz-adv-x="866" 
d="M913 831q-12 -49 -33 -97.5t-47 -93t-55 -82.5t-57 -66q-50 15 -115 26.5t-139 11.5q-68 0 -125.5 -16t-101.5 -45t-72 -69.5t-37 -88.5q-7 -39 -1.5 -70.5t19.5 -55t34 -38.5t42 -20l178 156l129 -164l19.5 10t17.5 10q-28 19 -39.5 50.5t-5.5 66.5q5 28 20 52.5t37 43
t49 29t56 10.5q28 0 51.5 -11.5t39 -30.5t22 -44t2.5 -53q-8 -41 -35 -79t-68 -72t-94.5 -62.5t-114.5 -50.5l-110 145l-158 -141q-45 7 -87 31.5t-71 64.5t-42 95.5t-1 123.5q12 71 49.5 130.5t96 102.5t135 67t168.5 24q90 0 144.5 -8t80.5 -13q14 18 29.5 42.5t30.5 54.5
t28.5 64.5t22.5 70.5zM715 256q5 23 -7.5 39t-35.5 16q-22 0 -39.5 -16t-22.5 -39t7.5 -39t33.5 -16q23 0 41 16t23 39z" />
    <glyph glyph-name="uni0E59" unicode="&#xe59;" horiz-adv-x="965" 
d="M1069 848q-4 -61 -22 -118t-44 -107t-57 -91.5t-61 -70.5q-11 38 -43 59.5t-74 16.5q-18 -3 -33.5 -11t-28.5 -19.5t-22.5 -25t-13.5 -26.5q21 -45 34 -97.5t20 -109.5t8 -118t-3 -124l-113 -16q4 62 3.5 127t-7.5 125.5t-22.5 114t-43 93t-68 62.5t-97.5 23
q-45 0 -86 -17t-75 -47t-57 -70t-32 -86q-12 -66 6 -118t56 -80q-8 24 0 51q5 31 22 58t41 47t53.5 32t61.5 12q31 0 56.5 -12t42.5 -32t24 -47t2 -58q-8 -42 -30 -75t-53 -56.5t-69.5 -36t-79.5 -12.5q-74 0 -124.5 28t-80 74t-38 106t3.5 123q12 71 47 130t85.5 102
t112.5 66.5t129 23.5q66 0 118.5 -24t92.5 -64q22 28 57 54t83 34q24 4 47 3.5t41.5 -4.5t32.5 -10.5t20 -13.5q23 42 41.5 99.5t23.5 132.5h113zM406 168q6 28 -9 46.5t-41 18.5t-46.5 -18.5t-26.5 -46.5q-5 -28 10 -47t41 -19t46.5 19t25.5 47z" />
    <glyph glyph-name="uni0E5A" unicode="&#xe5a;" horiz-adv-x="877" 
d="M743 0h-112l145 819h113zM549 0h-113l111 623q-23 -24 -54 -45.5t-68 -38t-78 -26t-83 -9.5q-41 0 -78 9.5t-64 29.5t-40.5 51t-5.5 74q5 31 24.5 57.5t47.5 47t62.5 34t70.5 18.5l71 -75q-69 -4 -113 -28.5t-51 -55.5q-3 -17 3.5 -28.5t19.5 -19t31.5 -10.5t38.5 -2
q49 1 96 17t87.5 44t71 66.5t46.5 85.5h112z" />
    <glyph glyph-name="uni0E5B" unicode="&#xe5b;" horiz-adv-x="1393" 
d="M1372 434q-2 -14 -23 -24.5t-38 -12.5l-105 -10q-9 -19 -25 -38t-34 -19q-8 0 -14.5 6.5t-12 16t-10.5 22l-10 24.5q-7 -16 -16.5 -32.5t-19.5 -29.5t-20.5 -21.5t-19.5 -8.5t-16 9.5t-13.5 24.5t-12.5 33.5t-11 37.5q-9 -23 -20 -45t-22.5 -40t-22.5 -29t-21 -11
t-17.5 12t-13.5 31t-11.5 43t-11.5 47q-11 -29 -25 -57t-29 -50.5t-29.5 -36.5t-26.5 -14q-20 0 -28.5 12t-10.5 41q-2 19 -2.5 46t-5.5 53q-14 -33 -32 -65.5t-38 -62t-41 -54.5t-41 -44q-57 -54 -120.5 -83t-125.5 -29q-60 0 -105.5 24.5t-73.5 69t-37.5 107t3.5 137.5
q13 72 43 134.5t71 108.5t91.5 72.5t104.5 26.5q43 0 78.5 -19t59 -52.5t32.5 -79t0 -99.5q-8 -42 -24.5 -77.5t-39.5 -60.5t-50.5 -39t-57.5 -14q-26 0 -46.5 11t-34 29t-18.5 42.5t0 51.5t19 51t34 43t43.5 30t47.5 11h10.5t9.5 -2q-9 37 -29.5 58.5t-48.5 21.5
q-32 0 -62.5 -18.5t-57 -52t-46.5 -81t-30 -104.5q-10 -56 -4 -100t24.5 -74.5t49 -47t69.5 -16.5q47 0 93 24.5t87.5 70t76.5 110t60 143.5q16 49 31 65.5t41 16.5q11 0 22 -11.5t20.5 -32t18 -47.5t13.5 -58l17.5 50.5t17.5 41.5t19 28.5t22 10.5q9 0 19 -9t20 -24.5
t18.5 -37.5t13.5 -48q13 32 29.5 57t30.5 25q23 0 41 -29.5t35 -77.5q14 31 30.5 54.5t36.5 23.5q16 0 29 -18.5t22 -44.5q11 15 23 22.5t29 5.5l108 -14q19 -3 34 -12.5t13 -18.5zM442 449q5 26 -7 43.5t-32 17.5q-18 0 -36 -17t-23 -44q-5 -26 6.5 -43t30.5 -17
q20 0 38 17t23 43z" />
    <glyph glyph-name="endash" unicode="&#x2013;" horiz-adv-x="737" 
d="M666 295h-635l16 92h635z" />
    <glyph glyph-name="emdash" unicode="&#x2014;" horiz-adv-x="1475" 
d="M1403 295h-1372l16 92h1372z" />
    <glyph glyph-name="quoteleft" unicode="&#x2018;" horiz-adv-x="387" 
d="M383 993q-45 -24 -76 -53t-51 -63q5 1 11 2q5 1 11 1.5t13 0.5q34 0 56.5 -24.5t14.5 -61.5q-3 -19 -13 -36.5t-25 -31t-33.5 -21.5t-38.5 -8q-51 0 -73 34.5t-13 86.5q4 23 15.5 50t32.5 55t51.5 55t72.5 51l45 -37v0z" />
    <glyph glyph-name="quoteright" unicode="&#x2019;" horiz-adv-x="387" 
d="M383 909q-4 -23 -15.5 -50t-32.5 -54.5t-51.5 -55t-72.5 -51.5l-45 37q45 25 75 54t50 63q-6 -1 -11 -2t-10.5 -1.5t-11.5 -0.5q-34 0 -57 24.5t-17 61.5q4 18 15 35.5t26 31t33.5 21.5t38.5 8q51 0 73 -34t13 -87z" />
    <glyph glyph-name="quotedblleft" unicode="&#x201c;" horiz-adv-x="659" 
d="M655 993q-45 -24 -76 -53t-51 -63q5 1 11 2q5 1 11.5 1.5t12.5 0.5q17 0 31.5 -6.5t25 -18t15 -27.5t0.5 -34q-3 -19 -13 -36.5t-25 -31t-34 -21.5t-39 -8q-51 0 -73 34.5t-13 86.5q4 23 16 50t33 55t51.5 55t71.5 51zM383 993q-45 -24 -76 -53t-51 -63q5 1 11 2
q5 1 11 1.5t13 0.5q34 0 56.5 -24.5t14.5 -61.5q-3 -19 -13 -36.5t-25 -31t-33.5 -21.5t-38.5 -8q-51 0 -73 34.5t-13 86.5q4 23 15.5 50t32.5 55t51.5 55t72.5 51z" />
    <glyph glyph-name="quotedblright" unicode="&#x201d;" horiz-adv-x="659" 
d="M655 909q-4 -23 -15.5 -50t-32.5 -54.5t-51.5 -55t-72.5 -51.5l-45 37q45 25 75 54t50 63l-10 -2t-11 -1.5t-12 -0.5q-34 0 -56.5 24.5t-16.5 61.5q4 18 14.5 35.5t25.5 31t33.5 21.5t38.5 8q51 0 73.5 -34t12.5 -87zM383 909q-4 -23 -15.5 -50t-32.5 -54.5t-51.5 -55
t-72.5 -51.5l-45 37q45 25 75 54t50 63q-6 -1 -11 -2t-10.5 -1.5t-11.5 -0.5q-34 0 -57 24.5t-17 61.5q4 18 15 35.5t26 31t33.5 21.5t38.5 8q51 0 73 -34t13 -87z" />
    <glyph glyph-name="bullet" unicode="&#x2022;" horiz-adv-x="737" 
d="M676 410q-11 -64 -45 -120t-83 -98t-109 -66t-124 -24t-115.5 24t-86 66t-49 98t-3.5 120q12 64 46 120t83.5 97.5t109.5 65.5t124 24t115.5 -24t86 -65.5t48.5 -97.5t2 -120z" />
    <glyph glyph-name="ellipsis" unicode="&#x2026;" horiz-adv-x="989" 
d="M848 72q-3 -17 -12.5 -32t-23 -26t-29.5 -17.5t-33 -6.5q-34 0 -54 23.5t-14 58.5q6 34 34 59t62 25t55 -25t15 -59zM518 72q-3 -17 -12.5 -32t-23 -26t-29.5 -17.5t-33 -6.5q-34 0 -54 23.5t-14 58.5q6 34 34 59t63 25q34 0 54.5 -25t14.5 -59zM188 72q-3 -17 -12.5 -32
t-23 -26t-29.5 -17.5t-33 -6.5q-34 0 -54 23.5t-13 58.5q6 34 34 59t62 25q17 0 31 -7t23.5 -18.5t13.5 -26.5t1 -32z" />
    <glyph glyph-name="thothannobasethai" unicode="&#xf700;" horiz-adv-x="655" 
d="M537 735q55 -52 76.5 -133t2.5 -184q-19 -108 -65.5 -193.5t-122 -141.5t-182 -78.5t-246.5 -4.5l96 543l-12 49h135l-88 -500q79 0 142 23t109.5 65.5t76.5 102.5t43 135q17 94 -9.5 159t-85.5 100t-145 41t-188 -16l20 109q113 23 206 17.5t161 -40.5l51 62h127z" />
    <glyph glyph-name="saraileftthai" unicode="&#xf701;" 
d="M-168 922h-573l67 90h522z" />
    <glyph glyph-name="saraiileftthai" unicode="&#xf702;" 
d="M-168 922h-573l67 90h408l18 104h115z" />
    <glyph glyph-name="saraueleftthai" unicode="&#xf703;" 
d="M-90 1024q-4 -23 -17 -41.5t-31.5 -32t-41 -21t-45.5 -7.5h-516l67 90h348q0 3 1 6t1 6q4 21 16 39.5t30 32.5t41 22t49 8q53 0 79 -30.5t19 -71.5zM-156 1024q3 19 -9 32t-34 13q-20 0 -37 -13t-20 -32t9 -32t32 -13q22 0 39 13t20 32z" />
    <glyph glyph-name="saraueeleftthai" unicode="&#xf704;" 
d="M-168 922h-573l67 90h232l18 104h115l-19 -104h62l18 104h115z" />
    <glyph glyph-name="maieklowleftthai" unicode="&#xf705;" 
d="M-188 922h-115l35 194h114z" />
    <glyph glyph-name="maitholowleftthai" unicode="&#xf706;" 
d="M-156 922h-327l8 47q3 20 -2.5 31.5t-28.5 11.5h-53l67 92h64q46 0 67 -17.5t13 -54.5l-4 -20h264z" />
    <glyph glyph-name="maitrilowleftthai" unicode="&#xf707;" 
d="M-158 922h-174l17 86q5 27 -6 45t-35 18h-6l-93 -53l-77 53q-25 0 -42.5 -17.5t-19.5 -41.5h82l-16 -90h-177l17 94q5 32 21 57t40 42.5t53.5 26.5t61.5 9h10l64 -43l76 43h14q32 0 58 -8.5t43.5 -26t24.5 -42.5t1 -58v-4h131z" />
    <glyph glyph-name="maichattawalowleftthai" unicode="&#xf708;" 
d="M-129 1020h-104l-19 -98h-115l19 98h-105l13 76h104l19 98h114l-18 -98h104z" />
    <glyph glyph-name="thanthakhatlowleftthai" unicode="&#xf709;" 
d="M-158 997h-59q-32 0 -52 -15.5t-26 -43.5l-4 -16h-119l8 47q10 53 54.5 85.5t107.5 32.5h158z" />
    <glyph glyph-name="maieklowrightthai" unicode="&#xf70a;" 
d="M29 922h-115l35 194h114z" />
    <glyph glyph-name="maitholowrightthai" unicode="&#xf70b;" 
d="M106 922h-327l8 47q3 20 -2.5 31.5t-28.5 11.5h-53l68 92h63q95 0 80 -72l-4 -20h264z" />
    <glyph glyph-name="maitrilowrightthai" unicode="&#xf70c;" 
d="M41 922h-174l16 86q5 27 -5.5 45t-35.5 18h-6l-92 -53l-78 53q-25 0 -42 -17.5t-19 -41.5h82l-17 -90h-176l17 94q5 32 21 57t40 42.5t53.5 26.5t61.5 9h10l63 -43l76 43h14q33 0 59 -8.5t43.5 -26t24 -42.5t0.5 -58v-4h132z" />
    <glyph glyph-name="maichattawalowrightthai" unicode="&#xf70d;" 
d="M47 1020h-104l-19 -98h-114l18 98h-104l12 76h104l19 98h114l-18 -98h104z" />
    <glyph glyph-name="thanthakhatlowrightthai" unicode="&#xf70e;" 
d="M63 997h-59q-32 0 -52 -15.5t-26 -43.5l-4 -16h-119l9 47q9 54 53.5 86t107.5 32h158z" />
    <glyph glyph-name="yoyingnobasethai" unicode="&#xf70f;" horiz-adv-x="1176" 
d="M1079 213q-13 -71 -49 -115.5t-82 -69.5t-95 -33.5t-89 -8.5q-39 0 -86 8.5t-85 33.5t-59 69.5t-8 115.5l66 362q8 45 -6 76t-41 49.5t-61.5 26.5t-67.5 8q-29 0 -60.5 -5.5t-61 -17t-55.5 -29t-44 -42.5l81 -59q-38 -22 -61.5 -57t-28.5 -60l-63 -363h86l-19 -102h-200
l84 471q3 18 11.5 33t20 27t23.5 20.5t21 13.5l-84 56q28 62 72.5 103t96 65.5t105 34.5t98.5 10q54 0 107.5 -13t93 -42.5t60 -77t8.5 -117.5l-64 -359q-8 -45 3.5 -72.5t33.5 -41.5t49.5 -18.5t52.5 -4.5t54 4.5t55.5 18.5t46.5 41.5t29 72.5l106 594h115z" />
    <glyph glyph-name="maihanakatleftthai" unicode="&#xf710;" 
d="M90 922h-553l31 170h117l-15 -80h488z" />
    <glyph glyph-name="nikhahitleftthai" unicode="&#xf711;" 
d="M-90 1020q-8 -47 -46 -77t-89 -30t-79 30t-20 77q4 23 16.5 42.5t30.5 33.5t40.5 22t48.5 8q25 0 45 -8t33 -22t18.5 -33.5t1.5 -42.5zM-154 1020q3 20 -10 34.5t-35 14.5q-21 0 -39.5 -14.5t-21.5 -34.5t10 -34.5t35 -14.5t40 14.5t21 34.5z" />
    <glyph glyph-name="maitaikhuleftthai" unicode="&#xf712;" 
d="M-90 1110h-338q-53 0 -87.5 -18.5t-39.5 -42.5q-2 -9 0 -15t5 -11q4 -5 9 -9l185 65l202 -78l-16 -90l-201 80l-200 -76q-15 5 -31.5 15t-29.5 26.5t-19 39.5t0 53q5 28 22 55t45.5 48.5t68 34.5t89.5 13h406z" />
    <glyph glyph-name="maiekupperleftthai" unicode="&#xf713;" 
d="M-123 1178h-115l29 153h115z" />
    <glyph glyph-name="maithoupperleftthai" unicode="&#xf714;" 
d="M-16 1178h-295l8 43q3 18 -3 28.5t-26 10.5h-49l62 81h57q42 0 61 -15.5t11 -47.5l-5 -18h238z" />
    <glyph glyph-name="maitriupperleftthai" unicode="&#xf715;" 
d="M76 1178h-158l14 75q5 25 -4 41.5t-30 16.5h-7l-84 -47l-69 47q-22 0 -37.5 -16t-17.5 -38h73l-14 -79h-160l17 84q11 58 54.5 89t102.5 31h8l60 -39l67 39h13q58 0 91 -30.5t23 -89.5l-2 -5h119z" />
    <glyph glyph-name="maichattawaupperleftthai" unicode="&#xf716;" 
d="M-18 1266h-95l-16 -88h-102l16 88h-94l12 67h94l15 88h102l-14 -88h94z" />
    <glyph glyph-name="thanthakhatupperleftthai" unicode="&#xf717;" 
d="M-70 1180h-53q-29 0 -48.5 -14.5t-23.5 -39.5l-2 -16h-106l6 43q3 24 15 43.5t31 34t44 22t53 7.5h142z" />
    <glyph glyph-name="saraulowthai" unicode="&#xf718;" 
d="M-240 -604h-114l26 153h-102l59 103h176z" />
    <glyph glyph-name="sarauulowthai" unicode="&#xf719;" 
d="M-217 -479q-6 -35 -24.5 -62.5t-45.5 -46t-60.5 -28t-68.5 -9.5q-36 0 -65 9.5t-48.5 28t-28 46t-3.5 62.5l4 28h-82l59 103h156l-22 -131q-5 -26 11 -36.5t38 -10.5q21 0 40.5 10.5t24.5 36.5l23 131h114z" />
    <glyph glyph-name="phinthulowthai" unicode="&#xf71a;" 
d="M-209 -432q-3 -17 -12.5 -32t-23 -26.5t-29.5 -18.5t-33 -7q-34 0 -55 25t-15 59q3 17 12.5 32t23 26.5t29.5 18.5t33 7q35 0 55.5 -25t14.5 -59z" />
    <glyph glyph-name="minus" unicode="&#xad;" horiz-adv-x="737" 
d="M666 295h-635l16 92h635z" />
    <glyph glyph-name="uni0E33_1" horiz-adv-x="518" 
d="M-90 1020q-8 -47 -46 -77t-89 -30t-79 30t-20 77q4 23 16.5 42.5t30.5 33.5t40.5 22t48.5 8q25 0 45 -8t33 -22t18.5 -33.5t1.5 -42.5zM385 0h-115l103 580q5 31 1 58.5t-20.5 48t-46 32.5t-74.5 12t-87 -10.5t-87 -36.5l19 107q34 17 77 30t99 13q79 0 128.5 -20.5
t75.5 -55t32 -79.5t-3 -95zM-154 1020q3 20 -10 34.5t-35 14.5q-21 0 -39.5 -14.5t-21.5 -34.5t10 -34.5t35 -14.5t40 14.5t21 34.5z" />
    <glyph glyph-name="uni0E4E_1" 
d="M125 1343q-56 8 -110 6.5t-98.5 -12t-73.5 -30t-33 -47.5q-3 -17 4.5 -28t22 -17t33.5 -7.5t38 0.5l-12 -75q-36 3 -78.5 -2t-80.5 -16.5t-64.5 -30t-30.5 -42.5q-3 -18 10.5 -28t38 -11.5t56 5.5t63.5 22l28 -67q-59 -29 -115 -36.5t-98 2t-65.5 36t-16.5 67.5
q5 28 22.5 52t44 43t60 32.5t70.5 20.5q-20 15 -25 37.5t-2 44.5q8 42 44 76.5t92.5 57.5t131 31.5t158.5 -0.5z" />
    <glyph glyph-name="currency" unicode="&#xa4;" horiz-adv-x="840" 
d="M422 729q-96 0 -160 -67q-65 -73 -65 -160q0 -94 63 -164q65 -68 162 -68q92 0 158 68q63 63 63 164q0 46 -16.5 87t-45.5 72t-70 49.5t-89 18.5zM8 164l148 145q-62 83 -62 193q0 114 62 188l-148 150l76 71l145 -145q79 59 193 59q55 0 105.5 -16t82.5 -43l150 145
l71 -71l-145 -150q59 -79 59 -188q0 -114 -59 -193l145 -145l-71 -76l-150 148q-15 -13 -36 -23.5t-47 -20.5q-53 -18 -105 -18q-110 0 -193 62l-145 -148z" />
    <glyph glyph-name="FL00A9h" unicode="&#xa9;" horiz-adv-x="1032" 
d="M1030 487q-18 -104 -73.5 -194.5t-135 -158.5t-177 -107t-200.5 -39q-104 0 -188 39t-140.5 107t-79.5 158.5t-5 194.5t73.5 194.5t136 158t178.5 106.5t202 39q103 0 186.5 -39t139 -106.5t78.5 -158t5 -194.5zM956 487q15 88 -4.5 165.5t-67 135t-119 90.5t-159.5 33
q-59 0 -116.5 -15t-110 -42.5t-98 -66t-81.5 -85.5t-61 -101.5t-35 -113.5q-15 -89 4.5 -166.5t67.5 -135.5t120 -91t161 -33q87 0 170.5 33t151 91t115 135.5t62.5 166.5zM782 608q-56 94 -200 94q-48 0 -93 -18.5t-81 -50t-61 -73.5t-34 -89q-8 -46 2.5 -88t35.5 -73.5
t63 -50.5t86 -19q44 0 79.5 8t65.5 21.5t55.5 32.5t49.5 40l-17 -94q-48 -40 -112 -65t-134 -25q-68 0 -121 24.5t-87.5 67.5t-47.5 99.5t-2 121.5q12 65 45.5 122t83 99t111 66t129.5 24q121 0 203 -75z" />
    <glyph glyph-name="fongmanfunnuthai" unicode="&#xf880;" 
 />
    <glyph glyph-name="lochula.short" unicode="&#xf71d;" 
 />
    <glyph glyph-name="percent" unicode="%" horiz-adv-x="1300" 
d="M1194 276q-10 -55 -31 -108t-54 -95t-79.5 -67.5t-107.5 -25.5q-64 0 -104 24.5t-60.5 65.5t-24 93.5t5.5 108.5q9 52 31.5 103t57 91t80.5 64.5t102 24.5q61 0 101 -23.5t61.5 -62t26 -89t-4.5 -104.5zM389 0h-102l651 969h102zM588 709q-10 -56 -31 -109t-54 -95
t-80 -67.5t-108 -25.5q-64 0 -103.5 24.5t-60 65.5t-23.5 94t7 109q9 52 31.5 102.5t56 90.5t79 64.5t101.5 24.5q61 0 101 -23.5t62 -62t26.5 -88.5t-4.5 -104zM1085 274q6 33 6 67.5t-9 62t-30 45.5t-57 18q-32 0 -56.5 -17.5t-42.5 -45t-29.5 -62t-16.5 -68.5
q-6 -35 -7 -72t7 -67t27 -49.5t53 -19.5t60 19.5t45 49.5t31.5 67t18.5 72zM479 707q6 34 6.5 68t-9 61.5t-30.5 45t-57 17.5q-32 0 -56 -17t-42 -44.5t-29.5 -62t-17.5 -68.5q-6 -36 -7.5 -73t7 -67t27.5 -49.5t53 -19.5t60 19.5t45 49.5t31.5 67t18.5 73z" />
    <glyph glyph-name="zerowidthnonjoiner" unicode="&#x200c;" 
 />
    <glyph glyph-name="zerowidthjoiner" unicode="&#x200d;" 
 />
    <glyph glyph-name="F881" 
 />
    <glyph glyph-name="F882" 
 />
    <glyph glyph-name="saraueesp2" 
d="M-213 1178h-115l29 153h115zM-168 922h-573l67 90h232l18 104h115l-19 -104h62l18 104h115z" />
    <glyph glyph-name="saraisp" 
d="M-68 995h-655l66 90h604z" />
    <glyph glyph-name="saraiisp" 
d="M-68 995h-655l66 90h489l18 105h115z" />
    <glyph glyph-name="F71C" unicode="&#xf71c;" 
 />
    <glyph glyph-name="F71B" unicode="&#xf71b;" 
 />
    <glyph glyph-name="numbersign" unicode="#" horiz-adv-x="952" 
d="M907 606h-207l-100 -246h191l-15 -86h-211l-112 -274h-80l112 274h-166l-114 -274h-80l115 274h-185l15 86h204l101 246h-191l17 88h213l110 275h80l-112 -275h167l111 275h80l-111 -275h185zM455 606l-103 -246h170l101 246h-168z" />
    <glyph glyph-name="dollar" unicode="$" horiz-adv-x="823" 
d="M797 756q-39 52 -100.5 80t-143.5 34l-57 -327q58 -12 110 -29t88 -48t52.5 -80t3.5 -124q-11 -60 -45 -108t-83 -83t-107.5 -56.5t-117.5 -28.5q0 -1 -4 -24l-9 -51l-13 -73h-76l24 144q-50 1 -97 7t-88.5 16t-75.5 24t-58 30l31 168q45 -58 124.5 -95t184.5 -40l59 336
q-58 13 -114 28.5t-97 44.5t-61 77.5t-6 126.5q11 64 48 114.5t89.5 85.5t115 54.5t124.5 23.5l24 147h76l-25 -147q76 -3 138 -20.5t114 -44.5zM477 870q-38 -3 -75 -13.5t-67.5 -29t-52 -46.5t-28.5 -66q-7 -41 5.5 -68.5t36.5 -45.5t57.5 -28t68.5 -16zM621 266
q6 37 -4 62t-31 41t-51 26t-64 17l-55 -316q37 6 71 20t62 35.5t47 50t25 64.5z" />
    </font>
</defs>
</svg>
