<?xml version="1.0" standalone="no"?>
<!DOCTYPE svg PUBLIC "-//W3C//DTD SVG 1.1//EN" "http://www.w3.org/Graphics/SVG/1.1/DTD/svg11.dtd" >
<svg>
<metadata>
Created by FontForge 20090622 at Tue Aug  7 06:56:14 2018
 By deploy user
Copyright (c) 1995-2007 by Phanlop Thongsuk. All rights reserved.
</metadata>
<defs>
<font id="PSLSirintrExtraProItalic" horiz-adv-x="0" >
  <font-face 
    font-family="PSL SirintrExtra Pro (สิรินทร์เอ็กซ์ตร้า)"
    font-weight="400"
    font-style="italic"
    font-stretch="normal"
    units-per-em="2048"
    panose-1="2 0 5 6 0 0 0 2 0 4"
    ascent="1638"
    descent="-410"
    x-height="725"
    cap-height="969"
    bbox="-844 -635 1499 1599"
    underline-thickness="72"
    underline-position="-123"
    unicode-range="U+0020-U+F880"
  />
<missing-glyph horiz-adv-x="1599" 
d="M100 0v1599h1399v-1599h-1399zM1401 100v1399h-1200v-1399h1200z" />
    <glyph glyph-name="saraueesp1" unicode="&#xe37;&#xe48;" 
d="M-647 922l82 110h252l18 105h115l-19 -105h62l18 105h176l-39 -215h-665zM-197 1198l31 174h176l-30 -174h-177z" />
    <glyph glyph-name=".notdef" horiz-adv-x="1599" 
d="M100 0v1599h1399v-1599h-1399zM1401 100v1399h-1200v-1399h1200z" />
    <glyph glyph-name=".null" 
 />
    <glyph glyph-name="nonmarkingreturn" horiz-adv-x="512" 
 />
    <glyph glyph-name="space" unicode=" " horiz-adv-x="512" 
 />
    <glyph glyph-name="space" unicode="&#xa0;" horiz-adv-x="512" 
 />
    <glyph glyph-name="ampersand" unicode="&#x26;" horiz-adv-x="1026" 
d="M739 0l-84 106q-28 -27 -66.5 -51t-83 -42t-92 -29t-94.5 -11q-74 0 -132 21.5t-96 60t-54 92.5t-4 119q7 44 29.5 83.5t54 74t70 62.5t79.5 49q-21 18 -38.5 39.5t-29 47t-15 56t2.5 67.5q10 56 42.5 101.5t78.5 77t101 48.5t110 17q54 0 100.5 -16t78.5 -45.5t47 -71.5
t6 -94q-8 -44 -28 -81t-47.5 -67t-61.5 -53.5t-70 -40.5l123 -145q11 21 25 62t24 87h186q-13 -55 -29.5 -100t-33 -79.5t-32 -59t-26.5 -39.5l207 -246h-248zM565 752q3 19 -0.5 37t-12.5 32t-24 22.5t-36 8.5q-22 0 -42 -8t-35.5 -22t-26.5 -32.5t-15 -39.5q-4 -23 4 -44
t20.5 -38t27.5 -30t24 -20q11 6 28.5 16.5t35.5 27t32.5 39t19.5 51.5zM373 436q-28 -18 -58.5 -45.5t-53 -59t-31 -64t7.5 -60.5q19 -34 46 -50t58.5 -19t64 4.5t62 20.5t54 29t38.5 29z" />
    <glyph glyph-name="quotesingle" unicode="'" horiz-adv-x="401" 
d="M303 635h-145l39 377h198z" />
    <glyph glyph-name="parenleft" unicode="(" horiz-adv-x="573" 
d="M621 1012q-72 -60 -131 -127t-105.5 -143t-78.5 -162.5t-50 -186.5q-19 -107 -17.5 -202.5t20.5 -179t54.5 -153.5t83.5 -124h-190q-55 77 -88.5 150t-48 151.5t-11.5 166t21 193.5q17 97 45.5 179t71.5 155.5t102 142t137 140.5h185v0z" />
    <glyph glyph-name="parenright" unicode=")" horiz-adv-x="573" 
d="M469 395q-18 -106 -46 -193.5t-70.5 -166t-102 -151.5t-141.5 -150h-191q68 54 128 124t108.5 153.5t84 179t54.5 202.5q18 100 15.5 186.5t-22 162.5t-55.5 143t-86 127h185q53 -72 87.5 -140.5t51.5 -142t17 -155.5t-17 -179z" />
    <glyph glyph-name="asterisk" unicode="*" horiz-adv-x="780" 
d="M545 676l168 -88l-105 -133l-137 110l-18 -188h-152l47 190l-180 -110l-49 133l192 86l-164 90l99 125l139 -107l21 191h151l-47 -189l174 111l55 -127z" />
    <glyph glyph-name="plus" unicode="+" horiz-adv-x="778" 
d="M686 295h-262l-45 -262h-133l45 262h-260l24 133h260l45 260h134l-45 -260h262z" />
    <glyph glyph-name="comma" unicode="," horiz-adv-x="365" 
d="M240 76q-5 -26 -19.5 -57t-40.5 -62.5t-64.5 -62t-90.5 -54.5l-72 43q46 25 80 51t59 58q-21 0 -38 8t-29 22t-17.5 33.5t-1.5 42.5q4 22 16 42t30 35.5t40 24.5t45 9q57 0 84.5 -36.5t18.5 -96.5z" />
    <glyph glyph-name="hyphen" unicode="-" horiz-adv-x="573" 
d="M459 344h-385l24 148h385z" />
    <glyph glyph-name="period" unicode="." horiz-adv-x="365" 
d="M227 94q-4 -22 -16 -41.5t-29.5 -34.5t-39.5 -23.5t-44 -8.5t-40.5 8.5t-30.5 23.5t-17.5 34.5t-1.5 41.5t16 42t29 35t38.5 23.5t43.5 8.5t41 -8.5t31.5 -23.5t18 -35t1.5 -42z" />
    <glyph glyph-name="slash" unicode="/" horiz-adv-x="635" 
d="M33 -197h-168l653 1209h170z" />
    <glyph glyph-name="zero" unicode="0" horiz-adv-x="778" 
d="M745 498q-11 -61 -28.5 -123.5t-43 -120.5t-60 -109t-79.5 -88.5t-101.5 -59.5t-125.5 -22q-71 0 -121 22t-82.5 59.5t-49.5 88.5t-22 109t-0.5 120.5t15.5 123.5q15 87 47.5 174t85 157t126.5 114t173 44q103 0 163.5 -44t88 -114t28.5 -157t-14 -174zM559 487
q10 56 15.5 116.5t-3.5 110t-36.5 81.5t-83.5 32q-54 0 -90.5 -31.5t-61 -80t-39 -107t-24.5 -112.5q-10 -58 -18.5 -121.5t-2.5 -116.5t32.5 -87.5t86.5 -33.5q59 0 98 33.5t63.5 85.5t39 113.5t24.5 117.5z" />
    <glyph glyph-name="one" unicode="1" horiz-adv-x="778" 
d="M418 0h-180l127 725q-38 -11 -101 -18.5t-141 0.5l24 137q33 0 75 1.5t80.5 13t68.5 37.5t39 75h180z" />
    <glyph glyph-name="two" unicode="2" horiz-adv-x="778" 
d="M750 707q-13 -73 -54.5 -136t-92.5 -114t-102.5 -90l-84.5 -64l-180 -139h448l-29 -164h-684l31 172l334 266l69.5 55t68.5 61.5t55 68.5t30 77q5 31 -3 54t-26.5 38.5t-45.5 23t-60 7.5q-69 0 -125 -13t-95 -28q-46 -18 -81 -41l31 179q42 19 92 34q43 13 100.5 24
t124.5 11q78 0 135.5 -20t93 -57t48 -89t2.5 -116z" />
    <glyph glyph-name="three" unicode="3" horiz-adv-x="778" 
d="M760 735q-13 -71 -57 -124t-109 -81q28 -17 51.5 -40.5t38 -53.5t19.5 -67t-3 -82q-12 -67 -47.5 -124t-89.5 -99t-124.5 -65.5t-151.5 -23.5q-88 0 -161.5 18.5t-135.5 53.5l33 180q49 -34 120 -59t162 -25q42 0 77.5 11.5t62 32t43.5 47.5t22 59q8 48 -4 77t-43 45
t-80 21.5t-113 5.5l29 158q57 0 104 7t82 22.5t56.5 41t27.5 62.5q5 25 -4.5 42t-28.5 27.5t-44 15.5t-50 5q-74 0 -149 -17.5t-156 -64.5l31 181q74 35 145.5 51t153.5 16q61 0 118.5 -17t100 -49.5t63.5 -79.5t11 -108z" />
    <glyph glyph-name="four" unicode="4" horiz-adv-x="778" 
d="M725 256h-137l-45 -256h-181l46 256h-441l33 180l557 535h158l-101 -559h138zM186 412h248l51 288z" />
    <glyph glyph-name="five" unicode="5" horiz-adv-x="778" 
d="M760 803h-432l-31 -180q89 11 172 3t143 -42.5t89.5 -98t11.5 -163.5q-14 -76 -52.5 -140t-95 -110.5t-129 -72.5t-153.5 -26q-62 0 -113.5 8t-90 18.5t-63.5 21.5t-34 16l32 180q60 -35 133.5 -57.5t151.5 -22.5q47 0 86.5 13.5t69.5 37.5t49 57t26 72q9 52 -8 84.5
t-52.5 50t-84 22t-101 -0.5t-105.5 -16.5t-97 -26.5l94 539h612z" />
    <glyph glyph-name="six" unicode="6" horiz-adv-x="778" 
d="M719 784q-35 20 -75 30.5t-91 10.5q-53 0 -100 -18t-85.5 -48.5t-67 -71.5t-44.5 -87q45 17 95 28t106 11q65 0 118.5 -21t89.5 -60t53 -94.5t9 -125.5q-8 -75 -41.5 -140t-86.5 -114t-121.5 -77.5t-145.5 -29.5q-74 -1 -127.5 17.5t-89.5 52t-56.5 80.5t-28.5 103
t-4.5 119t15.5 130q21 118 68.5 212.5t118.5 160.5t164 101.5t204 35.5q35 0 71 -5.5t83 -22.5zM549 332q4 31 -4 59t-25.5 49t-43.5 33t-58 12q-29 0 -58.5 -4.5t-55.5 -10.5t-47 -13t-34 -13q-15 -60 -16 -115.5t13 -98t45 -68t81 -25.5q37 0 71 13t62 37.5t46.5 61
t23.5 83.5z" />
    <glyph glyph-name="seven" unicode="7" horiz-adv-x="778" 
d="M801 797l-570 -797h-198l579 803h-501l28 166h692z" />
    <glyph glyph-name="eight" unicode="8" horiz-adv-x="778" 
d="M772 727q-12 -72 -52.5 -126t-105.5 -89q62 -35 89.5 -94t13.5 -139q-12 -68 -52 -123.5t-97 -95.5t-125 -61.5t-136 -21.5q-81 0 -143 21.5t-102 61.5t-55.5 97t-2.5 128q14 80 60.5 137.5t115.5 95.5q-52 38 -71.5 93.5t-2.5 127.5q14 61 52 108t90.5 79t114 48.5
t122.5 16.5q63 0 120 -18t98 -52t61 -83t8 -111zM584 723q4 28 -4 50.5t-25.5 38t-41.5 23.5t-52 9q-29 1 -57.5 -6t-52.5 -21t-41 -35t-21 -49q-7 -40 14 -68.5t52.5 -48t65.5 -30.5t52 -15q11 9 28 25t33.5 36t30.5 43t19 48zM526 276q6 32 -4 57.5t-29 45t-44 33.5
t-50.5 23.5t-47.5 14.5t-34 7l-31.5 -24.5t-39.5 -37.5t-37 -50t-23 -62q-6 -36 3 -64.5t29 -49t50 -31.5t66 -11q34 0 66 11t58 30.5t44 47t24 60.5z" />
    <glyph glyph-name="nine" unicode="9" horiz-adv-x="778" 
d="M745 485q-21 -117 -68.5 -211.5t-118.5 -161t-164 -102t-204 -35.5q-35 0 -71 6t-82 23l33 176q34 -20 73 -30.5t90 -10.5q53 0 100 18t85.5 49t67 72t44.5 87q-45 -17 -95 -28t-105 -11q-65 0 -118.5 20.5t-90 59.5t-53.5 95t-9 126q8 74 42 139.5t87 114t121.5 77
t145.5 29.5q111 1 176.5 -39.5t97 -110t33 -161t-16.5 -191.5zM563 520q15 61 16 116.5t-13 98t-45 67.5t-81 25q-37 0 -71 -12.5t-61.5 -37.5t-46 -61t-23.5 -83q-4 -32 4 -60t25.5 -49t43.5 -33t58 -12q29 0 58 4.5t55 11t47 13.5t34 12z" />
    <glyph glyph-name="colon" unicode=":" horiz-adv-x="365" 
d="M309 559q-4 -22 -16 -41.5t-29.5 -34.5t-39.5 -23.5t-44 -8.5t-40.5 8.5t-30.5 23.5t-17.5 34.5t-1.5 41.5t16 42t29 35t38.5 23.5t43.5 8.5t40.5 -8.5t31.5 -23.5t18.5 -35t1.5 -42zM227 94q-4 -22 -16 -41.5t-29.5 -34.5t-39.5 -23.5t-44 -8.5t-40.5 8.5t-30.5 23.5
t-17.5 34.5t-1.5 41.5t16 42t29 35t38.5 23.5t43.5 8.5t41 -8.5t31.5 -23.5t18 -35t1.5 -42z" />
    <glyph glyph-name="semicolon" unicode=";" horiz-adv-x="365" 
d="M309 559q-4 -22 -16 -41.5t-29.5 -34.5t-39.5 -23.5t-44 -8.5t-40.5 8.5t-30.5 23.5t-17.5 34.5t-1.5 41.5t16 42t29 35t38.5 23.5t43.5 8.5t40.5 -8.5t31.5 -23.5t18.5 -35t1.5 -42zM240 76q-5 -26 -19.5 -57t-40.5 -62.5t-64.5 -62t-90.5 -54.5l-72 43q46 25 80 51
t59 58q-21 0 -38 8t-29 22t-17.5 33.5t-1.5 42.5q4 22 16 42t30 35.5t40 24.5t45 9q57 0 84.5 -36.5t18.5 -96.5z" />
    <glyph glyph-name="less" unicode="&#x3c;" horiz-adv-x="850" 
d="M801 647l-514 -223l434 -223l-27 -152l-635 326l19 98l749 324z" />
    <glyph glyph-name="equal" unicode="=" horiz-adv-x="778" 
d="M713 438h-656l23 133h655zM662 152h-656l25 133h655z" />
    <glyph glyph-name="greater" unicode="&#x3e;" horiz-adv-x="850" 
d="M760 375l-750 -326l27 152l510 223l-430 223l26 150l635 -324z" />
    <glyph glyph-name="question" unicode="?" horiz-adv-x="729" 
d="M702 721q-7 -42 -28.5 -79.5t-50.5 -71t-63 -61.5t-66.5 -50t-60.5 -38t-44 -24l-18 -110h-172l32 194q72 30 131 67q25 16 50 35t46 41t36 47t20 52q4 24 -4 42.5t-24.5 32t-41 20.5t-53.5 7q-56 0 -104 -9t-84 -20q-42 -12 -78 -28l31 172q37 13 80 24q37 9 85.5 17
t104.5 8q70 0 126.5 -19.5t93 -54.5t52 -84.5t4.5 -109.5zM365 96q-4 -21 -17 -40.5t-31 -34t-40.5 -23t-45.5 -8.5t-42 8t-31.5 22t-18.5 33.5t-2 42.5q4 22 16.5 41.5t31 34.5t40.5 24t45 9t42.5 -9t32 -24t18.5 -34.5t2 -41.5z" />
    <glyph glyph-name="at" unicode="@" horiz-adv-x="1264" 
d="M1167 424q-11 -62 -37 -121t-54 -105q-33 -55 -70 -102h-299l-5 51q-42 -29 -82.5 -43t-91.5 -14q-57 0 -100.5 23.5t-69.5 65t-34 99t4 125.5q11 66 42 127t76 108t103 75t123 28q40 0 68.5 -5.5t56.5 -20.5l2 14h137l-94 -526h102q9 10 23.5 33t29.5 53.5t29 66
t21 72.5q18 100 2 181t-60.5 137.5t-113.5 87t-158 30.5q-92 0 -176.5 -35.5t-153 -97t-116 -144.5t-64.5 -177q-16 -92 3 -171.5t67.5 -138.5t122.5 -93t169 -34q58 0 101 5.5t72 13.5q33 9 57 20l-25 -135q-29 -7 -63 -12q-29 -5 -69.5 -8.5t-88.5 -3.5
q-125 0 -222.5 42.5t-160.5 117t-88 176t-4 219.5q14 80 47 154t80 138.5t107 117.5t128.5 90.5t143.5 58t153 20.5q138 0 230 -47.5t143 -126.5t63.5 -180t-6.5 -209zM768 582q-17 8 -48.5 19t-62.5 11q-37 0 -67 -18t-53.5 -47t-39 -66t-22.5 -75q-5 -32 -4 -64.5
t11 -58.5t29.5 -43t51.5 -17q25 0 49 7t44.5 16.5t35.5 19t23 15.5z" />
    <glyph glyph-name="A" unicode="A" horiz-adv-x="885" 
d="M625 0l-45 254h-355l-135 -254h-188l534 969h189l194 -969h-194zM487 727l-174 -311h236z" />
    <glyph glyph-name="B" unicode="B" horiz-adv-x="887" 
d="M829 301q-24 -143 -150.5 -222t-340.5 -79h-318l170 969h293q84 0 152.5 -11.5t115 -38.5t67.5 -71t9 -109q-12 -66 -42.5 -110t-79.5 -76q72 -35 106 -97t18 -155zM635 707q9 57 -28.5 78.5t-127.5 21.5h-133l-35 -205h131q79 0 131.5 24t61.5 81zM643 297q9 47 -4.5 75
t-44 43t-75.5 20t-99 5h-135l-49 -280h174q37 0 76 8t72 24.5t56 42.5t29 62z" />
    <glyph glyph-name="C" unicode="C" horiz-adv-x="918" 
d="M911 676q-38 45 -73 73.5t-71.5 45.5t-77 23.5t-89.5 6.5q-63 0 -121.5 -23t-106.5 -66t-81.5 -104.5t-46.5 -137.5q-15 -82 -3.5 -147.5t44.5 -111t85 -70t119 -24.5q49 0 93 9t86.5 28t85 48t90.5 69l-37 -217q-31 -18 -67.5 -35t-81 -30.5t-97.5 -22t-117 -8.5
q-103 0 -184.5 36t-134 102t-72.5 159.5t0 209.5q18 105 70.5 196t128 157.5t168.5 104.5t194 38q105 0 187.5 -27t148.5 -67z" />
    <glyph glyph-name="D" unicode="D" horiz-adv-x="995" 
d="M944 489q-16 -93 -50 -165.5t-82 -126.5t-108 -92t-127.5 -61t-141 -33.5t-148.5 -10.5h-267l170 969h242q76 0 148 -11t134.5 -34.5t112 -61t81 -91t42 -123.5t-5.5 -159zM760 487q16 94 -8.5 155.5t-75.5 98t-122 51.5t-148 15h-60l-113 -645h93q75 0 146 16.5
t129.5 55t100.5 100.5t58 153z" />
    <glyph glyph-name="E" unicode="E" horiz-adv-x="819" 
d="M829 803h-483l-33 -187h484l-29 -165h-483l-52 -285h484l-29 -166h-668l170 969h668z" />
    <glyph glyph-name="F" unicode="F" horiz-adv-x="754" 
d="M811 803h-465l-35 -195h400l-29 -164h-399l-78 -444h-185l170 969h650z" />
    <glyph glyph-name="G" unicode="G" horiz-adv-x="1001" 
d="M967 670q-74 82 -156.5 118.5t-185.5 36.5q-69 0 -132.5 -23t-114.5 -67t-86.5 -107.5t-49.5 -144.5q-12 -68 -0.5 -130t44 -109t84 -75t119.5 -28q63 0 116 9t91 24l31 176h-246l29 164h432l-76 -436q-28 -15 -66 -32.5t-87.5 -32.5t-111 -25.5t-136.5 -10.5
q-105 0 -191 34.5t-142 99.5t-79 159t-2 213q22 125 80.5 219t140.5 157t181.5 94.5t205.5 31.5q53 0 98 -5t86.5 -16t81 -29t81.5 -44z" />
    <glyph glyph-name="H" unicode="H" horiz-adv-x="971" 
d="M786 0h-184l80 449h-397l-80 -449h-185l170 969h185l-62 -355h398l61 355h184z" />
    <glyph glyph-name="I" unicode="I" horiz-adv-x="553" 
d="M551 817h-121l-117 -667h121l-26 -150h-426l26 150h121l117 667h-121l27 152h426z" />
    <glyph glyph-name="J" unicode="J" horiz-adv-x="596" 
d="M473 299q-18 -107 -65.5 -173.5t-118 -99.5t-163 -36.5t-200.5 14.5l33 176q58 -17 112 -25.5t98.5 1.5t76 43.5t43.5 101.5l90 510h-197l27 158h381z" />
    <glyph glyph-name="K" unicode="K" horiz-adv-x="897" 
d="M487 510l369 -510h-238l-286 389l-70 -61l-57 -328h-185l170 969h185l-74 -424l477 424h234z" />
    <glyph glyph-name="L" unicode="L" horiz-adv-x="758" 
d="M664 0h-644l170 969h185l-142 -803h459z" />
    <glyph glyph-name="M" unicode="M" horiz-adv-x="1085" 
d="M901 0h-184l119 676l-277 -426h-115l-129 426l-118 -676h-177l170 969h220l141 -467l299 467h221z" />
    <glyph glyph-name="N" unicode="N" horiz-adv-x="967" 
d="M784 0h-192l-268 725l-127 -725h-177l170 969h232l242 -654l114 654h176z" />
    <glyph glyph-name="O" unicode="O" horiz-adv-x="1016" 
d="M977 479q-17 -98 -66 -189t-121.5 -160.5t-165 -111t-196.5 -41.5q-105 0 -185 40.5t-130.5 109t-69 158.5t-0.5 190t64.5 193t118 163.5t164.5 113t204 42.5q114 0 194.5 -42.5t128.5 -113t63 -162.5t-3 -190zM784 477q12 66 4 128.5t-35.5 111.5t-74 78.5t-111.5 29.5
t-120.5 -31t-99 -80.5t-72.5 -112t-39 -124.5q-12 -65 -4.5 -126.5t34.5 -109.5t74 -77t113 -29q64 0 119.5 29.5t98.5 77.5t72.5 109.5t40.5 125.5z" />
    <glyph glyph-name="P" unicode="P" horiz-adv-x="799" 
d="M807 653q-13 -69 -55 -126.5t-102 -99t-132 -64.5t-145 -23h-109l-59 -340h-185l170 969h252q97 0 172 -21.5t122.5 -62.5t66.5 -99.5t4 -132.5zM616 653q7 38 -4 66.5t-37 48t-65.5 29.5t-89.5 10h-74l-53 -305h63q48 0 92 9t79 27.5t58 47t31 67.5z" />
    <glyph glyph-name="Q" unicode="Q" horiz-adv-x="1016" 
d="M977 473q-13 -74 -43.5 -143.5t-75 -129.5t-101 -107.5t-120.5 -78.5q-2 -75 58.5 -94t195.5 23l-31 -179q-92 -27 -170 -28.5t-133.5 22.5t-85 75.5t-25.5 131.5h-20q-105 0 -185 41t-130.5 110t-69 160.5t-0.5 192.5q18 102 65.5 195.5t119 165.5t164.5 114.5t204 42.5
q114 0 194.5 -42t128.5 -113t63 -164t-3 -195zM784 471q12 67 4 130t-35.5 112.5t-74 79.5t-111.5 30t-120.5 -31.5t-99 -81.5t-72.5 -113t-39 -126q-12 -65 -4.5 -127.5t34 -111t73 -78t112.5 -29.5q64 0 119.5 30t99.5 78.5t73.5 110.5t40.5 127z" />
    <glyph glyph-name="R" unicode="R" horiz-adv-x="899" 
d="M635 0l-236 362h-131l-63 -362h-185l170 969h279q91 0 163.5 -18.5t120 -55.5t67.5 -91.5t7 -127.5q-8 -48 -30.5 -89.5t-54.5 -75t-71 -59.5t-79 -42l278 -410h-235zM625 668q6 34 -5 60t-34.5 43.5t-56.5 26.5t-70 9h-113l-49 -287h90q100 0 162.5 37.5t75.5 110.5z
" />
    <glyph glyph-name="S" unicode="S" horiz-adv-x="885" 
d="M840 709q-60 61 -144.5 86.5t-175.5 25.5q-34 0 -70 -6t-67 -20t-53.5 -37t-28.5 -58q-5 -33 8.5 -54t37.5 -34t55.5 -20t62.5 -12q49 -9 95.5 -19t87 -25t73.5 -36t54.5 -52t29.5 -74t-2 -100q-12 -69 -56 -123.5t-106.5 -92t-136.5 -57t-146 -19.5q-55 0 -107.5 6
t-99.5 16.5t-87.5 26t-71.5 35.5l37 208q81 -71 167.5 -101t188.5 -30q37 0 75 8t70 24.5t54 42t28 61.5q6 32 -9.5 52t-43.5 32.5t-65 20l-74 15.5q-65 13 -127.5 29.5t-108 47.5t-68 82t-7.5 134q12 71 55.5 125.5t105.5 92t135.5 56.5t145.5 19q96 0 173.5 -18.5
t149.5 -57.5z" />
    <glyph glyph-name="T" unicode="T" horiz-adv-x="864" 
d="M911 803h-329l-142 -803h-184l141 803h-327l28 166h842z" />
    <glyph glyph-name="U" unicode="U" horiz-adv-x="954" 
d="M848 389q-14 -79 -46.5 -153.5t-86 -132t-130 -92t-177.5 -34.5q-108 0 -179.5 27.5t-110 80t-47 128.5t8.5 174l102 582h183l-101 -578q-9 -54 -9 -100t17 -79.5t55.5 -52t106.5 -18.5q52 0 91.5 20t67.5 54.5t46 81t27 98.5l100 574h184z" />
    <glyph glyph-name="V" unicode="V" horiz-adv-x="885" 
d="M465 0h-209l-184 969h196l138 -740l393 740h190z" />
    <glyph glyph-name="W" unicode="W" horiz-adv-x="1200" 
d="M870 0h-186l-55 639l-279 -639h-182l-90 969h190l56 -641l278 641h174l55 -647l279 647h186z" />
    <glyph glyph-name="X" unicode="X" horiz-adv-x="887" 
d="M559 489l252 -489h-219l-170 348l-299 -348h-209l426 483l-250 486h217l170 -344l293 344h211z" />
    <glyph glyph-name="Y" unicode="Y" horiz-adv-x="829" 
d="M500 418l-74 -418h-184l71 406l-247 563h206l168 -379l299 379h205z" />
    <glyph glyph-name="Z" unicode="Z" horiz-adv-x="887" 
d="M887 821l-654 -655h549l-28 -166h-779l27 150l647 653h-512l29 166h745z" />
    <glyph glyph-name="bracketleft" unicode="[" horiz-adv-x="573" 
d="M580 864h-213l-170 -970h213l-27 -148h-383l223 1266h383z" />
    <glyph glyph-name="backslash" unicode="\" horiz-adv-x="594" 
d="M358 -197l-252 1209h173l249 -1209h-170z" />
    <glyph glyph-name="bracketright" unicode="]" horiz-adv-x="573" 
d="M319 -254h-380l26 148h213l170 970h-213l27 148h381z" />
    <glyph glyph-name="asciicircum" unicode="^" horiz-adv-x="1055" 
d="M788 444l-204 344l-328 -346h-195l500 527h111l313 -525h-197z" />
    <glyph glyph-name="underscore" unicode="_" horiz-adv-x="778" 
d="M655 -236h-780l21 119h780z" />
    <glyph glyph-name="grave" unicode="`" horiz-adv-x="825" 
d="M440 846l-168 244h230l96 -244h-158z" />
    <glyph glyph-name="a" unicode="a" horiz-adv-x="772" 
d="M608 -2h-178l10 59q-15 -12 -37 -25t-49 -23.5t-58.5 -17.5t-66.5 -7q-60 0 -107 16t-78 47.5t-43 77t-1 104.5q11 61 43 105.5t79 75.5t105.5 49t122.5 26q20 3 43 5t45.5 3.5t42.5 2.5t35 2q1 15 -4 30.5t-20 28t-43 21t-74 8.5q-53 0 -99.5 -8t-81.5 -18
q-41 -11 -77 -25l30 170q43 11 89 20q39 8 86 14t92 6q75 0 132.5 -15t93.5 -48t49.5 -85.5t0.5 -127.5zM492 352q-39 2 -88.5 0t-95.5 -14t-80 -37t-42 -68q-5 -24 1 -42t19 -29.5t32 -17t41 -5.5q26 0 54 7.5t53.5 18t47 21.5t33.5 19z" />
    <glyph glyph-name="b" unicode="b" horiz-adv-x="795" 
d="M739 391q-16 -92 -52.5 -167.5t-90 -128.5t-121.5 -82t-147 -29q-48 0 -88.5 19.5t-59.5 45.5l-28 -51h-152l178 1014h176l-53 -305q28 18 73.5 35.5t96.5 17.5q70 0 125.5 -29.5t91.5 -79.5t50 -117.5t1 -142.5zM557 393q8 43 1.5 79.5t-24.5 63t-46 41.5t-64 15
q-31 0 -56 -5.5t-44 -13.5t-32 -16.5t-20 -13.5l-63 -355q7 -6 20.5 -14.5t32 -16t41 -13t49.5 -5.5q41 0 74.5 20.5t59.5 55.5t44 81t27 97z" />
    <glyph glyph-name="c" unicode="c" horiz-adv-x="709" 
d="M670 485q-22 28 -53 51q-26 20 -64.5 36t-87.5 16q-48 0 -90.5 -18t-75.5 -49t-56 -73.5t-32 -91.5q-8 -44 0 -84t29.5 -70.5t56.5 -48.5t80 -18q51 0 96.5 15.5t79.5 34.5q40 22 74 51l-33 -185q-29 -20 -69 -35q-35 -13 -85.5 -23.5t-117.5 -10.5q-85 0 -147.5 30.5
t-100.5 81.5t-51.5 119t0.5 143q13 78 52 149t97 124t133 84.5t162 31.5q55 0 99 -11t74 -25q35 -16 62 -35z" />
    <glyph glyph-name="d" unicode="d" horiz-adv-x="795" 
d="M629 -2h-152l-12 51q-14 -11 -32 -22.5t-39.5 -21t-46 -15.5t-50.5 -6q-81 0 -139 29t-92 82t-43.5 128.5t6.5 167.5q13 75 50 142.5t90.5 117.5t119 79.5t135.5 29.5q51 0 89.5 -16.5t64.5 -36.5l53 305h176zM549 543q-5 5 -15.5 13.5t-26.5 16.5t-39 13.5t-54 5.5
q-36 0 -69.5 -15t-60.5 -41.5t-46.5 -63t-26.5 -79.5q-9 -51 -7.5 -97t15 -81t40 -55.5t67.5 -20.5q27 0 51.5 5.5t45.5 13t37 16t25 14.5z" />
    <glyph glyph-name="e" unicode="e" horiz-adv-x="774" 
d="M199 322q-4 -48 9 -82.5t39 -57.5t63 -34t81 -11q58 0 109.5 14.5t91.5 31.5q46 20 86 46l-31 -176q-36 -21 -82 -37q-39 -14 -93 -25t-120 -11q-82 0 -150.5 22.5t-114 70t-63.5 120.5t1 174q13 79 48 148.5t88.5 121t125.5 81.5t159 30q94 0 153 -35t88.5 -93.5
t33 -136t-11.5 -161.5h-510zM551 467q-2 17 -7.5 39t-20 42t-40 34t-65.5 14q-44 0 -76 -14t-54.5 -34t-36.5 -42t-22 -39h322z" />
    <glyph glyph-name="f" unicode="f" horiz-adv-x="487" 
d="M590 840q-48 22 -91.5 27.5t-79 -4.5t-59.5 -35t-32 -62l-4 -18h211l-27 -156h-207l-104 -592h-181l105 590h-72l27 158h74l4 16q19 78 69 136t116 90t139.5 36t139.5 -27z" />
    <glyph glyph-name="g" unicode="g" horiz-adv-x="795" 
d="M649 113q-19 -111 -60.5 -185.5t-96.5 -120t-120 -65t-131 -21t-130 11t-117 31.5l31 181q66 -40 133 -54.5t124.5 -3t100.5 49t61 102.5q-13 -11 -31 -21t-39 -17.5t-43.5 -12t-43.5 -4.5q-159 0 -227.5 95.5t-36.5 280.5q14 83 52.5 153.5t92.5 122t119.5 80.5
t134.5 29q29 0 54.5 -6.5t46 -17t35 -22.5t22.5 -23l30 51h148zM545 526q-5 6 -15 15t-26 17.5t-38.5 14t-53.5 5.5q-37 0 -71 -17t-62 -46.5t-47.5 -68.5t-26.5 -84q-9 -50 -6.5 -90.5t17.5 -69t42 -44t68 -15.5q27 0 51.5 5.5t45.5 13t37 15.5t25 13z" />
    <glyph glyph-name="h" unicode="h" horiz-adv-x="803" 
d="M639 0h-178l80 457q11 62 -5 98.5t-63 36.5q-33 0 -65 -7.5t-59 -18t-48 -21.5t-33 -19l-92 -526h-176l178 1012h176l-55 -320q19 12 43.5 24.5t52 22t57 15.5t58.5 6q59 0 104.5 -19t73.5 -56.5t37 -93t-4 -128.5z" />
    <glyph glyph-name="i" unicode="i" horiz-adv-x="367" 
d="M340 797h-193l31 178h193zM190 0h-178l131 741h179z" />
    <glyph glyph-name="j" unicode="j" horiz-adv-x="459" 
d="M422 795h-193l33 180h193zM285 14q-18 -102 -65 -166t-111.5 -94.5t-140.5 -30t-152 28.5l30 174q62 -24 108 -30t77.5 7t51 45t28.5 83l96 549h-144l27 157h322z" />
    <glyph glyph-name="k" unicode="k" horiz-adv-x="766" 
d="M420 397l301 -397h-236l-206 281l-62 -56l-39 -225h-178l178 1012h178l-100 -568l346 299h229z" />
    <glyph glyph-name="l" unicode="l" horiz-adv-x="367" 
d="M190 0h-178l178 1012h179z" />
    <glyph glyph-name="m" unicode="m" horiz-adv-x="1233" 
d="M1069 0h-180l74 420q5 32 7 61.5t-3.5 52t-20 35.5t-41.5 13q-32 0 -62 -7.5t-56.5 -18t-47 -21.5t-32.5 -19q2 -15 -0.5 -38.5t-6.5 -43.5l-75 -434h-176l71 410q4 28 7.5 59t-0.5 56.5t-18 42t-44 16.5q-38 0 -69.5 -7.5t-57 -18t-43.5 -22t-27 -18.5l-92 -518h-176
l129 727h176l-12 -61l40.5 25t51.5 26t59.5 20t63.5 8q37 0 64.5 -6t48 -18t36 -29t27.5 -39q56 44 123 69.5t154 25.5q52 0 92.5 -20t66 -55.5t35 -82.5t0.5 -101z" />
    <glyph glyph-name="n" unicode="n" horiz-adv-x="803" 
d="M637 0h-178l76 430q5 30 5.5 57.5t-6.5 48.5t-22.5 33.5t-42.5 12.5q-35 0 -66.5 -7.5t-57.5 -18.5t-46 -22.5l-33 -19.5l-90 -514h-176l129 727h176l-12 -65q18 12 43 26.5t55 27t62.5 21t64.5 8.5q58 0 101 -20t69 -56.5t34.5 -89t-3.5 -116.5z" />
    <glyph glyph-name="o" unicode="o" horiz-adv-x="799" 
d="M739 369q-14 -78 -51.5 -149t-93.5 -125t-127.5 -86t-153.5 -32q-85 0 -146 33t-97 88.5t-47.5 127t2.5 149.5q13 73 50.5 140t94 118t127 81.5t149.5 30.5q85 0 146.5 -30.5t98.5 -82t49 -119.5t-1 -144zM557 373q7 40 3 80t-20 71t-45 50.5t-73 19.5q-43 0 -79.5 -19
t-64.5 -50t-46 -70.5t-25 -79.5q-9 -45 -6.5 -88.5t18 -77.5t45.5 -55t76 -21q45 0 82 21t64.5 54.5t45 76.5t25.5 88z" />
    <glyph glyph-name="p" unicode="p" horiz-adv-x="795" 
d="M733 360q-15 -89 -50.5 -159t-88 -118t-120 -73.5t-146.5 -25.5q-47 0 -83 14t-61 33l-53 -299h-178l176 997h147l11 -53q14 12 33.5 24t43.5 22t50.5 16.5t54.5 6.5q69 0 124.5 -29t91.5 -80.5t49.5 -122t-1.5 -153.5zM551 362q7 45 2 84.5t-22 69t-44.5 46t-64.5 16.5
q-31 0 -56 -5.5t-44 -14t-32.5 -17.5t-21.5 -15l-57 -331q7 -6 20 -15t31.5 -16.5t41.5 -13t50 -5.5q82 0 130 58.5t67 158.5z" />
    <glyph glyph-name="q" unicode="q" horiz-adv-x="795" 
d="M582 -268h-179l54 299q-31 -19 -75.5 -33t-90.5 -14q-77 0 -134 25.5t-92 73.5t-46 118t4 159q14 83 52.5 153.5t92.5 122t119.5 80.5t134.5 29q28 0 52.5 -6.5t45 -16.5t36 -22t24.5 -24l30 53h148zM545 526q-5 6 -15 15t-26 17.5t-38.5 14t-53.5 5.5q-37 0 -71 -16.5
t-62 -46t-47.5 -69t-26.5 -84.5q-19 -100 11 -158.5t112 -58.5q27 0 51.5 5.5t45 13t36.5 16.5l26 15z" />
    <glyph glyph-name="r" unicode="r" horiz-adv-x="569" 
d="M582 530q-62 22 -114.5 22t-93 -11t-68.5 -27t-40 -25l-86 -489h-180l129 727h178l-12 -68q24 14 57 28t73.5 23.5t88 12t100.5 -7.5z" />
    <glyph glyph-name="s" unicode="s" horiz-adv-x="684" 
d="M631 524q-30 18 -68 33q-32 12 -77 22.5t-99 10.5q-23 0 -47.5 -3.5t-45 -11t-35 -20.5t-17.5 -31t4.5 -30.5t22 -21t34.5 -14t41 -9.5q54 -10 106 -22.5t90 -37.5t57 -68t7 -114q-10 -56 -42.5 -98t-80.5 -71t-107.5 -43.5t-123.5 -14.5q-67 0 -117.5 10.5t-85.5 24.5
q-40 16 -70 36l31 166q28 -23 67 -41q33 -16 80.5 -28.5t108.5 -12.5q25 0 51.5 4.5t49 14.5t38 24.5t19.5 34.5q4 23 -9.5 37t-36 23t-51 13.5l-53.5 8.5q-49 8 -91.5 24.5t-72 43.5t-43 66t-4.5 93q10 56 42.5 98.5t79 71t102 42.5t112.5 14q62 0 110 -10.5t82 -22.5
q40 -15 70 -33z" />
    <glyph glyph-name="t" unicode="t" horiz-adv-x="532" 
d="M535 584h-240l-55 -318q-9 -54 3 -81t41.5 -34t75 1.5t103.5 25.5l-31 -174q-107 -18 -185 -16.5t-126 28t-64.5 80t-1.5 140.5l62 348h-76l29 155h75l33 195h178l-32 -195h239z" />
    <glyph glyph-name="u" unicode="u" horiz-adv-x="803" 
d="M637 -2h-176l10 65q-15 -12 -38.5 -26.5t-52.5 -27t-62.5 -21t-69.5 -8.5q-59 0 -102 20t-69 56.5t-34 88.5t4 117l80 463h178l-76 -430q-5 -25 -6.5 -51.5t5 -49t23.5 -37t50 -14.5q34 0 65 7.5t56.5 18t44.5 22t31 20.5l90 514h176z" />
    <glyph glyph-name="v" unicode="v" horiz-adv-x="768" 
d="M381 0h-158l-174 727h193l106 -481l279 481h186z" />
    <glyph glyph-name="w" unicode="w" horiz-adv-x="1022" 
d="M739 0h-155l-78 434l-230 -434h-153l-70 727h187l30 -422l222 422h141l72 -422l176 422h182z" />
    <glyph glyph-name="x" unicode="x" horiz-adv-x="768" 
d="M473 369l227 -369h-223l-139 236l-221 -236h-213l356 362l-225 365h225l137 -231l219 231h213z" />
    <glyph glyph-name="y" unicode="y" horiz-adv-x="768" 
d="M209 -268h-191l199 315l-168 680h193l108 -457l277 457h188z" />
    <glyph glyph-name="z" unicode="z" horiz-adv-x="692" 
d="M670 608l-453 -456h383l-27 -152h-618l20 121l453 454h-362l26 152h600z" />
    <glyph glyph-name="braceleft" unicode="{" horiz-adv-x="803" 
d="M799 866h-94q-50 0 -79 -12.5t-45.5 -34t-24 -51.5t-13.5 -66q-13 -71 -33 -123t-46 -89.5t-57 -63.5t-65 -45q28 -17 49.5 -41t34 -58t15 -79.5t-8.5 -104.5q-8 -48 -11 -86.5t5.5 -65.5t30.5 -41t63 -14h107l-27 -147h-106q-60 0 -111 15t-85.5 48t-48.5 85t-1 126
q12 73 14 126.5t-16.5 88t-62.5 51.5t-124 17l27 158q79 0 129 16.5t80 49t46 81t28 113.5q10 55 32.5 107.5t61 93t94.5 65.5t133 25h133z" />
    <glyph glyph-name="bar" unicode="|" horiz-adv-x="594" 
d="M213 -254v1266h168v-1266h-168z" />
    <glyph glyph-name="braceright" unicode="}" horiz-adv-x="803" 
d="M686 301q-80 0 -130.5 -17t-81.5 -51.5t-48 -88t-29 -126.5q-13 -74 -45.5 -126t-78.5 -85t-102 -48t-116 -15h-106l26 147h107q42 0 68 14t43 41t26.5 65.5t18.5 86.5q10 59 29 104.5t44.5 79.5t56 58t64.5 41q-29 19 -51.5 45t-35.5 63.5t-14.5 89.5t11.5 123
q6 36 9.5 66t-4.5 51.5t-32 34t-73 12.5h-95l25 144h133q77 0 124 -25t71 -65.5t28 -93t-6 -107.5q-11 -65 -12.5 -113.5t17.5 -81t63 -49t123 -16.5z" />
    <glyph glyph-name="asciitilde" unicode="~" horiz-adv-x="1055" 
d="M985 602q-22 -96 -62 -171q-17 -32 -40 -63t-53 -55t-67.5 -38.5t-82.5 -14.5q-58 0 -95 15t-62 37t-42.5 48.5t-34.5 48.5t-39 37t-57 15q-19 0 -34 -9t-27.5 -23.5t-22 -33t-16.5 -37.5q-17 -45 -25 -102h-168q24 97 66 174q18 33 41.5 64t53.5 55.5t66.5 39.5t80.5 15
q52 0 88.5 -15.5t63 -38.5t46 -49.5t39 -49.5t42 -38.5t54.5 -15.5q19 0 35 9t28 23t21.5 32.5t15.5 37.5q15 45 21 103h166v0z" />
    <glyph glyph-name="quotedbl" unicode="&#x22;" horiz-adv-x="702" 
d="M606 635h-143l39 377h196zM305 635h-141l39 377h194z" />
    <glyph glyph-name="exclam" unicode="!" horiz-adv-x="559" 
d="M334 287h-166l102 682h199zM330 96q-4 -21 -17 -40.5t-31 -34t-40 -23t-45 -8.5t-42.5 8t-32 22t-18.5 33.5t-2 42.5q4 22 16.5 41.5t30.5 34t39.5 23t44.5 8.5t42.5 -8.5t33 -23t19.5 -34t2 -41.5z" />
    <glyph glyph-name="guillemotleft" unicode="&#xab;" horiz-adv-x="659" 
d="M485 365l58 -209l-103 -37l-114 246l202 245l90 -35zM211 365l168 -281l-100 -41l-240 322l352 323l88 -41z" />
    <glyph glyph-name="logicalnot" unicode="&#xac;" horiz-adv-x="778" 
d="M660 119v178h-624v90h706v-268h-82z" />
    <glyph glyph-name="registered" unicode="&#xae;" horiz-adv-x="1032" 
d="M1020 487q-18 -104 -73.5 -194.5t-135 -158.5t-177 -107t-200.5 -39q-104 0 -188.5 39t-140.5 107t-79.5 158.5t-5.5 194.5q12 69 41.5 133t72 119.5t96.5 100.5t115.5 77.5t128.5 50t136 17.5q103 0 187 -39t139.5 -106.5t78.5 -158t5 -194.5zM946 487q15 88 -5 165.5
t-67.5 135t-119 90.5t-158.5 33q-89 0 -173 -33t-152 -90.5t-115 -135t-62 -165.5q-15 -89 4.5 -166.5t67 -135.5t119.5 -91t161 -33q88 0 171 33t151 91t115.5 135.5t62.5 166.5zM772 621q-11 -63 -56.5 -108.5t-119.5 -59.5l152 -265h-107l-139 256h-99l-45 -256h-88
l107 607h207q42 0 79.5 -5.5t69.5 -27.5q31 -26 39.5 -59.5t-0.5 -81.5zM684 621q5 23 1 46.5t-19 37.5q-9 7 -21.5 11t-26 6.5t-27.5 3.5t-26 1h-110l-39 -213h123q23 0 52 6.5t52 26.5q19 15 27.5 31.5t13.5 42.5z" />
    <glyph glyph-name="degree" unicode="&#xb0;" horiz-adv-x="541" 
d="M266 915q43 0 80.5 -16t65 -43t43.5 -64t16 -79t-16 -79t-43.5 -64.5t-65 -43.5t-80.5 -16q-41 0 -77 15.5t-63.5 43t-43.5 64.5t-16 80q0 40 15.5 77t42.5 64.5t63.5 44t78.5 16.5zM266 858q-31 0 -57.5 -11t-46 -30.5t-30.5 -46t-11 -57.5q0 -30 11.5 -57t31 -47
t46 -32t56.5 -12q61 0 105 43q45 46 45 105q0 30 -12 56.5t-32.5 46t-47.5 31t-58 11.5z" />
    <glyph glyph-name="paragraph" unicode="&#xb6;" horiz-adv-x="727" 
d="M629 -244h-62v1356h-145v-1356h-55v805q-168 0 -263 62q-104 74 -104 235q0 153 94 229q90 66 248 66h389v-41h-102v-1356z" />
    <glyph glyph-name="periodcentered" unicode="&#xb7;" horiz-adv-x="338" 
d="M170 520q31 0 51.5 -21.5t20.5 -49.5q0 -31 -21.5 -52.5t-50.5 -21.5q-33 0 -53.5 20.5t-20.5 53.5q0 30 20.5 50.5t53.5 20.5z" />
    <glyph glyph-name="periodcentered" unicode="&#x2219;" horiz-adv-x="338" 
d="M170 520q31 0 51.5 -21.5t20.5 -49.5q0 -31 -21.5 -52.5t-50.5 -21.5q-33 0 -53.5 20.5t-20.5 53.5q0 30 20.5 50.5t53.5 20.5z" />
    <glyph glyph-name="guillemotright" unicode="&#xbb;" horiz-adv-x="659" 
d="M233 43l-88 41l267 281l-166 282l100 41l238 -323zM96 119l-90 37l131 209l-55 210l102 35l113 -245z" />
    <glyph glyph-name="multiply" unicode="&#xd7;" horiz-adv-x="778" 
d="M463 362l188 -229l-110 -94l-189 229l-266 -227l-78 94l266 227l-186 228l111 94l186 -227l270 227l78 -94z" />
    <glyph glyph-name="divide" unicode="&#xf7;" horiz-adv-x="778" 
d="M508 623q-4 -20 -14 -36.5t-24.5 -29.5t-33 -20t-37.5 -7t-34.5 7t-26 20t-14.5 29.5t0 36.5q3 19 13 36t25 29.5t33 19.5t37 7q38 0 60 -27t16 -65zM686 295h-655l24 133h656zM416 100q-4 -19 -14 -36t-25 -29.5t-33 -19.5t-37 -7t-34.5 7t-26 19.5t-15 29.5t-0.5 36
q3 19 13.5 36t25.5 30t33 20t37 7q38 0 60 -27t16 -66z" />
    <glyph glyph-name="uni0E00" unicode="&#xe00;" horiz-adv-x="205" 
 />
    <glyph glyph-name="uni0E01" unicode="&#xe01;" horiz-adv-x="799" 
d="M655 0h-176l101 565q6 35 -5 59t-32 38.5t-49 21t-56 6.5q-27 0 -57 -6.5t-55.5 -21t-44.5 -38.5t-25 -59l-100 -565h-176l102 575q13 73 54.5 122.5t97 80t117 43.5t114.5 13q54 0 111.5 -13t102.5 -43.5t68.5 -80t10.5 -122.5z" />
    <glyph glyph-name="uni0E02" unicode="&#xe02;" horiz-adv-x="698" 
d="M557 8q-147 -31 -255.5 -20.5t-177 56.5t-94.5 124.5t-7 185.5q12 69 38.5 122.5t59.5 93.5t67.5 67t63.5 43l-82 92l170 57l98 -139q-40 -21 -78 -50.5t-69.5 -67.5t-54.5 -84.5t-33 -100.5q-12 -70 -1 -120t39 -81.5t70 -46t90 -12.5l123 692h176z" />
    <glyph glyph-name="uni0E03" unicode="&#xe03;" horiz-adv-x="698" 
d="M557 8q-147 -30 -256.5 -19.5t-178 55.5t-95.5 121t-9 177q11 61 34 110.5t51.5 88.5t59 68t56.5 48l-129 72l115 100l78 -61l90 61l90 -102q-103 -62 -172 -148.5t-86 -185.5q-13 -74 -2.5 -125.5t38 -83t69.5 -45.5t91 -12l123 692h176z" />
    <glyph glyph-name="uni0E04" unicode="&#xe04;" horiz-adv-x="819" 
d="M676 0h-176l100 565q6 35 -6 59t-34.5 38.5t-52 21t-58.5 6.5t-60 -6.5t-59 -21t-48 -38.5t-26 -59l-12 -67h213l-27 -152h-213l-61 -346h-176l102 575q13 72 53 121.5t95 80t119 44t126 13.5t122 -13.5t104.5 -44t67 -80t9.5 -121.5z" />
    <glyph glyph-name="uni0E05" unicode="&#xe05;" horiz-adv-x="819" 
d="M676 0h-176l102 586q6 37 -4.5 59.5t-32.5 30.5l-133 -88l-104 88q-25 -8 -44.5 -30.5t-25.5 -59.5l-14 -88h213l-27 -152h-213l-61 -346h-176l102 586q8 48 29 90t56.5 74.5t85.5 53t116 25.5l92 -79l117 79q64 -5 107 -25.5t66.5 -53t29.5 -74.5t-3 -90z" />
    <glyph glyph-name="uni0E06" unicode="&#xe06;" horiz-adv-x="819" 
d="M721 252q-12 -70 -41.5 -120t-71.5 -82t-93.5 -47t-108.5 -15q-37 0 -69 8t-59 21.5t-49 31t-39 35.5l-14 -84h-176l84 481q7 41 31 73t53 56t57 40l43 24l-32 31l-93 -64l-112 113l139 75l61 -53l82 53l129 -116q-18 -13 -46 -36t-56 -52.5t-50 -63.5t-28 -69l-33 -193
q-5 -27 6 -57t35 -55t60.5 -41.5t83.5 -16.5q52 0 85 28.5t44 90.5l102 571h176z" />
    <glyph glyph-name="uni0E07" unicode="&#xe07;" horiz-adv-x="731" 
d="M684 426q-21 -119 -71 -207.5t-130 -144t-190.5 -76t-251.5 -2.5l10 721l185 108l-15 -680q48 0 94 16t84.5 50.5t67 87.5t41.5 127q11 63 7 111.5t-27 81.5t-67.5 50t-115.5 17l25 143q104 5 180 -15.5t121 -69.5t59 -128t-6 -190z" />
    <glyph glyph-name="uni0E08" unicode="&#xe08;" horiz-adv-x="717" 
d="M668 424q-44 -246 -216 -354.5t-462 -67.5l88 498l-15 92h207l-77 -447q57 0 106 15t87.5 48t65.5 85t40 125q14 81 -11 138.5t-83 89.5t-145 37.5t-196 -17.5l27 143q156 30 274 15.5t193.5 -66.5t106 -137.5t10.5 -196.5z" />
    <glyph glyph-name="uni0E09" unicode="&#xe09;" horiz-adv-x="805" 
d="M662 0h-177l15 84q-23 -18 -51 -35.5t-59.5 -31t-66 -21.5t-71.5 -8q-57 0 -103.5 15t-76.5 47t-41.5 82t0.5 120l32 184l-16 92h207l-47 -278q-21 -121 86 -121q47 0 89.5 16.5t75.5 41.5t54.5 55t26.5 57l43 252q12 68 -40 103.5t-155 35.5q-74 0 -156 -24.5
t-159 -75.5l26 153q21 15 54.5 31t76.5 29.5t92.5 22t102.5 8.5q101 0 170.5 -20.5t110 -58.5t53 -92.5t0.5 -121.5z" />
    <glyph glyph-name="uni0E0A" unicode="&#xe0a;" horiz-adv-x="719" 
d="M518 692q34 -15 65.5 -42.5t52.5 -66.5t29.5 -90t-1.5 -112q-21 -116 -79.5 -199t-147.5 -131t-204.5 -59t-250.5 18l127 717l-15 92h207l-123 -690q51 -3 101 12t92.5 47t73.5 80.5t42 112.5q19 104 -24.5 175t-169.5 110l190 153h244z" />
    <glyph glyph-name="uni0E0B" unicode="&#xe0b;" horiz-adv-x="760" 
d="M559 692q34 -15 65.5 -42.5t52.5 -66.5t29.5 -90t-1.5 -112q-21 -118 -83 -201.5t-154.5 -130.5t-211.5 -57.5t-254 18.5l104 592q2 14 10.5 26t17.5 21q11 11 22 19l-125 92l129 76l65 -60l86 60l99 -64q-18 -12 -38 -27.5t-37.5 -34.5t-31 -42.5t-18.5 -51.5l-86 -487
q51 -3 104 10.5t99 44.5t80 80t46 117q19 104 -24.5 175t-169.5 110l190 153h244z" />
    <glyph glyph-name="uni0E0C" unicode="&#xe0c;" horiz-adv-x="1237" 
d="M1139 254q-14 -80 -43.5 -131.5t-67.5 -81.5t-81 -41.5t-83 -11.5q-38 0 -69 9t-55.5 22t-42 28.5t-27.5 28.5l-15 -76h-176l101 569q6 35 -5 59t-32.5 38.5t-50.5 21t-58 6.5q-28 0 -55 -5t-52 -14.5t-45.5 -23t-35.5 -30.5l80 -62q-26 -12 -42.5 -27.5t-27 -32
t-15.5 -33t-8 -30.5l-55 -305h86l-22 -131h-262l75 432q3 18 12.5 35t22.5 30.5t27.5 23.5t27.5 16l-98 67q29 65 76.5 109t104 71t116.5 38.5t115 11.5q61 0 120 -14t102.5 -45t65.5 -81.5t9 -122.5l-51 -290q-5 -26 1 -53t23 -49t45.5 -36t67.5 -14q43 0 76.5 29t44.5 94
l100 567h176z" />
    <glyph glyph-name="uni0E0D" unicode="&#xe0d;" horiz-adv-x="1237" 
d="M1106 72q-13 -75 -46.5 -130t-82 -90t-109 -52t-127.5 -17h-247l-43 137h284q42 0 73 10t52.5 27t33.5 39.5t17 48.5q-11 -8 -27 -18t-37 -18t-48.5 -13.5t-61.5 -5.5q-48 0 -93 10.5t-77 38t-46 75t-1 122.5l60 333q6 35 -5 59t-32.5 38.5t-50.5 21t-58 6.5
q-28 0 -55 -5t-52 -14.5t-45.5 -23t-35.5 -30.5l80 -62q-26 -12 -42.5 -27.5t-27 -32t-15.5 -33t-8 -30.5l-55 -305h86l-22 -131h-262l75 432q3 18 12.5 35t22.5 30.5t27.5 23.5t27.5 16l-98 67q29 65 76.5 109t104 71t116.5 38.5t115 11.5q61 0 120 -14t102.5 -45
t65.5 -81.5t9 -122.5l-60 -333q-6 -33 0 -55t19.5 -34.5t32.5 -18t40 -5.5q25 0 53.5 9t54 26.5t44.5 44.5t25 63l98 551h176z" />
    <glyph glyph-name="uni0E0E" unicode="&#xe0e;" horiz-adv-x="829" 
d="M633 -307h-176l-113 92l-141 -92h-199l-39 129h213l195 125l110 -92l127 714q6 35 -4.5 59t-32 38.5t-50.5 21t-58 6.5q-28 0 -55.5 -5t-52 -14.5t-45.5 -23t-36 -30.5l80 -62q-25 -12 -41.5 -27.5t-27 -32t-16 -33t-7.5 -30.5l-78 -436h-258l23 131h82l53 301
q3 18 12.5 35t22.5 30.5t27.5 23.5t27.5 16l-98 67q29 65 76.5 109t104 71t116.5 38.5t114 11.5q61 0 119.5 -14t102 -45t65.5 -81.5t10 -122.5z" />
    <glyph glyph-name="uni0E0F" unicode="&#xe0f;" horiz-adv-x="829" 
d="M633 -307h-176l-58 86l-120 -107l-91 107l-92 -86h-178l-33 129h181l155 127l88 -105l121 105l57 -74l123 694q6 35 -4.5 59t-32 38.5t-50.5 21t-58 6.5q-28 0 -55.5 -5t-52 -14.5t-45.5 -23t-36 -30.5l80 -62q-25 -12 -41.5 -27.5t-27 -32t-16 -33t-7.5 -30.5l-78 -436
h-258l23 131h82l53 301q3 18 12.5 35t22.5 30.5t27.5 23.5t27.5 16l-98 67q29 65 76.5 109t104 71t116.5 38.5t114 11.5q61 0 119.5 -14t102 -45t65.5 -81.5t10 -122.5z" />
    <glyph glyph-name="uni0E10" unicode="&#xe10;" horiz-adv-x="717" 
d="M598 717q103 -106 70 -293q-44 -246 -216 -354.5t-462 -67.5l88 498l-15 92h207l-77 -447q57 0 106 15t87.5 48t65.5 85t40 125q14 81 -11 138.5t-83 89.5t-145 37.5t-196 -17.5l27 143q121 23 220 19.5t173 -31.5l35 53h193zM526 -307h-176l-55 65l-102 -94l-76 94
l-78 -65h-131l-49 129h159l134 100l67 -84l100 84l60 -65l10 61l-10 53h196z" />
    <glyph glyph-name="uni0E11" unicode="&#xe11;" horiz-adv-x="860" 
d="M717 0h-176l104 590l6 34.5t2 29t-6.5 20.5t-19.5 8q-12 0 -28 -11.5t-33.5 -29.5t-36.5 -41l-37 -47q-26 -34 -56 -80l-61 -96.5l-60 -102t-52.5 -98t-39.5 -84t-20 -59.5l-6 -33h-177l84 481q7 41 28 73t45.5 55.5t49 39t39.5 23.5l-30 33l-93 -64l-112 113l139 75
l61 -53l82 53l111 -108q-17 -12 -38 -32t-40 -45t-34 -51t-19 -50l-6 -31q-2 -13 -9 -39.5l-15 -54.5l-19 -70h6q32 93 67.5 162t73.5 119q27 36 61 72t71.5 65t78 47t80.5 18q54 0 85.5 -16.5t46.5 -47t15.5 -73.5t-8.5 -96z" />
    <glyph glyph-name="uni0E12" unicode="&#xe12;" horiz-adv-x="1278" 
d="M1180 254q-14 -80 -43.5 -131.5t-67.5 -81.5t-81 -41.5t-83 -11.5q-38 0 -69 9t-55.5 22t-42 28.5t-27.5 28.5l-15 -76h-176l113 637l-101 -78l-106 111q-38 -14 -74 -40t-65.5 -60.5t-51 -77t-28.5 -89.5q-12 -65 -0.5 -118.5t46.5 -89t93 -50t139 -0.5l-26 -147
q-134 -18 -224 8.5t-141 83.5t-65.5 138.5t2.5 174.5q15 84 54 156t97.5 127.5t133 93.5t159.5 54l90 -91l109 76h168l-97 -538q-5 -26 1.5 -53t23.5 -49t45.5 -36t67.5 -14q43 0 76.5 29t44.5 94l100 567h176z" />
    <glyph glyph-name="uni0E13" unicode="&#xe13;" horiz-adv-x="1237" 
d="M1094 0h-176l14 76q-15 -13 -38 -28.5t-52.5 -28.5t-64.5 -22t-72 -9q-40 0 -78.5 11.5t-66 41.5t-39 81.5t2.5 131.5l56 315q6 35 -5 59t-32.5 38.5t-50.5 21t-58 6.5q-28 0 -55 -5t-52 -14.5t-45.5 -23t-35.5 -30.5l80 -62q-26 -12 -42.5 -27.5t-27 -32t-15.5 -33
t-8 -30.5l-55 -305h86l-22 -131h-262l75 432q3 18 12.5 35t22.5 30.5t27.5 23.5t27.5 16l-98 67q29 65 76.5 109t104 71t116.5 38.5t115 11.5q61 0 119.5 -14t102 -45t65.5 -81.5t10 -122.5l-56 -319q-11 -65 11 -94t65 -29q39 0 72 14t58 36t40.5 49t20.5 53l96 538h176z
" />
    <glyph glyph-name="uni0E14" unicode="&#xe14;" horiz-adv-x="840" 
d="M696 -2h-176l119 678l-131 4q-54 1 -104 -21.5t-91 -60.5t-69 -88t-37 -104q-12 -69 -0.5 -123t46.5 -89t93 -48.5t139 -0.5l-26 -147q-132 -18 -222 8.5t-141.5 84t-66.5 139.5t2 176q15 87 60.5 163.5t113 133.5t153.5 89t183 31l301 -4z" />
    <glyph glyph-name="uni0E15" unicode="&#xe15;" horiz-adv-x="840" 
d="M696 0h-176l113 637l-101 -78l-106 111q-38 -14 -74 -40t-65.5 -60.5t-51 -77t-28.5 -89.5q-12 -65 -0.5 -118.5t46.5 -89t93 -50t139 -0.5l-26 -147q-134 -18 -224 8.5t-141 83.5t-65.5 138.5t2.5 174.5q15 84 54 156t97.5 127.5t133 93.5t159.5 54l90 -91l109 76h168z
" />
    <glyph glyph-name="uni0E16" unicode="&#xe16;" horiz-adv-x="799" 
d="M655 0h-176l101 569q6 35 -5 59t-32.5 38.5t-50.5 21t-58 6.5q-28 0 -55 -5t-52 -14.5t-45.5 -23t-35.5 -30.5l80 -62q-26 -12 -42.5 -27.5t-27 -32t-15.5 -33t-8 -30.5l-55 -305h86l-22 -131h-262l75 432q3 18 12.5 35t22.5 30.5t27.5 23.5t27.5 16l-98 67
q29 65 76.5 109t104 71t116.5 38.5t115 11.5q61 0 120 -14t102.5 -45t65.5 -81.5t9 -122.5z" />
    <glyph glyph-name="uni0E17" unicode="&#xe17;" horiz-adv-x="799" 
d="M655 0h-176l101 571q11 62 -12.5 90.5t-75.5 28.5q-47 0 -89 -16.5t-75 -41.5t-54.5 -55t-25.5 -57l-92 -520h-176l145 819h176l-16 -84q24 18 52 35.5t59.5 31t66.5 21.5t72 8q58 0 104.5 -15t76.5 -47t41 -82t-1 -120z" />
    <glyph glyph-name="uni0E18" unicode="&#xe18;" horiz-adv-x="770" 
d="M707 594q-35 30 -72.5 48.5t-77.5 29t-80.5 14.5t-81.5 4q-29 0 -57 -3.5t-49.5 -10.5t-36 -16t-16.5 -21q-3 -15 19.5 -25t58 -16.5t78 -12t79.5 -12.5q56 -11 103.5 -30.5t79 -52t45 -78.5t1.5 -109q-20 -112 -82.5 -180t-157 -100.5t-217 -34t-261.5 19.5l71 410h176
l-49 -283q49 -5 105 -3t105.5 18.5t85.5 50.5t46 92q7 37 -8 63.5t-45 44t-70.5 27t-85.5 14.5q-62 7 -113.5 19.5t-86 34t-50 55t-6.5 82.5q8 44 40 81t80.5 63.5t110 41.5t128.5 15q65 0 117 -7.5t91.5 -19.5t66.5 -27.5t42 -31.5z" />
    <glyph glyph-name="uni0E19" unicode="&#xe19;" horiz-adv-x="799" 
d="M655 0h-176l15 84q-23 -18 -51 -35.5t-59.5 -31t-66 -21.5t-71.5 -8q-59 0 -105 15t-76 47t-41 82t1 120l100 567h176l-102 -571q-11 -62 12 -90.5t76 -28.5q47 0 89.5 16.5t75.5 41.5t54 55t26 57l93 520h176z" />
    <glyph glyph-name="uni0E1A" unicode="&#xe1a;" horiz-adv-x="799" 
d="M698 244q-13 -73 -52 -122.5t-92.5 -79.5t-116 -43t-122.5 -13q-58 0 -116 13t-101.5 43t-65.5 79.5t-9 122.5l102 575h176l-100 -565q-6 -35 4.5 -59t31 -38.5t48 -21t55.5 -6.5t58 6.5t56 21t45 38.5t25 59l101 565h176z" />
    <glyph glyph-name="uni0E1B" unicode="&#xe1b;" horiz-adv-x="799" 
d="M698 244q-13 -73 -52 -122.5t-92.5 -79.5t-116 -43t-122.5 -13q-58 0 -116 13t-101.5 43t-65.5 79.5t-9 122.5l102 575h176l-100 -565q-6 -35 4.5 -59t31 -38.5t48 -21t55.5 -6.5t58 6.5t56 21t45 38.5t25 59l131 750h176l-133 -760v0z" />
    <glyph glyph-name="uni0E1C" unicode="&#xe1c;" horiz-adv-x="1028" 
d="M762 0h-168l-68 537l-256 -537h-168l-39 819h299l-22 -123h-100l12 -434l246 514l-6 43h147l68 -557l213 557h172z" />
    <glyph glyph-name="uni0E1D" unicode="&#xe1d;" horiz-adv-x="1028" 
d="M762 0h-168l-68 537l-256 -537h-168l-39 819h299l-22 -123h-100l12 -434l246 514l-6 43h147l68 -557l280 742h172z" />
    <glyph glyph-name="uni0E1E" unicode="&#xe1e;" horiz-adv-x="1028" 
d="M762 0h-168l-68 537l-256 -537h-168l-39 819h173l16 -557l246 514l-6 43h147l68 -557l213 557h172z" />
    <glyph glyph-name="uni0E1F" unicode="&#xe1f;" horiz-adv-x="1028" 
d="M762 0h-168l-68 537l-256 -537h-168l-39 819h173l16 -557l246 514l-6 43h147l68 -557l280 742h172z" />
    <glyph glyph-name="uni0E20" unicode="&#xe20;" horiz-adv-x="829" 
d="M686 0h-176l100 569q6 35 -4.5 59t-32 38.5t-50.5 21t-58 6.5q-28 0 -55.5 -5t-52 -14.5t-45.5 -23t-36 -30.5l80 -62q-25 -12 -41.5 -27.5t-27 -32t-16 -33t-7.5 -30.5l-78 -436h-258l23 131h82l53 301q3 18 12.5 35t22.5 30.5t27.5 23.5t27.5 16l-98 67q29 65 76.5 109
t104 71t116.5 38.5t114 11.5q61 0 120 -14t102.5 -45t65.5 -81.5t9 -122.5z" />
    <glyph glyph-name="uni0E21" unicode="&#xe21;" horiz-adv-x="799" 
d="M700 252q-12 -70 -41 -120t-70 -82t-93.5 -47t-110.5 -15q-37 0 -68.5 8t-58.5 21.5t-49 31t-39 35.5l-14 -84h-176l145 819h176l-92 -520q-5 -27 6 -57t35 -55t60 -41.5t83 -16.5q53 0 85.5 28.5t43.5 90.5l103 571h176z" />
    <glyph glyph-name="uni0E22" unicode="&#xe22;" horiz-adv-x="788" 
d="M645 0l-356 -4q-65 -1 -125 8.5t-102.5 37.5t-62.5 78.5t-5 131.5q7 44 27 78.5t46 60t55 42t54 24.5q-22 4 -43.5 17.5t-37.5 34t-23.5 48t-1.5 59.5q10 61 46.5 105t90.5 70t122 34t142 -2l-25 -141q-34 9 -68 8.5t-62 -10t-47 -27t-23 -41.5q-5 -24 5.5 -41
t31.5 -26.5t49 -13t59 -1.5l39 -127q-51 4 -95.5 -4t-78.5 -26t-56 -46t-28 -63q-8 -45 6.5 -70.5t41.5 -38.5t63 -16t71 -2l140 4l120 678h177z" />
    <glyph glyph-name="uni0E23" unicode="&#xe23;" horiz-adv-x="715" 
d="M672 596q-18 22 -48.5 39.5t-66 29.5t-73 18.5t-70.5 6.5q-78 0 -127 -23.5t-56 -58.5q-3 -20 11.5 -32.5t40 -20.5t57 -13l63.5 -10q61 -9 111.5 -26.5t84 -48.5t48 -77t2.5 -112q-13 -76 -50.5 -129t-90 -86.5t-116.5 -49t-130 -15.5q-105 0 -175 20.5t-118 52.5
l29 162q60 -49 131 -70.5t137 -21.5q32 0 66 6t63.5 20t50.5 38t27 59q9 54 -23.5 84t-113.5 41q-59 7 -114 19t-96 36t-61.5 65t-9.5 107q9 52 42 94t81 72t107.5 46t122.5 16q60 0 107.5 -8t83.5 -20t61 -26.5t40 -27.5z" />
    <glyph glyph-name="uni0E24" unicode="&#xe24;" horiz-adv-x="799" 
d="M612 -246h-176l144 815q6 35 -5 59t-32.5 38.5t-50.5 21t-58 6.5q-28 0 -55 -5t-52 -14.5t-45.5 -23t-35.5 -30.5l80 -62q-26 -12 -42.5 -27.5t-27 -32t-15.5 -33t-8 -30.5l-55 -305h86l-22 -131h-262l75 432q3 18 12.5 35t22.5 30.5t27.5 23.5t27.5 16l-98 67
q29 65 76.5 109t104 71t116.5 38.5t115 11.5q61 0 120 -14t102.5 -45t65.5 -81.5t9 -122.5z" />
    <glyph glyph-name="uni0E25" unicode="&#xe25;" horiz-adv-x="805" 
d="M662 0h-177l80 457q-56 7 -120 3t-120.5 -23t-97.5 -55.5t-51 -96.5q-8 -42 6.5 -72.5t45.5 -48.5t75.5 -23.5t97.5 2.5l-26 -149q-94 -15 -170 -3t-126.5 48.5t-72 98t-6.5 147.5q15 88 69.5 152t134 103.5t176.5 54.5t198 5q3 37 -43 63.5t-127 26.5q-74 0 -155 -19.5
t-173 -74.5l29 156q33 18 70 33.5t80.5 26t94 16.5t109.5 6q65 0 125 -13.5t103 -43.5t64 -78.5t9 -118.5z" />
    <glyph glyph-name="uni0E26" unicode="&#xe26;" horiz-adv-x="829" 
d="M643 -246h-176l143 815q6 35 -4.5 59t-32 38.5t-50.5 21t-58 6.5q-28 0 -55.5 -5t-52 -14.5t-45.5 -23t-36 -30.5l80 -62q-25 -12 -41.5 -27.5t-27 -32t-16 -33t-7.5 -30.5l-78 -436h-258l23 131h82l53 301q3 18 12.5 35t22.5 30.5t27.5 23.5t27.5 16l-98 67
q29 65 76.5 109t104 71t116.5 38.5t114 11.5q61 0 120 -14t102.5 -45t65.5 -81.5t9 -122.5z" />
    <glyph glyph-name="uni0E27" unicode="&#xe27;" horiz-adv-x="680" 
d="M629 410q-22 -122 -64.5 -203.5t-100.5 -130t-129.5 -68.5t-150.5 -20q-84 0 -140 17t-97 42l28 160q39 -29 89 -47.5t118 -18.5q48 0 91.5 13t78.5 44t61 82.5t40 129.5q13 77 5.5 128.5t-32 82.5t-63 44t-87.5 13q-68 0 -123.5 -18.5t-105.5 -47.5l27 160q51 25 113 42
t147 17q79 0 143 -20t105 -68.5t54.5 -129.5t-7.5 -203z" />
    <glyph glyph-name="uni0E28" unicode="&#xe28;" horiz-adv-x="819" 
d="M711 770q40 -31 60 -78t7 -117l-102 -575h-176l100 565q6 35 -6 59t-34.5 38.5t-52 21t-58.5 6.5t-60 -6.5t-59 -21t-48 -38.5t-26 -59l-12 -67h213l-27 -152h-213l-61 -346h-176l102 575q13 72 53 121.5t95 80t119 44t126 13.5q55 0 100 -9l35 56h191z" />
    <glyph glyph-name="uni0E29" unicode="&#xe29;" horiz-adv-x="819" 
d="M764 393h-39l-27 -149q-13 -73 -52 -122.5t-92.5 -79.5t-116 -43t-122.5 -13q-58 0 -116 13t-101.5 43t-65.5 79.5t-9 122.5l102 575h176l-100 -565q-6 -35 4.5 -59t31 -38.5t48 -21t55.5 -6.5t58 6.5t56 21t45 38.5t25 59l25 139h-193l29 164l100 -31h86l54 293h176
l-53 -293h98z" />
    <glyph glyph-name="uni0E2A" unicode="&#xe2a;" horiz-adv-x="805" 
d="M705 766q35 -31 52.5 -76t6.5 -110l-102 -580h-177l80 457q-56 7 -120 3t-120.5 -23t-97.5 -55.5t-51 -96.5q-8 -42 6.5 -72.5t45.5 -48.5t75.5 -23.5t97.5 2.5l-26 -149q-94 -15 -170 -3t-126.5 48.5t-72 98t-6.5 147.5q15 88 69.5 152t134 103.5t176.5 54.5t198 5
q3 37 -43 63.5t-127 26.5q-74 0 -155 -19.5t-173 -74.5l29 156q33 18 70 33.5t80.5 26t94 16.5t109.5 6q29 0 57 -3t55 -8l35 58h191z" />
    <glyph glyph-name="uni0E2B" unicode="&#xe2b;" horiz-adv-x="799" 
d="M633 674q25 -12 47.5 -28.5t38 -40t21.5 -54.5t-1 -70l-84 -481h-176l80 459q8 40 -6.5 69t-52.5 43q-13 -9 -34.5 -25.5l-48 -37l-56 -43.5l-56.5 -44.5l-50 -40l-38 -30.5l-61 -350h-176l145 819h176l-47 -258l346 258h221z" />
    <glyph glyph-name="uni0E2C" unicode="&#xe2c;" horiz-adv-x="1028" 
d="M1010 1004h172l-25 -62q-26 -65 -76 -105t-118 -40q40 -17 55.5 -65t-8.5 -111l-248 -621h-168l-68 537l-256 -537h-168l-39 819h173l16 -557l246 514l-6 43h147l68 -557l137 361q11 30 10.5 57t-13.5 47.5t-38 32.5t-62 12h-26l59 125q45 0 81.5 2t64 10t47 23.5
t30.5 42.5z" />
    <glyph glyph-name="uni0E2D" unicode="&#xe2d;" horiz-adv-x="856" 
d="M805 410q-19 -111 -64 -191.5t-107.5 -132t-137.5 -76t-154 -24.5q-78 0 -144 24t-110.5 75.5t-62.5 132t2 192.5q6 31 14.5 65t19.5 60h312l-25 -136h-147q-20 -134 26.5 -202t139.5 -68q48 0 90 18t76 53t59 88t37 122t5.5 121.5t-28.5 87.5t-58 53t-83 18
q-32 0 -61 -8.5t-54 -23t-45 -33t-33 -39.5h-190q34 66 80 113t100 77t112.5 44t117.5 14q79 0 145 -24.5t110 -76t61 -132t-3 -191.5z" />
    <glyph glyph-name="uni0E2E" unicode="&#xe2e;" horiz-adv-x="856" 
d="M805 410q-20 -111 -65 -191.5t-107 -132t-137 -76t-154 -24.5q-78 0 -144 24t-110.5 75.5t-62.5 132t2 192.5q6 31 14.5 65t19.5 60h312l-25 -136h-147q-20 -134 26.5 -202t139.5 -68q48 0 90 18t76 53t59 88t37 122t5.5 121.5t-28.5 87.5t-58 53t-83 18q-32 0 -61 -8.5
t-54 -23t-45 -33t-33 -39.5h-190q34 66 80 113t100 77t112.5 44t117.5 14q21 0 43 -2t40 -7l27 45h189l-82 -102q65 -48 92 -136t4 -222z" />
    <glyph glyph-name="uni0E2F" unicode="&#xe2f;" horiz-adv-x="743" 
d="M600 0h-174l102 580q-14 -15 -39.5 -34.5t-60.5 -37t-78.5 -29.5t-91.5 -12q-44 0 -83 11t-66.5 33.5t-40.5 56.5t-5 81q7 38 28.5 69.5t54 55.5t75 39.5t92.5 20.5l80 -97q-38 -1 -66 -8.5t-46.5 -18.5t-28.5 -25t-12 -28q-5 -24 12.5 -37.5t48.5 -13.5q38 -1 79.5 14.5
t79.5 43.5t68.5 67.5t46.5 87.5h170z" />
    <glyph glyph-name="uni0E30" unicode="&#xe30;" horiz-adv-x="373" 
d="M303 537h-250l35 190h176l-8 -47h135zM227 102h-250l33 191h176l-8 -47h135z" />
    <glyph glyph-name="uni0E31" unicode="&#xe31;" 
d="M188 922h-565l35 190h178l-14 -80h448z" />
    <glyph glyph-name="uni0E32" unicode="&#xe32;" horiz-adv-x="580" 
d="M436 0h-176l102 578q10 51 -21.5 81.5t-113.5 30.5q-49 0 -96.5 -11.5t-87.5 -31.5l25 146q43 20 94.5 30.5t111.5 10.5q88 0 144 -21.5t85 -57.5t36 -84t-2 -100z" />
    <glyph glyph-name="uni0E33" unicode="&#xe33;" horiz-adv-x="580" 
d="M86 1028q-5 -24 -19 -44.5t-35 -36.5t-47.5 -25t-56.5 -9t-53.5 9t-39 25t-22 36.5t-1.5 44.5q4 24 17.5 45t34 36.5t47 24.5t56.5 9t53.5 -9t39.5 -24.5t23 -36.5t3 -45zM436 0h-176l102 578q10 51 -21.5 81.5t-113.5 30.5q-49 0 -96.5 -11.5t-87.5 -31.5l25 146
q43 20 94.5 30.5t111.5 10.5q88 0 144 -21.5t85 -57.5t36 -84t-2 -100zM2 1028q2 17 -9.5 31t-37.5 14t-41.5 -14t-17.5 -31q-4 -17 7.5 -31t37.5 -14t42 14t19 31z" />
    <glyph glyph-name="uni0E34" unicode="&#xe34;" 
d="M18 922h-665l82 110h604z" />
    <glyph glyph-name="uni0E35" unicode="&#xe35;" 
d="M18 922h-665l82 110h428l18 105h176z" />
    <glyph glyph-name="uni0E36" unicode="&#xe36;" 
d="M86 1032q-5 -24 -19 -44.5t-35 -35t-48 -22.5t-56 -8h-575l82 110h377q4 22 17 42.5t33.5 35.5t47 24t57.5 9q32 0 56 -9t39.5 -24t21.5 -35.5t2 -42.5zM0 1032q3 19 -9 32t-34 13q-20 0 -37 -13t-20 -32q-3 -18 9 -31.5t32 -13.5q21 0 38.5 13.5t20.5 31.5z" />
    <glyph glyph-name="uni0E37" unicode="&#xe37;" 
d="M18 922h-665l82 110h252l18 105h115l-19 -105h62l18 105h176z" />
    <glyph glyph-name="uni0E38" unicode="&#xe38;" 
d="M-203 -338h-176l23 133h-103l64 123h237z" />
    <glyph glyph-name="uni0E39" unicode="&#xe39;" 
d="M-180 -213q-13 -71 -77 -108t-163 -37q-102 0 -150.5 37t-35.5 108v8h-82l63 123h197l-21 -117q-2 -13 0.5 -21t8.5 -12.5t14 -6t16 -1.5q17 0 34 7.5t22 33.5l20 117h176z" />
    <glyph glyph-name="uni0E3A" unicode="&#xe3a;" 
d="M-152 -197q-4 -23 -16.5 -43.5t-31.5 -36.5t-41.5 -25t-45.5 -9t-42 9t-31.5 25t-18.5 36.5t-2 43.5t17 44t31.5 36.5t41 25t45.5 9.5t42.5 -9.5t32 -25t18 -36.5t1.5 -44z" />
    <glyph glyph-name="uni0E3F" unicode="&#xe3f;" horiz-adv-x="887" 
d="M829 301q-23 -128 -126 -204.5t-277 -92.5l-29 -166h-116l28 162h-289l170 969h289l29 161h117l-29 -167q59 -6 106 -21.5t78 -42.5t43.5 -66.5t3.5 -93.5q-12 -66 -42.5 -110t-79.5 -76q72 -35 106 -97t18 -155zM635 707q9 57 -28.5 78.5t-127.5 21.5h-133l-35 -205h131
q79 0 131.5 24t61.5 81zM643 297q9 47 -4.5 75t-44 43t-75.5 20t-99 5h-135l-49 -280h174q37 0 76 8t72 24.5t56 42.5t29 62z" />
    <glyph glyph-name="uni0E40" unicode="&#xe40;" horiz-adv-x="381" 
d="M197 0h-177l146 819h176z" />
    <glyph glyph-name="uni0E41" unicode="&#xe41;" horiz-adv-x="692" 
d="M506 0h-176l145 819h176zM197 0h-177l146 819h176z" />
    <glyph glyph-name="uni0E42" unicode="&#xe42;" horiz-adv-x="422" 
d="M608 1110h-227q-20 0 -31 -6.5t-14 -16.5q15 -8 26.5 -18t18 -25.5t8 -37t-3.5 -52.5l-168 -954h-176l172 979q4 22 -1 37.5t-16 27t-26.5 20.5t-32.5 17q6 30 21 60t40.5 54t61 39t80.5 15h293z" />
    <glyph glyph-name="uni0E43" unicode="&#xe43;" horiz-adv-x="422" 
d="M504 1079q-17 -5 -36 -15.5t-35.5 -26t-29 -35.5t-16.5 -44l-170 -958h-176l170 961q5 31 17.5 53.5t29 39t36 27.5t38.5 19q-2 25 -18.5 41t-61.5 16q-21 0 -40 -6.5t-33.5 -17.5t-23 -26t-8.5 -32h-151q1 36 18.5 72t52.5 64.5t87.5 46.5t124.5 18t119 -14.5t73 -41
t33 -62.5t0 -79z" />
    <glyph glyph-name="uni0E44" unicode="&#xe44;" horiz-adv-x="422" 
d="M473 1124q-28 -15 -48.5 -40t-27.5 -62l-180 -1022h-176l178 1006q8 42 32 65.5t52 40.5q2 8 -9 15.5t-30 7.5l-84 -56q-19 18 -49 36q-26 14 -65.5 29.5t-96.5 24.5l111 97q51 -8 82 -23t45 -29l76 46q32 4 68.5 -1.5t66 -22.5t46 -45t9.5 -67z" />
    <glyph glyph-name="uni0E45" unicode="&#xe45;" horiz-adv-x="580" 
d="M393 -246h-176l145 824q10 51 -21.5 81.5t-113.5 30.5q-49 0 -96.5 -11.5t-87.5 -31.5l25 146q43 20 94.5 30.5t111.5 10.5q88 0 144 -21.5t85 -57.5t36 -84t-2 -100z" />
    <glyph glyph-name="uni0E46" unicode="&#xe46;" horiz-adv-x="748" 
d="M561 -246h-176l154 877l-103 -78l-117 123q-14 -1 -28 -7t-26 -16t-20.5 -23t-11.5 -28q-4 -23 7.5 -39.5t32.5 -26t49 -11.5t57 5l-127 -141q-56 1 -96.5 17t-66 43t-35 63.5t-1.5 79.5q9 46 34 89t66 76t99 52.5t133 19.5l80 -92l113 82h172z" />
    <glyph glyph-name="uni0E47" unicode="&#xe47;" 
d="M-4 1120h-344q-57 0 -83.5 -16t-29.5 -39q-3 -14 -1 -25t5 -14l183 64l213 -80l-21 -115l-211 84l-221 -74q-21 6 -39.5 18.5t-30.5 32t-16.5 45.5t0.5 60q5 31 23.5 61.5t48.5 54.5t72.5 39t95.5 15h444z" />
    <glyph glyph-name="uni0E48" unicode="&#xe48;" 
d="M68 1198h-177l31 174h176z" />
    <glyph glyph-name="uni0E49" unicode="&#xe49;" 
d="M139 1198h-350l8 41q5 22 -2.5 34.5t-36.5 12.5h-45l74 103h104q42 0 62.5 -19.5t15.5 -54.5l-2 -19h246z" />
    <glyph glyph-name="uni0E4A" unicode="&#xe4a;" 
d="M209 1198h-170l16 86q9 49 -37 49h-6l-75 -49l-60 49q-18 0 -35 -12t-20 -31q-1 -2 -1 -4q-1 -2 -1 -6h74l-15 -82h-176l16 94q6 31 21.5 55t38.5 41t51 26t59 9h13l53 -43l65 43h17q62 0 97 -32.5t26 -92.5h123z" />
    <glyph glyph-name="uni0E4B" unicode="&#xe4b;" 
d="M154 1276h-80l-15 -78h-159l14 78h-80l12 67h80l13 78h159l-12 -78h80z" />
    <glyph glyph-name="uni0E4C" unicode="&#xe4c;" 
d="M117 1182h-54q-29 0 -48.5 -14.5t-22.5 -39.5l-2 -14h-162l8 49q4 28 19 49.5t36.5 36.5t49 23t57.5 8h190z" />
    <glyph glyph-name="uni0E4D" unicode="&#xe4d;" 
d="M86 1028q-5 -24 -19 -44.5t-35 -36.5t-47.5 -25t-56.5 -9t-53.5 9t-39 25t-22 36.5t-1.5 44.5q4 24 17.5 45t34 36.5t47 24.5t56.5 9t53.5 -9t39.5 -24.5t23 -36.5t3 -45zM2 1028q2 17 -9.5 31t-37.5 14t-41.5 -14t-17.5 -31q-4 -17 7.5 -31t37.5 -14t42 14t19 31z" />
    <glyph glyph-name="uni0E4E" unicode="&#xe4e;" 
d="M184 1341q-44 10 -95.5 10t-96.5 -9t-77 -27t-36 -45q-2 -15 4.5 -23.5t19 -13t29.5 -5.5t35 1l-16 -96q-32 3 -72.5 -1t-76.5 -14t-61.5 -26.5t-29.5 -38.5q-3 -17 9.5 -26t35.5 -10t53.5 6.5t63.5 23.5l35 -84q-65 -32 -125.5 -40t-105.5 4.5t-69 42t-16 72.5
q5 27 21.5 51t42.5 43.5t59.5 33.5t71.5 22q-20 14 -25 37.5t-2 42.5q9 44 46 80.5t96.5 61t136.5 34t166 0.5l-21 -107v0z" />
    <glyph glyph-name="uni0E4F" unicode="&#xe4f;" horiz-adv-x="942" 
d="M881 410q-15 -87 -62 -163.5t-114 -133.5t-149 -90t-169 -33t-157.5 33t-117.5 90t-66.5 133.5t-4.5 163.5t61.5 163t113.5 133t149.5 90t169.5 33t157.5 -33t117.5 -90t66.5 -133t4.5 -163zM819 410q13 73 -3.5 138.5t-57 114t-100.5 77t-134 28.5t-144 -28.5
t-127.5 -77t-97.5 -114t-53 -138.5q-13 -74 4 -139.5t57 -114t100 -77t134 -28.5t144 28.5t127.5 77t97.5 114t53 139.5zM717 410q-9 -53 -37.5 -100t-69.5 -81.5t-91 -54.5t-103 -20t-96.5 20t-72 54.5t-40 81.5t-2.5 100t37.5 99.5t69.5 81.5t91 55t103 20t96 -20
t71.5 -55t40.5 -81.5t3 -99.5z" />
    <glyph glyph-name="uni0E50" unicode="&#xe50;" horiz-adv-x="776" 
d="M707 307q-12 -66 -49.5 -124t-92 -101.5t-122.5 -68.5t-140 -25t-131 25t-99 68.5t-57 101.5t-6 124q12 66 50 124t93 101.5t123 69t140 25.5t131 -25.5t98.5 -69t56.5 -101.5t5 -124zM561 307q7 39 -2.5 75t-33 63t-58 43t-76.5 16t-82 -16t-72.5 -43t-55 -63t-29.5 -75
t3 -74.5t33.5 -62.5t58.5 -43t77 -16t81.5 16t72 43t54.5 62.5t29 74.5z" />
    <glyph glyph-name="uni0E51" unicode="&#xe51;" horiz-adv-x="823" 
d="M754 299q-15 -84 -65 -151.5t-120 -117t-154.5 -81t-168.5 -43.5l-45 104q78 9 147.5 36.5t123.5 67.5t89.5 89t44.5 102q8 45 -4.5 81.5t-39.5 62.5t-66 40.5t-84 14.5q-43 0 -85.5 -14t-77 -38.5t-58 -58t-29.5 -71.5q-9 -54 11 -87.5t48 -44.5q-12 28 -6 66
q5 28 20.5 53.5t38 44.5t50.5 30t57 11q30 0 53.5 -11t39 -30t21.5 -44.5t1 -53.5q-7 -41 -31 -75.5t-60 -60t-80 -40t-92 -14.5q-55 0 -100 19t-75 52t-42.5 78.5t-3.5 99.5q12 69 52.5 126t98.5 98.5t128 64.5t141 23q78 0 143 -23.5t109 -66t63.5 -103t6.5 -135.5z
M406 256q5 23 -8 39t-31 16q-23 0 -41 -16t-23 -39t7.5 -39t35.5 -16q19 0 37 16t23 39z" />
    <glyph glyph-name="uni0E52" unicode="&#xe52;" horiz-adv-x="1202" 
d="M1061 0h-965q7 76 11.5 139.5t5 120t-2.5 108t-12 103.5q-15 87 -62.5 169.5t-115.5 147.5l141 89q73 -82 118.5 -173.5t62.5 -187.5q17 -91 18.5 -186.5t-4.5 -200.5h678l55 309q6 35 -13 54.5t-50 19.5q-26 0 -50.5 -14t-35.5 -37l-49 -281h-148l49 283q-8 25 -32.5 37
t-49.5 12q-45 0 -76 -21.5t-45 -50.5h11q28 0 51.5 -10t39 -28t22.5 -42.5t1 -52.5q-5 -29 -20 -54.5t-37.5 -44.5t-50 -30.5t-55.5 -11.5q-29 0 -52.5 11.5t-40 30.5t-23.5 44.5t-1 54.5l20 109q9 49 35 89.5t63.5 70t84 45.5t96.5 16q48 0 88.5 -16.5t66.5 -42.5
q32 26 76 42.5t86 16.5q44 0 82 -13.5t64.5 -39t38.5 -63t4 -85.5zM528 301q5 23 -8 39t-35 16q-23 0 -41.5 -16t-23.5 -39t8.5 -40t36.5 -17q22 0 40 17t23 40z" />
    <glyph glyph-name="uni0E53" unicode="&#xe53;" horiz-adv-x="948" 
d="M807 0h-148l76 430q3 18 -2.5 31t-16 21.5t-25 13t-29.5 4.5q-26 0 -53 -10.5t-44 -30.5l-80 -459h-147l80 459q-14 23 -40.5 32t-53.5 9q-44 0 -81.5 -23.5t-45.5 -68.5l-19 -111q5 2 6.5 2h8.5q34 0 61 -12.5t44.5 -34t25 -50t2.5 -59.5q-6 -33 -24 -61.5t-43.5 -49
t-56.5 -32.5t-65 -12t-62 12t-46.5 32.5t-26.5 49t-2 61.5l49 277q9 48 36.5 87t67.5 66.5t89 42.5t100 15q57 0 101.5 -18t70.5 -44q31 25 76.5 43.5t99.5 18.5q46 0 85 -12t66 -36t39 -59t5 -80zM223 141q5 25 -9.5 43.5t-39.5 18.5t-44 -18.5t-24 -43.5q-5 -26 9 -44.5
t39 -18.5q24 0 44 18.5t25 44.5z" />
    <glyph glyph-name="uni0E54" unicode="&#xe54;" horiz-adv-x="879" 
d="M948 860q-11 -71 -39.5 -134.5t-69.5 -113t-94 -80.5t-114 -38q-32 -4 -58.5 -3.5t-53 3l-56 5.5t-68.5 3q-41 0 -80.5 -13t-71.5 -38t-54.5 -60t-28.5 -80q-7 -45 3.5 -80t34 -58.5t56.5 -35.5t70 -12q24 0 50.5 6.5t45.5 15.5q-28 23 -45.5 58t-9.5 80q6 33 23 61.5
t41.5 50t55 33.5t62.5 12q33 0 59.5 -11t44 -31t24.5 -47.5t1 -59.5q-6 -34 -27 -62.5t-47 -48.5q13 -9 41 -12.5t60.5 -9.5t65 -18.5t54.5 -39.5l-104 -108q-85 55 -160 55q-29 0 -57 -9t-59.5 -20.5t-68 -20.5t-83.5 -9q-62 0 -118.5 19.5t-96.5 59t-58.5 100t-5.5 142.5
q12 75 48.5 135.5t91.5 103t124 66t144 23.5q40 0 68 -2.5t51 -4t46 -2t54 4.5q29 4 55 24t47 51t36.5 70t23.5 80h147zM578 295q5 25 -7.5 42t-35.5 17t-44 -17t-26 -42q-3 -25 10.5 -42t36.5 -17t42.5 17t23.5 42z" />
    <glyph glyph-name="uni0E55" unicode="&#xe55;" horiz-adv-x="879" 
d="M948 860q-11 -71 -39.5 -134.5t-69.5 -113t-94 -80.5t-114 -38q-32 -4 -58.5 -3.5t-53 3l-56 5.5t-68.5 3q-41 0 -80.5 -13t-71.5 -38t-54.5 -60t-28.5 -80q-7 -45 3.5 -80t34 -58.5t56.5 -35.5t70 -12q24 0 50.5 6.5t45.5 15.5q-28 23 -45.5 60t-9.5 82q5 33 22 61
t42 48.5t55.5 32t62.5 11.5q33 0 59.5 -11t44 -31t24.5 -47.5t1 -59.5q-6 -34 -27 -62.5t-47 -48.5q13 -9 41 -12.5t60.5 -9.5t65 -18.5t54.5 -39.5l-104 -108q-85 55 -160 55q-29 0 -57 -9t-59.5 -20.5t-68 -20.5t-83.5 -9q-62 0 -118.5 19.5t-96.5 59t-58.5 100
t-5.5 142.5q9 61 36 112.5t67.5 91t91.5 66t108 37.5q-9 13 -15 33t-1 49q6 32 26 59.5t49.5 47t64.5 30.5t71 11t67 -11t53 -30.5t32 -46.5t4 -60q-3 -20 -10.5 -35.5t-16.5 -29.5q29 4 55 24t47 51t36.5 70t23.5 80h147zM545 686q5 23 -10.5 40t-42.5 17q-28 0 -49.5 -17
t-26.5 -40t11 -40t44 -17t48.5 17t25.5 40zM578 295q5 25 -7.5 42t-35.5 17t-44 -17t-26 -42q-3 -25 10.5 -42t36.5 -17t42.5 17t23.5 42z" />
    <glyph glyph-name="uni0E56" unicode="&#xe56;" horiz-adv-x="811" 
d="M743 317q-13 -72 -52.5 -132.5t-98.5 -105t-132.5 -69t-154.5 -24.5q-78 0 -133.5 23t-89 58.5t-45.5 79.5t-4 86q6 32 22.5 59.5t40.5 47.5t54 31.5t63 11.5q32 0 57.5 -12t41.5 -32t22.5 -46.5t1.5 -56.5q-5 -31 -23.5 -61t-44.5 -50q11 -2 27.5 -4t30.5 -2
q47 0 92 14.5t82 40.5t62.5 62.5t33.5 80.5q7 40 -5 74.5t-38 59.5t-64 39t-83 14q-85 0 -158.5 -31t-145.5 -88q3 64 -12.5 120t-42 102.5t-59.5 83.5t-66 65l131 86q39 -29 67 -61t47 -65.5t30 -67t16 -64.5q50 23 107.5 38t117.5 15q78 0 140 -23t102.5 -65t57.5 -101
t5 -131zM242 233q5 25 -9.5 42.5t-37.5 17.5t-42 -17.5t-24 -42.5q-5 -24 8.5 -41.5t36.5 -17.5t43 17.5t25 41.5z" />
    <glyph glyph-name="uni0E57" unicode="&#xe57;" horiz-adv-x="1171" 
d="M1214 860q-5 -94 -23 -185.5t-47 -177t-67.5 -162.5t-85 -141.5t-101 -114t-114.5 -79.5h-117l76 430q3 18 -2.5 31t-16 21.5t-25 13t-29.5 4.5q-26 0 -53 -10.5t-44 -30.5l-80 -459h-147l80 459q-14 23 -40.5 32t-53.5 9q-44 0 -81.5 -23.5t-45.5 -68.5l-19 -111
q5 2 6.5 2h8.5q34 0 61 -12.5t44.5 -34t25 -50t2.5 -59.5q-6 -33 -24 -61.5t-43.5 -49t-56.5 -32.5t-65 -12t-62 12t-46.5 32.5t-26.5 49t-2 61.5l49 277q9 48 36.5 87t67.5 66.5t89 42.5t100 15q57 0 101.5 -18t70.5 -44q31 25 76.5 43.5t99.5 18.5q46 0 85 -12t66 -36
t39 -59t5 -80l-43 -245q43 46 82 113.5t68 152.5t47.5 184.5t21.5 210.5h153zM223 141q5 25 -9.5 43.5t-39.5 18.5t-44 -18.5t-24 -43.5q-5 -26 9 -44.5t39 -18.5q24 0 44 18.5t25 44.5z" />
    <glyph glyph-name="uni0E58" unicode="&#xe58;" horiz-adv-x="899" 
d="M942 829q-13 -56 -35.5 -107.5t-50.5 -97.5t-60 -86t-63 -71q-59 17 -123.5 28t-138.5 11q-62 0 -115.5 -13.5t-94.5 -38.5t-67.5 -60t-33.5 -77q-6 -30 -0.5 -57t17.5 -48t28.5 -36t34.5 -22l161 137l115 -146q9 4 17 8l11.5 6t6.5 3q-19 20 -26.5 47.5t-2.5 56.5
q5 28 21 53.5t40 45t53 31.5t60 12t56.5 -12.5t42.5 -33t24 -46.5t2 -54q-8 -45 -38.5 -84t-77 -73t-107 -62.5t-129.5 -52.5l-92 123l-137 -125q-54 7 -101 33t-79 68t-46 98.5t-2 125.5q12 71 50.5 130.5t99 103t141 68t176.5 24.5q84 0 136 -5.5t83 -10.5q25 35 52 90.5
t47 128.5zM721 268q5 22 -8 38t-33 16t-38.5 -16t-23.5 -38q-3 -21 10.5 -37t33.5 -16t38 16t21 37z" />
    <glyph glyph-name="uni0E59" unicode="&#xe59;" horiz-adv-x="1004" 
d="M1096 848q-7 -64 -27 -123t-48 -111t-61 -94.5t-67 -73.5q-5 20 -16.5 34t-27 21.5t-34.5 10t-37 0.5q-25 -3 -46.5 -19t-31.5 -34q41 -91 54.5 -203t7.5 -248l-152 -20q3 62 2.5 125t-7.5 121t-21.5 108.5t-40.5 87.5t-64.5 58.5t-93.5 21.5q-40 0 -77 -15t-67.5 -40.5
t-51 -59.5t-27.5 -73q-9 -54 -1 -89.5t19 -52.5q9 26 26 49t39.5 40.5t50 27.5t56.5 10q32 0 58.5 -11.5t44 -31.5t25 -46.5t1.5 -55.5q-7 -40 -28 -72t-52 -54t-69 -34t-78 -12q-70 0 -120.5 28.5t-80.5 75t-40 107t1 125.5q12 71 49 131t90.5 103t119.5 67t137 24
q65 0 117.5 -20t93.5 -56q23 25 57 46.5t78 29.5q45 8 81 2.5t58 -16.5q17 35 31.5 86t17.5 125h152zM385 160q5 25 -9.5 42t-37.5 17t-42 -17t-24 -42t8.5 -42.5t36.5 -17.5t43 17.5t25 42.5z" />
    <glyph glyph-name="uni0E5A" unicode="&#xe5a;" horiz-adv-x="958" 
d="M682 0l145 819h134l-146 -819h-133zM426 0l102 580q-14 -15 -39.5 -34.5t-60.5 -37t-78.5 -29.5t-91.5 -12q-44 0 -83 11t-66.5 33.5t-40.5 56.5t-5 81q7 38 28.5 69.5t54 55.5t75 39.5t92.5 20.5l80 -97q-38 -1 -66 -8.5t-46.5 -18.5t-28.5 -25t-12 -28
q-5 -24 12.5 -37.5t48.5 -13.5q38 -1 79.5 14.5t79.5 43.5t68.5 67.5t46.5 87.5h170l-145 -819h-174z" />
    <glyph glyph-name="uni0E5B" unicode="&#xe5b;" horiz-adv-x="1516" 
d="M1466 434q-6 -37 -69 -43l-152 -18q-11 -20 -29 -38t-36 -18q-17 0 -25.5 17t-19.5 43q-13 -34 -35 -59t-45 -25q-11 0 -18 6.5t-12.5 18t-11 26t-12.5 29.5q-15 -44 -39.5 -73.5t-52.5 -29.5q-14 0 -21 9t-11 24.5t-6.5 36t-8.5 43.5q-34 -75 -62.5 -106t-62.5 -31
q-21 0 -32 14.5t-13 46.5q0 20 -0.5 38.5t-3.5 35.5q-15 -34 -30.5 -62.5t-32.5 -54t-36.5 -48.5t-43.5 -44q-62 -59 -132 -91t-137 -32q-64 0 -112 26.5t-77.5 75t-39 116t5.5 149.5q14 78 46 144.5t76.5 116t98 77.5t109.5 28q48 0 86.5 -20.5t63 -56.5t33.5 -85.5
t-1 -107.5q-8 -46 -26.5 -85t-43.5 -67t-55.5 -43.5t-62.5 -15.5q-29 0 -51 12t-36.5 32.5t-19.5 47.5t0 58q6 30 21 57.5t36.5 47.5t47.5 32t53 12q8 0 12 -2q-3 31 -22.5 51.5t-50.5 20.5t-61 -19.5t-56 -54t-46 -83t-30 -105.5q-10 -58 -5.5 -104.5t22 -79.5t47 -50.5
t69.5 -17.5q47 0 93.5 26.5t89 75t78 116t61.5 148.5q9 28 18 46.5t18.5 29t21 14.5t26.5 4q29 0 50 -35t28 -100q8 23 14 54q8 34 22.5 47.5t38.5 13.5q22 0 43.5 -25t36.5 -73q9 26 20.5 43.5t34.5 17.5q26 0 45.5 -24t34.5 -64q11 23 24.5 40t35.5 17q14 0 30 -14t31 -43
q9 14 23 21.5t32 5.5l154 -19q32 -5 46 -14t9 -31zM451 453q5 24 -7 40.5t-32 16.5q-19 0 -35 -16.5t-21 -40.5q-5 -25 6 -41.5t29 -16.5q20 0 37.5 16.5t22.5 41.5z" />
    <glyph glyph-name="endash" unicode="&#x2013;" horiz-adv-x="778" 
d="M686 295h-655l24 133h656z" />
    <glyph glyph-name="emdash" unicode="&#x2014;" horiz-adv-x="1556" 
d="M1464 295h-1433l24 133h1434z" />
    <glyph glyph-name="quoteleft" unicode="&#x2018;" horiz-adv-x="424" 
d="M449 977q-50 -28 -87.5 -57t-66.5 -64q23 0 42.5 -8.5t33 -24.5t19 -37.5t1.5 -46.5q-4 -24 -17.5 -45.5t-33.5 -38.5t-44.5 -27t-49.5 -10q-63 0 -93 40t-18 106q4 28 20 62.5t44.5 69.5t70.5 68.5t99 59.5l80 -47v0z" />
    <glyph glyph-name="quoteright" unicode="&#x2019;" horiz-adv-x="424" 
d="M416 879q-5 -29 -21 -63.5t-45 -69.5t-71 -68.5t-99 -59.5l-80 48q50 27 88.5 56t67.5 64q-23 0 -42.5 9t-33 24.5t-19.5 37t-1 46.5q4 24 17.5 46t33 38.5t43.5 26.5t49 10q63 0 94 -39.5t19 -105.5z" />
    <glyph glyph-name="quotedblleft" unicode="&#x201c;" horiz-adv-x="745" 
d="M770 977q-49 -28 -87 -57t-67 -64q23 0 43 -8.5t33.5 -24.5t19 -37.5t1.5 -46.5q-4 -24 -18 -45.5t-34 -38.5t-44.5 -27t-49.5 -10q-63 0 -93 40t-17 106q4 28 20 62.5t44.5 69.5t70 68.5t98.5 59.5zM449 977q-50 -28 -87.5 -57t-66.5 -64q23 0 42.5 -8.5t33 -24.5
t19 -37.5t1.5 -46.5q-4 -24 -17.5 -45.5t-33.5 -38.5t-44.5 -27t-49.5 -10q-63 0 -93 40t-18 106q4 28 20 62.5t44.5 69.5t70.5 68.5t99 59.5z" />
    <glyph glyph-name="quotedblright" unicode="&#x201d;" horiz-adv-x="745" 
d="M737 879q-5 -29 -21 -63.5t-44.5 -69.5t-70.5 -68.5t-99 -59.5l-80 48q49 27 88 56t68 64q-23 0 -43 9t-33.5 24.5t-19.5 37t-1 46.5q4 24 17.5 46t33 38.5t43.5 26.5t50 10q63 0 94 -39.5t18 -105.5zM416 879q-5 -29 -21 -63.5t-45 -69.5t-71 -68.5t-99 -59.5l-80 48
q50 27 88.5 56t67.5 64q-23 0 -42.5 9t-33 24.5t-19.5 37t-1 46.5q4 24 17.5 46t33 38.5t43.5 26.5t49 10q63 0 94 -39.5t19 -105.5z" />
    <glyph glyph-name="bullet" unicode="&#x2022;" horiz-adv-x="737" 
d="M666 410q-11 -64 -45 -120t-83 -98t-109 -66t-124 -24t-115.5 24t-86 66t-49 98t-3.5 120q12 64 46 120t83.5 97.5t109.5 65.5t124 24t115.5 -24t85.5 -65.5t48 -97.5t3 -120z" />
    <glyph glyph-name="ellipsis" unicode="&#x2026;" horiz-adv-x="1149" 
d="M1001 94q-4 -22 -16 -41.5t-29.5 -34.5t-39.5 -23.5t-44 -8.5t-40.5 8.5t-30.5 23.5t-17.5 34.5t-1.5 41.5t16 42t29.5 35t38.5 23.5t43 8.5t41 -8.5t31.5 -23.5t18 -35t1.5 -42zM618 94q-4 -22 -16 -41.5t-29.5 -34.5t-39.5 -23.5t-44 -8.5t-40.5 8.5t-30.5 23.5
t-17.5 34.5t-1.5 41.5t16 42t29.5 35t38.5 23.5t43 8.5t41 -8.5t31.5 -23.5t18 -35t1.5 -42zM236 94q-4 -22 -16.5 -41.5t-30 -34.5t-39.5 -23.5t-44 -8.5t-40.5 8.5t-30.5 23.5t-17.5 34.5t-1.5 41.5t16 42t29.5 35t38.5 23.5t43 8.5t41 -8.5t31.5 -23.5t18.5 -35t2 -42z
" />
    <glyph glyph-name="thothannobasethai" unicode="&#xf700;" horiz-adv-x="717" 
d="M598 717q103 -106 70 -293q-44 -246 -216 -354.5t-462 -67.5l88 498l-15 92h207l-77 -447q57 0 106 15t87.5 48t65.5 85t40 125q14 81 -11 138.5t-83 89.5t-145 37.5t-196 -17.5l27 143q121 23 220 19.5t173 -31.5l35 53h193z" />
    <glyph glyph-name="saraileftthai" unicode="&#xf701;" 
d="M-240 922h-604l82 110h543z" />
    <glyph glyph-name="saraiileftthai" unicode="&#xf702;" 
d="M-240 922h-604l82 110h367l18 105h176z" />
    <glyph glyph-name="saraueleftthai" unicode="&#xf703;" 
d="M-172 1032q-5 -24 -19 -44.5t-35 -35t-48 -22.5t-56 -8h-514l82 110h316q4 22 17 42.5t33.5 35.5t47 24t57.5 9q32 0 56 -9t39.5 -24t21.5 -35.5t2 -42.5zM-258 1032q3 19 -9 32t-34 13q-20 0 -37 -13t-20 -32q-3 -18 9 -31.5t32 -13.5q21 0 38.5 13.5t20.5 31.5z" />
    <glyph glyph-name="saraueeleftthai" unicode="&#xf704;" 
d="M-240 922h-604l82 110h191l18 105h115l-19 -105h62l18 105h176z" />
    <glyph glyph-name="maieklowleftthai" unicode="&#xf705;" 
d="M-231 922h-177l39 215h176z" />
    <glyph glyph-name="maitholowleftthai" unicode="&#xf706;" 
d="M-133 922h-389l8 45q5 24 -3 38.5t-40 14.5h-49l82 113h114q47 0 69 -21t17 -61l-2 -19h275z" />
    <glyph glyph-name="maitrilowleftthai" unicode="&#xf707;" 
d="M-141 922h-240l19 96q5 26 -6.5 39.5t-34.5 13.5h-9l-82 -53l-67 53q-20 0 -38 -12.5t-22 -34.5q-1 -3 -1 -5q-1 -3 -1 -7h82l-16 -90h-197l19 104q6 34 23 61t42.5 46t56.5 28.5t66 9.5h12l62 -47l72 47h18q34 0 61.5 -9t46.5 -26.5t27 -43.5t2 -60h187z" />
    <glyph glyph-name="maichattawalowleftthai" unicode="&#xf708;" 
d="M-201 1020h-104l-19 -98h-176l19 98h-105l13 76h104l18 98h177l-19 -98h105z" />
    <glyph glyph-name="thanthakhatlowleftthai" unicode="&#xf709;" 
d="M-221 997h-60q-32 0 -51.5 -15.5t-25.5 -43.5l-4 -16h-181l11 55q11 62 61.5 96.5t118.5 34.5h211z" />
    <glyph glyph-name="maieklowrightthai" unicode="&#xf70a;" 
d="M18 922h-176l39 215h176z" />
    <glyph glyph-name="maitholowrightthai" unicode="&#xf70b;" 
d="M96 922h-389l8 45q5 24 -3 38.5t-40 14.5h-49l82 113h115q46 0 68.5 -21t17.5 -61l-2 -19h274z" />
    <glyph glyph-name="maitrilowrightthai" unicode="&#xf70c;" 
d="M-6 922h-191l19 96q5 26 -6.5 39.5t-34.5 13.5h-8l-82 -53l-68 53q-20 0 -38 -12.5t-21 -34.5q-1 -3 -1 -5q-1 -3 -1 -7h82l-17 -90h-196l18 104q6 34 23 61t42.5 46t57 28.5t66.5 9.5h12l61 -47l72 47h18q34 0 61.5 -9t46.5 -26.5t27 -43.5t3 -60h137z" />
    <glyph glyph-name="maichattawalowrightthai" unicode="&#xf70d;" 
d="M37 1020h-105l-18 -98h-176l18 98h-104l12 76h105l18 98h176l-18 -98h104z" />
    <glyph glyph-name="thanthakhatlowrightthai" unicode="&#xf70e;" 
d="M53 997h-59q-32 0 -52 -15.5t-26 -43.5l-4 -16h-180l10 55q11 62 61.5 96.5t118.5 34.5h211z" />
    <glyph glyph-name="yoyingnobasethai" unicode="&#xf70f;" horiz-adv-x="1237" 
d="M1133 225q-13 -74 -49 -120.5t-84.5 -72.5t-105 -36t-110.5 -10q-52 0 -105 10t-93 36t-60.5 72.5t-7.5 120.5l62 344q6 35 -5 59t-32.5 38.5t-50.5 21t-58 6.5q-28 0 -55 -5t-52 -14.5t-45.5 -23t-35.5 -30.5l84 -46q-26 -11 -43 -26.5t-27.5 -32t-16 -33.5t-7.5 -30
l-58 -322h86l-22 -131h-262l79 449q7 37 35 65t56 39l-103 51q29 65 76.5 109t104 71t116.5 38.5t115 11.5q61 0 120 -14t102.5 -45t65.5 -81.5t9 -122.5l-60 -333q-6 -34 3.5 -55.5t27 -33.5t40 -16t42.5 -4t43.5 4t45 16t38 33.5t22.5 55.5l105 581h176z" />
    <glyph glyph-name="maihanakatleftthai" unicode="&#xf710;" 
d="M78 922h-635l35 190h178l-14 -80h518z" />
    <glyph glyph-name="nikhahitleftthai" unicode="&#xf711;" 
d="M-172 1028q-5 -24 -19 -44.5t-35 -36.5t-47.5 -25t-56.5 -9t-53.5 9t-39 25t-22 36.5t-1.5 44.5q4 24 17.5 45t34 36.5t47 24.5t56.5 9t53.5 -9t39.5 -24.5t23 -36.5t3 -45zM-256 1028q2 17 -9.5 31t-37.5 14t-41.5 -14t-17.5 -31q-4 -17 7.5 -31t37.5 -14t42 14t19 31z
" />
    <glyph glyph-name="maitaikhuleftthai" unicode="&#xf712;" 
d="M-143 1120h-344q-57 0 -83.5 -16t-29.5 -39q-3 -14 -1 -25t5 -14l182 64l213 -80l-20 -115l-211 84l-221 -74q-44 13 -70.5 50.5t-15.5 105.5q5 31 23.5 61.5t48.5 54.5t72 39t95 15h445z" />
    <glyph glyph-name="maiekupperleftthai" unicode="&#xf713;" 
d="M-190 1198h-177l31 174h176z" />
    <glyph glyph-name="maithoupperleftthai" unicode="&#xf714;" 
d="M-78 1198h-350l8 41q5 22 -2.5 34.5t-36.5 12.5h-45l74 103h104q42 0 62.5 -19.5t15.5 -54.5l-2 -19h246z" />
    <glyph glyph-name="maitriupperleftthai" unicode="&#xf715;" 
d="M-2 1198h-170l16 86q9 49 -37 49h-6l-75 -49l-60 49q-18 0 -35 -12t-20 -31q-1 -2 -1 -4q-1 -2 -1 -6h74l-15 -82h-176l16 94q6 31 21.5 55t38.5 41t51.5 26t58.5 9h13l53 -43l66 43h16q62 0 97 -32.5t26 -92.5h123z" />
    <glyph glyph-name="maichattawaupperleftthai" unicode="&#xf716;" 
d="M-104 1276h-80l-15 -78h-159l14 78h-80l12 67h80l13 78h159l-12 -78h80z" />
    <glyph glyph-name="thanthakhatupperleftthai" unicode="&#xf717;" 
d="M-141 1182h-54q-29 0 -48.5 -14.5t-22.5 -39.5l-2 -14h-162l8 49q4 28 19 49.5t36.5 36.5t49 23t57.5 8h190z" />
    <glyph glyph-name="saraulowthai" unicode="&#xf718;" 
d="M-252 -614h-176l25 133h-103l62 123h237z" />
    <glyph glyph-name="sarauulowthai" unicode="&#xf719;" 
d="M-229 -489q-13 -72 -77 -109t-163 -37q-102 0 -152.5 38t-33.5 108l2 8h-82l61 123h197l-21 -117q-2 -13 1 -21t9 -12.5t14.5 -6t16.5 -1.5q17 0 33 7.5t21 33.5l20 117h176z" />
    <glyph glyph-name="phinthulowthai" unicode="&#xf71a;" 
d="M-227 -473q-4 -23 -17 -44t-31.5 -37t-41 -25t-45.5 -9t-42.5 9t-32 25t-18.5 37t-2 44q5 23 18 44t31.5 36.5t40.5 25t45 9.5t42.5 -9.5t32.5 -25t18.5 -36.5t1.5 -44z" />
    <glyph glyph-name="minus" unicode="&#xad;" horiz-adv-x="778" 
d="M686 295h-655l24 133h656z" />
    <glyph glyph-name="uni0E33_1" horiz-adv-x="580" 
d="M260 0l102 578q10 51 -21.5 81.5t-113.5 30.5q-49 0 -96.5 -11.5t-87.5 -31.5l25 146q43 20 94.5 30.5t111.5 10.5q88 0 144 -21.5t85 -57.5t36 -84t-2 -100l-101 -571h-176zM-172 1028q-5 -24 -19 -44.5t-35 -36.5t-47.5 -25t-56.5 -9t-53.5 9t-39 25t-22 36.5
t-1.5 44.5q4 24 17.5 45t34 36.5t47 24.5t56.5 9t53.5 -9t39.5 -24.5t23 -36.5t3 -45zM-256 1028q2 17 -9.5 31t-37.5 14t-41.5 -14t-17.5 -31q-4 -17 7.5 -31t37.5 -14t42 14t19 31z" />
    <glyph glyph-name="uni0E4E_1" 
d="M61 1341q-44 10 -95.5 10t-96.5 -9t-76.5 -27t-36.5 -45q-2 -15 4.5 -23.5t19 -13t29.5 -5.5t35 1l-16 -96q-32 3 -72 -1t-76 -14t-62 -26.5t-30 -38.5q-3 -17 9.5 -26t35.5 -10t53.5 6.5t63.5 23.5l35 -84q-65 -32 -125.5 -40t-105 4.5t-68.5 42t-16 72.5q4 27 21 51
t42.5 43.5t59 33.5t71.5 22q-20 14 -25 37.5t-1 42.5q8 44 45.5 80.5t96.5 61t136 34t166 0.5l-21 -107v0z" />
    <glyph glyph-name="currency" unicode="&#xa4;" horiz-adv-x="840" 
d="M422 729q-96 0 -160 -67q-65 -73 -65 -160q0 -94 63 -164q65 -68 162 -68q92 0 158 68q63 63 63 164q0 46 -16.5 87t-45.5 72t-70 49.5t-89 18.5zM8 164l148 145q-62 83 -62 193q0 114 62 188l-148 150l76 71l145 -145q79 59 193 59q55 0 105.5 -16t82.5 -43l150 145
l71 -71l-145 -150q59 -79 59 -188q0 -114 -59 -193l145 -145l-71 -76l-150 148q-15 -13 -36 -23.5t-47 -20.5q-53 -18 -105 -18q-110 0 -193 62l-145 -148z" />
    <glyph glyph-name="FL00A9h" unicode="&#xa9;" horiz-adv-x="1032" 
d="M1020 487q-18 -104 -73.5 -194.5t-135 -158.5t-177 -107t-200.5 -39q-104 0 -188.5 39t-140.5 107t-79.5 158.5t-5.5 194.5q12 69 41.5 133t72 119.5t96.5 100.5t115.5 77.5t128.5 50t136 17.5q103 0 187 -39t139.5 -106.5t78.5 -158t5 -194.5zM946 487q15 88 -5 165.5
t-67.5 135t-119 90.5t-158.5 33q-89 0 -173 -33t-152 -90.5t-115 -135t-62 -165.5q-15 -89 4.5 -166.5t67 -135.5t119.5 -91t161 -33q88 0 171 33t151 91t115.5 135.5t62.5 166.5zM772 608q-56 94 -201 94q-48 0 -93 -18.5t-81 -50t-60.5 -73.5t-33.5 -89q-8 -46 2.5 -88
t35.5 -73.5t62.5 -50.5t85.5 -19q45 0 80.5 8t65.5 21.5t55 32.5t49 40l-16 -94q-48 -40 -112.5 -65t-133.5 -25q-68 0 -121.5 24.5t-87.5 67.5t-47.5 99.5t-1.5 121.5t45.5 122t83 99t111 66t129.5 24q121 0 203 -75z" />
    <glyph glyph-name="fongmanfunnuthai" unicode="&#xf880;" 
 />
    <glyph glyph-name="lochula.short" unicode="&#xf71d;" 
 />
    <glyph glyph-name="percent" unicode="%" horiz-adv-x="1444" 
d="M1329 289q-11 -59 -34.5 -114.5t-61 -98.5t-89.5 -69.5t-120 -26.5q-71 0 -116.5 25.5t-69.5 68.5t-28.5 97.5t5.5 113.5q10 55 34.5 108t63 94.5t89.5 67t114 25.5q69 0 114.5 -24.5t71 -65t31.5 -93t-4 -108.5zM469 -2h-170l684 973h170zM637 696q-10 -58 -33.5 -113.5
t-61 -99t-90 -70t-120.5 -26.5q-72 0 -117.5 25.5t-69.5 68t-28.5 97.5t6.5 114q9 55 33.5 108t63 94.5t90 67t114.5 25.5q69 0 114.5 -24.5t71 -65t31.5 -93t-4 -108.5zM1159 287q4 25 5.5 52t-4.5 49t-21.5 36t-44.5 14q-26 0 -44.5 -14t-31 -35.5t-21 -48.5t-12.5 -53
q-5 -28 -7.5 -57.5t2.5 -54t19 -40.5t41 -16q28 0 48 16t34 40.5t23 54t14 57.5zM467 694q4 26 5.5 53t-4.5 49t-22 36t-45 14q-25 0 -43.5 -13.5t-31 -35.5t-21 -49t-12.5 -54q-5 -27 -7.5 -57t2 -54.5t18.5 -40.5t42 -16t48 16t34 40.5t23 54.5t14 57z" />
    <glyph glyph-name="zerowidthnonjoiner" unicode="&#x200c;" 
 />
    <glyph glyph-name="zerowidthjoiner" unicode="&#x200d;" 
 />
    <glyph glyph-name="F881" 
 />
    <glyph glyph-name="F882" 
 />
    <glyph glyph-name="saraueesp2" 
d="M-455 1198l31 174h176l-31 -174h-176zM-844 922l82 110h191l18 105h115l-19 -105h62l18 105h176l-39 -215h-604z" />
    <glyph glyph-name="saraisp" 
d="M-786 969l81 110h605l-21 -110h-665z" />
    <glyph glyph-name="saraiisp" 
d="M-786 969l81 110h429l18 105h176l-39 -215h-665z" />
    <glyph glyph-name="F71C" unicode="&#xf71c;" 
 />
    <glyph glyph-name="F71B" unicode="&#xf71b;" 
 />
    <glyph glyph-name="numbersign" unicode="#" horiz-adv-x="1014" 
d="M952 569h-213l-73 -172h182l-25 -139h-217l-108 -258h-144l109 258h-103l-110 -258h-144l111 258h-176l25 139h210l74 172h-182l25 142h219l108 258h144l-111 -258h104l109 258h143l-108 -258h176zM494 569l-74 -172h104l74 172h-104z" />
    <glyph glyph-name="dollar" unicode="$" horiz-adv-x="885" 
d="M840 709q-60 61 -144.5 86.5t-175.5 25.5q-34 0 -70 -6t-67 -20t-53.5 -37t-28.5 -58q-5 -33 8.5 -54t37.5 -34t55.5 -20t62.5 -12q49 -9 95.5 -19t87 -25t73.5 -36t54.5 -52t29.5 -74t-2 -100q-11 -60 -45.5 -108.5t-84 -85t-110 -60t-123.5 -32.5l-26 -150h-117l25 144
q-100 5 -185.5 26.5t-144.5 57.5l37 208q81 -71 167.5 -101t188.5 -30q37 0 75 8t70 24.5t54 42t28 61.5q6 32 -9.5 52t-43.5 32.5t-65 20l-74 15.5q-65 13 -127.5 29.5t-108 47.5t-68 82t-7.5 134q10 64 47.5 115.5t91.5 88.5t119.5 59t132.5 28l24 147h117l-25 -147
q73 -6 135.5 -24t122.5 -50z" />
    </font>
</defs>
</svg>
