<?xml version="1.0" standalone="no"?>
<!DOCTYPE svg PUBLIC "-//W3C//DTD SVG 1.1//EN" "http://www.w3.org/Graphics/SVG/1.1/DTD/svg11.dtd" >
<svg>
<metadata>
Created by FontForge 20090622 at Tue Aug  7 06:55:49 2018
 By deploy user
Copyright (c) 1995-2007 by Phanlop Thongsuk. All rights reserved.
</metadata>
<defs>
<font id="PSLSirintrExtraPro" horiz-adv-x="0" >
  <font-face 
    font-family="PSL SirintrExtra Pro (สิรินทร์เอ็กซ์ตร้า)"
    font-weight="400"
    font-stretch="normal"
    units-per-em="2048"
    panose-1="2 0 5 6 0 0 0 2 0 4"
    ascent="1638"
    descent="-410"
    x-height="725"
    cap-height="969"
    bbox="-924 -635 1499 1599"
    underline-thickness="72"
    underline-position="-123"
    unicode-range="U+0020-U+F880"
  />
<missing-glyph horiz-adv-x="1599" 
d="M100 0v1599h1399v-1599h-1399zM1401 100v1399h-1200v-1399h1200z" />
    <glyph glyph-name="saraueesp1" unicode="&#xe37;&#xe48;" 
d="M-727 922l61 110h252v105h115v-105h61v105h177v-215h-666zM-326 1198v174h176v-174h-176z" />
    <glyph glyph-name=".notdef" horiz-adv-x="1599" 
d="M100 0v1599h1399v-1599h-1399zM1401 100v1399h-1200v-1399h1200z" />
    <glyph glyph-name=".null" 
 />
    <glyph glyph-name="nonmarkingreturn" horiz-adv-x="512" 
 />
    <glyph glyph-name="space" unicode=" " horiz-adv-x="512" 
 />
    <glyph glyph-name="space" unicode="&#xa0;" horiz-adv-x="512" 
 />
    <glyph glyph-name="ampersand" unicode="&#x26;" horiz-adv-x="1026" 
d="M821 0l-102 106q-24 -27 -58.5 -51t-75.5 -42t-87 -29t-92 -11q-74 0 -136 21.5t-107 60t-70 92.5t-25 119q0 44 15.5 83.5t41 74t59 62.5t70.5 49q-25 18 -46.5 39.5t-37 47t-24.5 56t-9 67.5q0 56 24.5 101.5t65 77t92.5 48.5t107 17q54 0 102.5 -16t86 -45.5
t59.5 -71.5t22 -94q0 -44 -13 -81t-35.5 -67t-52.5 -53.5t-63 -40.5l150 -145q6 21 13.5 62t9.5 87h186q-3 -55 -11.5 -100t-19.5 -79.5t-22 -59t-19 -39.5l250 -246h-248zM514 752q0 19 -6.5 37t-18 32t-28 22.5t-37.5 8.5t-40 -8t-32.5 -22t-21.5 -32.5t-8 -39.5
q0 -23 11.5 -44t27.5 -38t33 -30t28 -20q11 6 26.5 16.5t30 27t25 39t10.5 51.5zM377 436q-24 -18 -49.5 -45.5t-42.5 -59t-20 -64t18 -60.5q25 -34 55 -50t62 -19t63.5 4.5t58.5 20.5t48.5 29t33.5 29z" />
    <glyph glyph-name="quotesingle" unicode="'" horiz-adv-x="401" 
d="M272 635h-145l-27 377h199z" />
    <glyph glyph-name="parenleft" unicode="(" horiz-adv-x="573" 
d="M336 -266q-68 77 -115 150t-75.5 151.5t-41 166t-12.5 193.5q0 97 14.5 179t44.5 155.5t77 142t112 140.5h184q-61 -60 -108.5 -127t-80.5 -143t-50 -162.5t-17 -186.5q0 -107 18.5 -202.5t52.5 -179t81.5 -153.5t105.5 -124h-190z" />
    <glyph glyph-name="parenright" unicode=")" horiz-adv-x="573" 
d="M481 395q0 -106 -12.5 -193.5t-41 -166t-75 -151.5t-114.5 -150h-191q58 54 106 124t81.5 153.5t52 179t18.5 202.5q0 100 -17 186.5t-50 162.5t-80.5 143t-108.5 127h184q66 -72 113 -140.5t77 -142t44 -155.5t14 -179z" />
    <glyph glyph-name="asterisk" unicode="*" horiz-adv-x="780" 
d="M610 455l-157 110l16 -188h-152l13 190l-160 -110l-74 133l178 86l-180 90l76 125l158 -107l-13 191h152l-14 -189l155 111l78 -127l-178 -94l182 -88z" />
    <glyph glyph-name="plus" unicode="+" horiz-adv-x="778" 
d="M455 295v-262h-133v262h-261v133h261v260h133v-260h262v-133h-262z" />
    <glyph glyph-name="comma" unicode="," horiz-adv-x="365" 
d="M307 76q0 -26 -9 -57t-29.5 -62.5t-53 -62t-80.5 -54.5l-80 43q42 25 71.5 51t49.5 58q-21 0 -39.5 8t-33 22t-23 33.5t-8.5 42.5q0 22 8.5 42t23.5 35.5t35 24.5t43 9q57 0 91 -36.5t34 -96.5z" />
    <glyph glyph-name="hyphen" unicode="-" horiz-adv-x="573" 
d="M94 344v148h385v-148h-385z" />
    <glyph glyph-name="period" unicode="." horiz-adv-x="365" 
d="M293 94q0 -22 -9 -41.5t-24 -34.5t-35.5 -23.5t-42.5 -8.5t-41.5 8.5t-34.5 23.5t-23.5 34.5t-8.5 41.5t8.5 42t23.5 35t34.5 23.5t41.5 8.5t42.5 -8.5t35.5 -23.5t24 -35t9 -42z" />
    <glyph glyph-name="slash" unicode="/" horiz-adv-x="635" 
d="M150 -197h-168l440 1209h170z" />
    <glyph glyph-name="zero" unicode="0" horiz-adv-x="778" 
d="M739 498q0 -61 -6.5 -123.5t-22 -120.5t-41 -109t-64 -88.5t-91 -59.5t-121.5 -22q-71 0 -124.5 22t-93 59.5t-65 88.5t-41 109t-22 120.5t-6.5 123.5q0 87 17 174t57 157t106.5 114t165.5 44q103 0 171 -44t108 -114t56.5 -157t16.5 -174zM555 487q0 56 -5 116.5
t-22.5 110t-51 81.5t-89.5 32q-54 0 -85 -31.5t-47.5 -80t-21 -107t-4.5 -112.5q0 -58 3 -121.5t18 -116.5t48 -87.5t93 -33.5q59 0 92 33.5t49 85.5t19.5 113.5t3.5 117.5z" />
    <glyph glyph-name="one" unicode="1" horiz-adv-x="778" 
d="M319 0v725q-35 -11 -97 -18.5t-142 0.5v137q33 0 74.5 1.5t78 13t61.5 37.5t25 75h181v-971h-181z" />
    <glyph glyph-name="two" unicode="2" horiz-adv-x="778" 
d="M53 0v172l287 266l59.5 55t58 61.5t43.5 68.5t17 77q0 31 -12 54t-33.5 38.5t-50.5 23t-62 7.5q-69 0 -122.5 -13t-89.5 -28q-43 -18 -74 -41v179q38 19 86 34q41 13 96.5 24t122.5 11q78 0 139 -20t103 -57t64 -89t22 -116q0 -49 -14 -93t-37 -83.5t-52 -73.5t-58 -62.5
t-56 -51.5l-46 -40l-155 -139h448v-164h-684z" />
    <glyph glyph-name="three" unicode="3" horiz-adv-x="778" 
d="M731 287q0 -67 -25.5 -124t-72 -99t-113 -65.5t-147.5 -23.5q-88 0 -164.5 18.5t-145.5 53.5v180q56 -34 132 -59t167 -25q42 0 75.5 11.5t56.5 32t35 47.5t12 59q0 48 -17.5 77t-51.5 45t-84 21.5t-114 5.5v158q57 0 103 7t78 22.5t49.5 41t17.5 62.5q0 25 -13 42
t-33.5 27.5t-46 15.5t-50.5 5q-74 0 -146.5 -17.5t-144.5 -64.5v181q68 35 136.5 51t150.5 16q61 0 121.5 -17t108.5 -49.5t78 -79.5t30 -108q0 -71 -35.5 -124t-95.5 -81q31 -17 58.5 -40.5t47.5 -53.5t31.5 -67t11.5 -82z" />
    <glyph glyph-name="four" unicode="4" horiz-adv-x="778" 
d="M625 256v-256h-181v256h-440v180l463 535h158v-559h137v-156h-137zM444 700l-247 -288h247v288z" />
    <glyph glyph-name="five" unicode="5" horiz-adv-x="778" 
d="M737 322q0 -76 -27 -140t-75.5 -110.5t-116.5 -72.5t-149 -26q-62 0 -115 8t-93.5 18.5t-67 21.5t-36.5 16v180q66 -35 143.5 -57.5t155.5 -22.5q47 0 84 13.5t63 37.5t40 57t14 72q0 52 -23 84.5t-61.5 50t-88 22t-101.5 -0.5t-103 -16.5t-92 -26.5v539h612v-166h-432
v-180q88 11 172 3t150 -42.5t106.5 -98t40.5 -163.5z" />
    <glyph glyph-name="six" unicode="6" horiz-adv-x="778" 
d="M750 338q5 -75 -17.5 -140t-66.5 -114t-107.5 -77.5t-140.5 -29.5q-74 -1 -130.5 17.5t-98.5 52t-71 80.5t-46.5 103t-25 119t-7.5 130q0 118 31 212.5t90 160.5t146 101.5t198 35.5q35 0 71.5 -5.5t86.5 -22.5v-177q-39 20 -80.5 30.5t-92.5 10.5q-53 0 -96.5 -18
t-76.5 -48.5t-54.5 -71.5t-30.5 -87q42 17 90.5 28t104.5 11q65 0 122 -21t100.5 -60t70 -94.5t31.5 -125.5zM571 332q-2 31 -14.5 59t-33.5 49t-49 33t-60 12q-29 0 -57.5 -4.5t-53 -10.5t-44.5 -13t-32 -13q-4 -60 4.5 -115.5t30 -98t56.5 -68t85 -25.5q37 0 69 13
t55.5 37.5t35 61t8.5 83.5z" />
    <glyph glyph-name="seven" unicode="7" horiz-adv-x="778" 
d="M741 797l-428 -797h-198l438 803h-502v166h692z" />
    <glyph glyph-name="eight" unicode="8" horiz-adv-x="778" 
d="M750 279q0 -68 -30 -123.5t-80 -95.5t-114.5 -61.5t-132.5 -21.5q-81 0 -147 21.5t-113 61.5t-72.5 97t-25.5 128q0 80 36.5 137.5t98.5 95.5q-119 78 -113 221q3 61 33 108t77 79t105.5 48.5t120.5 16.5q63 0 122.5 -18t106 -52t75 -83t28.5 -111q0 -143 -119 -215
q68 -35 106 -94t38 -139zM539 723q0 28 -12 50.5t-32.5 38t-47 23.5t-54.5 9q-29 1 -56 -6t-48 -21t-34 -35t-13 -49q0 -40 26 -68.5t61 -48t70.5 -30.5t55.5 -15q9 9 23 25t27.5 36t23.5 43t10 48zM559 276q0 49 -30.5 82t-71 54t-80 31.5t-58.5 13.5q-11 -9 -27.5 -24.5
t-33 -37.5t-28 -50t-11.5 -62q0 -36 13.5 -64.5t37.5 -49t55.5 -31.5t67.5 -11q34 0 64 11t52.5 30.5t36 47t13.5 60.5z" />
    <glyph glyph-name="nine" unicode="9" horiz-adv-x="778" 
d="M741 485q0 -117 -31 -211.5t-90 -161t-146 -102t-198 -35.5q-35 0 -71.5 6t-85.5 23v176q38 -20 79.5 -30.5t92.5 -10.5q53 0 96.5 18t76.5 49t54.5 72t30.5 87q-42 -17 -90.5 -28t-104.5 -11q-65 0 -122 20.5t-100 59.5t-70 95t-31 126q-6 74 16.5 139.5t67 114
t107.5 77t140 29.5q111 1 184 -39.5t116.5 -110t61 -161t17.5 -191.5zM553 520q4 61 -4.5 116.5t-30 98t-56.5 67.5t-85 25q-37 0 -69 -12.5t-55 -37.5t-35 -61t-9 -83q1 -32 14 -60t34 -49t49.5 -33t60.5 -12q29 0 57 4.5t52.5 11t44.5 13.5t32 12z" />
    <glyph glyph-name="colon" unicode=":" horiz-adv-x="365" 
d="M293 559q0 -22 -9 -41.5t-24 -34.5t-35.5 -23.5t-42.5 -8.5t-41.5 8.5t-34.5 23.5t-23.5 34.5t-8.5 41.5t8.5 42t23.5 35t34.5 23.5t41.5 8.5t42.5 -8.5t35.5 -23.5t24 -35t9 -42zM293 94q0 -22 -9 -41.5t-24 -34.5t-35.5 -23.5t-42.5 -8.5t-41.5 8.5t-34.5 23.5
t-23.5 34.5t-8.5 41.5t8.5 42t23.5 35t34.5 23.5t41.5 8.5t42.5 -8.5t35.5 -23.5t24 -35t9 -42z" />
    <glyph glyph-name="semicolon" unicode=";" horiz-adv-x="365" 
d="M293 559q0 -22 -9 -41.5t-24 -34.5t-35.5 -23.5t-42.5 -8.5t-41.5 8.5t-34.5 23.5t-23.5 34.5t-8.5 41.5t8.5 42t23.5 35t34.5 23.5t41.5 8.5t42.5 -8.5t35.5 -23.5t24 -35t9 -42zM307 76q0 -26 -9 -57t-29.5 -62.5t-53 -62t-80.5 -54.5l-80 43q42 25 71.5 51t49.5 58
q-21 0 -39.5 8t-33 22t-23 33.5t-8.5 42.5q0 22 8.5 42t23.5 35.5t35 24.5t43 9q57 0 91 -36.5t34 -96.5z" />
    <glyph glyph-name="less" unicode="&#x3c;" horiz-adv-x="850" 
d="M76 375v98l692 324v-150l-473 -223l473 -223v-152z" />
    <glyph glyph-name="equal" unicode="=" horiz-adv-x="778" 
d="M61 438v133h656v-133h-656zM61 152v133h656v-133h-656z" />
    <glyph glyph-name="greater" unicode="&#x3e;" horiz-adv-x="850" 
d="M84 49v152l471 223l-471 223v150l692 -324v-98z" />
    <glyph glyph-name="question" unicode="?" horiz-adv-x="729" 
d="M657 721q0 -42 -15 -79.5t-38 -71t-52.5 -61.5t-57.5 -50t-53 -38t-40 -24v-110h-172v194q67 30 120 67q22 16 44 35t38.5 41t27 47t10.5 52q0 24 -11 42.5t-30 32t-45 20.5t-55 7q-56 0 -103 -9t-81 -20q-40 -12 -72 -28v172q34 13 75 24q35 9 83 17t104 8
q70 0 129.5 -19.5t102.5 -54.5t67 -84.5t24 -109.5zM430 96q0 -21 -9.5 -40.5t-25 -34t-36.5 -23t-44 -8.5t-43.5 8t-35.5 22t-24 33.5t-9 42.5q0 22 9 41.5t24 34.5t35.5 24t43.5 9t44 -9t36.5 -24t25 -34.5t9.5 -41.5z" />
    <glyph glyph-name="at" unicode="@" horiz-adv-x="1264" 
d="M1176 424q0 -62 -16.5 -121t-36.5 -105q-23 -55 -52 -102h-299l-14 51q-35 -29 -74 -43t-90 -14q-58 0 -105 23.5t-80.5 65t-52 99t-18.5 125.5q0 66 20 127t57 108t90 75t118 28q40 0 70 -5.5t59 -20.5v14h137v-526h102q6 10 16.5 33t20.5 53.5t17.5 66t7.5 72.5
q0 100 -30 181t-84 137.5t-128.5 87t-163.5 30.5q-92 0 -170.5 -35.5t-136 -97t-90.5 -144.5t-33 -177q0 -92 33 -171.5t91.5 -138.5t138.5 -93t175 -34q58 0 100 5.5t70 13.5q33 9 54 20v-135q-28 -7 -61 -12q-29 -5 -68.5 -8.5t-87.5 -3.5q-125 0 -230 42.5t-181.5 117
t-119.5 176t-43 219.5q0 120 43.5 225.5t118.5 184t176.5 124t218.5 45.5q138 0 238.5 -47.5t165.5 -126.5t96 -180t31 -209zM748 582q-9 4 -23 9t-29.5 9.5t-32.5 8t-32 3.5q-37 0 -64.5 -18t-45.5 -47t-27 -66t-9 -75q0 -32 7 -64.5t22 -58.5t37.5 -43t54.5 -17q25 0 48 7
t41.5 16.5t32 19t20.5 15.5v301z" />
    <glyph glyph-name="A" unicode="A" horiz-adv-x="885" 
d="M707 0l-91 254h-354l-90 -254h-188l364 969h189l364 -969h-194zM440 727l-118 -311h235z" />
    <glyph glyph-name="B" unicode="B" horiz-adv-x="887" 
d="M858 301q0 -143 -111.5 -222t-326.5 -79h-318v969h293q84 0 154 -11.5t121 -38.5t79.5 -71t28.5 -109q0 -66 -22.5 -110t-67.5 -76q79 -35 124.5 -97t45.5 -155zM592 707q0 57 -41 78.5t-131 21.5h-133v-205h131q39 0 71.5 5.5t55.5 18.5t35.5 32.5t11.5 48.5zM672 297
q0 47 -18.5 75t-51.5 43t-78.5 20t-99.5 5h-135v-280h174q37 0 74.5 8t67.5 24.5t48.5 42.5t18.5 62z" />
    <glyph glyph-name="C" unicode="C" horiz-adv-x="918" 
d="M874 78q-27 -18 -60.5 -35t-75 -30.5t-93 -22t-115.5 -8.5q-103 0 -191 36t-152.5 102t-101 159.5t-36.5 209.5q0 105 36 196t100 157.5t150 104.5t187 38q106 0 193 -27t159 -67v-215q-46 45 -86 73.5t-79.5 45.5t-81 23.5t-90.5 6.5q-63 0 -117.5 -23t-94 -66
t-62.5 -104.5t-23 -137.5q0 -82 23 -147.5t64 -111t97 -70t123 -24.5q49 0 91 9t81 28t76.5 48t78.5 69v-217v0z" />
    <glyph glyph-name="D" unicode="D" horiz-adv-x="995" 
d="M940 489q0 -93 -21.5 -165.5t-60 -126.5t-91.5 -92t-116.5 -61t-135 -33.5t-146.5 -10.5h-267v969h242q76 0 150 -11t140 -34.5t122 -61t97 -91t64 -123.5t23 -159zM756 487q0 94 -35 155.5t-92.5 98t-131 51.5t-151.5 15h-59v-645h92q75 0 143.5 16.5t120.5 55
t82.5 100.5t30.5 153z" />
    <glyph glyph-name="E" unicode="E" horiz-adv-x="819" 
d="M102 0v969h668v-166h-483v-187h483v-165h-483v-285h483v-166h-668z" />
    <glyph glyph-name="F" unicode="F" horiz-adv-x="754" 
d="M287 803v-195h399v-164h-399v-444h-185v969h650v-166h-465z" />
    <glyph glyph-name="G" unicode="G" horiz-adv-x="1001" 
d="M934 78q-26 -15 -60.5 -32.5t-81 -32.5t-106.5 -25.5t-135 -10.5q-105 0 -197 34.5t-160.5 99.5t-107.5 159t-39 213q0 125 41.5 219t112.5 157t165.5 94.5t200.5 31.5q53 0 99 -5t89 -16t85.5 -29t89.5 -44v-221q-88 83 -177 119t-192 36q-69 0 -128 -23t-102.5 -67
t-68 -107.5t-24.5 -144.5q0 -68 23 -130t64 -109t97.5 -75t124.5 -28q63 0 114 9t87 24v176h-246v164h432v-436v0z" />
    <glyph glyph-name="H" unicode="H" horiz-adv-x="971" 
d="M684 0v449h-397v-449h-185v969h185v-355h397v355h184v-969h-184z" />
    <glyph glyph-name="I" unicode="I" horiz-adv-x="553" 
d="M63 0v150h121v667h-121v152h426v-152h-120v-667h120v-150h-426z" />
    <glyph glyph-name="J" unicode="J" horiz-adv-x="596" 
d="M502 299q0 -107 -35.5 -173.5t-100 -99.5t-156 -36.5t-202.5 14.5v176q61 -17 116.5 -25.5t98.5 1.5t68.5 43.5t25.5 101.5v510h-196v158h381v-670v0z" />
    <glyph glyph-name="K" unicode="K" horiz-adv-x="897" 
d="M700 0l-354 389l-59 -61v-328h-185v969h185v-424l403 424h234l-445 -459l459 -510h-238z" />
    <glyph glyph-name="L" unicode="L" horiz-adv-x="758" 
d="M102 0v969h185v-803h458v-166h-643z" />
    <glyph glyph-name="M" unicode="M" horiz-adv-x="1085" 
d="M799 0v676l-203 -426h-115l-202 426v-676h-177v969h220l223 -467l217 467h221v-969h-184z" />
    <glyph glyph-name="N" unicode="N" horiz-adv-x="967" 
d="M674 0l-395 725v-725h-177v969h232l356 -654v654h176v-969h-192z" />
    <glyph glyph-name="O" unicode="O" horiz-adv-x="1016" 
d="M975 479q0 -98 -33 -189t-93.5 -160.5t-145.5 -111t-189 -41.5q-105 0 -192.5 40.5t-149.5 109t-96.5 158.5t-34.5 190t30.5 193t89.5 163.5t144.5 113t196.5 42.5q114 0 202 -42.5t148 -113t91.5 -162.5t31.5 -190zM782 477q0 66 -19 128.5t-55 111.5t-87.5 78.5
t-116.5 29.5t-115 -31t-85 -80.5t-53 -112t-18 -124.5q0 -65 18.5 -126.5t54 -109.5t87 -77t117.5 -29q64 0 114.5 29.5t85.5 77.5t53.5 109.5t18.5 125.5z" />
    <glyph glyph-name="P" unicode="P" horiz-adv-x="799" 
d="M774 653q-1 -69 -33 -126.5t-84.5 -99t-120.5 -64.5t-141 -23h-108v-340h-185v969h252q97 0 175.5 -21.5t133.5 -62.5t83.5 -99.5t27.5 -132.5zM584 653q0 38 -16 66.5t-45.5 48t-71 29.5t-91.5 10h-73v-305h63q48 0 90.5 9t74 27.5t50 47t19.5 67.5z" />
    <glyph glyph-name="Q" unicode="Q" horiz-adv-x="1016" 
d="M983 -236q-87 -27 -164.5 -28.5t-137 22.5t-98 75.5t-48.5 131.5h-21q-105 0 -192.5 41t-149.5 110t-96.5 160.5t-34.5 192.5q0 102 30.5 195.5t89.5 165.5t144.5 114.5t196.5 42.5q114 0 202 -42t148.5 -113t92 -164t30.5 -195q0 -74 -18 -143.5t-52 -129.5
t-81.5 -107.5t-106.5 -78.5q11 -75 74.5 -94t191.5 23v-179zM782 471q0 67 -19 130t-55 112.5t-87.5 79.5t-116.5 30t-115 -31.5t-85 -81.5t-53 -113t-18 -126q0 -65 18.5 -127.5t54 -111t87 -78t117.5 -29.5q64 0 114.5 30t85.5 78.5t53.5 110.5t18.5 127z" />
    <glyph glyph-name="R" unicode="R" horiz-adv-x="899" 
d="M717 0l-299 362h-131v-362h-185v969h279q91 0 166.5 -18.5t129.5 -55.5t84 -91.5t30 -127.5q0 -48 -15.5 -89.5t-41.5 -75t-60.5 -59.5t-71.5 -42l350 -410h-235zM590 668q0 34 -15.5 60t-42 43.5t-61 26.5t-72.5 9h-112v-287h90q100 0 156.5 37.5t56.5 110.5z" />
    <glyph glyph-name="S" unicode="S" horiz-adv-x="885" 
d="M836 274q0 -69 -34 -123.5t-89.5 -92t-126 -57t-142.5 -19.5q-111 0 -211 22.5t-172 61.5v208q94 -71 186.5 -101t194.5 -30q38 0 74.5 8t65 24.5t46 42t17.5 61.5q0 32 -19 52t-49 32.5t-68 20l-77 15.5q-68 13 -133 29.5t-116.5 47.5t-83 82t-31.5 134q0 71 34 125.5
t89.5 92t125.5 56.5t142 19q96 0 176.5 -18.5t161.5 -57.5v-200q-72 62 -160.5 87t-179.5 25q-34 0 -69 -6t-63.5 -20t-46.5 -37t-18 -58q0 -33 17 -54t43.5 -34t59 -20t64.5 -12q75 -13 146 -30t125.5 -49.5t87.5 -86.5t33 -140z" />
    <glyph glyph-name="T" unicode="T" horiz-adv-x="864" 
d="M522 803v-803h-184v803h-328v166h842v-166h-330z" />
    <glyph glyph-name="U" unicode="U" horiz-adv-x="954" 
d="M862 389q0 -79 -19.5 -153.5t-63 -132t-114 -92t-171.5 -34.5q-108 0 -184 27.5t-124 80t-70 128.5t-22 174v582h182v-578q0 -54 8 -100t31.5 -79.5t65.5 -52t111 -18.5q52 0 87.5 20t57.5 54.5t31.5 81t9.5 98.5v574h184v-580v0z" />
    <glyph glyph-name="V" unicode="V" horiz-adv-x="885" 
d="M547 0h-209l-354 969h196l266 -740l265 740h190z" />
    <glyph glyph-name="W" unicode="W" horiz-adv-x="1200" 
d="M952 0h-186l-168 639l-166 -639h-182l-260 969h190l168 -641l166 641h174l168 -647l166 647h186z" />
    <glyph glyph-name="X" unicode="X" horiz-adv-x="887" 
d="M674 0l-232 348l-237 -348h-209l340 483l-334 486h217l230 -344l233 344h211l-338 -480l338 -489h-219z" />
    <glyph glyph-name="Y" unicode="Y" horiz-adv-x="829" 
d="M508 418v-418h-184v406l-347 563h207l234 -379l233 379h205z" />
    <glyph glyph-name="Z" unicode="Z" horiz-adv-x="887" 
d="M57 0v150l533 653h-512v166h745v-148l-536 -655h549v-166h-779z" />
    <glyph glyph-name="bracketleft" unicode="[" horiz-adv-x="573" 
d="M127 -254v1266h383v-148h-213v-970h213v-148h-383z" />
    <glyph glyph-name="backslash" unicode="\" horiz-adv-x="594" 
d="M475 -197l-465 1209h172l463 -1209h-170z" />
    <glyph glyph-name="bracketright" unicode="]" horiz-adv-x="573" 
d="M66 -254v148h213v970h-213v148h380v-1266h-380z" />
    <glyph glyph-name="asciicircum" unicode="^" horiz-adv-x="1055" 
d="M793 444l-267 344l-266 -346h-194l407 527h111l405 -525h-196z" />
    <glyph glyph-name="underscore" unicode="_" horiz-adv-x="778" 
d="M-2 -236v119h780v-119h-780z" />
    <glyph glyph-name="grave" unicode="`" horiz-adv-x="825" 
d="M373 846l-211 244h229l139 -244h-157z" />
    <glyph glyph-name="a" unicode="a" horiz-adv-x="772" 
d="M512 -2v59q-13 -12 -32.5 -25t-45 -23.5t-56 -17.5t-65.5 -7q-60 0 -110 16t-86 47.5t-56 77t-20 104.5q0 61 24.5 105.5t66 75.5t97 49t117.5 26q20 3 42.5 5t44.5 3.5t42 2.5t35 2q-2 15 -9 30.5t-24.5 28t-47 21t-75.5 8.5q-53 0 -98 -8t-79 -18q-40 -11 -73 -25v170
q42 11 86 20q38 8 84 14t91 6q75 0 135 -15t102.5 -48t65 -85.5t22.5 -127.5v-471h-178zM512 352q-39 2 -88.5 0t-93 -14t-73.5 -37t-30 -68q0 -24 9 -42t24 -29.5t35 -17t41 -5.5q26 0 53 7.5t50.5 18t42.5 21.5t30 19v147z" />
    <glyph glyph-name="b" unicode="b" horiz-adv-x="795" 
d="M752 391q0 -92 -23.5 -167.5t-67.5 -128.5t-107 -82t-142 -29q-24 0 -47.5 5t-44 14t-37.5 21t-29 25l-21 -51h-151v1014h176v-305q25 18 68 35.5t94 17.5q70 0 130.5 -29.5t105.5 -79.5t70.5 -117.5t25.5 -142.5zM569 393q0 43 -12.5 79.5t-35 63t-53.5 41.5t-67 15
q-31 0 -55 -5.5t-41.5 -13.5t-29 -16.5t-17.5 -13.5v-355q9 -6 23.5 -14.5t34 -16t43.5 -13t51 -5.5q40 0 70 20.5t50 55.5t29.5 81t9.5 97z" />
    <glyph glyph-name="c" unicode="c" horiz-adv-x="709" 
d="M668 51q-25 -20 -63 -35q-32 -13 -81 -23.5t-116 -10.5q-85 0 -153 30.5t-115.5 81.5t-73 119t-25.5 143q0 78 26.5 149t75 124t118.5 84.5t157 31.5q55 0 100.5 -11t78.5 -25q39 -16 69 -35v-189q-28 28 -63 51q-30 20 -71 36t-90 16q-48 0 -87.5 -18t-67.5 -49
t-43 -73.5t-15 -91.5q0 -44 15 -84t42 -70.5t65 -48.5t83 -18q51 0 94 15.5t74 34.5q36 22 66 51v-185v0z" />
    <glyph glyph-name="d" unicode="d" horiz-adv-x="795" 
d="M559 -2l-20 51q-25 -22 -65 -43.5t-93 -21.5q-81 0 -144 29t-106.5 82t-66.5 128.5t-23 167.5q0 75 25.5 142.5t70.5 117.5t105.5 79.5t130.5 29.5q51 0 92 -16.5t70 -36.5v305h176v-1014h-152zM535 543q-6 5 -18 13.5t-29.5 16.5t-41.5 13.5t-55 5.5q-36 0 -67 -15
t-53.5 -41.5t-35 -63t-12.5 -79.5q0 -51 9.5 -97t29.5 -81t50 -55.5t71 -20.5q27 0 51 5.5t43.5 13t34 16t23.5 14.5v355z" />
    <glyph glyph-name="e" unicode="e" horiz-adv-x="774" 
d="M223 322q5 -48 24.5 -82.5t49.5 -57.5t69 -34t83 -11q57 0 106.5 14.5t85.5 31.5q42 20 78 46v-176q-33 -21 -75 -37q-37 -14 -88.5 -25t-117.5 -11q-82 0 -154.5 22.5t-126.5 70t-85 120.5t-31 174q0 79 23 148.5t68 121t111.5 81.5t153.5 30q94 0 159 -35t104.5 -93.5
t56.5 -136t16 -161.5h-510zM551 467q-5 17 -14.5 39t-27.5 42t-45.5 34t-68.5 14q-44 0 -73.5 -14t-48.5 -34t-29 -42t-15 -39h322z" />
    <glyph glyph-name="f" unicode="f" horiz-adv-x="487" 
d="M524 840q-51 22 -96.5 27.5t-79.5 -4.5t-54 -35t-20 -62v-18h211v-156h-206v-592h-181v590h-71v158h73v16q0 53 18 96.5t49.5 76.5t73.5 54.5t89 30t96.5 3t97.5 -25.5v-159v0z" />
    <glyph glyph-name="g" unicode="g" horiz-adv-x="795" 
d="M711 113q0 -111 -28 -185.5t-75.5 -120t-108.5 -65t-127 -21t-132 11t-123 31.5v181q73 -40 142 -54.5t124.5 -3t92 49t44.5 102.5q-12 -11 -28.5 -21t-36 -17.5t-41.5 -12t-43 -4.5q-159 0 -244.5 95.5t-85.5 280.5q0 83 26 153.5t71 122t105.5 80.5t129.5 29
q29 0 55.5 -6.5t48.5 -17t39 -22.5t27 -23l20 51h148v-614zM535 526q-6 6 -18 15t-29.5 17.5t-41.5 14t-55 5.5q-37 0 -67.5 -17t-53 -46.5t-35 -68.5t-12.5 -84q0 -100 39 -159.5t121 -59.5q27 0 51 5.5t43.5 13t34 15.5l23.5 13v336z" />
    <glyph glyph-name="h" unicode="h" horiz-adv-x="803" 
d="M543 0v457q0 62 -23 98.5t-69 36.5q-33 0 -63.5 -7.5t-56 -18t-44.5 -21.5t-29 -19v-526h-176v1012h176v-320q18 12 40.5 24.5t48.5 22t54.5 15.5t57.5 6q59 0 107 -19t82.5 -56.5t53.5 -93t19 -128.5v-463h-178z" />
    <glyph glyph-name="i" unicode="i" horiz-adv-x="367" 
d="M88 797v178h193v-178h-193zM94 0v741h178v-741h-178z" />
    <glyph glyph-name="j" unicode="j" horiz-adv-x="459" 
d="M172 795v180h193v-180h-193zM365 14q0 -102 -35.5 -166t-95 -94.5t-136 -30t-157.5 28.5v174q67 -24 113.5 -30t75.5 7t42.5 45t13.5 83v549h-143v157h322v-723z" />
    <glyph glyph-name="k" unicode="k" horiz-adv-x="766" 
d="M567 0l-256 281l-51 -56v-225h-178v1012h178v-568l293 299h229l-350 -346l371 -397h-236z" />
    <glyph glyph-name="l" unicode="l" horiz-adv-x="367" 
d="M94 0v1012h178v-1012h-178z" />
    <glyph glyph-name="m" unicode="m" horiz-adv-x="1233" 
d="M971 0v420q0 32 -3.5 61.5t-13 52t-26 35.5t-43.5 13q-32 0 -61 -7.5t-53.5 -18t-43 -21.5t-29.5 -19q3 -15 6 -38.5t3 -43.5v-434h-177v410q0 28 -2 59t-11 56.5t-26 42t-47 16.5q-38 0 -68.5 -7.5t-53.5 -18t-39 -22t-25 -18.5v-518h-176v727h176v-61q15 11 36 25
t47 26t56 20t62 8q73 0 116.5 -24.5t75.5 -67.5q48 44 111 69.5t149 25.5q52 0 96.5 -20t76 -55.5t49.5 -82.5t18 -101v-489h-180z" />
    <glyph glyph-name="n" unicode="n" horiz-adv-x="803" 
d="M541 0v430q0 30 -4.5 57.5t-15 48.5t-28 33.5t-44.5 12.5q-36 0 -66 -7.5t-54 -18.5t-41.5 -22.5l-29.5 -19.5v-514h-176v727h176v-65q15 12 38 26.5t50.5 27t59 21t63.5 8.5q58 0 104 -20t78.5 -56.5t50 -89t17.5 -116.5v-463h-178z" />
    <glyph glyph-name="o" unicode="o" horiz-adv-x="799" 
d="M756 369q0 -78 -25 -149t-71.5 -125t-112.5 -86t-148 -32q-85 0 -151.5 33t-112.5 88.5t-70 127t-24 149.5q0 73 26 140t73 118t112.5 81.5t144.5 30.5q85 0 152 -30.5t113 -82t70 -119.5t24 -144zM573 373q0 40 -10.5 80t-32.5 71t-54.5 50.5t-76.5 19.5
q-43 0 -75.5 -19t-55 -50t-34 -70.5t-11.5 -79.5q0 -45 10 -88.5t31.5 -77.5t55 -55t79.5 -21q45 0 78 21t54.5 54.5t31.5 76.5t10 88z" />
    <glyph glyph-name="p" unicode="p" horiz-adv-x="795" 
d="M752 360q0 -89 -23.5 -159t-67.5 -118t-107 -73.5t-142 -25.5q-47 0 -85.5 14t-66.5 33v-299h-178v997h147l21 -53q12 12 29.5 24t39.5 22t47.5 16.5t53.5 6.5q69 0 129.5 -29t105.5 -80.5t71 -122t26 -153.5zM569 362q0 45 -12.5 84.5t-34.5 69t-53 46t-68 16.5
q-31 0 -55 -5.5t-41.5 -14t-29 -17.5t-17.5 -15v-331l23.5 -15t34 -16.5t43.5 -13t51 -5.5q81 0 120 58.5t39 158.5z" />
    <glyph glyph-name="q" unicode="q" horiz-adv-x="795" 
d="M532 -268v299q-27 -19 -69 -33t-88 -14q-77 0 -138.5 25.5t-105 73.5t-67 118t-23.5 159q0 83 26 153.5t71 122t105.5 80.5t129.5 29q27 0 53 -6.5t48 -16.5t39.5 -22t29.5 -24l20 53h148v-997h-179zM535 526q-6 6 -18 15t-29.5 17.5t-41.5 14t-55 5.5q-37 0 -67.5 -16.5
t-53 -46t-35 -69t-12.5 -84.5q0 -100 39 -158.5t121 -58.5q27 0 51 5.5t43.5 13t34 16.5l23.5 15v331z" />
    <glyph glyph-name="r" unicode="r" horiz-adv-x="569" 
d="M569 530q-66 22 -118 22t-90.5 -11t-63 -27t-35.5 -25v-489h-180v727h178v-68q22 14 52.5 28t69.5 23.5t86 12t101 -7.5v-185v0z" />
    <glyph glyph-name="s" unicode="s" horiz-adv-x="684" 
d="M649 207q0 -56 -25 -98t-68 -71t-99.5 -43.5t-120.5 -14.5q-67 0 -119.5 10.5t-89.5 24.5q-43 16 -76 36v166q33 -23 75 -41q35 -16 85 -28.5t111 -12.5q25 0 51 4.5t47 14.5t34 24.5t13 34.5q0 23 -16 37t-40 23t-53 13.5l-55 8.5q-51 8 -96.5 24.5t-80 43.5t-55 66
t-20.5 93q0 56 25 98.5t66.5 71t95 42.5t110.5 14q62 0 112 -10.5t86 -22.5q42 -15 75 -33v-158q-34 18 -74 33q-35 12 -81.5 22.5t-100.5 10.5q-23 0 -47 -3.5t-43.5 -11t-31.5 -20.5t-12 -31t10 -30.5t26 -21t37 -14t42 -9.5q56 -10 110.5 -22.5t97 -37.5t69 -68
t26.5 -114z" />
    <glyph glyph-name="t" unicode="t" horiz-adv-x="532" 
d="M514 4q-104 -18 -182 -16.5t-130.5 28t-79 80t-26.5 140.5v348h-76v155h76v195h178v-195h240v-155h-240v-318q0 -54 17 -81t48.5 -34t76 1.5t98.5 25.5v-174v0z" />
    <glyph glyph-name="u" unicode="u" horiz-adv-x="803" 
d="M543 -2v65q-14 -12 -35 -26.5t-47.5 -27t-58.5 -21t-68 -8.5q-59 0 -105.5 20t-79 56.5t-50 88.5t-17.5 117v463h178v-430q0 -25 3 -51.5t13 -49t29.5 -37t52.5 -14.5q35 0 64.5 7.5t53 18t40.5 22t27 20.5v514h176v-727h-176z" />
    <glyph glyph-name="v" unicode="v" horiz-adv-x="768" 
d="M463 0h-158l-303 727h193l192 -481l193 481h186z" />
    <glyph glyph-name="w" unicode="w" horiz-adv-x="1022" 
d="M821 0h-155l-154 434l-154 -434h-153l-199 727h187l106 -422l145 422h142l147 -422l101 422h182z" />
    <glyph glyph-name="x" unicode="x" horiz-adv-x="768" 
d="M559 0l-180 236l-180 -236h-213l293 362l-291 365h225l178 -231l178 231h213l-293 -358l293 -369h-223z" />
    <glyph glyph-name="y" unicode="y" horiz-adv-x="768" 
d="M338 -268h-191l144 315l-289 680h193l190 -457l195 457h188z" />
    <glyph glyph-name="z" unicode="z" horiz-adv-x="692" 
d="M37 0v121l371 454h-363v152h600v-119l-373 -456h383v-152h-618z" />
    <glyph glyph-name="braceleft" unicode="{" horiz-adv-x="803" 
d="M621 -256q-60 0 -113.5 15t-94 48t-64 85t-23.5 126q0 73 -7 126.5t-32 88t-72 51.5t-127 17v158q79 0 126 16.5t71.5 49t31.5 81t7 113.5q0 55 13.5 107.5t45 93t83 65.5t128.5 25h133v-144h-94q-49 0 -75.5 -12.5t-39 -34t-14.5 -51.5t-2 -66q0 -71 -11 -123
t-30.5 -89.5t-46.5 -63.5t-58 -45q31 -17 57 -41t45 -58t29.5 -79.5t10.5 -104.5q0 -48 3.5 -86.5t16.5 -65.5t37 -41t66 -14h106v-147h-106z" />
    <glyph glyph-name="bar" unicode="|" horiz-adv-x="594" 
d="M213 -254v1266h168v-1266h-168z" />
    <glyph glyph-name="braceright" unicode="}" horiz-adv-x="803" 
d="M715 301q-80 0 -127.5 -17t-72.5 -51.5t-32.5 -88t-7.5 -126.5q0 -74 -23.5 -126t-63 -85t-93 -48t-113.5 -15h-106v147h106q42 0 66 14t36 41t15.5 65.5t3.5 86.5q0 59 11 104.5t30 79.5t45.5 58t56.5 41q-32 19 -58.5 45t-45.5 63.5t-30 89.5t-11 123q0 36 -2 66
t-14.5 51.5t-39 34t-75.5 12.5h-94v144h133q77 0 128.5 -25t82.5 -65.5t44 -93t13 -107.5q0 -65 7.5 -113.5t32.5 -81t72 -49t126 -16.5v-158v0z" />
    <glyph glyph-name="asciitilde" unicode="~" horiz-adv-x="1055" 
d="M961 602q-5 -96 -32 -171q-12 -32 -29.5 -63t-43 -55t-60 -38.5t-79.5 -14.5q-58 0 -98 15t-69.5 37t-51 48.5t-43 48.5t-46 37t-59.5 15q-19 0 -33 -9t-23.5 -23.5t-16 -33t-9.5 -37.5q-9 -45 -6 -102h-168q7 97 35 174q12 33 30 64t43.5 55.5t59.5 39.5t78 15
q53 0 92 -15.5t69.5 -38.5t55.5 -49.5l48.5 -49.5t48.5 -38.5t57 -15.5q19 0 33 9t24 23t15.5 32.5t8.5 37.5q7 45 3 103h166v0z" />
    <glyph glyph-name="quotedbl" unicode="&#x22;" horiz-adv-x="702" 
d="M575 635h-143l-26 377h196zM274 635h-141l-27 377h195z" />
    <glyph glyph-name="exclam" unicode="!" horiz-adv-x="559" 
d="M365 287h-166l-17 682h199zM395 96q0 -21 -9 -40.5t-25 -34t-36.5 -23t-43.5 -8.5t-43.5 8t-36 22t-24.5 33.5t-9 42.5q0 22 9 41.5t24.5 34t36 23t43.5 8.5t43.5 -8.5t36.5 -23t25 -34t9 -41.5z" />
    <glyph glyph-name="guillemotleft" unicode="&#xab;" horiz-adv-x="659" 
d="M502 119l-158 246l158 245l96 -35l-94 -210l94 -209zM352 43l-295 322l295 323l94 -41l-217 -282l217 -281z" />
    <glyph glyph-name="logicalnot" unicode="&#xac;" horiz-adv-x="778" 
d="M660 119v178h-624v90h706v-268h-82z" />
    <glyph glyph-name="registered" unicode="&#xae;" horiz-adv-x="1032" 
d="M1016 487q0 -104 -39 -194.5t-106.5 -158.5t-158.5 -107t-194 -39q-104 0 -195 39t-159.5 107t-108 158.5t-39.5 194.5t39.5 194.5t108 158t159.5 106.5t195 39q103 0 194 -39t158.5 -106.5t106.5 -158t39 -194.5zM942 487q0 88 -33.5 165.5t-91 135t-134.5 90.5t-165 33
q-89 0 -167 -33t-136 -90.5t-91.5 -135t-33.5 -165.5q0 -89 33.5 -166.5t91.5 -135.5t136 -91t167 -33q88 0 165 33t134.5 91t91 135.5t33.5 166.5zM690 188l-184 256h-98v-256h-89v607h207q42 0 80.5 -5.5t73.5 -27.5q35 -26 50 -59.5t15 -81.5q0 -63 -38 -108.5
t-109 -59.5l199 -265h-107zM657 621q0 23 -8 46.5t-26 37.5q-9 7 -22.5 11t-28 6.5t-28.5 3.5t-26 1h-110v-213h122q23 0 51 6.5t48 26.5q15 15 21.5 31.5t6.5 42.5z" />
    <glyph glyph-name="degree" unicode="&#xb0;" horiz-adv-x="541" 
d="M266 915q43 0 80.5 -16t65 -43t43.5 -64t16 -79t-16 -79t-43.5 -64.5t-65 -43.5t-80.5 -16q-41 0 -77 15.5t-63.5 43t-43.5 64.5t-16 80q0 40 15.5 77t42.5 64.5t63.5 44t78.5 16.5zM266 858q-31 0 -57.5 -11t-46 -30.5t-30.5 -46t-11 -57.5q0 -30 11.5 -57t31 -47
t46 -32t56.5 -12q61 0 105 43q45 46 45 105q0 30 -12 56.5t-32.5 46t-47.5 31t-58 11.5z" />
    <glyph glyph-name="paragraph" unicode="&#xb6;" horiz-adv-x="727" 
d="M629 -244h-62v1356h-145v-1356h-55v805q-168 0 -263 62q-104 74 -104 235q0 153 94 229q90 66 248 66h389v-41h-102v-1356z" />
    <glyph glyph-name="periodcentered" unicode="&#xb7;" horiz-adv-x="338" 
d="M170 520q31 0 51.5 -21.5t20.5 -49.5q0 -31 -21.5 -52.5t-50.5 -21.5q-33 0 -53.5 20.5t-20.5 53.5q0 30 20.5 50.5t53.5 20.5z" />
    <glyph glyph-name="periodcentered" unicode="&#x2219;" horiz-adv-x="338" 
d="M170 520q31 0 51.5 -21.5t20.5 -49.5q0 -31 -21.5 -52.5t-50.5 -21.5q-33 0 -53.5 20.5t-20.5 53.5q0 30 20.5 50.5t53.5 20.5z" />
    <glyph glyph-name="guillemotright" unicode="&#xbb;" horiz-adv-x="659" 
d="M307 43l-94 41l217 281l-217 282l94 41l295 -323zM158 119l-97 37l95 209l-95 210l97 35l157 -245z" />
    <glyph glyph-name="multiply" unicode="&#xd7;" horiz-adv-x="778" 
d="M616 39l-229 229l-227 -227l-94 94l227 227l-227 228l94 94l227 -227l229 227l95 -94l-230 -228l230 -229z" />
    <glyph glyph-name="divide" unicode="&#xf7;" horiz-adv-x="778" 
d="M479 623q0 -20 -7 -36.5t-19.5 -29.5t-29.5 -20t-36 -7t-36 7t-29.5 20t-19.5 29.5t-7 36.5q0 19 7 36t19.5 29.5t29.5 19.5t36 7t36 -7t29.5 -19.5t19.5 -29.5t7 -36zM61 295v133h656v-133h-656zM479 100q0 -19 -7 -36t-19.5 -29.5t-29.5 -19.5t-36 -7t-36 7t-29.5 19.5
t-19.5 29.5t-7 36t7 36t19.5 30t29.5 20t36 7t36 -7t29.5 -20t19.5 -30t7 -36z" />
    <glyph glyph-name="uni0E00" unicode="&#xe00;" horiz-adv-x="205" 
 />
    <glyph glyph-name="uni0E01" unicode="&#xe01;" horiz-adv-x="799" 
d="M561 0v565q0 35 -15 59t-38.5 38.5t-52 21t-56.5 6.5q-27 0 -56 -6.5t-52 -21t-38 -38.5t-15 -59v-565h-177v575q0 73 33 122.5t83 80t109.5 43.5t112.5 13q55 0 114.5 -13t109 -43.5t82 -80t32.5 -122.5v-575h-176z" />
    <glyph glyph-name="uni0E02" unicode="&#xe02;" horiz-adv-x="698" 
d="M637 8q-141 -31 -252 -20.5t-187.5 56.5t-116.5 124.5t-40 185.5q0 69 17.5 122.5t43 93.5t55.5 67t56 43l-96 92l159 57l123 -139q-37 -21 -70 -50.5t-58 -67.5t-39.5 -84.5t-14.5 -100.5q0 -70 20 -120t53.5 -81.5t78 -46t92.5 -12.5v692h176v-811v0z" />
    <glyph glyph-name="uni0E03" unicode="&#xe03;" horiz-adv-x="698" 
d="M637 8q-142 -30 -253 -19.5t-187 55.5t-116 121t-40 177q0 61 14 110.5t35.5 88.5t46.5 68t47 48l-141 72l98 100l88 -61l80 61l107 -102q-93 -62 -146 -148.5t-53 -185.5q0 -74 19.5 -125.5t53 -83t78 -45.5t93.5 -12v692h176v-811v0z" />
    <glyph glyph-name="uni0E04" unicode="&#xe04;" horiz-adv-x="819" 
d="M582 0v565q0 35 -16 59t-41 38.5t-55.5 21t-59.5 6.5t-59 -6.5t-55.5 -21t-41.5 -38.5t-16 -59v-67h213v-152h-213v-346h-177v575q0 72 31.5 121.5t81.5 80t112 44t124 13.5t124 -13.5t112 -44t81 -80t31 -121.5v-575h-176z" />
    <glyph glyph-name="uni0E05" unicode="&#xe05;" horiz-adv-x="819" 
d="M582 0v586q0 37 -15.5 59.5t-38.5 30.5l-118 -88l-119 88q-23 -8 -38 -30.5t-15 -59.5v-88h213v-152h-213v-346h-177v586q0 48 13.5 90t43 74.5t76 53t111.5 25.5l105 -79l104 79q65 -5 111.5 -25.5t76 -53t43 -74.5t13.5 -90v-586h-176z" />
    <glyph glyph-name="uni0E06" unicode="&#xe06;" horiz-adv-x="819" 
d="M758 252q0 -70 -20.5 -120t-57 -82t-85.5 -47t-106 -15q-37 0 -70 8t-62.5 21.5t-54 31t-44.5 35.5v-84h-176v481q0 41 18.5 73t43 56t49.5 40l38 24l-38 31l-80 -64l-133 113l126 75l70 -53l74 53l149 -116q-16 -13 -40 -36t-46.5 -52.5t-38.5 -63.5t-16 -69v-193
q0 -27 16 -57t44.5 -55t68 -41.5t86.5 -16.5q53 0 81 28.5t28 90.5v571h176v-567v0z" />
    <glyph glyph-name="uni0E07" unicode="&#xe07;" horiz-adv-x="731" 
d="M690 426q0 -119 -34.5 -207.5t-104.5 -144t-177 -76t-251 -2.5l-117 721l166 108l104 -680q49 0 92 16t75.5 50.5t51.5 87.5t19 127q0 63 -12 111.5t-41 81.5t-76.5 50t-118.5 17v143q104 5 183 -15.5t132.5 -69.5t81 -128t27.5 -190z" />
    <glyph glyph-name="uni0E08" unicode="&#xe08;" horiz-adv-x="717" 
d="M676 424q0 -246 -153 -354.5t-451 -67.5v498l-31 92h207v-447q57 0 103.5 15t79.5 48t51 85t18 125q0 81 -35.5 138.5t-99 89.5t-151 37.5t-191.5 -17.5v143q150 30 271 15.5t206 -66.5t130.5 -137.5t45.5 -196.5z" />
    <glyph glyph-name="uni0E09" unicode="&#xe09;" horiz-adv-x="805" 
d="M567 0v84q-20 -18 -44.5 -35.5t-54 -31t-62.5 -21.5t-70 -8q-57 0 -106 15t-85 47t-56.5 82t-20.5 120v184l-31 92h207v-278q0 -62 28 -91.5t80 -29.5q47 0 86.5 16.5t68 41.5t44.5 55t16 57v252q0 68 -58 103.5t-161 35.5q-74 0 -152.5 -24.5t-146.5 -75.5v153
q18 15 49 31t71 29.5t88 22t101 8.5q102 0 174.5 -20.5t119.5 -58.5t69 -92.5t22 -121.5v-541h-176z" />
    <glyph glyph-name="uni0E0A" unicode="&#xe0a;" horiz-adv-x="719" 
d="M678 381q0 -116 -43.5 -199t-124 -131t-194.5 -59t-255 18v717l-30 92h207v-690q51 -3 99 12t84.5 47t58.5 80.5t22 112.5q0 104 -56 175t-188 110l162 153h244l-187 -127q38 -15 74 -42.5t64.5 -66.5t45.5 -90t17 -112z" />
    <glyph glyph-name="uni0E0B" unicode="&#xe0b;" horiz-adv-x="760" 
d="M719 381q0 -118 -47 -201.5t-131 -130.5t-201 -57.5t-258 18.5v592q0 14 5.5 26t13.5 21q9 11 20 19l-141 92l114 76l76 -60l76 60l110 -64q-16 -12 -33.5 -27.5t-31.5 -34.5t-23.5 -42.5t-9.5 -51.5v-487q51 -3 102 10.5t91.5 44.5t66 80t25.5 117q0 104 -56 175
t-188 110l162 153h244l-187 -127q37 -15 73.5 -42.5t64.5 -66.5t45.5 -90t17.5 -112z" />
    <glyph glyph-name="uni0E0C" unicode="&#xe0c;" horiz-adv-x="1237" 
d="M1176 254q0 -80 -20.5 -131.5t-53.5 -81.5t-73.5 -41.5t-80.5 -11.5q-38 0 -71 9t-60 22t-47.5 28.5t-32.5 28.5v-76h-176v569q0 35 -15.5 59t-39.5 38.5t-54 21t-59 6.5q-56 0 -103.5 -19.5t-70.5 -53.5l90 -62q-23 -12 -37 -27.5t-21.5 -32t-10 -33t-2.5 -30.5v-305h86
v-131h-263v432q0 18 6.5 35t17 30.5t23.5 23.5t25 16l-110 67q18 65 57.5 109t91 71t109.5 38.5t112 11.5q61 0 122 -14t110.5 -45t80.5 -81.5t31 -122.5v-290q0 -26 11 -53t32 -49t51.5 -36t69.5 -14q43 0 70.5 29t27.5 94v567h177v-565v0z" />
    <glyph glyph-name="uni0E0D" unicode="&#xe0d;" horiz-adv-x="1237" 
d="M1176 72q0 -75 -24 -130t-66 -90t-99.5 -52t-124.5 -17h-248l-67 137h284q42 0 71 10t47.5 27t27 39.5t8.5 48.5q-10 -8 -24 -18t-33.5 -18t-46 -13.5t-60.5 -5.5q-48 0 -95 10.5t-83.5 38t-59 75t-22.5 122.5v333q0 35 -15.5 59t-39.5 38.5t-54 21t-59 6.5
q-56 0 -103.5 -19.5t-70.5 -53.5l90 -62q-23 -12 -37 -27.5t-21.5 -32t-10 -33t-2.5 -30.5v-305h86v-131h-263v432q0 18 6.5 35t17 30.5t23.5 23.5t25 16l-110 67q18 65 57.5 109t91 71t109.5 38.5t112 11.5q61 0 122 -14t110.5 -45t80.5 -81.5t31 -122.5v-333
q0 -33 9.5 -55t25.5 -34.5t35.5 -18t40.5 -5.5q25 0 52 9t49 26.5t36 44.5t14 63v551h177v-747v0z" />
    <glyph glyph-name="uni0E0E" unicode="&#xe0e;" horiz-adv-x="829" 
d="M592 -307l-127 92l-127 -92h-199l-61 129h213l174 125l127 -92v714q0 35 -15.5 59t-39.5 38.5t-54 21t-59 6.5q-56 0 -103.5 -19.5t-70.5 -53.5l90 -62q-23 -12 -37 -27.5t-22 -32t-10.5 -33t-2.5 -30.5v-436h-258v131h82v301q0 18 6.5 35t17 30.5t23.5 23.5t25 16
l-111 67q18 65 57.5 109t91 71t110 38.5t112.5 11.5q61 0 122 -14t110.5 -45t80.5 -81.5t31 -122.5v-878h-176z" />
    <glyph glyph-name="uni0E0F" unicode="&#xe0f;" horiz-adv-x="829" 
d="M592 -307l-72 86l-102 -107l-109 107l-78 -86h-178l-55 129h180l133 127l107 -105l102 105l72 -74v694q0 35 -15.5 59t-39.5 38.5t-54 21t-59 6.5q-56 0 -103.5 -19.5t-70.5 -53.5l90 -62q-23 -12 -37 -27.5t-22 -32t-10.5 -33t-2.5 -30.5v-436h-258v131h82v301
q0 18 6.5 35t17 30.5t23.5 23.5t25 16l-111 67q18 65 57.5 109t91 71t110 38.5t112.5 11.5q61 0 122 -14t110.5 -45t80.5 -81.5t31 -122.5v-878h-176z" />
    <glyph glyph-name="uni0E10" unicode="&#xe10;" horiz-adv-x="717" 
d="M676 424q0 -246 -153 -354.5t-451 -67.5v498l-31 92h207v-447q57 0 103.5 15t79.5 48t51 85t18 125q0 81 -35.5 138.5t-99 89.5t-151 37.5t-191.5 -17.5v143q117 23 216.5 19.5t178.5 -31.5l26 53h193l-84 -133q60 -53 91.5 -126.5t31.5 -166.5zM485 -307l-65 65l-86 -94
l-92 94l-68 -65h-131l-72 129h160l117 100l82 -84l86 84l69 -65v61l-20 53h197v-278h-177z" />
    <glyph glyph-name="uni0E11" unicode="&#xe11;" horiz-adv-x="860" 
d="M623 0v590q0 18 -0.5 34.5t-3.5 29t-10 20.5t-21 8q-12 0 -26 -11t-29 -29t-29.5 -41.5l-28.5 -47.5q-20 -34 -42.5 -79.5t-44 -96t-41.5 -102.5t-35 -98.5t-24 -84t-9 -59.5v-33h-177v481q0 41 15 73t35.5 55.5t42 39t34.5 23.5l-36 33l-80 -64l-133 113l126 75l70 -53
l74 53l129 -108q-15 -12 -32.5 -32t-32.5 -45t-25 -51t-10 -50v-31q0 -13 -2.5 -39.5t-5.5 -54.5q-4 -33 -7 -70h6q16 93 39.5 162t52.5 119q21 36 48.5 72t60 65t69 47t76.5 18q54 0 89.5 -16.5t56 -47t29 -73.5t8.5 -96v-598h-176z" />
    <glyph glyph-name="uni0E12" unicode="&#xe12;" horiz-adv-x="1278" 
d="M1217 254q0 -80 -20.5 -131.5t-53.5 -81.5t-73.5 -41.5t-80.5 -11.5q-38 0 -71 9t-60 22t-47.5 28.5t-32.5 28.5v-76h-176v637l-86 -78l-127 111q-35 -14 -66 -40t-54.5 -60.5t-37.5 -77t-14 -89.5q0 -65 21 -118.5t62.5 -89t102 -50t138.5 -0.5v-147q-131 -18 -225 8.5
t-155.5 83.5t-90.5 138.5t-29 174.5q0 84 26.5 156t75.5 127.5t116.5 93.5t150.5 54l106 -91l94 76h168v-538q0 -26 11 -53t32 -49t51.5 -36t69.5 -14q43 0 70.5 29t27.5 94v567h177v-565v0z" />
    <glyph glyph-name="uni0E13" unicode="&#xe13;" horiz-adv-x="1237" 
d="M999 0v76q-12 -13 -32.5 -28.5t-47.5 -28.5t-60 -22t-71 -9q-40 0 -80.5 11.5t-73 41.5t-53 81.5t-20.5 131.5v315q0 35 -15.5 59t-39.5 38.5t-54 21t-59 6.5q-56 0 -103.5 -19.5t-70.5 -53.5l90 -62q-23 -12 -37 -27.5t-21.5 -32t-10 -33t-2.5 -30.5v-305h86v-131h-263
v432q0 18 6.5 35t17 30.5t23.5 23.5t25 16l-110 67q18 65 57.5 109t91 71t109.5 38.5t112 11.5q61 0 122 -14t110.5 -45t80.5 -81.5t31 -122.5v-319q0 -65 27.5 -94t71.5 -29q39 0 69.5 14t51 36t31.5 49t11 53v538h177v-819h-177z" />
    <glyph glyph-name="uni0E14" unicode="&#xe14;" horiz-adv-x="840" 
d="M602 -2v678l-133 4q-54 1 -100 -21.5t-79.5 -60.5t-53 -88t-19.5 -104q0 -69 21 -123t62.5 -89t102 -48.5t138.5 -0.5v-147q-129 -18 -223.5 8.5t-156 84t-91 139.5t-29.5 176q0 87 32 163.5t89.5 133.5t137.5 89t177 31l301 -4v-821h-176z" />
    <glyph glyph-name="uni0E15" unicode="&#xe15;" horiz-adv-x="840" 
d="M602 0v637l-86 -78l-127 111q-35 -14 -66 -40t-54.5 -60.5t-37.5 -77t-14 -89.5q0 -65 21 -118.5t62.5 -89t102 -50t138.5 -0.5v-147q-131 -18 -225 8.5t-155.5 83.5t-90.5 138.5t-29 174.5q0 84 26.5 156t75.5 127.5t116.5 93.5t150.5 54l106 -91l94 76h168v-819h-176z
" />
    <glyph glyph-name="uni0E16" unicode="&#xe16;" horiz-adv-x="799" 
d="M561 0v569q0 35 -15.5 59t-39.5 38.5t-54 21t-59 6.5q-56 0 -103.5 -19.5t-70.5 -53.5l90 -62q-23 -12 -37 -27.5t-21.5 -32t-10 -33t-2.5 -30.5v-305h86v-131h-263v432q0 18 6.5 35t17 30.5t23.5 23.5t25 16l-110 67q18 65 57.5 109t91 71t109.5 38.5t112 11.5
q61 0 122 -14t110.5 -45t80.5 -81.5t31 -122.5v-571h-176z" />
    <glyph glyph-name="uni0E17" unicode="&#xe17;" horiz-adv-x="799" 
d="M561 0v571q0 62 -28 90.5t-80 28.5q-47 0 -86.5 -16.5t-68 -41.5t-44.5 -55t-16 -57v-520h-177v819h177v-84q20 18 44.5 35.5t54 31t62.5 21.5t70 8q58 0 107.5 -15t85 -47t55.5 -82t20 -120v-567h-176z" />
    <glyph glyph-name="uni0E18" unicode="&#xe18;" horiz-adv-x="770" 
d="M729 303q0 -112 -50.5 -180t-140 -100.5t-211.5 -34t-266 19.5v410h177v-283q51 -5 106.5 -3t102 18.5t76.5 50.5t30 92q0 37 -20 63.5t-53 44t-75.5 27t-87.5 14.5q-64 7 -117 19.5t-91 34t-59 55t-21 82.5q0 44 25 81t68.5 63.5t102 41.5t125.5 15q65 0 118.5 -7.5
t95.5 -19.5t72 -27.5t48 -31.5v-154q-40 30 -81 48.5t-82 29t-82.5 14.5t-82.5 4q-29 0 -56 -3.5t-48 -10.5t-34 -16t-13 -21q0 -15 24.5 -25t61 -16.5t80 -12t82.5 -12.5q57 -11 107.5 -30.5t88 -52t59 -78.5t21.5 -109z" />
    <glyph glyph-name="uni0E19" unicode="&#xe19;" horiz-adv-x="799" 
d="M561 0v84q-20 -18 -44.5 -35.5t-54 -31t-62.5 -21.5t-70 -8q-59 0 -108 15t-85 47t-56 82t-20 120v567h177v-571q0 -62 27.5 -90.5t80.5 -28.5q47 0 86.5 16.5t68 41.5t44.5 55t16 57v520h176v-819h-176z" />
    <glyph glyph-name="uni0E1A" unicode="&#xe1a;" horiz-adv-x="799" 
d="M737 244q0 -73 -30.5 -122.5t-78.5 -79.5t-108.5 -43t-120.5 -13q-58 0 -118 13t-109 43t-80 79.5t-31 122.5v575h177v-565q0 -35 15 -59t38 -38.5t52 -21t56 -6.5q28 0 56.5 6.5t52 21t38.5 38.5t15 59v565h176v-575v0z" />
    <glyph glyph-name="uni0E1B" unicode="&#xe1b;" horiz-adv-x="799" 
d="M737 244q0 -73 -30.5 -122.5t-78.5 -79.5t-108.5 -43t-120.5 -13q-58 0 -118 13t-109 43t-80 79.5t-31 122.5v575h177v-565q0 -35 15 -59t38 -38.5t52 -21t56 -6.5q28 0 56.5 6.5t52 21t38.5 38.5t15 59v750h176v-760v0z" />
    <glyph glyph-name="uni0E1C" unicode="&#xe1c;" horiz-adv-x="1028" 
d="M844 0h-168l-162 537l-162 -537h-168l-184 819h299v-123h-100l88 -434l155 514l-14 43h147l166 -557l115 557h172z" />
    <glyph glyph-name="uni0E1D" unicode="&#xe1d;" horiz-adv-x="1028" 
d="M844 0h-168l-162 537l-162 -537h-168l-184 819h299v-123h-100l88 -434l155 514l-14 43h147l166 -557l152 742h172z" />
    <glyph glyph-name="uni0E1E" unicode="&#xe1e;" horiz-adv-x="1028" 
d="M844 0h-168l-162 537l-162 -537h-168l-184 819h172l115 -557l155 514l-14 43h147l166 -557l115 557h172z" />
    <glyph glyph-name="uni0E1F" unicode="&#xe1f;" horiz-adv-x="1028" 
d="M844 0h-168l-162 537l-162 -537h-168l-184 819h172l115 -557l155 514l-14 43h147l166 -557l152 742h172z" />
    <glyph glyph-name="uni0E20" unicode="&#xe20;" horiz-adv-x="829" 
d="M592 0v569q0 35 -15.5 59t-39.5 38.5t-54 21t-59 6.5q-56 0 -103.5 -19.5t-70.5 -53.5l90 -62q-23 -12 -37 -27.5t-22 -32t-10.5 -33t-2.5 -30.5v-436h-258v131h82v301q0 18 6.5 35t17 30.5t23.5 23.5t25 16l-111 67q18 65 57.5 109t91 71t110 38.5t112.5 11.5
q61 0 122 -14t110.5 -45t80.5 -81.5t31 -122.5v-571h-176z" />
    <glyph glyph-name="uni0E21" unicode="&#xe21;" horiz-adv-x="799" 
d="M737 252q0 -70 -20 -120t-55.5 -82t-85 -47t-107.5 -15q-37 0 -70 8t-62.5 21.5t-54 31t-44.5 35.5v-84h-177v819h177v-520q0 -27 16 -57t44.5 -55t68 -41.5t86.5 -16.5q52 0 80 28.5t28 90.5v571h176v-567v0z" />
    <glyph glyph-name="uni0E22" unicode="&#xe22;" horiz-adv-x="788" 
d="M371 -4q-65 -1 -126 8.5t-108.5 37.5t-76.5 78.5t-29 131.5q0 44 14 78.5t35.5 60t47.5 42t50 24.5q-23 4 -47 17.5t-43.5 34t-32 48t-12.5 59.5q0 61 29 105t78.5 70t116 34t141.5 -2v-141q-36 9 -70 8.5t-60.5 -10t-42.5 -27t-16 -41.5t13.5 -41t36 -26.5t51.5 -13
t59 -1.5l61 -127q-52 4 -95 -4t-73.5 -26t-47.5 -46t-17 -63q0 -45 18.5 -70.5t48 -38.5t66 -16t72.5 -2l139 4v678h176v-819z" />
    <glyph glyph-name="uni0E23" unicode="&#xe23;" horiz-adv-x="715" 
d="M684 268q0 -76 -28 -129t-75 -86.5t-108 -49t-127 -15.5q-105 0 -178.5 20.5t-126.5 52.5v162q68 -49 143.5 -70.5t141.5 -21.5q32 0 65 6t59.5 20t43 38t16.5 59q0 54 -37.5 84t-122.5 41q-59 7 -116 19t-102 36t-73 65t-28 107q0 52 25 94t67.5 72t99 46t119.5 16
q61 0 110 -8t87 -20t65 -26.5t45 -27.5v-156q-22 22 -55.5 39.5t-71 29.5t-76 18.5t-71.5 6.5q-78 0 -123 -23.5t-45 -58.5q0 -20 16.5 -32.5t43 -20.5t59.5 -13l65 -10q62 -9 115.5 -26.5t93 -48.5t62 -77t22.5 -112z" />
    <glyph glyph-name="uni0E24" unicode="&#xe24;" horiz-adv-x="799" 
d="M561 -246v815q0 35 -15.5 59t-39.5 38.5t-54 21t-59 6.5q-56 0 -103.5 -19.5t-70.5 -53.5l90 -62q-23 -12 -37 -27.5t-21.5 -32t-10 -33t-2.5 -30.5v-305h86v-131h-263v432q0 18 6.5 35t17 30.5t23.5 23.5t25 16l-110 67q18 65 57.5 109t91 71t109.5 38.5t112 11.5
q61 0 122 -14t110.5 -45t80.5 -81.5t31 -122.5v-817h-176z" />
    <glyph glyph-name="uni0E25" unicode="&#xe25;" horiz-adv-x="805" 
d="M567 0v457q-57 7 -120.5 3t-117 -23t-88 -55.5t-34.5 -96.5q0 -42 19.5 -72.5t54 -48.5t80 -23.5t98.5 2.5v-149q-92 -15 -170 -3t-135.5 48.5t-90 98t-32.5 147.5q0 88 43.5 152t115.5 103.5t166.5 54.5t196.5 5q-2 18 -15.5 34.5t-37.5 29t-57.5 19.5t-73.5 7
q-74 0 -152 -19.5t-160 -74.5v156q60 37 141 59.5t199 22.5q65 0 127.5 -13.5t111 -43.5t78 -78.5t29.5 -118.5v-580h-176z" />
    <glyph glyph-name="uni0E26" unicode="&#xe26;" horiz-adv-x="829" 
d="M592 -246v815q0 35 -15.5 59t-39.5 38.5t-54 21t-59 6.5q-56 0 -103.5 -19.5t-70.5 -53.5l90 -62q-23 -12 -37 -27.5t-22 -32t-10.5 -33t-2.5 -30.5v-436h-258v131h82v301q0 18 6.5 35t17 30.5t23.5 23.5t25 16l-111 67q18 65 57.5 109t91 71t110 38.5t112.5 11.5
q61 0 122 -14t110.5 -45t80.5 -81.5t31 -122.5v-817h-176z" />
    <glyph glyph-name="uni0E27" unicode="&#xe27;" horiz-adv-x="680" 
d="M639 410q0 -122 -28.5 -203.5t-78 -130t-117.5 -68.5t-147 -20q-84 0 -143 17t-105 42v160q45 -29 98.5 -47.5t121.5 -18.5q48 0 89 13t71 44t46.5 82.5t16.5 129.5q0 77 -16.5 128.5t-46.5 82.5t-71 44t-89 13q-68 0 -121.5 -18.5t-98.5 -47.5v160q46 25 105 42t143 17
q79 0 147 -20t117.5 -68.5t78 -129.5t28.5 -203z" />
    <glyph glyph-name="uni0E28" unicode="&#xe28;" horiz-adv-x="819" 
d="M582 0v565q0 35 -16 59t-41 38.5t-55.5 21t-59.5 6.5t-59 -6.5t-55.5 -21t-41.5 -38.5t-16 -59v-67h213v-152h-213v-346h-177v575q0 72 31.5 121.5t81.5 80t112 44t124 13.5q52 0 102 -9l25 56h190l-70 -111q45 -31 73 -78t28 -117v-575h-176z" />
    <glyph glyph-name="uni0E29" unicode="&#xe29;" horiz-adv-x="819" 
d="M776 393h-39v-149q0 -73 -30.5 -122.5t-78.5 -79.5t-108.5 -43t-120.5 -13q-58 0 -118 13t-109 43t-80 79.5t-31 122.5v575h177v-565q0 -35 15 -59t38 -38.5t52 -21t56 -6.5q28 0 56.5 6.5t52 21t38.5 38.5t15 59v139h-192v164l106 -31h86v293h176v-293h99z" />
    <glyph glyph-name="uni0E2A" unicode="&#xe2a;" horiz-adv-x="805" 
d="M567 0v457q-57 7 -120.5 3t-117 -23t-88 -55.5t-34.5 -96.5q0 -42 19.5 -72.5t54 -48.5t80 -23.5t98.5 2.5v-149q-92 -15 -170 -3t-135.5 48.5t-90 98t-32.5 147.5q0 88 43.5 152t115.5 103.5t166.5 54.5t196.5 5q-2 18 -15.5 34.5t-37.5 29t-57.5 19.5t-73.5 7
q-74 0 -152 -19.5t-160 -74.5v156q60 37 141 59.5t199 22.5q29 0 58 -3t57 -8l25 58h190l-76 -115q42 -31 67 -76t25 -110v-580h-176z" />
    <glyph glyph-name="uni0E2B" unicode="&#xe2b;" horiz-adv-x="799" 
d="M596 674q28 -12 53.5 -28.5t45 -40t31 -54.5t11.5 -70v-481h-176v459q0 40 -19.5 69t-60.5 43l-30 -25.5l-41.5 -37l-47.5 -43.5l-48.5 -44.5l-43 -40l-32.5 -30.5v-350h-177v819h177v-258l299 258h221z" />
    <glyph glyph-name="uni0E2C" unicode="&#xe2c;" horiz-adv-x="1028" 
d="M915 1004h172l-14 -62q-15 -65 -58.5 -105t-111.5 -40q22 -9 39.5 -25.5t29 -39.5t15 -51.5t-3.5 -59.5l-139 -621h-168l-162 537l-162 -537h-168l-184 819h172l115 -557l155 514l-14 43h147l166 -557l74 361q6 30 0.5 57t-21.5 47.5t-42.5 32.5t-63.5 12h-26l36 125
q45 0 80.5 2.5t61.5 10.5t42.5 23.5t24.5 41.5z" />
    <glyph glyph-name="uni0E2D" unicode="&#xe2d;" horiz-adv-x="856" 
d="M815 410q0 -111 -31 -191.5t-84.5 -132t-124 -76t-149.5 -24.5q-78 0 -148.5 24t-124 75.5t-85 132t-31.5 192.5q0 31 3 65t9 60h311v-136h-147q1 -67 17.5 -117.5t44.5 -84.5t66.5 -51t84.5 -17q48 0 87 18t67 53t43.5 88t15.5 122t-15.5 121.5t-44 87.5t-67.5 53
t-86 18q-32 0 -59.5 -8.5t-50 -23t-39 -33t-25.5 -39.5h-191q22 66 59.5 113t86 77t104.5 44t115 14q79 0 149.5 -24.5t124 -76t84.5 -132t31 -191.5z" />
    <glyph glyph-name="uni0E2E" unicode="&#xe2e;" horiz-adv-x="856" 
d="M815 410q0 -111 -31 -191.5t-84.5 -132t-124 -76t-149.5 -24.5q-78 0 -148.5 24t-124 75.5t-85 132t-31.5 192.5q0 31 3 65t9 60h311v-136h-147q1 -67 17.5 -117.5t44.5 -84.5t66.5 -51t84.5 -17q48 0 87 18t67 53t43.5 88t15.5 122t-15.5 121.5t-44 87.5t-67.5 53
t-86 18q-32 0 -59.5 -8.5t-50 -23t-39 -33t-25.5 -39.5h-191q22 66 59.5 113t86 77t104.5 44t115 14q45 0 86 -9l18 45h189l-64 -102q73 -48 116.5 -136t43.5 -222z" />
    <glyph glyph-name="uni0E2F" unicode="&#xe2f;" horiz-adv-x="743" 
d="M508 0v580q-12 -15 -34 -34.5t-54 -37t-73 -29.5t-89 -12q-44 0 -85 11t-72.5 33.5t-50.5 56.5t-19 81q0 38 15.5 69.5t44 55.5t68.5 39.5t89 20.5l98 -97q-38 -1 -65 -8.5t-44 -18.5t-24.5 -25t-7.5 -28q0 -24 20.5 -37.5t50.5 -13.5q39 -1 77.5 14.5t71.5 43.5t56 67.5
t31 87.5h170v-819h-174z" />
    <glyph glyph-name="uni0E30" unicode="&#xe30;" horiz-adv-x="373" 
d="M291 537h-250v190h176v-47h135zM291 102h-250v191h176v-47h135z" />
    <glyph glyph-name="uni0E31" unicode="&#xe31;" 
d="M109 922h-566v190h178v-80h449z" />
    <glyph glyph-name="uni0E32" unicode="&#xe32;" horiz-adv-x="580" 
d="M342 0v578q0 51 -36 81.5t-118 30.5q-49 0 -95 -11.5t-83 -31.5v146q38 20 88.5 30.5t110.5 10.5q88 0 147.5 -21.5t95.5 -57.5t51 -84t15 -100v-571h-176z" />
    <glyph glyph-name="uni0E33" unicode="&#xe33;" horiz-adv-x="580" 
d="M-14 1028q0 -24 -10.5 -44.5t-28.5 -36.5t-43.5 -25t-55.5 -9t-55 9t-43 25t-28.5 36.5t-10.5 44.5t10.5 45t28.5 36.5t43 24.5t55 9t55.5 -9t43.5 -24.5t28.5 -36.5t10.5 -45zM-98 1028q0 17 -14 31t-40 14t-39.5 -14t-13.5 -31t13.5 -31t39.5 -14t40 14t14 31zM342 0
v578q0 51 -36 81.5t-118 30.5q-49 0 -95 -11.5t-83 -31.5v146q38 20 88.5 30.5t110.5 10.5q88 0 147.5 -21.5t95.5 -57.5t51 -84t15 -100v-571h-176z" />
    <glyph glyph-name="uni0E34" unicode="&#xe34;" 
d="M-727 922l61 110h605v-110h-666z" />
    <glyph glyph-name="uni0E35" unicode="&#xe35;" 
d="M-727 922l61 110h428v105h177v-215h-666z" />
    <glyph glyph-name="uni0E36" unicode="&#xe36;" 
d="M-14 1032q0 -24 -10.5 -44.5t-29 -35t-44 -22.5t-54.5 -8h-575l61 110h377q0 22 10 42.5t28 35.5t43.5 24t55.5 9q32 0 57.5 -9t43.5 -24t27.5 -35.5t9.5 -42.5zM-100 1032q0 19 -15 32t-37 13q-20 0 -34.5 -13t-14.5 -32q0 -18 14.5 -31.5t34.5 -13.5q22 0 37 13.5
t15 31.5z" />
    <glyph glyph-name="uni0E37" unicode="&#xe37;" 
d="M-727 922l61 110h252v105h115v-105h61v105h177v-215h-666z" />
    <glyph glyph-name="uni0E38" unicode="&#xe38;" 
d="M-238 -338v133h-102l41 123h238v-256h-177z" />
    <glyph glyph-name="uni0E39" unicode="&#xe39;" 
d="M-61 -213q0 -71 -57 -108t-156 -37q-103 0 -158 37t-55 108v8h-82l41 123h196v-117q0 -26 15 -33.5t32 -7.5t32 7.5t15 33.5v117h177v-131v0z" />
    <glyph glyph-name="uni0E3A" unicode="&#xe3a;" 
d="M-35 -197q0 -23 -9.5 -43.5t-25 -36.5t-36.5 -25t-44 -9t-43.5 9t-36.5 25t-25 36.5t-9 43.5t9 44t25 36.5t36.5 25t43.5 9.5t44 -9.5t36.5 -25t25 -36.5t9.5 -44z" />
    <glyph glyph-name="uni0E3F" unicode="&#xe3f;" horiz-adv-x="887" 
d="M858 301q0 -128 -89.5 -204.5t-260.5 -92.5v-166h-117v162h-289v969h289v161h117v-167q61 -6 110.5 -21.5t85 -42.5t55 -66.5t19.5 -93.5q0 -66 -22.5 -110t-67.5 -76q79 -35 124.5 -97t45.5 -155zM592 707q0 57 -41 78.5t-131 21.5h-133v-205h131q39 0 71.5 5.5
t55.5 18.5t35.5 32.5t11.5 48.5zM672 297q0 47 -18.5 75t-51.5 43t-78.5 20t-99.5 5h-135v-280h174q37 0 74.5 8t67.5 24.5t48.5 42.5t18.5 62z" />
    <glyph glyph-name="uni0E40" unicode="&#xe40;" horiz-adv-x="381" 
d="M102 0v819h177v-819h-177z" />
    <glyph glyph-name="uni0E41" unicode="&#xe41;" horiz-adv-x="692" 
d="M412 0v819h176v-819h-176zM102 0v819h177v-819h-177z" />
    <glyph glyph-name="uni0E42" unicode="&#xe42;" horiz-adv-x="422" 
d="M266 1110q-20 0 -29.5 -6.5t-11.5 -16.5q16 -8 29.5 -18t23.5 -25.5t15.5 -37t5.5 -52.5v-954h-176v979q0 22 -8 37.5t-21 27t-30 20.5t-35 17q0 30 10 60t31 54t53.5 39t77.5 15h293v-139h-228z" />
    <glyph glyph-name="uni0E43" unicode="&#xe43;" horiz-adv-x="422" 
d="M395 1079q-16 -5 -33 -15.5t-31 -26t-23 -35.5t-9 -44v-958h-176v961q0 31 8.5 53.5t22 39t30.5 27.5t35 19q-6 25 -25.5 41t-64.5 16q-21 0 -38.5 -6.5t-29.5 -17.5t-18 -26t-4 -32h-152q-5 36 6 72t41 64.5t80 46.5t121 18q72 0 122 -14.5t80.5 -41t44 -62.5t13.5 -79z
" />
    <glyph glyph-name="uni0E44" unicode="&#xe44;" horiz-adv-x="422" 
d="M356 1124q-24 -15 -40.5 -40t-16.5 -62v-1022h-176v1006q0 21 5.5 37t15 28.5t21 22.5t23.5 18q0 8 -12 15.5t-31 7.5l-73 -56q-23 18 -56 36q-29 14 -71 29.5t-101 24.5l95 97q52 -8 85.5 -23t49.5 -29l69 46q31 4 68.5 -1.5t69.5 -22.5t53.5 -45t21.5 -67z" />
    <glyph glyph-name="uni0E45" unicode="&#xe45;" horiz-adv-x="580" 
d="M342 -246v824q0 51 -36 81.5t-118 30.5q-49 0 -95 -11.5t-83 -31.5v146q38 20 88.5 30.5t110.5 10.5q88 0 147.5 -21.5t95.5 -57.5t51 -84t15 -100v-817h-176z" />
    <glyph glyph-name="uni0E46" unicode="&#xe46;" horiz-adv-x="748" 
d="M510 -246v877l-90 -78l-137 123q-14 -1 -27 -7t-23.5 -16t-17 -23t-6.5 -28q0 -23 14.5 -39.5t37 -26t50.5 -11.5t56 5l-101 -141q-56 1 -99.5 17t-73.5 43t-46 63.5t-16 79.5q0 46 17.5 89t53.5 76t90.5 52.5t129.5 19.5l96 -92l96 82h172v-1065h-176z" />
    <glyph glyph-name="uni0E47" unicode="&#xe47;" 
d="M-119 1120h-344q-57 0 -80.5 -16t-23.5 -39q0 -14 3.5 -25t8.5 -14l170 64l227 -80v-115l-225 84l-209 -74q-22 6 -42.5 18.5t-36 32t-25 45.5t-9.5 60q0 31 13 61.5t39 54.5t65 39t92 15h445z" />
    <glyph glyph-name="uni0E48" unicode="&#xe48;" 
d="M-238 1198v174h177v-174h-177z" />
    <glyph glyph-name="uni0E49" unicode="&#xe49;" 
d="M10 1198h-350v41q0 22 -9 34.5t-38 12.5h-45l55 103h105q42 0 67 -19.5t25 -54.5v-19h246z" />
    <glyph glyph-name="uni0E4A" unicode="&#xe4a;" 
d="M80 1198h-170v86q0 49 -45 49h-6l-68 -49l-67 49q-19 0 -33.5 -12t-14.5 -31v-10h74v-82h-176v94q0 31 11.5 55t31 41t46 26t56.5 9h13l61 -43l57 43h17q62 0 102.5 -32.5t42.5 -92.5h123z" />
    <glyph glyph-name="uni0E4B" unicode="&#xe4b;" 
d="M-70 1276v-78h-159v78h-80v67h80v78h159v-78h80v-67h-80z" />
    <glyph glyph-name="uni0E4C" unicode="&#xe4c;" 
d="M-10 1182h-53q-29 0 -45.5 -14.5t-16.5 -39.5v-14h-162v49q0 28 11 49.5t30 36.5t45 23t56 8h190z" />
    <glyph glyph-name="uni0E4D" unicode="&#xe4d;" 
d="M-14 1028q0 -24 -10.5 -44.5t-28.5 -36.5t-43.5 -25t-55.5 -9t-55 9t-43 25t-28.5 36.5t-10.5 44.5t10.5 45t28.5 36.5t43 24.5t55 9t55.5 -9t43.5 -24.5t28.5 -36.5t10.5 -45zM-98 1028q0 17 -14 31t-40 14t-39.5 -14t-13.5 -31t13.5 -31t39.5 -14t40 14t14 31z" />
    <glyph glyph-name="uni0E4E" unicode="&#xe4e;" 
d="M31 1341q-47 10 -98.5 10t-95 -9t-71.5 -27t-28 -45q0 -15 8 -23.5t21.5 -13t30 -5.5t34.5 1v-96q-32 3 -71.5 -1t-73.5 -14t-57 -26.5t-23 -38.5q0 -17 14.5 -26t37.5 -10t52.5 6.5t59.5 23.5l49 -84q-59 -32 -118 -40t-106 4.5t-76.5 42t-29.5 72.5q0 27 12.5 51
t35 43.5t53 33.5t67.5 22q-22 14 -30.5 37.5t-8.5 42.5q0 44 30.5 80.5t85.5 61t130.5 34t165.5 0.5v-107v0z" />
    <glyph glyph-name="uni0E4F" unicode="&#xe4f;" horiz-adv-x="942" 
d="M891 410q0 -87 -33 -163.5t-90 -133.5t-133.5 -90t-163.5 -33t-163.5 33t-133.5 90t-90 133.5t-33 163.5t33 163t90 133t133.5 90t163.5 33t163.5 -33t133.5 -90t90 -133t33 -163zM829 410q0 73 -28 138.5t-77 114t-114 77t-139 28.5t-139 -28.5t-114 -77t-77 -114
t-28 -138.5q0 -74 28 -139.5t77 -114t114 -77t139 -28.5t139 28.5t114 77t77 114t28 139.5zM727 410q0 -53 -20 -100t-55 -81.5t-81.5 -54.5t-99.5 -20t-99.5 20t-81.5 54.5t-55 81.5t-20 100t20 99.5t55 81.5t81.5 55t99.5 20t99.5 -20t81.5 -55t55 -81.5t20 -99.5z" />
    <glyph glyph-name="uni0E50" unicode="&#xe50;" horiz-adv-x="776" 
d="M735 307q0 -66 -27 -124t-74.5 -101.5t-111 -68.5t-135.5 -25t-135.5 25t-110.5 68.5t-74.5 101.5t-27.5 124t27.5 124t74.5 101.5t110.5 69t135.5 25.5t135.5 -25.5t111 -69t74.5 -101.5t27 -124zM590 307q0 39 -16 75t-44 63t-65.5 43t-79.5 16t-79.5 -16t-65.5 -43
t-44 -63t-16 -75t16 -74.5t44 -62.5t65.5 -43t79.5 -16t79.5 16t65.5 43t44 62.5t16 74.5z" />
    <glyph glyph-name="uni0E51" unicode="&#xe51;" horiz-adv-x="823" 
d="M782 299q0 -84 -37.5 -151.5t-99 -117t-140.5 -81t-161 -43.5l-63 104q76 9 140.5 36.5t112 67.5t74.5 89t27 102q0 45 -19 81.5t-50.5 62.5t-73 40.5t-86.5 14.5q-43 0 -83 -14t-70.5 -38.5t-48.5 -58t-18 -71.5q0 -27 7.5 -49t19.5 -38.5t27 -27.5t30 -17
q-18 28 -18 66q0 28 11 53.5t30 44.5t45 30t55 11q30 0 55.5 -11t44 -30t29 -44.5t10.5 -53.5q0 -41 -18 -75.5t-49 -60t-72.5 -40t-89.5 -14.5q-55 0 -103 19t-84 52t-56.5 78.5t-20.5 99.5q0 69 30 126t80.5 98.5t116.5 64.5t137 23q78 0 147 -23.5t120.5 -66t81.5 -103
t30 -135.5zM442 256q0 23 -15 39t-34 16q-23 0 -38 -16t-15 -39t15 -39t38 -16q19 0 34 16t15 39z" />
    <glyph glyph-name="uni0E52" unicode="&#xe52;" horiz-adv-x="1202" 
d="M178 0q-6 76 -13 139.5t-16.5 120t-22 108t-30.5 103.5q-29 87 -91 169.5t-142 147.5l127 89q86 -82 147.5 -173.5t95.5 -187.5q32 -91 51 -186.5t31 -200.5h678v309q0 35 -22.5 54.5t-52.5 19.5q-26 0 -48 -14t-30 -37v-281h-148v283q-12 25 -38.5 37t-51.5 12
q-45 0 -72 -21.5t-36 -50.5h10q28 0 53.5 -10t44.5 -28t30 -42.5t11 -52.5q0 -29 -11 -54.5t-30 -44.5t-44.5 -30.5t-53.5 -11.5q-29 0 -54.5 11.5t-45 30.5t-31 44.5t-11.5 54.5v109q0 49 19 89.5t51.5 70t76 45.5t93.5 16q48 0 91.5 -16.5t74.5 -42.5q28 26 69 42.5
t83 16.5q43 0 83.5 -13.5t71.5 -39t49.5 -63t18.5 -85.5v-436h-965zM557 301q0 23 -16 39t-37 16q-23 0 -39 -16t-16 -39t16 -40t39 -17q21 0 37 17t16 40z" />
    <glyph glyph-name="uni0E53" unicode="&#xe53;" horiz-adv-x="948" 
d="M741 0v430q0 18 -7.5 31t-20 21.5t-28 13t-30.5 4.5q-26 0 -50.5 -10.5t-37.5 -30.5v-459h-147v459q-19 23 -47 32t-56 9q-21 0 -41 -6t-35.5 -18t-24.5 -29t-9 -39v-111q5 2 6.5 2h7.5q34 0 63.5 -12.5t51.5 -34t34.5 -50t12.5 -59.5q0 -33 -12.5 -61.5t-34.5 -49
t-51.5 -32.5t-63.5 -12t-63.5 12t-52 32.5t-35.5 49t-13 61.5v277q0 48 20.5 87t56 66.5t82 42.5t97.5 15q57 0 104.5 -18t78.5 -44q26 25 69 43.5t97 18.5q46 0 87 -12t72 -36t49.5 -59t18.5 -80v-444h-148zM281 141q0 25 -17.5 43.5t-42.5 18.5t-41 -18.5t-16 -43.5
q0 -26 16 -44.5t41 -18.5t42.5 18.5t17.5 44.5z" />
    <glyph glyph-name="uni0E54" unicode="&#xe54;" horiz-adv-x="879" 
d="M803 -6q-50 28 -91 41.5t-79 13.5q-29 0 -55.5 -9t-56 -20.5t-64.5 -20.5t-82 -9q-62 0 -122 19.5t-107 59t-76.5 100t-30.5 142.5q-2 75 24.5 135.5t73.5 103t112 66t140 23.5q41 0 69 -2.5t51.5 -4t46 -2t52.5 4.5q28 4 50.5 24t38.5 51t24.5 70t9.5 80h148
q1 -71 -16.5 -134.5t-50 -113t-79.5 -80.5t-106 -38q-32 -4 -59 -3.5t-54 3l-56.5 5.5t-68.5 3q-41 0 -78 -13t-65.5 -38t-45 -60t-14.5 -80q1 -45 18.5 -80t45 -58.5t62 -35.5t71.5 -12q25 0 50 6.5t42 15.5q-31 23 -55.5 58t-24.5 80q0 33 12.5 61.5t33.5 50t49.5 33.5
t60.5 12q33 0 61.5 -11t49.5 -31t33 -47.5t12 -59.5q0 -34 -16.5 -62.5t-39.5 -48.5q15 -9 43.5 -12.5t62 -9.5t68.5 -18.5t62 -39.5zM608 295q0 25 -16 42t-39 17t-40 -17t-17 -42t17 -42t40 -17t39 17t16 42z" />
    <glyph glyph-name="uni0E55" unicode="&#xe55;" horiz-adv-x="879" 
d="M803 -6q-50 28 -91 41.5t-79 13.5q-29 0 -55.5 -9t-56 -20.5t-64.5 -20.5t-82 -9q-62 0 -122 19.5t-107 59t-76.5 100t-30.5 142.5q-2 61 16 112.5t51 91t80 66t103 37.5q-13 13 -22 33t-9 49q0 32 15 59.5t40.5 47t59 30.5t69.5 11t69.5 -11t58.5 -30.5t40 -46.5t15 -60
q0 -20 -4.5 -35.5t-12.5 -29.5q28 4 50.5 24t38.5 51t24.5 70t9.5 80h148q1 -71 -16.5 -134.5t-50 -113t-79.5 -80.5t-106 -38q-32 -4 -59 -3.5t-54 3l-56.5 5.5t-68.5 3q-41 0 -78 -13t-65.5 -38t-45 -60t-14.5 -80q1 -45 18.5 -80t45 -58.5t62 -35.5t71.5 -12q25 0 50 6.5
t42 15.5q-31 23 -55.5 60t-24.5 82q0 33 12.5 61t33.5 48.5t49.5 32t60.5 11.5q33 0 61.5 -11t49.5 -31t33 -47.5t12 -59.5q0 -34 -16.5 -62.5t-39.5 -48.5q15 -9 43.5 -12.5t62 -9.5t68.5 -18.5t62 -39.5zM506 686q0 23 -18 40t-46 17q-27 0 -46 -17t-19 -40t19 -40t46 -17
q28 0 46 17t18 40zM608 295q0 25 -16 42t-39 17t-40 -17t-17 -42t17 -42t40 -17t39 17t16 42z" />
    <glyph glyph-name="uni0E56" unicode="&#xe56;" horiz-adv-x="811" 
d="M770 317q0 -72 -29.5 -132.5t-80.5 -105t-120.5 -69t-150.5 -24.5q-78 0 -137 23t-98.5 58.5t-59.5 79.5t-20 86q0 32 11.5 59.5t32 47.5t48.5 31.5t61 11.5q32 0 59.5 -12t47.5 -32t31.5 -46.5t11.5 -56.5q0 -31 -13 -61t-36 -50q11 -2 28 -4t31 -2q47 0 89.5 14.5
t75 40.5t52 62.5t19.5 80.5q0 40 -18 74.5t-48.5 59.5t-71.5 39t-86 14q-85 0 -153.5 -31t-128.5 -88q-9 64 -34.5 120t-60 102.5t-74.5 83.5t-77 65l117 86q43 -29 76.5 -61t58.5 -65.5t42 -67t28 -64.5q45 23 100 38t115 15q77 0 143.5 -23t115 -65t76 -101t27.5 -131z
M283 233q0 25 -17.5 42.5t-40.5 17.5t-39 -17.5t-16 -42.5q0 -24 16 -41.5t39 -17.5t40.5 17.5t17.5 41.5z" />
    <glyph glyph-name="uni0E57" unicode="&#xe57;" horiz-adv-x="1171" 
d="M1145 860q16 -141 4 -276t-49.5 -249.5t-98.5 -202t-143 -132.5h-117v430q0 18 -7.5 31t-20 21.5t-28 13t-30.5 4.5q-26 0 -50.5 -10.5t-37.5 -30.5v-459h-147v459q-19 23 -47 32t-56 9q-21 0 -41 -6t-35.5 -18t-24.5 -29t-9 -39v-111q5 2 6.5 2h7.5q34 0 63.5 -12.5
t51.5 -34t34.5 -50t12.5 -59.5q0 -33 -12.5 -61.5t-34.5 -49t-51.5 -32.5t-63.5 -12t-63.5 12t-52 32.5t-35.5 49t-13 61.5v277q0 48 20.5 87t56 66.5t82 42.5t97.5 15q57 0 104.5 -18t78.5 -44q26 25 69 43.5t97 18.5q46 0 87 -12t72 -36t49.5 -59t18.5 -80v-245
q35 46 61.5 113.5t41 152.5t15 184.5t-15.5 210.5h154zM281 141q0 25 -17.5 43.5t-42.5 18.5t-41 -18.5t-16 -43.5q0 -26 16 -44.5t41 -18.5t42.5 18.5t17.5 44.5z" />
    <glyph glyph-name="uni0E58" unicode="&#xe58;" horiz-adv-x="899" 
d="M879 829q-4 -56 -17.5 -107.5t-33.5 -97.5t-44.5 -86t-50.5 -71q-62 17 -129 28t-141 11q-62 0 -113 -13.5t-87.5 -38.5t-56.5 -60t-20 -77q0 -30 10 -57t25.5 -48t35 -36t38.5 -22l137 137l139 -146l16 8q6 3 11 6t6 3q-22 20 -34.5 47.5t-12.5 56.5q0 28 12 53.5
t32.5 45t47.5 31.5t58 12t58.5 -12.5t47.5 -33t31.5 -46.5t11.5 -54q0 -45 -23 -84t-64 -73t-96.5 -62.5t-119.5 -52.5l-115 123l-114 -125q-56 7 -107 33t-91 68t-63.5 98.5t-23.5 125.5q0 71 28 130.5t81 103t129 68t172 24.5q83 0 136.5 -5.5t84.5 -10.5q18 35 35.5 90.5
t25.5 128.5zM756 268q0 22 -15.5 38t-35.5 16t-36 -16t-16 -38q0 -21 16 -37t36 -16t35.5 16t15.5 37z" />
    <glyph glyph-name="uni0E59" unicode="&#xe59;" horiz-adv-x="1004" 
d="M1028 848q4 -64 -5 -123t-27.5 -111t-44.5 -94.5t-54 -73.5q-9 20 -23 34t-31.5 21.5t-36 10t-36.5 0.5q-25 -3 -44 -19t-24 -34q56 -91 89.5 -203t50.5 -248l-148 -20q-12 94 -32 187t-56 167.5t-91.5 121t-137.5 46.5q-40 0 -75 -15t-60.5 -40.5t-40.5 -59.5t-15 -73
q0 -54 15.5 -89.5t27.5 -52.5q4 26 17.5 49t33.5 40.5t46 27.5t55 10q32 0 60 -11.5t49 -31.5t33 -46.5t12 -55.5q0 -40 -15.5 -72t-42.5 -54t-63 -34t-76 -12q-70 0 -125.5 28.5t-94 75t-59 107t-20.5 125.5q0 71 26 131t72 103t107.5 67t132.5 24q65 0 121 -20t102 -56
q20 25 50.5 46.5t72.5 29.5q43 8 80.5 2.5t60.5 -16.5q11 35 16.5 86t-3.5 125h151zM438 160q0 25 -17 42t-40 17t-39 -17t-16 -42t16 -42.5t39 -17.5t40 17.5t17 42.5z" />
    <glyph glyph-name="uni0E5A" unicode="&#xe5a;" horiz-adv-x="958" 
d="M764 0v819h133v-819h-133zM508 0v580q-12 -15 -34 -34.5t-54 -37t-73 -29.5t-89 -12q-44 0 -85 11t-72.5 33.5t-50.5 56.5t-19 81q0 38 15.5 69.5t44 55.5t68.5 39.5t89 20.5l98 -97q-38 -1 -65 -8.5t-44 -18.5t-24.5 -25t-7.5 -28q0 -24 20.5 -37.5t50.5 -13.5
q39 -1 77.5 14.5t71.5 43.5t56 67.5t31 87.5h170v-819h-174z" />
    <glyph glyph-name="uni0E5B" unicode="&#xe5b;" horiz-adv-x="1516" 
d="M1473 434q0 -37 -64 -43l-147 -18q-8 -20 -22.5 -38t-33.5 -18q-17 0 -28.5 17t-26.5 43q-8 -34 -25.5 -59t-40.5 -25q-21 0 -35 24.5l-32 55.5q-8 -44 -27 -73.5t-47 -29.5q-14 0 -23 9t-15.5 24.5t-13 36t-15.5 43.5q-20 -75 -43.5 -106t-57.5 -31q-21 0 -35 14.5
t-20 46.5q-5 20 -8.5 38.5t-10.5 35.5q-9 -34 -19 -62.5t-23 -53.5t-28.5 -48t-35.5 -45q-51 -57 -115.5 -90t-130.5 -33q-64 0 -117 26.5t-91.5 75t-59.5 116t-21 149.5q0 78 20.5 144.5t56.5 116t85 77.5t105 28q48 0 90 -20.5t73 -56.5t48.5 -85.5t17.5 -107.5
q0 -46 -11.5 -85t-32 -67t-48 -43.5t-59.5 -15.5q-29 0 -53.5 12t-42.5 32.5t-28 47.5t-10 58q0 30 10.5 57.5t28.5 47.5t41.5 32t50.5 12h7t8 -2q-9 31 -33 51.5t-55 20.5t-57.5 -19.5t-46 -54t-31 -83t-11.5 -105.5q0 -58 13 -104.5t36.5 -79.5t56 -50.5t72.5 -17.5
q47 0 88.5 26.5t75 75t57.5 116t35 148.5q8 57 23.5 75.5t44.5 18.5t56.5 -35t45.5 -100q2 13 3.5 25.5t1.5 28.5q2 34 14 47.5t37 13.5q21 0 47 -25t49 -73q5 26 13.5 43.5t31.5 17.5q26 0 49.5 -24t44.5 -64q8 23 19 40t32 17q14 0 32 -14t38 -43q8 14 20.5 21.5t30.5 5.5
l158 -19q32 -3 48 -13t16 -32zM453 453q0 24 -15 40.5t-35 16.5q-18 0 -31.5 -16.5t-13.5 -40.5q0 -25 13.5 -41.5t31.5 -16.5q20 0 35 16.5t15 41.5z" />
    <glyph glyph-name="endash" unicode="&#x2013;" horiz-adv-x="778" 
d="M61 295v133h656v-133h-656z" />
    <glyph glyph-name="emdash" unicode="&#x2014;" horiz-adv-x="1556" 
d="M61 295v133h1434v-133h-1434z" />
    <glyph glyph-name="quoteleft" unicode="&#x2018;" horiz-adv-x="424" 
d="M358 977q-45 -28 -77.5 -57t-55.5 -64q23 0 44.5 -8.5t37.5 -24.5t25.5 -37.5t9.5 -46.5q0 -24 -9.5 -45.5t-26.5 -38.5t-39.5 -27t-47.5 -10q-63 0 -100 40t-37 106q0 28 10 62.5t32 69.5t58 68.5t88 59.5l88 -47v0z" />
    <glyph glyph-name="quoteright" unicode="&#x2019;" horiz-adv-x="424" 
d="M342 879q0 -29 -10 -63.5t-32 -69.5t-58 -68.5t-88 -59.5l-88 48q45 27 77.5 56t55.5 64q-23 0 -44.5 9t-37.5 24.5t-25.5 37t-9.5 46.5q0 24 9.5 46t26.5 38.5t39 26.5t48 10q63 0 100 -39.5t37 -105.5z" />
    <glyph glyph-name="quotedblleft" unicode="&#x201c;" horiz-adv-x="745" 
d="M680 977q-45 -28 -77.5 -57t-55.5 -64q23 0 44 -8.5t37.5 -24.5t26 -37.5t9.5 -46.5q0 -24 -10 -45.5t-26.5 -38.5t-39 -27t-47.5 -10q-63 0 -100.5 40t-37.5 106q0 28 10 62.5t32.5 69.5t58.5 68.5t88 59.5zM358 977q-45 -28 -77.5 -57t-55.5 -64q23 0 44.5 -8.5
t37.5 -24.5t25.5 -37.5t9.5 -46.5q0 -24 -9.5 -45.5t-26.5 -38.5t-39.5 -27t-47.5 -10q-63 0 -100 40t-37 106q0 28 10 62.5t32 69.5t58 68.5t88 59.5z" />
    <glyph glyph-name="quotedblright" unicode="&#x201d;" horiz-adv-x="745" 
d="M664 879q0 -29 -10 -63.5t-32.5 -69.5t-58.5 -68.5t-88 -59.5l-88 48q45 27 77.5 56t55.5 64q-23 0 -44 9t-37.5 24.5t-26 37t-9.5 46.5q0 24 10 46t26.5 38.5t39 26.5t47.5 10q63 0 100.5 -39.5t37.5 -105.5zM342 879q0 -29 -10 -63.5t-32 -69.5t-58 -68.5t-88 -59.5
l-88 48q45 27 77.5 56t55.5 64q-23 0 -44.5 9t-37.5 24.5t-25.5 37t-9.5 46.5q0 24 9.5 46t26.5 38.5t39 26.5t48 10q63 0 100 -39.5t37 -105.5z" />
    <glyph glyph-name="bullet" unicode="&#x2022;" horiz-adv-x="737" 
d="M676 410q0 -64 -24 -120t-65.5 -98t-97.5 -66t-120 -24t-120 24t-98 66t-66 98t-24 120t24 120t66 97.5t98 65.5t120 24t120 -24t97.5 -65.5t65.5 -97.5t24 -120z" />
    <glyph glyph-name="ellipsis" unicode="&#x2026;" horiz-adv-x="1149" 
d="M1067 94q0 -22 -9 -41.5t-24 -34.5t-35.5 -23.5t-42.5 -8.5t-41.5 8.5t-34.5 23.5t-23.5 34.5t-8.5 41.5t8.5 42t23.5 35t34.5 23.5t41.5 8.5t42.5 -8.5t35.5 -23.5t24 -35t9 -42zM684 94q0 -22 -9 -41.5t-24 -34.5t-35.5 -23.5t-42.5 -8.5t-41.5 8.5t-34.5 23.5
t-23.5 34.5t-8.5 41.5t8.5 42t23.5 35t34.5 23.5t41.5 8.5t42.5 -8.5t35.5 -23.5t24 -35t9 -42zM301 94q0 -22 -9 -41.5t-24 -34.5t-35.5 -23.5t-42.5 -8.5t-41.5 8.5t-34.5 23.5t-23.5 34.5t-8.5 41.5t8.5 42t23.5 35t34.5 23.5t41.5 8.5t42.5 -8.5t35.5 -23.5t24 -35
t9 -42z" />
    <glyph glyph-name="thothannobasethai" unicode="&#xf700;" horiz-adv-x="717" 
d="M676 424q0 -246 -153 -354.5t-451 -67.5v498l-31 92h207v-447q57 0 103.5 15t79.5 48t51 85t18 125q0 81 -35.5 138.5t-99 89.5t-151 37.5t-191.5 -17.5v143q117 23 216.5 19.5t178.5 -31.5l26 53h193l-84 -133q60 -53 91.5 -126.5t31.5 -166.5z" />
    <glyph glyph-name="saraileftthai" unicode="&#xf701;" 
d="M-924 922l62 110h543v-110h-605z" />
    <glyph glyph-name="saraiileftthai" unicode="&#xf702;" 
d="M-924 922l62 110h366v105h177v-215h-605z" />
    <glyph glyph-name="saraueleftthai" unicode="&#xf703;" 
d="M-272 1032q0 -24 -10.5 -44.5t-29 -35t-44 -22.5t-54.5 -8h-514l62 110h315q0 22 10 42.5t28 35.5t43 24t56 9q32 0 57.5 -9t43.5 -24t27.5 -35.5t9.5 -42.5zM-358 1032q0 19 -15 32t-37 13q-20 0 -34.5 -13t-14.5 -32q0 -18 14.5 -31.5t34.5 -13.5q22 0 37 13.5t15 31.5
z" />
    <glyph glyph-name="saraueeleftthai" unicode="&#xf704;" 
d="M-924 922l62 110h190v105h115v-105h61v105h177v-215h-605z" />
    <glyph glyph-name="maieklowleftthai" unicode="&#xf705;" 
d="M-487 922v215h176v-215h-176z" />
    <glyph glyph-name="maitholowleftthai" unicode="&#xf706;" 
d="M-213 922h-389v45q0 24 -10.5 38.5t-42.5 14.5h-50l62 113h115q46 0 74 -21t28 -61v-19h274z" />
    <glyph glyph-name="maitrilowleftthai" unicode="&#xf707;" 
d="M-221 922h-240v96q0 53 -49 53h-8l-74 -53l-76 53q-20 0 -35.5 -12.5t-15.5 -34.5v-12h82v-90h-197v104q0 34 12.5 61t34 46t51 28.5t64.5 9.5h13l69 -47l64 47h18q68 0 114 -35.5t48 -103.5h186z" />
    <glyph glyph-name="maichattawalowleftthai" unicode="&#xf708;" 
d="M-403 1020v-98h-177v98h-104v76h104v98h177v-98h104v-76h-104z" />
    <glyph glyph-name="thanthakhatlowleftthai" unicode="&#xf709;" 
d="M-315 997h-60q-32 0 -49.5 -15.5t-17.5 -43.5v-16h-181v55q0 31 12 55t33 41t50 26t63 9h211z" />
    <glyph glyph-name="maieklowrightthai" unicode="&#xf70a;" 
d="M-238 922v215h177v-215h-177z" />
    <glyph glyph-name="maitholowrightthai" unicode="&#xf70b;" 
d="M16 922h-389v45q0 24 -10.5 38.5t-42.5 14.5h-49l61 113h115q46 0 74 -21t28 -61v-19h275z" />
    <glyph glyph-name="maitrilowrightthai" unicode="&#xf70c;" 
d="M-86 922h-190v96q0 26 -13.5 39.5t-36.5 13.5h-8l-74 -53l-75 53q-20 0 -36 -12.5t-16 -34.5v-12h82v-90h-196v104q0 34 12 61t34 46t51.5 28.5t64.5 9.5h12l69 -47l64 47h18q69 0 114.5 -35.5t47.5 -103.5h137z" />
    <glyph glyph-name="maichattawalowrightthai" unicode="&#xf70d;" 
d="M-166 1020v-98h-176v98h-104v76h104v98h176v-98h105v-76h-105z" />
    <glyph glyph-name="thanthakhatlowrightthai" unicode="&#xf70e;" 
d="M-41 997h-59q-32 0 -50 -15.5t-18 -43.5v-16h-180v55q0 31 12 55t33 41t50 26t63 9h210z" />
    <glyph glyph-name="yoyingnobasethai" unicode="&#xf70f;" horiz-adv-x="1237" 
d="M1176 225q0 -74 -28 -120.5t-72 -72.5t-99 -36t-109 -10q-52 0 -106.5 10t-99 36t-73 72.5t-28.5 120.5v344q0 35 -15.5 59t-39.5 38.5t-54 21t-59 6.5q-56 0 -103.5 -19.5t-70.5 -53.5l90 -46q-23 -11 -37 -26.5t-21.5 -32t-10 -33.5t-2.5 -30v-322h86v-131h-263v449
q0 18 6.5 35t17 30.5t23.5 23.5t25 15l-110 51q18 65 57.5 109t91 71t109.5 38.5t112 11.5q61 0 122 -14t110.5 -45t80.5 -81.5t31 -122.5v-333q0 -34 13 -55.5t32.5 -33.5t42.5 -16t43 -4t43 4t42.5 16t32.5 33.5t13 55.5v581h177v-594v0z" />
    <glyph glyph-name="maihanakatleftthai" unicode="&#xf710;" 
d="M-2 922h-635v190h178v-80h518z" />
    <glyph glyph-name="nikhahitleftthai" unicode="&#xf711;" 
d="M-272 1028q0 -24 -10.5 -44.5t-28.5 -36.5t-43.5 -25t-55.5 -9t-55 9t-43 25t-28.5 36.5t-10.5 44.5t10.5 45t28.5 36.5t43 24.5t55 9t55.5 -9t43.5 -24.5t28.5 -36.5t10.5 -45zM-356 1028q0 17 -14 31t-40 14t-39.5 -14t-13.5 -31t13.5 -31t39.5 -14t40 14t14 31z" />
    <glyph glyph-name="maitaikhuleftthai" unicode="&#xf712;" 
d="M-258 1120h-344q-57 0 -81 -16t-24 -39q0 -14 4 -25t9 -14l170 64l227 -80v-115l-225 84l-209 -74q-23 6 -43 18.5t-36 32t-25 45.5t-9 60q0 31 13 61.5t39 54.5t65 39t92 15h445z" />
    <glyph glyph-name="maiekupperleftthai" unicode="&#xf713;" 
d="M-496 1198v174h177v-174h-177z" />
    <glyph glyph-name="maithoupperleftthai" unicode="&#xf714;" 
d="M-207 1198h-350v41q0 22 -9 34.5t-38 12.5h-45l55 103h105q42 0 67 -19.5t25 -54.5v-19h245z" />
    <glyph glyph-name="maitriupperleftthai" unicode="&#xf715;" 
d="M-131 1198h-170v86q0 49 -45 49h-6l-68 -49l-67 49q-19 0 -33.5 -12t-14.5 -31v-10h74v-82h-176v94q0 31 11.5 55t31 41t46 26t56.5 9h13l61 -43l58 43h16q62 0 102.5 -32.5t42.5 -92.5h123z" />
    <glyph glyph-name="maichattawaupperleftthai" unicode="&#xf716;" 
d="M-328 1276v-78h-159v78h-80v67h80v78h159v-78h80v-67h-80z" />
    <glyph glyph-name="thanthakhatupperleftthai" unicode="&#xf717;" 
d="M-268 1182h-54q-29 0 -45 -14.5t-16 -39.5v-14h-162v49q0 28 11 49.5t30 36.5t45 23t56 8h190z" />
    <glyph glyph-name="saraulowthai" unicode="&#xf718;" 
d="M-238 -614v133h-102l41 123h238v-256h-177z" />
    <glyph glyph-name="sarauulowthai" unicode="&#xf719;" 
d="M-61 -489q0 -72 -57 -109t-156 -37q-103 0 -158 37t-55 109v8h-82l41 123h196v-117q0 -26 15 -33.5t32 -7.5t32 7.5t15 33.5v117h177v-131v0z" />
    <glyph glyph-name="phinthulowthai" unicode="&#xf71a;" 
d="M-61 -473q0 -23 -9.5 -44t-25 -37t-36.5 -25t-44 -9t-44 9t-37 25t-25 37t-9 44t9 44t25 36.5t37 25t44 9.5t44 -9.5t36.5 -25t25 -36.5t9.5 -44z" />
    <glyph glyph-name="minus" unicode="&#xad;" horiz-adv-x="778" 
d="M61 295v133h656v-133h-656z" />
    <glyph glyph-name="uni0E33_1" horiz-adv-x="580" 
d="M342 0v578q0 51 -36 81.5t-118 30.5q-49 0 -95 -11.5t-83 -31.5v146q38 20 88.5 30.5t110.5 10.5q88 0 147.5 -21.5t95.5 -57.5t51 -84t15 -100v-571h-176zM-272 1028q0 -24 -10.5 -44.5t-28.5 -36.5t-43.5 -25t-55.5 -9t-55 9t-43 25t-28.5 36.5t-10.5 44.5t10.5 45
t28.5 36.5t43 24.5t55 9t55.5 -9t43.5 -24.5t28.5 -36.5t10.5 -45zM-356 1028q0 17 -14 31t-40 14t-39.5 -14t-13.5 -31t13.5 -31t39.5 -14t40 14t14 31z" />
    <glyph glyph-name="uni0E4E_1" 
d="M-92 1341q-47 10 -98.5 10t-95 -9t-71.5 -27t-28 -45q0 -15 8 -23.5t21.5 -13t30 -5.5t34.5 1v-96q-32 3 -71.5 -1t-73.5 -14t-57 -26.5t-23 -38.5q0 -17 14.5 -26t37.5 -10t52.5 6.5t59.5 23.5l49 -84q-59 -32 -118 -40t-106 4.5t-76.5 42t-29.5 72.5q0 27 12.5 51
t35 43.5t53 33.5t67.5 22q-22 14 -30.5 37.5t-8.5 42.5q0 44 30.5 80.5t85.5 61t130.5 34t165.5 0.5v-107v0z" />
    <glyph glyph-name="currency" unicode="&#xa4;" horiz-adv-x="840" 
d="M422 729q-96 0 -160 -67q-65 -73 -65 -160q0 -94 63 -164q65 -68 162 -68q92 0 158 68q63 63 63 164q0 46 -16.5 87t-45.5 72t-70 49.5t-89 18.5zM8 164l148 145q-62 83 -62 193q0 114 62 188l-148 150l76 71l145 -145q79 59 193 59q55 0 105.5 -16t82.5 -43l150 145
l71 -71l-145 -150q59 -79 59 -188q0 -114 -59 -193l145 -145l-71 -76l-150 148q-15 -13 -36 -23.5t-47 -20.5q-53 -18 -105 -18q-110 0 -193 62l-145 -148z" />
    <glyph glyph-name="FL00A9h" unicode="&#xa9;" horiz-adv-x="1032" 
d="M1016 487q0 -104 -39 -194.5t-106.5 -158.5t-158.5 -107t-194 -39q-104 0 -195 39t-159.5 107t-108 158.5t-39.5 194.5t39.5 194.5t108 158t159.5 106.5t195 39q103 0 194 -39t158.5 -106.5t106.5 -158t39 -194.5zM942 487q0 88 -33.5 165.5t-91 135t-134.5 90.5t-165 33
q-89 0 -167 -33t-136 -90.5t-91.5 -135t-33.5 -165.5q0 -89 33.5 -166.5t91.5 -135.5t136 -91t167 -33q88 0 165 33t134.5 91t91 135.5t33.5 166.5zM762 248q-42 -40 -102 -65t-130 -25q-68 0 -125.5 24.5t-99 67.5t-65 99.5t-23.5 121.5t24 122t66 99t99.5 66t125.5 24
q122 0 216 -75v-99q-38 47 -91.5 70.5t-126.5 23.5q-48 0 -90 -18.5t-73 -50t-48.5 -73.5t-17.5 -89q0 -46 17.5 -88t48.5 -73.5t72 -50.5t89 -19q45 0 79 8t62 21.5t50 32.5t43 40v-94z" />
    <glyph glyph-name="fongmanfunnuthai" unicode="&#xf880;" 
 />
    <glyph glyph-name="lochula.short" unicode="&#xf71d;" 
 />
    <glyph glyph-name="percent" unicode="%" horiz-adv-x="1444" 
d="M1360 289q0 -59 -13.5 -114.5t-43.5 -98.5t-77.5 -69.5t-115.5 -26.5q-71 0 -121.5 25.5t-82 68.5t-46 97.5t-14.5 113.5q0 55 15.5 108t46.5 94.5t78 67t110 25.5q69 0 119 -24.5t82 -65t47.5 -93t15.5 -108.5zM551 -2h-170l512 973h170zM596 696q0 -58 -13.5 -113.5
t-43.5 -99t-77.5 -70t-115.5 -26.5q-71 0 -121.5 25.5t-82 68t-46 97.5t-14.5 114q0 55 15.5 108t46.5 94.5t78 67t110 25.5q69 0 119 -24.5t82 -65t47.5 -93t15.5 -108.5zM1190 287q0 25 -3.5 52t-13.5 49t-28 36t-47 14q-26 0 -42 -14t-25 -35.5t-12 -48.5t-3 -53
q0 -28 3 -57.5t12 -54t26 -40.5t45 -16t45 16t26.5 40.5t13 54t3.5 57.5zM426 694q0 26 -3.5 53t-13.5 49t-28 36t-47 14q-26 0 -42 -13.5t-25 -35.5t-12 -49t-3 -54t3 -57t12 -54.5t26 -40.5t45 -16t45 16t26.5 40.5t13 54.5t3.5 57z" />
    <glyph glyph-name="zerowidthnonjoiner" unicode="&#x200c;" 
 />
    <glyph glyph-name="zerowidthjoiner" unicode="&#x200d;" 
 />
    <glyph glyph-name="F881" 
 />
    <glyph glyph-name="F882" 
 />
    <glyph glyph-name="saraueesp2" 
d="M-584 1198v174h176v-174h-176zM-924 922l62 110h190v105h115v-105h61v105h177v-215h-605z" />
    <glyph glyph-name="saraisp" 
d="M-874 969l61 110h604v-110h-665z" />
    <glyph glyph-name="saraiisp" 
d="M-874 969l61 110h428v105h176v-215h-665z" />
    <glyph glyph-name="F71C" unicode="&#xf71c;" 
 />
    <glyph glyph-name="F71B" unicode="&#xf71b;" 
 />
    <glyph glyph-name="numbersign" unicode="#" horiz-adv-x="1014" 
d="M721 569l-43 -172h182v-139h-217l-63 -258h-144l64 258h-103l-65 -258h-144l66 258h-176v139h211l43 172h-182v142h219l63 258h143l-65 -258h104l64 258h143l-63 -258h176v-142h-213zM475 569l-43 -172h105l43 172h-105z" />
    <glyph glyph-name="dollar" unicode="$" horiz-adv-x="885" 
d="M836 274q0 -60 -25.5 -108.5t-69 -85t-100 -60t-117.5 -32.5v-150h-116v144q-101 5 -191.5 26.5t-155.5 57.5v208q94 -71 186.5 -101t194.5 -30q38 0 74.5 8t65 24.5t46 42t17.5 61.5q0 32 -19 52t-49 32.5t-68 20l-77 15.5q-68 13 -133 29.5t-116.5 47.5t-83 82
t-31.5 134q0 64 28.5 115.5t76 88.5t108.5 59t127 28v147h116v-147q75 -6 141 -24t132 -50v-200q-72 62 -160.5 87t-179.5 25q-34 0 -69 -6t-63.5 -20t-46.5 -37t-18 -58q0 -33 17 -54t43.5 -34t59 -20t64.5 -12q75 -13 146 -30t125.5 -49.5t87.5 -86.5t33 -140z" />
    </font>
</defs>
</svg>
